M48
; DRILL file {KiCad (5.1.5-0-10_14)} date Monday, November 09, 2020 at 07:07:29 PM
; FORMAT={-:-/ absolute / inch / decimal}
; #@! TF.CreationDate,2020-11-09T19:07:29-05:00
; #@! TF.GenerationSoftware,Kicad,Pcbnew,(5.1.5-0-10_14)
; #@! TF.FileFunction,Plated,1,2,PTH
FMAT,2
INCH
T1C0.0157
T2C0.0374
T3C0.0394
T4C0.0400
T5C0.0512
%
G90
G05
T1
X-2.9354Y-2.2718
X-2.465Y-3.2706
X-2.2844Y2.0316
X-2.2328Y-3.2347
X-2.1636Y2.241
X-2.0864Y0.5663
X-1.8833Y-0.1099
X-1.8634Y-3.6446
X-1.8307Y-2.4108
X-1.803Y-2.6937
X-1.7323Y0.1897
X-1.7016Y-3.6439
X-1.6768Y0.0413
X-1.5683Y-3.8098
X-1.436Y-3.2261
X-1.2833Y-3.4846
X-1.2206Y-4.5083
X-1.169Y-3.359
X-1.1107Y-4.0154
X-1.0868Y-4.286
X-0.8518Y-4.2344
X-0.7398Y-3.7388
X-0.6759Y-2.7491
X-0.5698Y-2.0146
X-0.3878Y-2.8021
X-0.359Y-2.7653
X0.2025Y-2.612
X1.838Y-3.3929
X1.9181Y-2.3343
X2.0116Y-1.6815
X2.0928Y-2.502
T2
X2.2323Y-1.3957
X2.3307Y-1.3957
X2.4291Y-1.3957
X2.2165Y-2.5906
X2.315Y-2.5906
X2.4134Y-2.5906
T3
X4.1573Y-0.4545
X4.2065Y-0.3692
X3.5777Y-1.4612
X3.6269Y-1.3759
X-3.643Y-1.3664
X-3.5938Y-1.4516
X-0.63Y3.932
X-0.5316Y3.932
X-3.0577Y-2.3725
X-3.0085Y-2.4577
X1.694Y3.932
X1.7924Y3.932
X-1.792Y3.932
X-1.6936Y3.932
X2.4184Y-3.4746
X2.4676Y-3.3893
X-2.4723Y-3.3786
X-2.4231Y-3.4639
X-4.2284Y-0.3602
X-4.1792Y-0.4455
X2.998Y-2.4679
X3.0472Y-2.3826
X0.532Y3.932
X0.6304Y3.932
T4
X-0.3268Y-1.6134
X-0.3268Y-1.7134
X-0.3268Y-2.0134
X-0.3268Y-2.1134
X-0.3268Y-2.2134
X-0.3268Y-2.3134
X-0.3268Y-2.4134
X-0.3268Y-2.5134
X-0.3268Y-2.6134
X-0.3268Y-2.7134
X-0.3268Y-2.9134
X-0.3268Y-3.0134
X-0.3268Y-3.1134
X-0.3268Y-3.2134
X-0.3268Y-3.3134
X-0.3268Y-3.4134
X-0.3268Y-3.5134
X-0.3268Y-3.6134
X-0.3268Y-3.7734
X-0.3268Y-3.8734
X-0.3268Y-3.9734
X-0.3268Y-4.0734
X-0.3268Y-4.1734
X-0.3268Y-4.2734
X-0.3268Y-4.3734
X-0.3268Y-4.4734
X-0.3268Y-4.5734
X-0.3268Y-4.6734
X-0.2268Y-1.6134
X-0.2268Y-1.7134
X-0.1268Y-1.6134
X-0.1268Y-1.7134
X-0.0268Y-1.6134
X-0.0268Y-1.7134
X0.0732Y-1.6134
X0.0732Y-1.7134
X0.1732Y-1.6134
X0.1732Y-1.7134
X0.2732Y-1.6134
X0.2732Y-1.7134
X0.3732Y-1.6134
X0.3732Y-1.7134
X0.4732Y-1.6134
X0.4732Y-1.7134
X0.4732Y-2.8084
X0.4732Y-2.9084
X0.5732Y-1.6134
X0.5732Y-1.7134
X0.5732Y-2.8084
X0.5732Y-2.9084
X0.6732Y-1.6134
X0.6732Y-1.7134
X0.6732Y-2.8084
X0.6732Y-2.9084
X0.7732Y-1.6134
X0.7732Y-1.7134
X0.8732Y-1.6134
X0.8732Y-1.7134
X0.9732Y-1.6134
X0.9732Y-1.7134
X1.0732Y-1.6134
X1.0732Y-1.7134
X1.1732Y-1.6134
X1.1732Y-1.7134
X1.2732Y-1.6134
X1.2732Y-1.7134
X1.3732Y-1.6134
X1.3732Y-1.7134
X1.5732Y-1.8134
X1.5732Y-1.9134
X1.5732Y-2.0134
X1.5732Y-2.1134
X1.5732Y-2.2134
X1.5732Y-2.3134
X1.5732Y-2.4134
X1.5732Y-2.5134
X1.5732Y-2.7134
X1.5732Y-2.8134
X1.5732Y-2.9134
X1.5732Y-3.0134
X1.5732Y-3.1134
X1.5732Y-3.2134
X1.5732Y-3.3134
X1.5732Y-3.4134
X1.5732Y-3.6134
X1.5732Y-3.7134
X1.5732Y-3.8134
X1.5732Y-3.9134
X1.5732Y-4.0134
X1.5732Y-4.1134
X1.5732Y-4.2134
X1.5732Y-4.3134
T5
X-1.752Y-5.0433
X-1.6535Y-4.9449
X-1.5551Y-5.437
X-1.4567Y-5.0433
X-1.3583Y-5.437
X-1.2598Y-4.9449
X-1.1614Y-5.0433
X-0.9016Y-5.0433
X-0.8031Y-4.9449
X-0.7047Y-5.437
X-0.6063Y-5.0433
X-0.5079Y-5.437
X-0.4094Y-4.9449
X-0.311Y-5.0433
T3
G00X4.4837Y0.0945
M15
G01X4.4837Y0.0157
M16
G05
G00X4.8066Y0.0945
M15
G01X4.8066Y0.0157
M16
G05
G00X0.9999Y4.1173
M15
G01X0.9999Y4.0386
M16
G05
G00X1.3227Y4.1173
M15
G01X1.3227Y4.0386
M16
G05
G00X-1.3227Y-1.9169
M15
G01X-1.3227Y-1.9957
M16
G05
G00X-0.9999Y-1.9169
M15
G01X-0.9999Y-1.9957
M16
G05
G00X3.9031Y1.1002
M15
G01X3.9031Y1.0215
M16
G05
G00X4.2259Y1.1002
M15
G01X4.2259Y1.0215
M16
G05
G00X-0.1614Y4.1173
M15
G01X-0.1614Y4.0386
M16
G05
G00X0.1614Y4.1173
M15
G01X0.1614Y4.0386
M16
G05
G00X-2.484Y-1.9169
M15
G01X-2.484Y-1.9957
M16
G05
G00X-2.1612Y-1.9169
M15
G01X-2.1612Y-1.9957
M16
G05
G00X2.7418Y1.1002
M15
G01X2.7418Y1.0215
M16
G05
G00X3.0646Y1.1002
M15
G01X3.0646Y1.0215
M16
G05
G00X-2.484Y0.0945
M15
G01X-2.484Y0.0157
M16
G05
G00X-2.1612Y0.0945
M15
G01X-2.1612Y0.0157
M16
G05
G00X-1.3227Y4.1173
M15
G01X-1.3227Y4.0386
M16
G05
G00X-0.9999Y4.1173
M15
G01X-0.9999Y4.0386
M16
G05
G00X-3.6453Y-1.9169
M15
G01X-3.6453Y-1.9957
M16
G05
G00X-3.3225Y-1.9169
M15
G01X-3.3225Y-1.9957
M16
G05
G00X1.5805Y3.1116
M15
G01X1.5805Y3.0329
M16
G05
G00X1.9034Y3.1116
M15
G01X1.9034Y3.0329
M16
G05
G00X0.9999Y2.1059
M15
G01X0.9999Y2.0272
M16
G05
G00X1.3227Y2.1059
M15
G01X1.3227Y2.0272
M16
G05
G00X2.7418Y-2.9226
M15
G01X2.7418Y-3.0014
M16
G05
G00X3.0646Y-2.9226
M15
G01X3.0646Y-3.0014
M16
G05
G00X-2.484Y4.1173
M15
G01X-2.484Y4.0386
M16
G05
G00X-2.1612Y4.1173
M15
G01X-2.1612Y4.0386
M16
G05
G00X3.9031Y-0.9112
M15
G01X3.9031Y-0.99
M16
G05
G00X4.2259Y-0.9112
M15
G01X4.2259Y-0.99
M16
G05
G00X0.4192Y3.1116
M15
G01X0.4192Y3.0329
M16
G05
G00X0.7421Y3.1116
M15
G01X0.7421Y3.0329
M16
G05
G00X-0.1614Y2.1059
M15
G01X-0.1614Y2.0272
M16
G05
G00X0.1614Y2.1059
M15
G01X0.1614Y2.0272
M16
G05
G00X0.4192Y-3.1116
M15
G01X0.4192Y-3.0329
M16
G05
G00X0.7421Y-3.1116
M15
G01X0.7421Y-3.0329
M16
G05
G00X0.4192Y-0.9112
M15
G01X0.4192Y-0.99
M16
G05
G00X0.7421Y-0.9112
M15
G01X0.7421Y-0.99
M16
G05
G00X-3.6453Y0.0945
M15
G01X-3.6453Y0.0157
M16
G05
G00X-3.3225Y0.0945
M15
G01X-3.3225Y0.0157
M16
G05
G00X-1.3227Y2.1059
M15
G01X-1.3227Y2.0272
M16
G05
G00X-0.9999Y2.1059
M15
G01X-0.9999Y2.0272
M16
G05
G00X1.5805Y1.1002
M15
G01X1.5805Y1.0215
M16
G05
G00X1.9034Y1.1002
M15
G01X1.9034Y1.0215
M16
G05
G00X-0.1614Y-2.1059
M15
G01X-0.1614Y-2.0272
M16
G05
G00X0.1614Y-2.1059
M15
G01X0.1614Y-2.0272
M16
G05
G00X-1.9034Y1.1002
M15
G01X-1.9034Y1.0215
M16
G05
G00X-1.5805Y1.1002
M15
G01X-1.5805Y1.0215
M16
G05
G00X0.4192Y1.1002
M15
G01X0.4192Y1.0215
M16
G05
G00X0.7421Y1.1002
M15
G01X0.7421Y1.0215
M16
G05
G00X-3.0646Y-2.9226
M15
G01X-3.0646Y-3.0014
M16
G05
G00X-2.7418Y-2.9226
M15
G01X-2.7418Y-3.0014
M16
G05
G00X-0.7421Y-0.9112
M15
G01X-0.7421Y-0.99
M16
G05
G00X-0.4192Y-0.9112
M15
G01X-0.4192Y-0.99
M16
G05
G00X-1.3227Y0.0945
M15
G01X-1.3227Y0.0157
M16
G05
G00X-0.9999Y0.0945
M15
G01X-0.9999Y0.0157
M16
G05
G00X2.7418Y-0.9112
M15
G01X2.7418Y-0.99
M16
G05
G00X3.0646Y-0.9112
M15
G01X3.0646Y-0.99
M16
G05
G00X-0.7421Y3.1116
M15
G01X-0.7421Y3.0329
M16
G05
G00X-0.4192Y3.1116
M15
G01X-0.4192Y3.0329
M16
G05
G00X1.5805Y-0.9112
M15
G01X1.5805Y-0.99
M16
G05
G00X1.9034Y-0.9112
M15
G01X1.9034Y-0.99
M16
G05
G00X-2.484Y-3.9283
M15
G01X-2.484Y-4.0071
M16
G05
G00X-2.1612Y-3.9283
M15
G01X-2.1612Y-4.0071
M16
G05
G00X-1.9034Y-2.9226
M15
G01X-1.9034Y-3.0014
M16
G05
G00X-1.5805Y-2.9226
M15
G01X-1.5805Y-3.0014
M16
G05
G00X-1.9034Y-0.9112
M15
G01X-1.9034Y-0.99
M16
G05
G00X-1.5805Y-0.9112
M15
G01X-1.5805Y-0.99
M16
G05
G00X0.9999Y-2.1059
M15
G01X0.9999Y-2.0272
M16
G05
G00X1.3227Y-2.1059
M15
G01X1.3227Y-2.0272
M16
G05
G00X-2.484Y2.1059
M15
G01X-2.484Y2.0272
M16
G05
G00X-2.1612Y2.1059
M15
G01X-2.1612Y2.0272
M16
G05
G00X1.8364Y-2.8557
M15
G01X1.7577Y-2.8557
M16
G05
G00X1.8364Y-3.1785
M15
G01X1.7577Y-3.1785
M16
G05
G00X-3.0646Y-0.9112
M15
G01X-3.0646Y-0.99
M16
G05
G00X-2.7418Y-0.9112
M15
G01X-2.7418Y-0.99
M16
G05
G00X-3.6453Y2.1059
M15
G01X-3.6453Y2.0272
M16
G05
G00X-3.3225Y2.1059
M15
G01X-3.3225Y2.0272
M16
G05
G00X3.3225Y-1.9169
M15
G01X3.3225Y-1.9957
M16
G05
G00X3.6453Y-1.9169
M15
G01X3.6453Y-1.9957
M16
G05
G00X-0.7421Y1.1002
M15
G01X-0.7421Y1.0215
M16
G05
G00X-0.4192Y1.1002
M15
G01X-0.4192Y1.0215
M16
G05
G00X-0.6751Y-2.8557
M15
G01X-0.5964Y-2.8557
M16
G05
G00X-0.6751Y-3.1785
M15
G01X-0.5964Y-3.1785
M16
G05
G00X-3.0646Y1.1002
M15
G01X-3.0646Y1.0215
M16
G05
G00X-2.7418Y1.1002
M15
G01X-2.7418Y1.0215
M16
G05
G00X2.1612Y-3.9283
M15
G01X2.1612Y-4.0071
M16
G05
G00X2.484Y-3.9283
M15
G01X2.484Y-4.0071
M16
G05
G00X0.9999Y0.0945
M15
G01X0.9999Y0.0157
M16
G05
G00X1.3227Y0.0945
M15
G01X1.3227Y0.0157
M16
G05
G00X2.7418Y3.1116
M15
G01X2.7418Y3.0329
M16
G05
G00X3.0646Y3.1116
M15
G01X3.0646Y3.0329
M16
G05
G00X-0.1614Y0.0945
M15
G01X-0.1614Y0.0157
M16
G05
G00X0.1614Y0.0945
M15
G01X0.1614Y0.0157
M16
G05
G00X2.1612Y-1.9169
M15
G01X2.1612Y-1.9957
M16
G05
G00X2.484Y-1.9169
M15
G01X2.484Y-1.9957
M16
G05
G00X0.0945Y-3.8614
M15
G01X0.0157Y-3.8614
M16
G05
G00X0.0945Y-4.1843
M15
G01X0.0157Y-4.1843
M16
G05
G00X-1.9034Y3.1116
M15
G01X-1.9034Y3.0329
M16
G05
G00X-1.5805Y3.1116
M15
G01X-1.5805Y3.0329
M16
G05
G00X-4.2259Y1.1002
M15
G01X-4.2259Y1.0215
M16
G05
G00X-3.9031Y1.1002
M15
G01X-3.9031Y1.0215
M16
G05
G00X-4.8066Y0.0945
M15
G01X-4.8066Y0.0157
M16
G05
G00X-4.4837Y0.0945
M15
G01X-4.4837Y0.0157
M16
G05
G00X-1.3227Y-3.9283
M15
G01X-1.3227Y-4.0071
M16
G05
G00X-0.9999Y-3.9283
M15
G01X-0.9999Y-4.0071
M16
G05
G00X1.0668Y-3.8614
M15
G01X1.1455Y-3.8614
M16
G05
G00X1.0668Y-4.1843
M15
G01X1.1455Y-4.1843
M16
G05
G00X-3.0646Y3.1116
M15
G01X-3.0646Y3.0329
M16
G05
G00X-2.7418Y3.1116
M15
G01X-2.7418Y3.0329
M16
G05
G00X3.3225Y2.1059
M15
G01X3.3225Y2.0272
M16
G05
G00X3.6453Y2.1059
M15
G01X3.6453Y2.0272
M16
G05
G00X3.3225Y0.0945
M15
G01X3.3225Y0.0157
M16
G05
G00X3.6453Y0.0945
M15
G01X3.6453Y0.0157
M16
G05
G00X2.1612Y0.0945
M15
G01X2.1612Y0.0157
M16
G05
G00X2.484Y0.0945
M15
G01X2.484Y0.0157
M16
G05
G00X-4.2259Y-0.9112
M15
G01X-4.2259Y-0.99
M16
G05
G00X-3.9031Y-0.9112
M15
G01X-3.9031Y-0.99
M16
G05
G00X2.1612Y4.1173
M15
G01X2.1612Y4.0386
M16
G05
G00X2.484Y4.1173
M15
G01X2.484Y4.0386
M16
G05
G00X2.1612Y2.1059
M15
G01X2.1612Y2.0272
M16
G05
G00X2.484Y2.1059
M15
G01X2.484Y2.0272
M16
G05
T0
M30
