M48
; DRILL file {KiCad (5.1.5)-3} date 2/21/2021 8:16:04 AM
; FORMAT={-:-/ absolute / inch / decimal}
; #@! TF.CreationDate,2021-02-21T08:16:04-05:00
; #@! TF.GenerationSoftware,Kicad,Pcbnew,(5.1.5)-3
FMAT,2
INCH
T1C0.0120
T2C0.0157
T3C0.0362
T4C0.0394
T5C0.0512
T6C0.0906
T7C0.0945
%
G90
G05
T1
X-5.001Y-0.0781
X-4.9538Y0.1581
X-4.8751Y-0.3144
X-4.8199Y0.3943
X-4.7333Y-0.5506
X-4.6917Y-0.2368
X-4.6782Y0.6305
X-4.5995Y-0.7868
X-4.5992Y-0.3628
X-4.5758Y-0.4797
X-4.5444Y0.8668
X-4.4988Y-0.2368
X-4.4656Y-1.023
X-4.4105Y1.103
X-4.4105Y0.4731
X-4.3711Y0.6433
X-4.3318Y-0.4797
X-4.3239Y-1.2592
X-4.2688Y1.3392
X-4.2113Y0.6427
X-4.2113Y-1.3687
X-4.19Y-1.4955
X-4.1743Y0.4731
X-4.1349Y1.5754
X-4.1111Y0.7689
X-4.1111Y-1.2425
X-4.0955Y0.2447
X-4.0955Y0.0006
X-4.0955Y-0.4718
X-4.0562Y-1.7317
X-4.0186Y0.6429
X-4.0186Y-1.3685
X-4.001Y1.8116
X-3.9381Y0.4731
X-3.9182Y0.7689
X-3.9182Y-1.2425
X-3.9144Y-1.9679
X-3.8593Y2.0479
X-3.8593Y-0.4718
X-3.7806Y1.4967
X-3.7806Y-2.2041
X-3.7176Y2.2841
X-3.7018Y0.4731
X-3.6467Y-2.4403
X-3.6308Y1.6486
X-3.6306Y-0.363
X-3.6306Y-2.3744
X-3.6231Y-0.4718
X-3.6231Y-1.5742
X-3.5877Y1.3786
X-3.5837Y2.5203
X-3.5444Y1.4967
X-3.5304Y1.7746
X-3.5304Y-0.2368
X-3.5304Y-2.2482
X-3.505Y-2.6766
X-3.4656Y0.9455
X-3.4656Y0.4731
X-3.4656Y-0.7081
X-3.4656Y-0.9443
X-3.4577Y1.1817
X-3.4499Y2.7565
X-3.4379Y1.6486
X-3.4379Y-0.3628
X-3.4379Y-2.3742
X-3.3869Y0.7093
X-3.3869Y-0.4718
X-3.3869Y-1.5742
X-3.3829Y1.3786
X-3.3632Y-2.9128
X-3.3375Y1.7746
X-3.3375Y-0.2368
X-3.3375Y-2.2482
X-3.3081Y2.9927
X-3.3081Y1.4967
X-3.3003Y-2.6766
X-3.2294Y0.4731
X-3.2294Y-3.149
X-3.1743Y3.229
X-3.1506Y2.5203
X-3.1506Y-1.5742
X-3.1428Y-0.4718
X-3.1034Y-3.3852
X-3.0719Y1.4967
X-3.0719Y-2.6766
X-3.0502Y2.6544
X-3.05Y0.6427
X-3.05Y-1.3687
X-3.05Y-3.3801
X-3.0404Y3.4652
X-2.9932Y0.4731
X-2.9617Y-3.6214
X-2.9498Y2.7803
X-2.9498Y0.7689
X-2.9498Y-1.2425
X-2.9498Y-3.2539
X-2.9144Y2.5203
X-2.9144Y2.2841
X-2.9144Y2.0479
X-2.9144Y1.8116
X-2.9144Y1.5754
X-2.9144Y0.2368
X-2.9144Y0.0006
X-2.9144Y-0.4718
X-2.9144Y-1.9679
X-2.9066Y3.7014
X-2.8573Y2.6544
X-2.8573Y0.6429
X-2.8573Y-1.3685
X-2.8573Y-3.3799
X-2.8357Y3.5439
X-2.8357Y-2.6766
X-2.8298Y-1.0899
X-2.8278Y-3.8577
X-2.8042Y1.8274
X-2.7727Y3.9376
X-2.7569Y0.4731
X-2.7569Y-0.2356
X-2.7569Y2.7803
X-2.7569Y0.7689
X-2.7569Y-3.2539
X-2.7255Y-1.3065
X-2.7255Y-1.3872
X-2.6955Y-1.5795
X-2.694Y-4.0939
X-2.6782Y1.4967
X-2.6703Y2.5203
X-2.6675Y-1.7435
X-2.6675Y-1.8375
X-2.6675Y-2.1095
X-2.631Y4.1738
X-2.6275Y-2.1535
X-2.6073Y-1.5269
X-2.6073Y-1.5722
X-2.6034Y-0.4325
X-2.5995Y3.5439
X-2.5995Y-2.6766
X-2.5995Y-3.5427
X-2.5955Y-0.5584
X-2.5955Y-0.6962
X-2.5739Y-1.1726
X-2.5601Y-4.3301
X-2.5455Y-1.7435
X-2.5275Y-1.8235
X-2.5255Y-1.6715
X-2.5207Y0.4731
X-2.501Y-1.4187
X-2.4971Y4.3786
X-2.4951Y-1.4699
X-2.4833Y-1.6647
X-2.4735Y-1.6155
X-2.4715Y-1.399
X-2.4695Y3.6601
X-2.4695Y1.6486
X-2.4693Y-0.363
X-2.4693Y-2.3744
X-2.4693Y-4.3858
X-2.4499Y-1.3754
X-2.4459Y-1.1352
X-2.442Y2.5203
X-2.442Y1.4967
X-2.442Y-0.4718
X-2.442Y-2.9128
X-2.4223Y-2.0978
X-2.4184Y-4.5663
X-2.4087Y-1.4402
X-2.3955Y-2.0675
X-2.3947Y-1.836
X-2.3928Y1.3205
X-2.3908Y1.4268
X-2.3877Y-2.6086
X-2.3869Y-2.714
X-2.3692Y3.786
X-2.3692Y1.7746
X-2.3692Y-0.2368
X-2.3692Y-2.2482
X-2.3692Y-4.2596
X-2.3652Y-1.3144
X-2.3632Y3.5439
X-2.3632Y3.2998
X-2.3632Y3.0715
X-2.3377Y-1.7435
X-2.3345Y-1.2709
X-2.3318Y-0.9758
X-2.3081Y-1.7159
X-2.2945Y-0.6764
X-2.2944Y-0.8832
X-2.2876Y-1.2831
X-2.2845Y2.8353
X-2.2845Y1.103
X-2.2845Y0.4731
X-2.2845Y-3.0703
X-2.2845Y-3.6214
X-2.2845Y-4.8025
X-2.2796Y1.4268
X-2.2796Y1.3195
X-2.2766Y3.6601
X-2.2766Y1.6486
X-2.2766Y-0.3628
X-2.2766Y-2.3742
X-2.2766Y-4.3856
X-2.2764Y-2.6086
X-2.2764Y-2.7159
X-2.2609Y-0.9718
X-2.2609Y-1.1116
X-2.2514Y-1.2636
X-2.2097Y-1.1195
X-2.2058Y4.3786
X-2.2058Y2.5203
X-2.2058Y1.4967
X-2.2058Y0.8746
X-2.2058Y0.3077
X-2.2058Y-0.4718
X-2.2038Y-0.9718
X-2.1881Y-1.5821
X-2.1821Y-2.9049
X-2.1821Y-2.9699
X-2.1762Y3.786
X-2.1762Y1.7746
X-2.1762Y-0.2368
X-2.1762Y-2.2482
X-2.1762Y-4.2596
X-2.1684Y0.3353
X-2.1506Y-2.8163
X-2.1506Y-5.0388
X-2.1487Y-3.5289
X-2.1349Y-1.1116
X-2.127Y3.5439
X-2.127Y-4.6451
X-2.0955Y-0.9364
X-2.084Y-1.5587
X-2.0699Y-1.2395
X-2.0483Y0.4731
X-2.0463Y-0.8163
X-2.0247Y-2.7789
X-2.0129Y-1.5466
X-2.001Y-5.275
X-1.9935Y-2.2175
X-1.9695Y4.3786
X-1.9695Y1.4967
X-1.9695Y-0.4718
X-1.9555Y-2.4415
X-1.954Y-1.5013
X-1.944Y-3.5289
X-1.8915Y-2.5095
X-1.8908Y3.5439
X-1.8908Y2.5203
X-1.8889Y2.6544
X-1.8887Y0.6427
X-1.8887Y-3.3801
X-1.8672Y-5.5112
X-1.8357Y2.4219
X-1.8357Y-1.6136
X-1.8357Y-1.7612
X-1.8155Y-2.5855
X-1.8121Y0.4731
X-1.8121Y-0.1569
X-1.8022Y-1.4994
X-1.7885Y2.7803
X-1.7885Y0.7689
X-1.7885Y-1.2425
X-1.7885Y-3.2539
X-1.7715Y-2.4455
X-1.7629Y-4.6628
X-1.7412Y4.3786
X-1.7333Y2.0479
X-1.7333Y1.8116
X-1.7333Y1.4967
X-1.7333Y0.2368
X-1.7333Y0.0006
X-1.7333Y-0.4718
X-1.7333Y-1.8892
X-1.7333Y-2.1254
X-1.696Y2.6544
X-1.696Y0.6429
X-1.696Y-1.3685
X-1.696Y-3.3799
X-1.6546Y3.5439
X-1.6546Y2.5203
X-1.6546Y-3.5427
X-1.6546Y-3.7868
X-1.6546Y-4.0939
X-1.6535Y-2.5695
X-1.6487Y-4.5092
X-1.631Y2.4219
X-1.631Y-1.6136
X-1.5956Y2.7803
X-1.5956Y0.7689
X-1.5956Y-1.2425
X-1.5956Y-3.2539
X-1.5758Y0.4731
X-1.566Y-1.6136
X-1.566Y-1.7612
X-1.5621Y-2.6411
X-1.5345Y-1.6136
X-1.5345Y-1.7612
X-1.5306Y-2.6136
X-1.5069Y-2.588
X-1.5069Y-2.6962
X-1.4971Y4.3786
X-1.4971Y-0.4718
X-1.4615Y-1.838
X-1.4597Y-2.6608
X-1.4302Y-2.7277
X-1.4262Y2.5203
X-1.4105Y3.5439
X-1.4105Y-3.5427
X-1.4026Y-4.5978
X-1.3396Y0.4731
X-1.3396Y-2.6766
X-1.3083Y3.6601
X-1.3083Y1.6486
X-1.308Y-0.363
X-1.308Y-2.3744
X-1.308Y-4.3858
X-1.2904Y-3.1254
X-1.2881Y-1.1724
X-1.2668Y-3.1549
X-1.2609Y4.3786
X-1.2609Y-0.4718
X-1.2609Y-0.7081
X-1.2136Y2.5203
X-1.2079Y3.786
X-1.2079Y1.7746
X-1.2079Y-0.2368
X-1.2079Y-2.2482
X-1.2079Y-4.2596
X-1.1881Y-4.8084
X-1.1821Y3.5439
X-1.1821Y3.2998
X-1.1821Y3.0715
X-1.1821Y2.8353
X-1.1821Y1.4967
X-1.1821Y0.8668
X-1.1821Y-0.9443
X-1.1821Y-3.5427
X-1.1821Y-5.5112
X-1.1605Y-1.4797
X-1.1506Y-1.3065
X-1.1487Y-2.9856
X-1.1231Y-3.0112
X-1.1155Y-4.2335
X-1.1153Y3.6601
X-1.1153Y1.6486
X-1.1153Y-0.3628
X-1.1153Y-2.3742
X-1.1153Y-4.3856
X-1.0955Y0.4731
X-1.0818Y-1.1195
X-1.0818Y-1.1706
X-1.0247Y4.3786
X-1.0247Y-2.6766
X-1.0247Y-4.5663
X-1.0247Y-4.8025
X-1.0247Y-5.0388
X-1.0247Y-5.275
X-1.0235Y-3.4095
X-1.0168Y1.0144
X-1.0168Y-0.4718
X-1.0149Y3.786
X-1.0149Y1.7746
X-1.0149Y-0.2368
X-1.0149Y-2.2482
X-1.0149Y-4.2596
X-1.0075Y-4.3195
X-0.9873Y0.9888
X-0.9459Y3.5439
X-0.9459Y2.5203
X-0.9459Y1.4967
X-0.9459Y-3.5427
X-0.9459Y-5.5112
X-0.9375Y-4.2255
X-0.9255Y-3.7515
X-0.9026Y0.8097
X-0.8944Y-4.5683
X-0.8944Y-4.8045
X-0.8944Y-5.0408
X-0.8944Y-5.277
X-0.8935Y-3.4095
X-0.8915Y-3.7276
X-0.8915Y-3.7711
X-0.8815Y-3.5435
X-0.877Y-1.1667
X-0.877Y-3.6706
X-0.875Y-3.6006
X-0.8655Y-3.8035
X-0.8475Y-3.7115
X-0.8436Y-1.214
X-0.8235Y-3.4855
X-0.7965Y-1.2079
X-0.7884Y4.3786
X-0.7884Y-0.4718
X-0.7668Y-4.0053
X-0.7668Y-3.9462
X-0.7569Y-1.6844
X-0.7455Y-4.2595
X-0.7314Y-3.8006
X-0.7276Y2.6544
X-0.7274Y0.6427
X-0.7274Y-1.3687
X-0.7274Y-3.3801
X-0.7215Y-1.6234
X-0.7135Y-4.2395
X-0.7101Y-3.702
X-0.7097Y3.5439
X-0.7097Y2.5203
X-0.7097Y1.4967
X-0.7097Y-5.5112
X-0.7075Y-4.0975
X-0.7038Y-2.5289
X-0.7038Y-2.5683
X-0.7018Y-0.5447
X-0.694Y-1.8458
X-0.6802Y-1.6667
X-0.6802Y-1.714
X-0.6802Y-3.6762
X-0.6575Y-3.9039
X-0.6546Y-3.6293
X-0.6467Y-1.0958
X-0.631Y-2.6766
X-0.6272Y2.7803
X-0.6272Y0.7689
X-0.6272Y-1.2425
X-0.621Y-3.9975
X-0.6113Y-3.2539
X-0.6078Y-3.6404
X-0.5958Y-3.9334
X-0.5877Y-0.6431
X-0.5798Y-3.6234
X-0.5562Y-5.0565
X-0.5522Y4.3786
X-0.5522Y2.2841
X-0.5522Y2.0479
X-0.5483Y-0.771
X-0.5463Y-1.2356
X-0.5444Y-5.3025
X-0.5424Y-3.4836
X-0.5347Y2.6544
X-0.5347Y0.6429
X-0.5347Y-1.3685
X-0.5347Y-3.3799
X-0.5247Y-0.1549
X-0.5247Y-1.6529
X-0.5226Y-0.5958
X-0.4873Y-1.8518
X-0.4843Y-0.6337
X-0.4814Y-1.9994
X-0.4794Y-2.3262
X-0.4757Y-3.4617
X-0.4735Y3.5439
X-0.4735Y2.5203
X-0.4735Y1.4888
X-0.4735Y-5.5112
X-0.4713Y-3.9
X-0.4656Y-2.3596
X-0.4656Y-4.5447
X-0.4656Y-4.647
X-0.4558Y-3.6552
X-0.4519Y-1.3002
X-0.4343Y2.7803
X-0.4343Y0.7689
X-0.4343Y-3.2539
X-0.4243Y-1.7907
X-0.4236Y-0.6732
X-0.4125Y-5.0565
X-0.4115Y-2.3835
X-0.4115Y-2.5495
X-0.4045Y-0.8108
X-0.3947Y-0.6964
X-0.3921Y-1.341
X-0.3829Y-1.4856
X-0.379Y-1.5644
X-0.3731Y-1.6254
X-0.3646Y-1.2948
X-0.3435Y-3.3215
X-0.3357Y-4.5447
X-0.3357Y-4.647
X-0.3235Y-2.0915
X-0.318Y-0.8636
X-0.316Y4.3786
X-0.2845Y-3.9364
X-0.2817Y-1.7564
X-0.2806Y-1.7927
X-0.2794Y-1.7197
X-0.2772Y-0.9677
X-0.2747Y-3.838
X-0.2615Y-2.5495
X-0.2575Y-2.3815
X-0.251Y-1.5151
X-0.2415Y-3.4115
X-0.2392Y-4.7986
X-0.2373Y3.5439
X-0.2373Y-5.5112
X-0.2353Y-0.5269
X-0.2315Y-1.6195
X-0.2314Y-3.6805
X-0.2294Y-1.397
X-0.2294Y-1.4364
X-0.2215Y1.2762
X-0.2156Y-1.2199
X-0.2156Y-1.2671
X-0.2156Y-1.3084
X-0.2156Y-3.147
X-0.2136Y-1.4915
X-0.2041Y-0.562
X-0.2018Y-2.1018
X-0.1959Y-0.1313
X-0.19Y-0.9935
X-0.1841Y-1.3577
X-0.1821Y-1.5171
X-0.1821Y-4.6903
X-0.1743Y-0.6214
X-0.1743Y-1.0309
X-0.1585Y2.5203
X-0.1546Y-1.2179
X-0.1506Y-0.8222
X-0.147Y3.6601
X-0.147Y1.6486
X-0.1467Y-0.363
X-0.1467Y-2.3744
X-0.1467Y2.2703
X-0.1388Y-1.0407
X-0.1369Y-3.4384
X-0.1369Y-3.4895
X-0.1349Y-2.521
X-0.1272Y-0.995
X-0.1211Y-0.6746
X-0.1034Y3.4258
X-0.1034Y0.4927
X-0.1034Y-4.5958
X-0.0953Y-0.9974
X-0.0916Y-1.1529
X-0.0902Y-1.559
X-0.0877Y1.4888
X-0.0798Y4.3786
X-0.0798Y-1.5939
X-0.0719Y-4.5958
X-0.0699Y-3.2592
X-0.0699Y-3.3084
X-0.066Y-0.7199
X-0.0621Y-1.5132
X-0.0466Y3.786
X-0.0466Y1.7746
X-0.0466Y-0.2368
X-0.0466Y-2.2482
X-0.0466Y-4.2596
X-0.0365Y-1.1431
X-0.0345Y-2.5958
X-0.0345Y-2.6982
X-0.0306Y-0.7455
X-0.0172Y-1.0464
X-0.013Y-1.6175
X-0.0089Y3.5439
X-0.0089Y-2.1293
X-0.0089Y-3.1195
X-0.0089Y-3.1549
X-0.001Y3.229
X-0.001Y2.9927
X-0.001Y1.1817
X-0.001Y-5.5112
X0.0027Y-1.6468
X0.0068Y0.9376
X0.0068Y0.6305
X0.0127Y-1.1531
X0.0265Y-1.5112
X0.0285Y-0.9876
X0.0364Y-2.3742
X0.0423Y-1.7455
X0.046Y3.6601
X0.046Y1.6486
X0.046Y-0.3628
X0.046Y-4.3856
X0.0464Y-1.1533
X0.0498Y-1.6419
X0.0531Y-1.6099
X0.0541Y-0.7612
X0.0696Y-1.2002
X0.0705Y-2.5295
X0.0757Y-2.5978
X0.0757Y-2.6982
X0.0777Y2.7565
X0.0777Y2.5203
X0.0777Y-3.6214
X0.0836Y-2.0762
X0.0934Y-2.9974
X0.0974Y-1.1768
X0.1013Y3.4258
X0.1013Y0.4927
X0.1013Y-0.9561
X0.1053Y-3.0722
X0.1131Y-0.9029
X0.1136Y-0.6454
X0.1463Y3.786
X0.1463Y1.7746
X0.1463Y-0.2368
X0.1463Y-2.2482
X0.1463Y-4.2596
X0.1563Y-1.6115
X0.1564Y4.3786
X0.1564Y1.4888
X0.1695Y-1.5823
X0.1722Y-0.3124
X0.1801Y-2.5565
X0.1838Y-0.6626
X0.1965Y-2.4095
X0.1976Y-1.7948
X0.2096Y-4.8006
X0.2185Y-2.5275
X0.2231Y-1.2553
X0.2234Y-1.2002
X0.2352Y3.5439
X0.2352Y-5.5112
X0.2411Y-1.5329
X0.2418Y-1.8058
X0.245Y-1.3183
X0.247Y-1.3931
X0.2568Y-1.2592
X0.2824Y-0.9718
X0.2864Y-4.3616
X0.2982Y-5.1155
X0.301Y-1.8911
X0.306Y2.5203
X0.306Y-1.6766
X0.3065Y-2.0275
X0.3065Y-2.1815
X0.308Y-2.5447
X0.3218Y-3.6214
X0.3297Y-1.7002
X0.3297Y-4.3616
X0.3311Y-0.6442
X0.3395Y-4.5762
X0.3474Y-0.5939
X0.3533Y-1.2395
X0.3588Y-0.8009
X0.3592Y-1.5191
X0.3701Y-1.5492
X0.3712Y-1.3952
X0.3925Y-2.0275
X0.3925Y-2.1815
X0.3927Y4.3786
X0.3927Y1.4888
X0.3946Y-1.3675
X0.4005Y-1.2966
X0.4005Y-4.9088
X0.4045Y-2.3852
X0.4045Y-5.1155
X0.4182Y-1.4326
X0.4222Y-0.5624
X0.4337Y2.6544
X0.4339Y0.6427
X0.4339Y-3.3801
X0.4458Y-0.5269
X0.4596Y-1.4344
X0.4631Y-1.8514
X0.4635Y-1.4679
X0.4675Y-1.5033
X0.4714Y3.5439
X0.4714Y-5.5112
X0.497Y-0.0762
X0.499Y0.036
X0.4996Y-1.9167
X0.5029Y-1.1037
X0.5206Y-1.7218
X0.5341Y2.7803
X0.5341Y0.7689
X0.5341Y-1.2425
X0.5341Y-3.2539
X0.5344Y-1.3695
X0.5385Y-1.6722
X0.5423Y0.036
X0.5423Y-1.6037
X0.5465Y-1.8615
X0.5501Y2.5203
X0.5501Y0.4731
X0.5619Y-1.7061
X0.5659Y-1.1037
X0.5777Y-1.3537
X0.5798Y-0.7845
X0.5954Y-0.1037
X0.5954Y-0.6785
X0.6013Y-2.3399
X0.6171Y-1.1451
X0.619Y-2.3084
X0.619Y-4.4955
X0.621Y-3.6214
X0.6266Y2.6544
X0.6266Y0.6429
X0.6266Y-1.3685
X0.6266Y-3.3799
X0.6289Y4.3786
X0.6289Y-3.8577
X0.6289Y-4.1018
X0.6348Y-2.2769
X0.6427Y-0.647
X0.6446Y-1.5466
X0.6663Y-1.4856
X0.6702Y-2.2769
X0.6997Y2.2053
X0.6997Y1.9691
X0.6997Y1.725
X0.6997Y1.4888
X0.6997Y-0.2356
X0.7076Y0.2368
X0.7076Y0.0006
X0.7076Y-0.5506
X0.7076Y-4.3301
X0.7076Y-5.5112
X0.7175Y-1.6687
X0.7175Y-1.8754
X0.727Y2.7803
X0.727Y0.7689
X0.727Y-1.2425
X0.727Y-3.2539
X0.7391Y-4.7395
X0.7391Y-4.8439
X0.7627Y-4.4935
X0.7864Y3.5439
X0.7864Y2.5203
X0.7864Y-2.5191
X0.806Y-1.4856
X0.808Y-2.0584
X0.8651Y4.3786
X0.8651Y0.4731
X0.9438Y-0.5506
X0.9438Y-3.6214
X0.9438Y-4.6451
X0.9438Y-4.8813
X0.9438Y-5.5112
X0.9517Y1.4888
X1.0143Y3.6601
X1.0143Y1.6486
X1.0145Y-0.363
X1.0145Y-2.3744
X1.0145Y-4.3858
X1.0226Y3.5439
X1.0226Y2.5203
X1.0226Y-1.5742
X1.0226Y-2.5191
X1.1013Y4.3786
X1.1013Y3.3077
X1.1013Y3.0636
X1.1013Y0.4731
X1.1147Y3.786
X1.1147Y1.7746
X1.1147Y-0.2368
X1.1147Y-2.2482
X1.1147Y-4.2596
X1.1801Y2.8353
X1.1801Y1.1817
X1.1801Y0.9455
X1.1801Y-0.5506
X1.1801Y-0.7868
X1.1801Y-1.0309
X1.1801Y-1.2592
X1.1801Y-2.7553
X1.1801Y-2.9915
X1.1801Y-3.2277
X1.1801Y-4.6451
X1.1801Y-4.8892
X1.1801Y-5.5112
X1.1879Y1.4888
X1.2072Y3.6601
X1.2072Y1.6486
X1.2072Y-0.3628
X1.2072Y-2.3742
X1.2072Y-4.3856
X1.2588Y3.5439
X1.2588Y2.5203
X1.2588Y-1.5742
X1.2588Y-2.5191
X1.2588Y-3.464
X1.3076Y3.786
X1.3076Y1.7746
X1.3076Y-0.2368
X1.3076Y-2.2482
X1.3076Y-4.2596
X1.3179Y-5.149
X1.3316Y-5.2218
X1.3375Y4.3786
X1.3375Y0.4731
X1.3375Y-5.2848
X1.3375Y-5.3911
X1.4163Y-0.5506
X1.4163Y-4.6451
X1.4163Y-4.8892
X1.4163Y-5.5112
X1.495Y3.5439
X1.495Y2.5203
X1.495Y-1.5742
X1.495Y-2.5191
X1.495Y-3.6214
X1.5738Y4.3786
X1.5738Y1.4967
X1.5738Y0.4731
X1.588Y-4.288
X1.595Y2.6544
X1.5952Y0.6427
X1.5952Y-1.3687
X1.5963Y-3.3801
X1.6289Y2.4219
X1.6486Y-1.5939
X1.6525Y1.6542
X1.6525Y-0.5506
X1.6525Y-5.5112
X1.6954Y2.7803
X1.6954Y0.7689
X1.6954Y-1.2425
X1.6965Y-3.2539
X1.7234Y0.3156
X1.7312Y3.5439
X1.7312Y2.5203
X1.7312Y0.0794
X1.7312Y-1.8104
X1.7312Y-2.0466
X1.7312Y-2.5191
X1.7312Y-3.6214
X1.7312Y-3.8577
X1.7879Y2.6544
X1.7879Y0.6429
X1.7879Y-1.3685
X1.789Y-3.3799
X1.81Y4.3786
X1.81Y2.1266
X1.81Y1.8904
X1.81Y1.4967
X1.81Y0.4731
X1.81Y-0.2356
X1.81Y-4.0939
X1.8336Y2.4219
X1.8533Y-1.5939
X1.86Y-4.056
X1.8651Y-5.5112
X1.8883Y2.7803
X1.8883Y0.7689
X1.8883Y-1.2425
X1.8887Y-0.5506
X1.8894Y-3.2539
X1.9Y-4.226
X1.9Y-4.316
X1.9675Y3.5439
X1.9675Y2.5203
X1.9675Y-1.5742
X1.9675Y-2.5191
X1.9675Y-3.6214
X1.9714Y-3.5171
X2.0068Y-5.275
X2.014Y-4.678
X2.0462Y4.3786
X2.0462Y1.4967
X2.0462Y0.4731
X2.1249Y-0.5506
X2.1407Y-5.0388
X2.1564Y-4.3852
X2.1756Y3.6601
X2.1756Y1.6486
X2.1758Y-0.363
X2.1758Y-2.3744
X2.1761Y-3.5171
X2.2037Y3.5439
X2.2037Y2.5203
X2.2037Y-1.5742
X2.2037Y-2.5191
X2.2037Y-3.6214
X2.21Y-4.716
X2.2474Y1.3148
X2.2494Y1.4211
X2.256Y-2.7012
X2.258Y-2.5949
X2.276Y3.786
X2.276Y1.7746
X2.276Y-0.2368
X2.276Y-2.2482
X2.276Y-4.2596
X2.2824Y4.3786
X2.2824Y3.3077
X2.2824Y3.0715
X2.2824Y2.8353
X2.2824Y1.4967
X2.2824Y0.4731
X2.2824Y-4.8025
X2.298Y-4.646
X2.3606Y1.4211
X2.3606Y1.3138
X2.3612Y1.1817
X2.3612Y0.9455
X2.3612Y0.7014
X2.3612Y-0.8655
X2.3612Y-1.1018
X2.3612Y-2.9206
X2.3612Y-3.149
X2.3685Y3.6601
X2.3685Y1.6486
X2.3685Y-0.3628
X2.3685Y-2.3742
X2.3685Y-4.3856
X2.369Y-0.5506
X2.3692Y-2.5949
X2.3692Y-2.7021
X2.4242Y-4.5663
X2.4399Y3.5439
X2.4399Y2.5203
X2.4399Y-1.5742
X2.4399Y-2.5191
X2.4399Y-3.6214
X2.4689Y3.786
X2.4689Y1.7746
X2.4689Y-0.2368
X2.4689Y-2.2482
X2.5186Y1.4967
X2.5186Y0.4731
X2.5265Y4.3786
X2.5659Y-4.3301
X2.5974Y-0.5506
X2.6604Y4.1738
X2.6761Y3.5439
X2.6761Y2.5203
X2.6761Y-1.5742
X2.6761Y-2.5191
X2.6761Y-3.6214
X2.7076Y-4.0939
X2.7549Y1.4967
X2.7549Y0.4731
X2.7563Y2.6544
X2.7565Y0.6427
X2.7565Y-1.3687
X2.7565Y-3.3801
X2.7785Y3.9376
X2.8336Y-0.5506
X2.8415Y-3.8577
X2.8567Y2.7803
X2.8567Y0.7689
X2.8567Y-1.2425
X2.8567Y-3.2539
X2.9045Y0.3077
X2.9123Y2.5203
X2.9123Y2.2053
X2.9123Y1.9612
X2.9123Y1.7329
X2.9123Y0.0794
X2.9123Y-0.2356
X2.9123Y-1.5742
X2.9123Y-1.8104
X2.9123Y-2.0466
X2.9123Y-2.5191
X2.9202Y3.7014
X2.9492Y2.6544
X2.9492Y0.6429
X2.9492Y-1.3685
X2.9492Y-3.3799
X2.9517Y2.7801
X2.9517Y-3.2539
X2.9753Y-3.6214
X2.9911Y1.4967
X2.9911Y0.4731
X3.0496Y0.7689
X3.0496Y-1.2425
X3.0619Y3.4652
X3.0698Y-0.5506
X3.1092Y-3.3852
X3.1486Y2.5203
X3.1486Y-1.5742
X3.1486Y-2.5191
X3.1958Y3.229
X3.2273Y1.4967
X3.2273Y0.4731
X3.2273Y-2.9128
X3.2509Y-3.149
X3.306Y-0.5506
X3.3297Y2.9927
X3.3369Y1.6486
X3.3371Y-0.363
X3.3371Y-2.3744
X3.3828Y1.3786
X3.3848Y-1.5742
X3.3848Y-2.9049
X3.3927Y2.5203
X3.4373Y1.7746
X3.4373Y-0.2368
X3.4373Y-2.2482
X3.4556Y2.7565
X3.4635Y0.4731
X3.4714Y1.4967
X3.4714Y-0.8655
X3.5265Y-2.6766
X3.5298Y1.6486
X3.5298Y-0.3628
X3.5298Y-2.3742
X3.5423Y-0.5506
X3.5501Y-1.1096
X3.5836Y1.3786
X3.5974Y2.5203
X3.621Y-1.5742
X3.6302Y1.7746
X3.6302Y-0.2368
X3.6302Y-2.2482
X3.6604Y-2.4403
X3.6997Y1.4967
X3.6997Y0.4731
X3.7391Y2.2841
X3.7785Y-0.5506
X3.7942Y-2.2041
X3.8572Y-1.5742
X3.8651Y2.0479
X3.9178Y0.6427
X3.9178Y-1.3687
X3.9281Y-1.9679
X3.936Y1.4967
X3.936Y0.4731
X4.0068Y1.8116
X4.0147Y-0.5506
X4.018Y0.7689
X4.018Y-1.2425
X4.0619Y-1.7317
X4.0934Y0.3156
X4.0934Y0.0794
X4.1105Y0.6429
X4.1105Y-1.3685
X4.1121Y0.7689
X4.1121Y-1.2425
X4.1486Y1.5754
X4.1722Y0.4731
X4.1958Y-1.4955
X4.2509Y-0.5506
X4.2903Y1.3392
X4.3297Y-1.2592
X4.4084Y0.4731
X4.4163Y1.103
X4.4635Y-1.023
X4.4984Y-0.363
X4.5501Y0.8668
X4.5986Y-0.2368
X4.6053Y-0.7868
X4.684Y0.6305
X4.6911Y-0.3628
X4.7391Y-0.5506
X4.7915Y-0.2368
X4.8257Y0.3943
X4.873Y-0.3144
X4.9596Y0.1581
X5.0147Y-0.0781
T2
X-0.6789Y-5.0589
X-0.6755Y-4.9995
T3
X-0.0492Y-5.1175
X-0.0492Y-5.1962
X0.0492Y-5.1175
X0.0492Y-5.1962
T4
X-2.9518Y-1.5671
X-2.9518Y-1.6671
X-2.9518Y-1.7671
X-2.8518Y-1.5671
X-2.8518Y-1.6671
X-2.8518Y-1.7671
X0.5305Y4.0843
X0.6289Y4.0843
X-2.2865Y-3.2764
X-2.2373Y-3.3616
X-0.6676Y-2.1297
X-0.6676Y-2.2297
X-0.5676Y-2.1297
X-0.5676Y-2.2297
X-0.4676Y-2.1297
X-0.4676Y-2.2297
X-0.631Y4.0794
X-0.5325Y4.0794
X2.2411Y-3.3602
X2.2903Y-3.275
X3.3986Y-1.3445
X3.4478Y-1.2592
X-1.7953Y4.0794
X-1.6969Y4.0794
X-2.8692Y-2.2685
X-2.8199Y-2.3537
X-0.4499Y-4.1006
X-0.4499Y-4.2006
X-0.4499Y-4.3006
X-0.3499Y-4.1006
X-0.3499Y-4.2006
X-0.3499Y-4.3006
X-3.444Y-1.2606
X-3.3947Y-1.3458
X3.9812Y-0.3445
X4.0305Y-0.2592
X1.6919Y4.0764
X1.7903Y4.0764
X2.8159Y-2.3523
X2.8651Y-2.2671
X-4.0266Y-0.2527
X-3.9774Y-0.338
T5
X-1.7983Y-5.0958
X-1.6999Y-4.9974
X-1.6014Y-5.4895
X-1.503Y-5.0958
X-1.4046Y-5.4895
X-1.3062Y-4.9974
X-1.2077Y-5.0958
T6
X-0.237Y-5.3029
X0.237Y-5.3029
T7
X-1.7983Y-5.2927
X-1.2077Y-5.2927
T4
G00X-4.2259Y1.1002
M15
G01X-4.2259Y1.0215
M16
G05
G00X-3.9031Y1.1002
M15
G01X-3.9031Y1.0215
M16
G05
G00X1.5805Y1.1002
M15
G01X1.5805Y1.0215
M16
G05
G00X1.9034Y1.1002
M15
G01X1.9034Y1.0215
M16
G05
G00X-1.3227Y0.0945
M15
G01X-1.3227Y0.0157
M16
G05
G00X-0.9999Y0.0945
M15
G01X-0.9999Y0.0157
M16
G05
G00X0.4192Y-0.9112
M15
G01X0.4192Y-0.99
M16
G05
G00X0.7421Y-0.9112
M15
G01X0.7421Y-0.99
M16
G05
G00X-0.7421Y-2.9226
M15
G01X-0.7421Y-3.0014
M16
G05
G00X-0.4192Y-2.9226
M15
G01X-0.4192Y-3.0014
M16
G05
G00X2.1612Y-1.9169
M15
G01X2.1612Y-1.9957
M16
G05
G00X2.484Y-1.9169
M15
G01X2.484Y-1.9957
M16
G05
G00X-0.1614Y2.1059
M15
G01X-0.1614Y2.0272
M16
G05
G00X0.1614Y2.1059
M15
G01X0.1614Y2.0272
M16
G05
G00X0.9999Y2.1059
M15
G01X0.9999Y2.0272
M16
G05
G00X1.3227Y2.1059
M15
G01X1.3227Y2.0272
M16
G05
G00X2.1612Y-3.9283
M15
G01X2.1612Y-4.0071
M16
G05
G00X2.484Y-3.9283
M15
G01X2.484Y-4.0071
M16
G05
G00X-2.484Y4.1173
M15
G01X-2.484Y4.0386
M16
G05
G00X-2.1612Y4.1173
M15
G01X-2.1612Y4.0386
M16
G05
G00X-3.0646Y1.1002
M15
G01X-3.0646Y1.0215
M16
G05
G00X-2.7418Y1.1002
M15
G01X-2.7418Y1.0215
M16
G05
G00X2.7418Y1.1002
M15
G01X2.7418Y1.0215
M16
G05
G00X3.0646Y1.1002
M15
G01X3.0646Y1.0215
M16
G05
G00X0.9999Y0.0945
M15
G01X0.9999Y0.0157
M16
G05
G00X1.3227Y0.0945
M15
G01X1.3227Y0.0157
M16
G05
G00X1.5805Y-0.9112
M15
G01X1.5805Y-0.99
M16
G05
G00X1.9034Y-0.9112
M15
G01X1.9034Y-0.99
M16
G05
G00X-2.484Y-3.9283
M15
G01X-2.484Y-4.0071
M16
G05
G00X-2.1612Y-3.9283
M15
G01X-2.1612Y-4.0071
M16
G05
G00X-1.9034Y-2.9226
M15
G01X-1.9034Y-3.0014
M16
G05
G00X-1.5805Y-2.9226
M15
G01X-1.5805Y-3.0014
M16
G05
G00X0.9999Y-3.9283
M15
G01X0.9999Y-4.0071
M16
G05
G00X1.3227Y-3.9283
M15
G01X1.3227Y-4.0071
M16
G05
G00X2.1612Y2.1059
M15
G01X2.1612Y2.0272
M16
G05
G00X2.484Y2.1059
M15
G01X2.484Y2.0272
M16
G05
G00X3.9031Y1.1002
M15
G01X3.9031Y1.0215
M16
G05
G00X4.2259Y1.1002
M15
G01X4.2259Y1.0215
M16
G05
G00X3.3225Y0.0945
M15
G01X3.3225Y0.0157
M16
G05
G00X3.6453Y0.0945
M15
G01X3.6453Y0.0157
M16
G05
G00X2.7418Y-0.9112
M15
G01X2.7418Y-0.99
M16
G05
G00X3.0646Y-0.9112
M15
G01X3.0646Y-0.99
M16
G05
G00X2.7418Y3.1116
M15
G01X2.7418Y3.0329
M16
G05
G00X3.0646Y3.1116
M15
G01X3.0646Y3.0329
M16
G05
G00X-0.1614Y-3.9283
M15
G01X-0.1614Y-4.0071
M16
G05
G00X0.1614Y-3.9283
M15
G01X0.1614Y-4.0071
M16
G05
G00X1.5805Y3.1116
M15
G01X1.5805Y3.0329
M16
G05
G00X1.9034Y3.1116
M15
G01X1.9034Y3.0329
M16
G05
G00X-0.1614Y4.1173
M15
G01X-0.1614Y4.0386
M16
G05
G00X0.1614Y4.1173
M15
G01X0.1614Y4.0386
M16
G05
G00X-1.9034Y1.1002
M15
G01X-1.9034Y1.0215
M16
G05
G00X-1.5805Y1.1002
M15
G01X-1.5805Y1.0215
M16
G05
G00X-4.8066Y0.0945
M15
G01X-4.8066Y0.0157
M16
G05
G00X-4.4837Y0.0945
M15
G01X-4.4837Y0.0157
M16
G05
G00X-4.2259Y-0.9112
M15
G01X-4.2259Y-0.99
M16
G05
G00X-3.9031Y-0.9112
M15
G01X-3.9031Y-0.99
M16
G05
G00X-3.6453Y-1.9169
M15
G01X-3.6453Y-1.9957
M16
G05
G00X-3.3225Y-1.9169
M15
G01X-3.3225Y-1.9957
M16
G05
G00X-0.7421Y3.1116
M15
G01X-0.7421Y3.0329
M16
G05
G00X-0.4192Y3.1116
M15
G01X-0.4192Y3.0329
M16
G05
G00X2.1612Y4.1173
M15
G01X2.1612Y4.0386
M16
G05
G00X2.484Y4.1173
M15
G01X2.484Y4.0386
M16
G05
G00X-1.3227Y-3.9283
M15
G01X-1.3227Y-4.0071
M16
G05
G00X-0.9999Y-3.9283
M15
G01X-0.9999Y-4.0071
M16
G05
G00X4.4837Y0.0945
M15
G01X4.4837Y0.0157
M16
G05
G00X4.8066Y0.0945
M15
G01X4.8066Y0.0157
M16
G05
G00X3.9031Y-0.9112
M15
G01X3.9031Y-0.99
M16
G05
G00X4.2259Y-0.9112
M15
G01X4.2259Y-0.99
M16
G05
G00X-1.3227Y4.1173
M15
G01X-1.3227Y4.0386
M16
G05
G00X-0.9999Y4.1173
M15
G01X-0.9999Y4.0386
M16
G05
G00X3.3225Y2.1059
M15
G01X3.3225Y2.0272
M16
G05
G00X3.6453Y2.1059
M15
G01X3.6453Y2.0272
M16
G05
G00X-0.7421Y1.1002
M15
G01X-0.7421Y1.0215
M16
G05
G00X-0.4192Y1.1002
M15
G01X-0.4192Y1.0215
M16
G05
G00X-0.1614Y0.0945
M15
G01X-0.1614Y0.0157
M16
G05
G00X0.1614Y0.0945
M15
G01X0.1614Y0.0157
M16
G05
G00X-3.0646Y-0.9112
M15
G01X-3.0646Y-0.99
M16
G05
G00X-2.7418Y-0.9112
M15
G01X-2.7418Y-0.99
M16
G05
G00X-2.484Y-1.9169
M15
G01X-2.484Y-1.9957
M16
G05
G00X-2.1612Y-1.9169
M15
G01X-2.1612Y-1.9957
M16
G05
G00X-3.0646Y3.1116
M15
G01X-3.0646Y3.0329
M16
G05
G00X-2.7418Y3.1116
M15
G01X-2.7418Y3.0329
M16
G05
G00X0.9999Y-1.9169
M15
G01X0.9999Y-1.9957
M16
G05
G00X1.3227Y-1.9169
M15
G01X1.3227Y-1.9957
M16
G05
G00X3.3225Y-1.9169
M15
G01X3.3225Y-1.9957
M16
G05
G00X3.6453Y-1.9169
M15
G01X3.6453Y-1.9957
M16
G05
G00X-1.9034Y3.1116
M15
G01X-1.9034Y3.0329
M16
G05
G00X-1.5805Y3.1116
M15
G01X-1.5805Y3.0329
M16
G05
G00X0.9999Y4.1173
M15
G01X0.9999Y4.0386
M16
G05
G00X1.3227Y4.1173
M15
G01X1.3227Y4.0386
M16
G05
G00X0.4192Y1.1002
M15
G01X0.4192Y1.0215
M16
G05
G00X0.7421Y1.1002
M15
G01X0.7421Y1.0215
M16
G05
G00X-3.6453Y0.0945
M15
G01X-3.6453Y0.0157
M16
G05
G00X-3.3225Y0.0945
M15
G01X-3.3225Y0.0157
M16
G05
G00X1.484Y-5.1726
M15
G01X1.5848Y-5.1726
M16
G05
G00X1.484Y-5.4088
M15
G01X1.5848Y-5.4088
M16
G05
G00X1.7194Y-5.3311
M15
G01X1.7194Y-5.2504
M16
G05
G00X-1.9034Y-0.9112
M15
G01X-1.9034Y-0.99
M16
G05
G00X-1.5805Y-0.9112
M15
G01X-1.5805Y-0.99
M16
G05
G00X-0.1614Y-1.9169
M15
G01X-0.1614Y-1.9957
M16
G05
G00X0.1614Y-1.9169
M15
G01X0.1614Y-1.9957
M16
G05
G00X-2.484Y2.1059
M15
G01X-2.484Y2.0272
M16
G05
G00X-2.1612Y2.1059
M15
G01X-2.1612Y2.0272
M16
G05
G00X0.4192Y3.1116
M15
G01X0.4192Y3.0329
M16
G05
G00X0.7421Y3.1116
M15
G01X0.7421Y3.0329
M16
G05
G00X1.5816Y-2.9226
M15
G01X1.5816Y-3.0014
M16
G05
G00X1.9045Y-2.9226
M15
G01X1.9045Y-3.0014
M16
G05
G00X-1.3227Y-1.9169
M15
G01X-1.3227Y-1.9957
M16
G05
G00X-0.9999Y-1.9169
M15
G01X-0.9999Y-1.9957
M16
G05
G00X2.1612Y0.0945
M15
G01X2.1612Y0.0157
M16
G05
G00X2.484Y0.0945
M15
G01X2.484Y0.0157
M16
G05
G00X-2.484Y0.0945
M15
G01X-2.484Y0.0157
M16
G05
G00X-2.1612Y0.0945
M15
G01X-2.1612Y0.0157
M16
G05
G00X-0.7421Y-0.9112
M15
G01X-0.7421Y-0.99
M16
G05
G00X-0.4192Y-0.9112
M15
G01X-0.4192Y-0.99
M16
G05
G00X2.7418Y-2.9226
M15
G01X2.7418Y-3.0014
M16
G05
G00X3.0646Y-2.9226
M15
G01X3.0646Y-3.0014
M16
G05
G00X-3.6453Y2.1059
M15
G01X-3.6453Y2.0272
M16
G05
G00X-3.3225Y2.1059
M15
G01X-3.3225Y2.0272
M16
G05
G00X-1.3227Y2.1059
M15
G01X-1.3227Y2.0272
M16
G05
G00X-0.9999Y2.1059
M15
G01X-0.9999Y2.0272
M16
G05
G00X0.4192Y-2.9226
M15
G01X0.4192Y-3.0014
M16
G05
G00X0.7421Y-2.9226
M15
G01X0.7421Y-3.0014
M16
G05
G00X-3.0646Y-2.9226
M15
G01X-3.0646Y-3.0014
M16
G05
G00X-2.7418Y-2.9226
M15
G01X-2.7418Y-3.0014
M16
G05
T0
M30
