G04 #@! TF.GenerationSoftware,KiCad,Pcbnew,(5.1.5)-3*
G04 #@! TF.CreationDate,2021-02-22T11:39:35-05:00*
G04 #@! TF.ProjectId,rainboard_newfighter,7261696e-626f-4617-9264-5f6e65776669,rev?*
G04 #@! TF.SameCoordinates,Original*
G04 #@! TF.FileFunction,Paste,Top*
G04 #@! TF.FilePolarity,Positive*
%FSLAX46Y46*%
G04 Gerber Fmt 4.6, Leading zero omitted, Abs format (unit mm)*
G04 Created by KiCad (PCBNEW (5.1.5)-3) date 2021-02-22 11:39:35*
%MOMM*%
%LPD*%
G04 APERTURE LIST*
%ADD10C,0.100000*%
%ADD11R,1.398400X0.898400*%
G04 APERTURE END LIST*
D10*
G36*
X70875752Y-93836351D02*
G01*
X70896948Y-93839496D01*
X70917734Y-93844702D01*
X70937909Y-93851921D01*
X70957279Y-93861082D01*
X70975659Y-93872099D01*
X70992870Y-93884863D01*
X71008747Y-93899253D01*
X71023137Y-93915130D01*
X71035901Y-93932341D01*
X71046918Y-93950721D01*
X71056079Y-93970091D01*
X71063298Y-93990266D01*
X71068504Y-94011052D01*
X71071649Y-94032248D01*
X71072700Y-94053650D01*
X71072700Y-94915350D01*
X71071649Y-94936752D01*
X71068504Y-94957948D01*
X71063298Y-94978734D01*
X71056079Y-94998909D01*
X71046918Y-95018279D01*
X71035901Y-95036659D01*
X71023137Y-95053870D01*
X71008747Y-95069747D01*
X70992870Y-95084137D01*
X70975659Y-95096901D01*
X70957279Y-95107918D01*
X70937909Y-95117079D01*
X70917734Y-95124298D01*
X70896948Y-95129504D01*
X70875752Y-95132649D01*
X70854350Y-95133700D01*
X70417650Y-95133700D01*
X70396248Y-95132649D01*
X70375052Y-95129504D01*
X70354266Y-95124298D01*
X70334091Y-95117079D01*
X70314721Y-95107918D01*
X70296341Y-95096901D01*
X70279130Y-95084137D01*
X70263253Y-95069747D01*
X70248863Y-95053870D01*
X70236099Y-95036659D01*
X70225082Y-95018279D01*
X70215921Y-94998909D01*
X70208702Y-94978734D01*
X70203496Y-94957948D01*
X70200351Y-94936752D01*
X70199300Y-94915350D01*
X70199300Y-94053650D01*
X70200351Y-94032248D01*
X70203496Y-94011052D01*
X70208702Y-93990266D01*
X70215921Y-93970091D01*
X70225082Y-93950721D01*
X70236099Y-93932341D01*
X70248863Y-93915130D01*
X70263253Y-93899253D01*
X70279130Y-93884863D01*
X70296341Y-93872099D01*
X70314721Y-93861082D01*
X70334091Y-93851921D01*
X70354266Y-93844702D01*
X70375052Y-93839496D01*
X70396248Y-93836351D01*
X70417650Y-93835300D01*
X70854350Y-93835300D01*
X70875752Y-93836351D01*
G37*
G36*
X72750752Y-93836351D02*
G01*
X72771948Y-93839496D01*
X72792734Y-93844702D01*
X72812909Y-93851921D01*
X72832279Y-93861082D01*
X72850659Y-93872099D01*
X72867870Y-93884863D01*
X72883747Y-93899253D01*
X72898137Y-93915130D01*
X72910901Y-93932341D01*
X72921918Y-93950721D01*
X72931079Y-93970091D01*
X72938298Y-93990266D01*
X72943504Y-94011052D01*
X72946649Y-94032248D01*
X72947700Y-94053650D01*
X72947700Y-94915350D01*
X72946649Y-94936752D01*
X72943504Y-94957948D01*
X72938298Y-94978734D01*
X72931079Y-94998909D01*
X72921918Y-95018279D01*
X72910901Y-95036659D01*
X72898137Y-95053870D01*
X72883747Y-95069747D01*
X72867870Y-95084137D01*
X72850659Y-95096901D01*
X72832279Y-95107918D01*
X72812909Y-95117079D01*
X72792734Y-95124298D01*
X72771948Y-95129504D01*
X72750752Y-95132649D01*
X72729350Y-95133700D01*
X72292650Y-95133700D01*
X72271248Y-95132649D01*
X72250052Y-95129504D01*
X72229266Y-95124298D01*
X72209091Y-95117079D01*
X72189721Y-95107918D01*
X72171341Y-95096901D01*
X72154130Y-95084137D01*
X72138253Y-95069747D01*
X72123863Y-95053870D01*
X72111099Y-95036659D01*
X72100082Y-95018279D01*
X72090921Y-94998909D01*
X72083702Y-94978734D01*
X72078496Y-94957948D01*
X72075351Y-94936752D01*
X72074300Y-94915350D01*
X72074300Y-94053650D01*
X72075351Y-94032248D01*
X72078496Y-94011052D01*
X72083702Y-93990266D01*
X72090921Y-93970091D01*
X72100082Y-93950721D01*
X72111099Y-93932341D01*
X72123863Y-93915130D01*
X72138253Y-93899253D01*
X72154130Y-93884863D01*
X72171341Y-93872099D01*
X72189721Y-93861082D01*
X72209091Y-93851921D01*
X72229266Y-93844702D01*
X72250052Y-93839496D01*
X72271248Y-93836351D01*
X72292650Y-93835300D01*
X72729350Y-93835300D01*
X72750752Y-93836351D01*
G37*
D11*
X61443700Y-111400000D03*
X61443700Y-108200000D03*
X56543700Y-111400000D03*
X56543700Y-108200000D03*
X31946800Y-111400000D03*
X31946800Y-108200000D03*
X27046800Y-111400000D03*
X27046800Y-108200000D03*
X2450000Y-111400000D03*
X2450000Y-108200000D03*
X-2450000Y-111400000D03*
X-2450000Y-108200000D03*
X-27046800Y-111400000D03*
X-27046800Y-108200000D03*
X-31946800Y-111400000D03*
X-31946800Y-108200000D03*
X-56543700Y-111400000D03*
X-56543700Y-108200000D03*
X-61443700Y-111400000D03*
X-61443700Y-108200000D03*
X-76192100Y-82655000D03*
X-76192100Y-85855000D03*
X-71292100Y-82655000D03*
X-71292100Y-85855000D03*
X-46695200Y-82655000D03*
X-46695200Y-85855000D03*
X-41795200Y-82655000D03*
X-41795200Y-85855000D03*
X-17198400Y-82655000D03*
X-17198400Y-85855000D03*
X-12298400Y-82655000D03*
X-12298400Y-85855000D03*
X12298400Y-82655000D03*
X12298400Y-85855000D03*
X17198400Y-82655000D03*
X17198400Y-85855000D03*
X41823500Y-82655000D03*
X41823500Y-85855000D03*
X46723500Y-82655000D03*
X46723500Y-85855000D03*
X71292100Y-82655000D03*
X71292100Y-85855000D03*
X76192100Y-82655000D03*
X76192100Y-85855000D03*
X90940500Y-60310000D03*
X90940500Y-57110000D03*
X86040500Y-60310000D03*
X86040500Y-57110000D03*
X61443700Y-60310000D03*
X61443700Y-57110000D03*
X56543700Y-60310000D03*
X56543700Y-57110000D03*
X31946800Y-60310000D03*
X31946800Y-57110000D03*
X27046800Y-60310000D03*
X27046800Y-57110000D03*
X2450000Y-60310000D03*
X2450000Y-57110000D03*
X-2450000Y-60310000D03*
X-2450000Y-57110000D03*
X-27046800Y-60310000D03*
X-27046800Y-57110000D03*
X-31946800Y-60310000D03*
X-31946800Y-57110000D03*
X-56543700Y-60310000D03*
X-56543700Y-57110000D03*
X-61443700Y-60310000D03*
X-61443700Y-57110000D03*
X-86040500Y-60310000D03*
X-86040500Y-57110000D03*
X-90940500Y-60310000D03*
X-90940500Y-57110000D03*
X-105689000Y-31565000D03*
X-105689000Y-34765000D03*
X-100789000Y-31565000D03*
X-100789000Y-34765000D03*
X-76192100Y-31565000D03*
X-76192100Y-34765000D03*
X-71292100Y-31565000D03*
X-71292100Y-34765000D03*
X-46695200Y-31565000D03*
X-46695200Y-34765000D03*
X-41795200Y-31565000D03*
X-41795200Y-34765000D03*
X-17198400Y-31565000D03*
X-17198400Y-34765000D03*
X-12298400Y-31565000D03*
X-12298400Y-34765000D03*
X12298400Y-31565000D03*
X12298400Y-34765000D03*
X17198400Y-31565000D03*
X17198400Y-34765000D03*
X41795200Y-31565000D03*
X41795200Y-34765000D03*
X46695200Y-31565000D03*
X46695200Y-34765000D03*
X71292100Y-31565000D03*
X71292100Y-34765000D03*
X76192100Y-31565000D03*
X76192100Y-34765000D03*
X100789000Y-31565000D03*
X100789000Y-34765000D03*
X105689000Y-31565000D03*
X105689000Y-34765000D03*
X120437000Y-9220000D03*
X120437000Y-6020000D03*
X115537000Y-9220000D03*
X115537000Y-6020000D03*
X90940500Y-9220000D03*
X90940500Y-6020000D03*
X86040500Y-9220000D03*
X86040500Y-6020000D03*
X61443700Y-9220000D03*
X61443700Y-6020000D03*
X56543700Y-9220000D03*
X56543700Y-6020000D03*
X31946800Y-9220000D03*
X31946800Y-6020000D03*
X27046800Y-9220000D03*
X27046800Y-6020000D03*
X2450000Y-9220000D03*
X2450000Y-6020000D03*
X-2450000Y-9220000D03*
X-2450000Y-6020000D03*
X-27046800Y-9220000D03*
X-27046800Y-6020000D03*
X-31946800Y-9220000D03*
X-31946800Y-6020000D03*
X-56543700Y-9220000D03*
X-56543700Y-6020000D03*
X-61443700Y-9220000D03*
X-61443700Y-6020000D03*
X-86040500Y-9220000D03*
X-86040500Y-6020000D03*
X-90940500Y-9220000D03*
X-90940500Y-6020000D03*
X-115537000Y-9220000D03*
X-115537000Y-6020000D03*
X-120437000Y-9220000D03*
X-120437000Y-6020000D03*
X-105689000Y19525000D03*
X-105689000Y16325000D03*
X-100789000Y19525000D03*
X-100789000Y16325000D03*
X-76192100Y19525000D03*
X-76192100Y16325000D03*
X-71292100Y19525000D03*
X-71292100Y16325000D03*
X-46695200Y19525000D03*
X-46695200Y16325000D03*
X-41795200Y19525000D03*
X-41795200Y16325000D03*
X-17198400Y19525000D03*
X-17198400Y16325000D03*
X-12298400Y19525000D03*
X-12298400Y16325000D03*
X12298400Y19525000D03*
X12298400Y16325000D03*
X17198400Y19525000D03*
X17198400Y16325000D03*
X41795200Y19525000D03*
X41795200Y16325000D03*
X46695200Y19525000D03*
X46695200Y16325000D03*
X71292100Y19525000D03*
X71292100Y16325000D03*
X76192100Y19525000D03*
X76192100Y16325000D03*
X100789000Y19525000D03*
X100789000Y16325000D03*
X105689000Y19525000D03*
X105689000Y16325000D03*
X90940500Y41870000D03*
X90940500Y45070000D03*
X86040500Y41870000D03*
X86040500Y45070000D03*
X61443700Y41870000D03*
X61443700Y45070000D03*
X56543700Y41870000D03*
X56543700Y45070000D03*
X31946800Y41870000D03*
X31946800Y45070000D03*
X27046800Y41870000D03*
X27046800Y45070000D03*
X2450000Y41870000D03*
X2450000Y45070000D03*
X-2450000Y41870000D03*
X-2450000Y45070000D03*
X-27046800Y41870000D03*
X-27046800Y45070000D03*
X-31946800Y41870000D03*
X-31946800Y45070000D03*
X-56543700Y41870000D03*
X-56543700Y45070000D03*
X-61443700Y41870000D03*
X-61443700Y45070000D03*
X-86040500Y41870000D03*
X-86040500Y45070000D03*
X-90940500Y41870000D03*
X-90940500Y45070000D03*
X-76192100Y70615000D03*
X-76192100Y67415000D03*
X-71292100Y70615000D03*
X-71292100Y67415000D03*
X-46695200Y70615000D03*
X-46695200Y67415000D03*
X-41795200Y70615000D03*
X-41795200Y67415000D03*
X-17198400Y70615000D03*
X-17198400Y67415000D03*
X-12298400Y70615000D03*
X-12298400Y67415000D03*
X12298400Y70615000D03*
X12298400Y67415000D03*
X17198400Y70615000D03*
X17198400Y67415000D03*
X41795200Y70615000D03*
X41795200Y67415000D03*
X46695200Y70615000D03*
X46695200Y67415000D03*
X71292100Y70615000D03*
X71292100Y67415000D03*
X76192100Y70615000D03*
X76192100Y67415000D03*
X61443700Y92960000D03*
X61443700Y96160000D03*
X56543700Y92960000D03*
X56543700Y96160000D03*
X31946800Y92960000D03*
X31946800Y96160000D03*
X27046800Y92960000D03*
X27046800Y96160000D03*
X2450000Y92960000D03*
X2450000Y96160000D03*
X-2450000Y92960000D03*
X-2450000Y96160000D03*
X-27046800Y92960000D03*
X-27046800Y96160000D03*
X-31946800Y92960000D03*
X-31946800Y96160000D03*
X-56543700Y92960000D03*
X-56543700Y96160000D03*
X-61443700Y92960000D03*
X-61443700Y96160000D03*
M02*
