G04 #@! TF.GenerationSoftware,KiCad,Pcbnew,(5.1.5-0-10_14)*
G04 #@! TF.CreationDate,2020-09-02T10:38:34-04:00*
G04 #@! TF.ProjectId,rainboard_newfighter,7261696e-626f-4617-9264-5f6e65776669,rev?*
G04 #@! TF.SameCoordinates,Original*
G04 #@! TF.FileFunction,Legend,Top*
G04 #@! TF.FilePolarity,Positive*
%FSLAX46Y46*%
G04 Gerber Fmt 4.6, Leading zero omitted, Abs format (unit mm)*
G04 Created by KiCad (PCBNEW (5.1.5-0-10_14)) date 2020-09-02 10:38:34*
%MOMM*%
%LPD*%
G04 APERTURE LIST*
%ADD10C,0.150000*%
%ADD11C,0.200000*%
%ADD12C,0.120000*%
G04 APERTURE END LIST*
D10*
X9119219Y-118562380D02*
X8785885Y-118086190D01*
X8547790Y-118562380D02*
X8547790Y-117562380D01*
X8928742Y-117562380D01*
X9023980Y-117610000D01*
X9071600Y-117657619D01*
X9119219Y-117752857D01*
X9119219Y-117895714D01*
X9071600Y-117990952D01*
X9023980Y-118038571D01*
X8928742Y-118086190D01*
X8547790Y-118086190D01*
X9976361Y-118562380D02*
X9976361Y-118038571D01*
X9928742Y-117943333D01*
X9833504Y-117895714D01*
X9643028Y-117895714D01*
X9547790Y-117943333D01*
X9976361Y-118514761D02*
X9881123Y-118562380D01*
X9643028Y-118562380D01*
X9547790Y-118514761D01*
X9500171Y-118419523D01*
X9500171Y-118324285D01*
X9547790Y-118229047D01*
X9643028Y-118181428D01*
X9881123Y-118181428D01*
X9976361Y-118133809D01*
X10452552Y-118562380D02*
X10452552Y-117895714D01*
X10452552Y-117562380D02*
X10404933Y-117610000D01*
X10452552Y-117657619D01*
X10500171Y-117610000D01*
X10452552Y-117562380D01*
X10452552Y-117657619D01*
X10928742Y-117895714D02*
X10928742Y-118562380D01*
X10928742Y-117990952D02*
X10976361Y-117943333D01*
X11071600Y-117895714D01*
X11214457Y-117895714D01*
X11309695Y-117943333D01*
X11357314Y-118038571D01*
X11357314Y-118562380D01*
X11833504Y-118562380D02*
X11833504Y-117562380D01*
X11833504Y-117943333D02*
X11928742Y-117895714D01*
X12119219Y-117895714D01*
X12214457Y-117943333D01*
X12262076Y-117990952D01*
X12309695Y-118086190D01*
X12309695Y-118371904D01*
X12262076Y-118467142D01*
X12214457Y-118514761D01*
X12119219Y-118562380D01*
X11928742Y-118562380D01*
X11833504Y-118514761D01*
X12881123Y-118562380D02*
X12785885Y-118514761D01*
X12738266Y-118467142D01*
X12690647Y-118371904D01*
X12690647Y-118086190D01*
X12738266Y-117990952D01*
X12785885Y-117943333D01*
X12881123Y-117895714D01*
X13023980Y-117895714D01*
X13119219Y-117943333D01*
X13166838Y-117990952D01*
X13214457Y-118086190D01*
X13214457Y-118371904D01*
X13166838Y-118467142D01*
X13119219Y-118514761D01*
X13023980Y-118562380D01*
X12881123Y-118562380D01*
X14071600Y-118562380D02*
X14071600Y-118038571D01*
X14023980Y-117943333D01*
X13928742Y-117895714D01*
X13738266Y-117895714D01*
X13643028Y-117943333D01*
X14071600Y-118514761D02*
X13976361Y-118562380D01*
X13738266Y-118562380D01*
X13643028Y-118514761D01*
X13595409Y-118419523D01*
X13595409Y-118324285D01*
X13643028Y-118229047D01*
X13738266Y-118181428D01*
X13976361Y-118181428D01*
X14071600Y-118133809D01*
X14547790Y-118562380D02*
X14547790Y-117895714D01*
X14547790Y-118086190D02*
X14595409Y-117990952D01*
X14643028Y-117943333D01*
X14738266Y-117895714D01*
X14833504Y-117895714D01*
X15595409Y-118562380D02*
X15595409Y-117562380D01*
X15595409Y-118514761D02*
X15500171Y-118562380D01*
X15309695Y-118562380D01*
X15214457Y-118514761D01*
X15166838Y-118467142D01*
X15119219Y-118371904D01*
X15119219Y-118086190D01*
X15166838Y-117990952D01*
X15214457Y-117943333D01*
X15309695Y-117895714D01*
X15500171Y-117895714D01*
X15595409Y-117943333D01*
X16690647Y-117562380D02*
X17023980Y-118562380D01*
X17357314Y-117562380D01*
X17881123Y-117562380D02*
X17976361Y-117562380D01*
X18071600Y-117610000D01*
X18119219Y-117657619D01*
X18166838Y-117752857D01*
X18214457Y-117943333D01*
X18214457Y-118181428D01*
X18166838Y-118371904D01*
X18119219Y-118467142D01*
X18071600Y-118514761D01*
X17976361Y-118562380D01*
X17881123Y-118562380D01*
X17785885Y-118514761D01*
X17738266Y-118467142D01*
X17690647Y-118371904D01*
X17643028Y-118181428D01*
X17643028Y-117943333D01*
X17690647Y-117752857D01*
X17738266Y-117657619D01*
X17785885Y-117610000D01*
X17881123Y-117562380D01*
X18643028Y-118467142D02*
X18690647Y-118514761D01*
X18643028Y-118562380D01*
X18595409Y-118514761D01*
X18643028Y-118467142D01*
X18643028Y-118562380D01*
X19643028Y-118562380D02*
X19071600Y-118562380D01*
X19357314Y-118562380D02*
X19357314Y-117562380D01*
X19262076Y-117705238D01*
X19166838Y-117800476D01*
X19071600Y-117848095D01*
D11*
X30966825Y-58710000D02*
G75*
G03X30966825Y-58710000I-200000J0D01*
G01*
X22076825Y-103450000D02*
G75*
G03X22076825Y-103450000I-200000J0D01*
G01*
X-7420000Y-103450000D02*
G75*
G03X-7420000Y-103450000I-200000J0D01*
G01*
X-13278412Y-84255000D02*
G75*
G03X-13278412Y-84255000I-200000J0D01*
G01*
X43175237Y-69015000D02*
G75*
G03X43175237Y-69015000I-200000J0D01*
G01*
X43175237Y-17925000D02*
G75*
G03X43175237Y-17925000I-200000J0D01*
G01*
X-13278412Y-33165000D02*
G75*
G03X-13278412Y-33165000I-200000J0D01*
G01*
X-1070000Y-43470000D02*
G75*
G03X-1070000Y-43470000I-200000J0D01*
G01*
X7328412Y-26815000D02*
G75*
G03X7328412Y-26815000I-200000J0D01*
G01*
D10*
X41402000Y-127000000D02*
X41402000Y-27940000D01*
X41402000Y-27940000D02*
X40132000Y-27940000D01*
X40132000Y-27940000D02*
X37592000Y-25400000D01*
X-11938000Y-127000000D02*
X41402000Y-127000000D01*
D11*
X-66413650Y100910000D02*
G75*
G03X-66413650Y100910000I-200000J0D01*
G01*
D12*
X-46993650Y102180000D02*
G75*
G03X-46993650Y102180000I-12000000J0D01*
G01*
D11*
X-36916825Y100910000D02*
G75*
G03X-36916825Y100910000I-200000J0D01*
G01*
D12*
X-17496825Y102180000D02*
G75*
G03X-17496825Y102180000I-12000000J0D01*
G01*
D11*
X-7420000Y100910000D02*
G75*
G03X-7420000Y100910000I-200000J0D01*
G01*
D12*
X12000000Y102180000D02*
G75*
G03X12000000Y102180000I-12000000J0D01*
G01*
D11*
X22076825Y100910000D02*
G75*
G03X22076825Y100910000I-200000J0D01*
G01*
D12*
X41496825Y102180000D02*
G75*
G03X41496825Y102180000I-12000000J0D01*
G01*
D11*
X51573650Y100910000D02*
G75*
G03X51573650Y100910000I-200000J0D01*
G01*
D12*
X70993650Y102180000D02*
G75*
G03X70993650Y102180000I-12000000J0D01*
G01*
D11*
X-81162063Y75365000D02*
G75*
G03X-81162063Y75365000I-200000J0D01*
G01*
D12*
X-61742063Y76635000D02*
G75*
G03X-61742063Y76635000I-12000000J0D01*
G01*
X-32245237Y76635000D02*
G75*
G03X-32245237Y76635000I-12000000J0D01*
G01*
D11*
X-51665237Y75365000D02*
G75*
G03X-51665237Y75365000I-200000J0D01*
G01*
X-22168412Y75365000D02*
G75*
G03X-22168412Y75365000I-200000J0D01*
G01*
D12*
X-2748412Y76635000D02*
G75*
G03X-2748412Y76635000I-12000000J0D01*
G01*
X26748412Y76635000D02*
G75*
G03X26748412Y76635000I-12000000J0D01*
G01*
D11*
X7328412Y75365000D02*
G75*
G03X7328412Y75365000I-200000J0D01*
G01*
D12*
X56245237Y76635000D02*
G75*
G03X56245237Y76635000I-12000000J0D01*
G01*
D11*
X36825237Y75365000D02*
G75*
G03X36825237Y75365000I-200000J0D01*
G01*
D12*
X85742063Y76635000D02*
G75*
G03X85742063Y76635000I-12000000J0D01*
G01*
D11*
X66322063Y75365000D02*
G75*
G03X66322063Y75365000I-200000J0D01*
G01*
D12*
X-76490475Y51090000D02*
G75*
G03X-76490475Y51090000I-12000000J0D01*
G01*
D11*
X-95910475Y49820000D02*
G75*
G03X-95910475Y49820000I-200000J0D01*
G01*
D12*
X-46993650Y51090000D02*
G75*
G03X-46993650Y51090000I-12000000J0D01*
G01*
D11*
X-66413650Y49820000D02*
G75*
G03X-66413650Y49820000I-200000J0D01*
G01*
D12*
X-17496825Y51090000D02*
G75*
G03X-17496825Y51090000I-12000000J0D01*
G01*
D11*
X-36916825Y49820000D02*
G75*
G03X-36916825Y49820000I-200000J0D01*
G01*
X-7420000Y49820000D02*
G75*
G03X-7420000Y49820000I-200000J0D01*
G01*
D12*
X12000000Y51090000D02*
G75*
G03X12000000Y51090000I-12000000J0D01*
G01*
X41496825Y51090000D02*
G75*
G03X41496825Y51090000I-12000000J0D01*
G01*
D11*
X22076825Y49820000D02*
G75*
G03X22076825Y49820000I-200000J0D01*
G01*
X51573650Y49820000D02*
G75*
G03X51573650Y49820000I-200000J0D01*
G01*
D12*
X70993650Y51090000D02*
G75*
G03X70993650Y51090000I-12000000J0D01*
G01*
D11*
X81070475Y49820000D02*
G75*
G03X81070475Y49820000I-200000J0D01*
G01*
D12*
X100490475Y51090000D02*
G75*
G03X100490475Y51090000I-12000000J0D01*
G01*
D11*
X-110658888Y24275000D02*
G75*
G03X-110658888Y24275000I-200000J0D01*
G01*
D12*
X-91238888Y25545000D02*
G75*
G03X-91238888Y25545000I-12000000J0D01*
G01*
D11*
X-81162063Y24275000D02*
G75*
G03X-81162063Y24275000I-200000J0D01*
G01*
D12*
X-61742063Y25545000D02*
G75*
G03X-61742063Y25545000I-12000000J0D01*
G01*
D11*
X-51665237Y24275000D02*
G75*
G03X-51665237Y24275000I-200000J0D01*
G01*
D12*
X-32245237Y25545000D02*
G75*
G03X-32245237Y25545000I-12000000J0D01*
G01*
D11*
X-22168412Y24275000D02*
G75*
G03X-22168412Y24275000I-200000J0D01*
G01*
D12*
X-2748412Y25545000D02*
G75*
G03X-2748412Y25545000I-12000000J0D01*
G01*
X26748412Y25545000D02*
G75*
G03X26748412Y25545000I-12000000J0D01*
G01*
D11*
X7328412Y24275000D02*
G75*
G03X7328412Y24275000I-200000J0D01*
G01*
X36825237Y24275000D02*
G75*
G03X36825237Y24275000I-200000J0D01*
G01*
D12*
X56245237Y25545000D02*
G75*
G03X56245237Y25545000I-12000000J0D01*
G01*
X85742063Y25545000D02*
G75*
G03X85742063Y25545000I-12000000J0D01*
G01*
D11*
X66322063Y24275000D02*
G75*
G03X66322063Y24275000I-200000J0D01*
G01*
D12*
X115238888Y25545000D02*
G75*
G03X115238888Y25545000I-12000000J0D01*
G01*
D11*
X95818888Y24275000D02*
G75*
G03X95818888Y24275000I-200000J0D01*
G01*
D12*
X-105987301Y0D02*
G75*
G03X-105987301Y0I-12000000J0D01*
G01*
D11*
X-125407301Y-1270000D02*
G75*
G03X-125407301Y-1270000I-200000J0D01*
G01*
D12*
X-76490475Y0D02*
G75*
G03X-76490475Y0I-12000000J0D01*
G01*
D11*
X-95910475Y-1270000D02*
G75*
G03X-95910475Y-1270000I-200000J0D01*
G01*
D12*
X-46993650Y0D02*
G75*
G03X-46993650Y0I-12000000J0D01*
G01*
D11*
X-66413650Y-1270000D02*
G75*
G03X-66413650Y-1270000I-200000J0D01*
G01*
D12*
X-17496825Y0D02*
G75*
G03X-17496825Y0I-12000000J0D01*
G01*
D11*
X-36916825Y-1270000D02*
G75*
G03X-36916825Y-1270000I-200000J0D01*
G01*
X-7420000Y-1270000D02*
G75*
G03X-7420000Y-1270000I-200000J0D01*
G01*
D12*
X12000000Y0D02*
G75*
G03X12000000Y0I-12000000J0D01*
G01*
X41496825Y0D02*
G75*
G03X41496825Y0I-12000000J0D01*
G01*
D11*
X22076825Y-1270000D02*
G75*
G03X22076825Y-1270000I-200000J0D01*
G01*
X51573650Y-1270000D02*
G75*
G03X51573650Y-1270000I-200000J0D01*
G01*
D12*
X70993650Y0D02*
G75*
G03X70993650Y0I-12000000J0D01*
G01*
D11*
X81070475Y-1270000D02*
G75*
G03X81070475Y-1270000I-200000J0D01*
G01*
D12*
X100490475Y0D02*
G75*
G03X100490475Y0I-12000000J0D01*
G01*
D11*
X110567301Y-1270000D02*
G75*
G03X110567301Y-1270000I-200000J0D01*
G01*
D12*
X129987301Y0D02*
G75*
G03X129987301Y0I-12000000J0D01*
G01*
D11*
X-110658888Y-26815000D02*
G75*
G03X-110658888Y-26815000I-200000J0D01*
G01*
D12*
X-91238888Y-25545000D02*
G75*
G03X-91238888Y-25545000I-12000000J0D01*
G01*
D11*
X-81162063Y-26815000D02*
G75*
G03X-81162063Y-26815000I-200000J0D01*
G01*
D12*
X-61742063Y-25545000D02*
G75*
G03X-61742063Y-25545000I-12000000J0D01*
G01*
D11*
X-51665237Y-26815000D02*
G75*
G03X-51665237Y-26815000I-200000J0D01*
G01*
D12*
X-32245237Y-25545000D02*
G75*
G03X-32245237Y-25545000I-12000000J0D01*
G01*
X85742063Y-25545000D02*
G75*
G03X85742063Y-25545000I-12000000J0D01*
G01*
D11*
X66322063Y-26815000D02*
G75*
G03X66322063Y-26815000I-200000J0D01*
G01*
D12*
X115238888Y-25545000D02*
G75*
G03X115238888Y-25545000I-12000000J0D01*
G01*
D11*
X95818888Y-26815000D02*
G75*
G03X95818888Y-26815000I-200000J0D01*
G01*
D12*
X-76490475Y-51090000D02*
G75*
G03X-76490475Y-51090000I-12000000J0D01*
G01*
D11*
X-95910475Y-52360000D02*
G75*
G03X-95910475Y-52360000I-200000J0D01*
G01*
D12*
X-46993650Y-51090000D02*
G75*
G03X-46993650Y-51090000I-12000000J0D01*
G01*
D11*
X-66413650Y-52360000D02*
G75*
G03X-66413650Y-52360000I-200000J0D01*
G01*
D12*
X-17496825Y-51090000D02*
G75*
G03X-17496825Y-51090000I-12000000J0D01*
G01*
D11*
X-36916825Y-52360000D02*
G75*
G03X-36916825Y-52360000I-200000J0D01*
G01*
X51573650Y-52360000D02*
G75*
G03X51573650Y-52360000I-200000J0D01*
G01*
D12*
X70993650Y-51090000D02*
G75*
G03X70993650Y-51090000I-12000000J0D01*
G01*
D11*
X81070475Y-52360000D02*
G75*
G03X81070475Y-52360000I-200000J0D01*
G01*
D12*
X100490475Y-51090000D02*
G75*
G03X100490475Y-51090000I-12000000J0D01*
G01*
D11*
X-81162063Y-77905000D02*
G75*
G03X-81162063Y-77905000I-200000J0D01*
G01*
D12*
X-61742063Y-76635000D02*
G75*
G03X-61742063Y-76635000I-12000000J0D01*
G01*
X-32245237Y-76635000D02*
G75*
G03X-32245237Y-76635000I-12000000J0D01*
G01*
D11*
X-51665237Y-77905000D02*
G75*
G03X-51665237Y-77905000I-200000J0D01*
G01*
X7328412Y-77905000D02*
G75*
G03X7328412Y-77905000I-200000J0D01*
G01*
D12*
X26748412Y-76635000D02*
G75*
G03X26748412Y-76635000I-12000000J0D01*
G01*
D11*
X66322063Y-77905000D02*
G75*
G03X66322063Y-77905000I-200000J0D01*
G01*
D12*
X85742063Y-76635000D02*
G75*
G03X85742063Y-76635000I-12000000J0D01*
G01*
X-46993650Y-102180000D02*
G75*
G03X-46993650Y-102180000I-12000000J0D01*
G01*
D11*
X-66413650Y-103450000D02*
G75*
G03X-66413650Y-103450000I-200000J0D01*
G01*
D12*
X-17496825Y-102180000D02*
G75*
G03X-17496825Y-102180000I-12000000J0D01*
G01*
D11*
X-36916825Y-103450000D02*
G75*
G03X-36916825Y-103450000I-200000J0D01*
G01*
D12*
X70993650Y-102180000D02*
G75*
G03X70993650Y-102180000I-12000000J0D01*
G01*
D11*
X51573650Y-103450000D02*
G75*
G03X51573650Y-103450000I-200000J0D01*
G01*
D10*
X27159104Y-51814361D02*
X27301961Y-51861980D01*
X27540057Y-51861980D01*
X27635295Y-51814361D01*
X27682914Y-51766742D01*
X27730533Y-51671504D01*
X27730533Y-51576266D01*
X27682914Y-51481028D01*
X27635295Y-51433409D01*
X27540057Y-51385790D01*
X27349580Y-51338171D01*
X27254342Y-51290552D01*
X27206723Y-51242933D01*
X27159104Y-51147695D01*
X27159104Y-51052457D01*
X27206723Y-50957219D01*
X27254342Y-50909600D01*
X27349580Y-50861980D01*
X27587676Y-50861980D01*
X27730533Y-50909600D01*
X28587676Y-51195314D02*
X28587676Y-51861980D01*
X28349580Y-50814361D02*
X28111485Y-51528647D01*
X28730533Y-51528647D01*
X29254342Y-51290552D02*
X29159104Y-51242933D01*
X29111485Y-51195314D01*
X29063866Y-51100076D01*
X29063866Y-51052457D01*
X29111485Y-50957219D01*
X29159104Y-50909600D01*
X29254342Y-50861980D01*
X29444819Y-50861980D01*
X29540057Y-50909600D01*
X29587676Y-50957219D01*
X29635295Y-51052457D01*
X29635295Y-51100076D01*
X29587676Y-51195314D01*
X29540057Y-51242933D01*
X29444819Y-51290552D01*
X29254342Y-51290552D01*
X29159104Y-51338171D01*
X29111485Y-51385790D01*
X29063866Y-51481028D01*
X29063866Y-51671504D01*
X29111485Y-51766742D01*
X29159104Y-51814361D01*
X29254342Y-51861980D01*
X29444819Y-51861980D01*
X29540057Y-51814361D01*
X29587676Y-51766742D01*
X29635295Y-51671504D01*
X29635295Y-51481028D01*
X29587676Y-51385790D01*
X29540057Y-51338171D01*
X29444819Y-51290552D01*
X28258729Y-108934761D02*
X28401586Y-108982380D01*
X28639682Y-108982380D01*
X28734920Y-108934761D01*
X28782539Y-108887142D01*
X28830158Y-108791904D01*
X28830158Y-108696666D01*
X28782539Y-108601428D01*
X28734920Y-108553809D01*
X28639682Y-108506190D01*
X28449205Y-108458571D01*
X28353967Y-108410952D01*
X28306348Y-108363333D01*
X28258729Y-108268095D01*
X28258729Y-108172857D01*
X28306348Y-108077619D01*
X28353967Y-108030000D01*
X28449205Y-107982380D01*
X28687301Y-107982380D01*
X28830158Y-108030000D01*
X29687301Y-107982380D02*
X29496825Y-107982380D01*
X29401586Y-108030000D01*
X29353967Y-108077619D01*
X29258729Y-108220476D01*
X29211110Y-108410952D01*
X29211110Y-108791904D01*
X29258729Y-108887142D01*
X29306348Y-108934761D01*
X29401586Y-108982380D01*
X29592063Y-108982380D01*
X29687301Y-108934761D01*
X29734920Y-108887142D01*
X29782539Y-108791904D01*
X29782539Y-108553809D01*
X29734920Y-108458571D01*
X29687301Y-108410952D01*
X29592063Y-108363333D01*
X29401586Y-108363333D01*
X29306348Y-108410952D01*
X29258729Y-108458571D01*
X29211110Y-108553809D01*
X30401586Y-107982380D02*
X30496825Y-107982380D01*
X30592063Y-108030000D01*
X30639682Y-108077619D01*
X30687301Y-108172857D01*
X30734920Y-108363333D01*
X30734920Y-108601428D01*
X30687301Y-108791904D01*
X30639682Y-108887142D01*
X30592063Y-108934761D01*
X30496825Y-108982380D01*
X30401586Y-108982380D01*
X30306348Y-108934761D01*
X30258729Y-108887142D01*
X30211110Y-108791904D01*
X30163491Y-108601428D01*
X30163491Y-108363333D01*
X30211110Y-108172857D01*
X30258729Y-108077619D01*
X30306348Y-108030000D01*
X30401586Y-107982380D01*
X-1238095Y-108934761D02*
X-1095238Y-108982380D01*
X-857142Y-108982380D01*
X-761904Y-108934761D01*
X-714285Y-108887142D01*
X-666666Y-108791904D01*
X-666666Y-108696666D01*
X-714285Y-108601428D01*
X-761904Y-108553809D01*
X-857142Y-108506190D01*
X-1047619Y-108458571D01*
X-1142857Y-108410952D01*
X-1190476Y-108363333D01*
X-1238095Y-108268095D01*
X-1238095Y-108172857D01*
X-1190476Y-108077619D01*
X-1142857Y-108030000D01*
X-1047619Y-107982380D01*
X-809523Y-107982380D01*
X-666666Y-108030000D01*
X238095Y-107982380D02*
X-238095Y-107982380D01*
X-285714Y-108458571D01*
X-238095Y-108410952D01*
X-142857Y-108363333D01*
X95238Y-108363333D01*
X190476Y-108410952D01*
X238095Y-108458571D01*
X285714Y-108553809D01*
X285714Y-108791904D01*
X238095Y-108887142D01*
X190476Y-108934761D01*
X95238Y-108982380D01*
X-142857Y-108982380D01*
X-238095Y-108934761D01*
X-285714Y-108887142D01*
X761904Y-108982380D02*
X952380Y-108982380D01*
X1047619Y-108934761D01*
X1095238Y-108887142D01*
X1190476Y-108744285D01*
X1238095Y-108553809D01*
X1238095Y-108172857D01*
X1190476Y-108077619D01*
X1142857Y-108030000D01*
X1047619Y-107982380D01*
X857142Y-107982380D01*
X761904Y-108030000D01*
X714285Y-108077619D01*
X666666Y-108172857D01*
X666666Y-108410952D01*
X714285Y-108506190D01*
X761904Y-108553809D01*
X857142Y-108601428D01*
X1047619Y-108601428D01*
X1142857Y-108553809D01*
X1190476Y-108506190D01*
X1238095Y-108410952D01*
X-17595695Y-68883161D02*
X-17452838Y-68930780D01*
X-17214742Y-68930780D01*
X-17119504Y-68883161D01*
X-17071885Y-68835542D01*
X-17024266Y-68740304D01*
X-17024266Y-68645066D01*
X-17071885Y-68549828D01*
X-17119504Y-68502209D01*
X-17214742Y-68454590D01*
X-17405219Y-68406971D01*
X-17500457Y-68359352D01*
X-17548076Y-68311733D01*
X-17595695Y-68216495D01*
X-17595695Y-68121257D01*
X-17548076Y-68026019D01*
X-17500457Y-67978400D01*
X-17405219Y-67930780D01*
X-17167123Y-67930780D01*
X-17024266Y-67978400D01*
X-16119504Y-67930780D02*
X-16595695Y-67930780D01*
X-16643314Y-68406971D01*
X-16595695Y-68359352D01*
X-16500457Y-68311733D01*
X-16262361Y-68311733D01*
X-16167123Y-68359352D01*
X-16119504Y-68406971D01*
X-16071885Y-68502209D01*
X-16071885Y-68740304D01*
X-16119504Y-68835542D01*
X-16167123Y-68883161D01*
X-16262361Y-68930780D01*
X-16500457Y-68930780D01*
X-16595695Y-68883161D01*
X-16643314Y-68835542D01*
X-15738552Y-67930780D02*
X-15119504Y-67930780D01*
X-15452838Y-68311733D01*
X-15309980Y-68311733D01*
X-15214742Y-68359352D01*
X-15167123Y-68406971D01*
X-15119504Y-68502209D01*
X-15119504Y-68740304D01*
X-15167123Y-68835542D01*
X-15214742Y-68883161D01*
X-15309980Y-68930780D01*
X-15595695Y-68930780D01*
X-15690933Y-68883161D01*
X-15738552Y-68835542D01*
X48444304Y-77061961D02*
X48587161Y-77109580D01*
X48825257Y-77109580D01*
X48920495Y-77061961D01*
X48968114Y-77014342D01*
X49015733Y-76919104D01*
X49015733Y-76823866D01*
X48968114Y-76728628D01*
X48920495Y-76681009D01*
X48825257Y-76633390D01*
X48634780Y-76585771D01*
X48539542Y-76538152D01*
X48491923Y-76490533D01*
X48444304Y-76395295D01*
X48444304Y-76300057D01*
X48491923Y-76204819D01*
X48539542Y-76157200D01*
X48634780Y-76109580D01*
X48872876Y-76109580D01*
X49015733Y-76157200D01*
X49920495Y-76109580D02*
X49444304Y-76109580D01*
X49396685Y-76585771D01*
X49444304Y-76538152D01*
X49539542Y-76490533D01*
X49777638Y-76490533D01*
X49872876Y-76538152D01*
X49920495Y-76585771D01*
X49968114Y-76681009D01*
X49968114Y-76919104D01*
X49920495Y-77014342D01*
X49872876Y-77061961D01*
X49777638Y-77109580D01*
X49539542Y-77109580D01*
X49444304Y-77061961D01*
X49396685Y-77014342D01*
X50872876Y-76109580D02*
X50396685Y-76109580D01*
X50349066Y-76585771D01*
X50396685Y-76538152D01*
X50491923Y-76490533D01*
X50730019Y-76490533D01*
X50825257Y-76538152D01*
X50872876Y-76585771D01*
X50920495Y-76681009D01*
X50920495Y-76919104D01*
X50872876Y-77014342D01*
X50825257Y-77061961D01*
X50730019Y-77109580D01*
X50491923Y-77109580D01*
X50396685Y-77061961D01*
X50349066Y-77014342D01*
X40163904Y-25398361D02*
X40306761Y-25445980D01*
X40544857Y-25445980D01*
X40640095Y-25398361D01*
X40687714Y-25350742D01*
X40735333Y-25255504D01*
X40735333Y-25160266D01*
X40687714Y-25065028D01*
X40640095Y-25017409D01*
X40544857Y-24969790D01*
X40354380Y-24922171D01*
X40259142Y-24874552D01*
X40211523Y-24826933D01*
X40163904Y-24731695D01*
X40163904Y-24636457D01*
X40211523Y-24541219D01*
X40259142Y-24493600D01*
X40354380Y-24445980D01*
X40592476Y-24445980D01*
X40735333Y-24493600D01*
X41592476Y-24779314D02*
X41592476Y-25445980D01*
X41354380Y-24398361D02*
X41116285Y-25112647D01*
X41735333Y-25112647D01*
X42640095Y-25445980D02*
X42068666Y-25445980D01*
X42354380Y-25445980D02*
X42354380Y-24445980D01*
X42259142Y-24588838D01*
X42163904Y-24684076D01*
X42068666Y-24731695D01*
X-17443295Y-26160361D02*
X-17300438Y-26207980D01*
X-17062342Y-26207980D01*
X-16967104Y-26160361D01*
X-16919485Y-26112742D01*
X-16871866Y-26017504D01*
X-16871866Y-25922266D01*
X-16919485Y-25827028D01*
X-16967104Y-25779409D01*
X-17062342Y-25731790D01*
X-17252819Y-25684171D01*
X-17348057Y-25636552D01*
X-17395676Y-25588933D01*
X-17443295Y-25493695D01*
X-17443295Y-25398457D01*
X-17395676Y-25303219D01*
X-17348057Y-25255600D01*
X-17252819Y-25207980D01*
X-17014723Y-25207980D01*
X-16871866Y-25255600D01*
X-16538533Y-25207980D02*
X-15919485Y-25207980D01*
X-16252819Y-25588933D01*
X-16109961Y-25588933D01*
X-16014723Y-25636552D01*
X-15967104Y-25684171D01*
X-15919485Y-25779409D01*
X-15919485Y-26017504D01*
X-15967104Y-26112742D01*
X-16014723Y-26160361D01*
X-16109961Y-26207980D01*
X-16395676Y-26207980D01*
X-16490914Y-26160361D01*
X-16538533Y-26112742D01*
X-15443295Y-26207980D02*
X-15252819Y-26207980D01*
X-15157580Y-26160361D01*
X-15109961Y-26112742D01*
X-15014723Y-25969885D01*
X-14967104Y-25779409D01*
X-14967104Y-25398457D01*
X-15014723Y-25303219D01*
X-15062342Y-25255600D01*
X-15157580Y-25207980D01*
X-15348057Y-25207980D01*
X-15443295Y-25255600D01*
X-15490914Y-25303219D01*
X-15538533Y-25398457D01*
X-15538533Y-25636552D01*
X-15490914Y-25731790D01*
X-15443295Y-25779409D01*
X-15348057Y-25827028D01*
X-15157580Y-25827028D01*
X-15062342Y-25779409D01*
X-15014723Y-25731790D01*
X-14967104Y-25636552D01*
X-120495Y-51357161D02*
X22361Y-51404780D01*
X260457Y-51404780D01*
X355695Y-51357161D01*
X403314Y-51309542D01*
X450933Y-51214304D01*
X450933Y-51119066D01*
X403314Y-51023828D01*
X355695Y-50976209D01*
X260457Y-50928590D01*
X69980Y-50880971D01*
X-25257Y-50833352D01*
X-72876Y-50785733D01*
X-120495Y-50690495D01*
X-120495Y-50595257D01*
X-72876Y-50500019D01*
X-25257Y-50452400D01*
X69980Y-50404780D01*
X308076Y-50404780D01*
X450933Y-50452400D01*
X1308076Y-50738114D02*
X1308076Y-51404780D01*
X1069980Y-50357161D02*
X831885Y-51071447D01*
X1450933Y-51071447D01*
X1736647Y-50404780D02*
X2403314Y-50404780D01*
X1974742Y-51404780D01*
X13595504Y-37183961D02*
X13738361Y-37231580D01*
X13976457Y-37231580D01*
X14071695Y-37183961D01*
X14119314Y-37136342D01*
X14166933Y-37041104D01*
X14166933Y-36945866D01*
X14119314Y-36850628D01*
X14071695Y-36803009D01*
X13976457Y-36755390D01*
X13785980Y-36707771D01*
X13690742Y-36660152D01*
X13643123Y-36612533D01*
X13595504Y-36517295D01*
X13595504Y-36422057D01*
X13643123Y-36326819D01*
X13690742Y-36279200D01*
X13785980Y-36231580D01*
X14024076Y-36231580D01*
X14166933Y-36279200D01*
X15024076Y-36564914D02*
X15024076Y-37231580D01*
X14785980Y-36183961D02*
X14547885Y-36898247D01*
X15166933Y-36898247D01*
X15738361Y-36231580D02*
X15833600Y-36231580D01*
X15928838Y-36279200D01*
X15976457Y-36326819D01*
X16024076Y-36422057D01*
X16071695Y-36612533D01*
X16071695Y-36850628D01*
X16024076Y-37041104D01*
X15976457Y-37136342D01*
X15928838Y-37183961D01*
X15833600Y-37231580D01*
X15738361Y-37231580D01*
X15643123Y-37183961D01*
X15595504Y-37136342D01*
X15547885Y-37041104D01*
X15500266Y-36850628D01*
X15500266Y-36612533D01*
X15547885Y-36422057D01*
X15595504Y-36326819D01*
X15643123Y-36279200D01*
X15738361Y-36231580D01*
X-13501619Y-125698095D02*
X-12501619Y-125031428D01*
X-13501619Y-125031428D02*
X-12501619Y-125698095D01*
X-12787333Y-124698095D02*
X-12787333Y-124221904D01*
X-12501619Y-124793333D02*
X-13501619Y-124460000D01*
X-12501619Y-124126666D01*
X-12501619Y-123269523D02*
X-12501619Y-123840952D01*
X-12501619Y-123555238D02*
X-13501619Y-123555238D01*
X-13358761Y-123650476D01*
X-13263523Y-123745714D01*
X-13215904Y-123840952D01*
X9755142Y-64516000D02*
X9802761Y-64468380D01*
X9850380Y-64516000D01*
X9802761Y-64563619D01*
X9755142Y-64516000D01*
X9850380Y-64516000D01*
X-59755554Y95425238D02*
X-59612697Y95377619D01*
X-59374602Y95377619D01*
X-59279364Y95425238D01*
X-59231745Y95472857D01*
X-59184126Y95568095D01*
X-59184126Y95663333D01*
X-59231745Y95758571D01*
X-59279364Y95806190D01*
X-59374602Y95853809D01*
X-59565078Y95901428D01*
X-59660316Y95949047D01*
X-59707935Y95996666D01*
X-59755554Y96091904D01*
X-59755554Y96187142D01*
X-59707935Y96282380D01*
X-59660316Y96330000D01*
X-59565078Y96377619D01*
X-59326983Y96377619D01*
X-59184126Y96330000D01*
X-58231745Y95377619D02*
X-58803173Y95377619D01*
X-58517459Y95377619D02*
X-58517459Y96377619D01*
X-58612697Y96234761D01*
X-58707935Y96139523D01*
X-58803173Y96091904D01*
X-30258729Y95425238D02*
X-30115872Y95377619D01*
X-29877777Y95377619D01*
X-29782539Y95425238D01*
X-29734920Y95472857D01*
X-29687301Y95568095D01*
X-29687301Y95663333D01*
X-29734920Y95758571D01*
X-29782539Y95806190D01*
X-29877777Y95853809D01*
X-30068253Y95901428D01*
X-30163491Y95949047D01*
X-30211110Y95996666D01*
X-30258729Y96091904D01*
X-30258729Y96187142D01*
X-30211110Y96282380D01*
X-30163491Y96330000D01*
X-30068253Y96377619D01*
X-29830158Y96377619D01*
X-29687301Y96330000D01*
X-29306348Y96282380D02*
X-29258729Y96330000D01*
X-29163491Y96377619D01*
X-28925396Y96377619D01*
X-28830158Y96330000D01*
X-28782539Y96282380D01*
X-28734920Y96187142D01*
X-28734920Y96091904D01*
X-28782539Y95949047D01*
X-29353967Y95377619D01*
X-28734920Y95377619D01*
X-761904Y95425238D02*
X-619047Y95377619D01*
X-380952Y95377619D01*
X-285714Y95425238D01*
X-238095Y95472857D01*
X-190476Y95568095D01*
X-190476Y95663333D01*
X-238095Y95758571D01*
X-285714Y95806190D01*
X-380952Y95853809D01*
X-571428Y95901428D01*
X-666666Y95949047D01*
X-714285Y95996666D01*
X-761904Y96091904D01*
X-761904Y96187142D01*
X-714285Y96282380D01*
X-666666Y96330000D01*
X-571428Y96377619D01*
X-333333Y96377619D01*
X-190476Y96330000D01*
X142857Y96377619D02*
X761904Y96377619D01*
X428571Y95996666D01*
X571428Y95996666D01*
X666666Y95949047D01*
X714285Y95901428D01*
X761904Y95806190D01*
X761904Y95568095D01*
X714285Y95472857D01*
X666666Y95425238D01*
X571428Y95377619D01*
X285714Y95377619D01*
X190476Y95425238D01*
X142857Y95472857D01*
X28734920Y95425238D02*
X28877777Y95377619D01*
X29115872Y95377619D01*
X29211110Y95425238D01*
X29258729Y95472857D01*
X29306348Y95568095D01*
X29306348Y95663333D01*
X29258729Y95758571D01*
X29211110Y95806190D01*
X29115872Y95853809D01*
X28925396Y95901428D01*
X28830158Y95949047D01*
X28782539Y95996666D01*
X28734920Y96091904D01*
X28734920Y96187142D01*
X28782539Y96282380D01*
X28830158Y96330000D01*
X28925396Y96377619D01*
X29163491Y96377619D01*
X29306348Y96330000D01*
X30163491Y96044285D02*
X30163491Y95377619D01*
X29925396Y96425238D02*
X29687301Y95710952D01*
X30306348Y95710952D01*
X58231745Y95425238D02*
X58374602Y95377619D01*
X58612697Y95377619D01*
X58707935Y95425238D01*
X58755554Y95472857D01*
X58803173Y95568095D01*
X58803173Y95663333D01*
X58755554Y95758571D01*
X58707935Y95806190D01*
X58612697Y95853809D01*
X58422221Y95901428D01*
X58326983Y95949047D01*
X58279364Y95996666D01*
X58231745Y96091904D01*
X58231745Y96187142D01*
X58279364Y96282380D01*
X58326983Y96330000D01*
X58422221Y96377619D01*
X58660316Y96377619D01*
X58803173Y96330000D01*
X59707935Y96377619D02*
X59231745Y96377619D01*
X59184126Y95901428D01*
X59231745Y95949047D01*
X59326983Y95996666D01*
X59565078Y95996666D01*
X59660316Y95949047D01*
X59707935Y95901428D01*
X59755554Y95806190D01*
X59755554Y95568095D01*
X59707935Y95472857D01*
X59660316Y95425238D01*
X59565078Y95377619D01*
X59326983Y95377619D01*
X59231745Y95425238D01*
X59184126Y95472857D01*
X-74503967Y69880238D02*
X-74361110Y69832619D01*
X-74123015Y69832619D01*
X-74027777Y69880238D01*
X-73980158Y69927857D01*
X-73932539Y70023095D01*
X-73932539Y70118333D01*
X-73980158Y70213571D01*
X-74027777Y70261190D01*
X-74123015Y70308809D01*
X-74313491Y70356428D01*
X-74408729Y70404047D01*
X-74456348Y70451666D01*
X-74503967Y70546904D01*
X-74503967Y70642142D01*
X-74456348Y70737380D01*
X-74408729Y70785000D01*
X-74313491Y70832619D01*
X-74075396Y70832619D01*
X-73932539Y70785000D01*
X-73075396Y70832619D02*
X-73265872Y70832619D01*
X-73361110Y70785000D01*
X-73408729Y70737380D01*
X-73503967Y70594523D01*
X-73551586Y70404047D01*
X-73551586Y70023095D01*
X-73503967Y69927857D01*
X-73456348Y69880238D01*
X-73361110Y69832619D01*
X-73170634Y69832619D01*
X-73075396Y69880238D01*
X-73027777Y69927857D01*
X-72980158Y70023095D01*
X-72980158Y70261190D01*
X-73027777Y70356428D01*
X-73075396Y70404047D01*
X-73170634Y70451666D01*
X-73361110Y70451666D01*
X-73456348Y70404047D01*
X-73503967Y70356428D01*
X-73551586Y70261190D01*
X-45007141Y69880238D02*
X-44864284Y69832619D01*
X-44626189Y69832619D01*
X-44530951Y69880238D01*
X-44483332Y69927857D01*
X-44435713Y70023095D01*
X-44435713Y70118333D01*
X-44483332Y70213571D01*
X-44530951Y70261190D01*
X-44626189Y70308809D01*
X-44816665Y70356428D01*
X-44911903Y70404047D01*
X-44959522Y70451666D01*
X-45007141Y70546904D01*
X-45007141Y70642142D01*
X-44959522Y70737380D01*
X-44911903Y70785000D01*
X-44816665Y70832619D01*
X-44578570Y70832619D01*
X-44435713Y70785000D01*
X-44102379Y70832619D02*
X-43435713Y70832619D01*
X-43864284Y69832619D01*
X-15510316Y69880238D02*
X-15367459Y69832619D01*
X-15129364Y69832619D01*
X-15034126Y69880238D01*
X-14986507Y69927857D01*
X-14938888Y70023095D01*
X-14938888Y70118333D01*
X-14986507Y70213571D01*
X-15034126Y70261190D01*
X-15129364Y70308809D01*
X-15319840Y70356428D01*
X-15415078Y70404047D01*
X-15462697Y70451666D01*
X-15510316Y70546904D01*
X-15510316Y70642142D01*
X-15462697Y70737380D01*
X-15415078Y70785000D01*
X-15319840Y70832619D01*
X-15081745Y70832619D01*
X-14938888Y70785000D01*
X-14367459Y70404047D02*
X-14462697Y70451666D01*
X-14510316Y70499285D01*
X-14557935Y70594523D01*
X-14557935Y70642142D01*
X-14510316Y70737380D01*
X-14462697Y70785000D01*
X-14367459Y70832619D01*
X-14176983Y70832619D01*
X-14081745Y70785000D01*
X-14034126Y70737380D01*
X-13986507Y70642142D01*
X-13986507Y70594523D01*
X-14034126Y70499285D01*
X-14081745Y70451666D01*
X-14176983Y70404047D01*
X-14367459Y70404047D01*
X-14462697Y70356428D01*
X-14510316Y70308809D01*
X-14557935Y70213571D01*
X-14557935Y70023095D01*
X-14510316Y69927857D01*
X-14462697Y69880238D01*
X-14367459Y69832619D01*
X-14176983Y69832619D01*
X-14081745Y69880238D01*
X-14034126Y69927857D01*
X-13986507Y70023095D01*
X-13986507Y70213571D01*
X-14034126Y70308809D01*
X-14081745Y70356428D01*
X-14176983Y70404047D01*
X13986507Y69880238D02*
X14129364Y69832619D01*
X14367459Y69832619D01*
X14462697Y69880238D01*
X14510316Y69927857D01*
X14557935Y70023095D01*
X14557935Y70118333D01*
X14510316Y70213571D01*
X14462697Y70261190D01*
X14367459Y70308809D01*
X14176983Y70356428D01*
X14081745Y70404047D01*
X14034126Y70451666D01*
X13986507Y70546904D01*
X13986507Y70642142D01*
X14034126Y70737380D01*
X14081745Y70785000D01*
X14176983Y70832619D01*
X14415078Y70832619D01*
X14557935Y70785000D01*
X15034126Y69832619D02*
X15224602Y69832619D01*
X15319840Y69880238D01*
X15367459Y69927857D01*
X15462697Y70070714D01*
X15510316Y70261190D01*
X15510316Y70642142D01*
X15462697Y70737380D01*
X15415078Y70785000D01*
X15319840Y70832619D01*
X15129364Y70832619D01*
X15034126Y70785000D01*
X14986507Y70737380D01*
X14938888Y70642142D01*
X14938888Y70404047D01*
X14986507Y70308809D01*
X15034126Y70261190D01*
X15129364Y70213571D01*
X15319840Y70213571D01*
X15415078Y70261190D01*
X15462697Y70308809D01*
X15510316Y70404047D01*
X43007141Y69880238D02*
X43149998Y69832619D01*
X43388094Y69832619D01*
X43483332Y69880238D01*
X43530951Y69927857D01*
X43578570Y70023095D01*
X43578570Y70118333D01*
X43530951Y70213571D01*
X43483332Y70261190D01*
X43388094Y70308809D01*
X43197617Y70356428D01*
X43102379Y70404047D01*
X43054760Y70451666D01*
X43007141Y70546904D01*
X43007141Y70642142D01*
X43054760Y70737380D01*
X43102379Y70785000D01*
X43197617Y70832619D01*
X43435713Y70832619D01*
X43578570Y70785000D01*
X44530951Y69832619D02*
X43959522Y69832619D01*
X44245237Y69832619D02*
X44245237Y70832619D01*
X44149998Y70689761D01*
X44054760Y70594523D01*
X43959522Y70546904D01*
X45149998Y70832619D02*
X45245237Y70832619D01*
X45340475Y70785000D01*
X45388094Y70737380D01*
X45435713Y70642142D01*
X45483332Y70451666D01*
X45483332Y70213571D01*
X45435713Y70023095D01*
X45388094Y69927857D01*
X45340475Y69880238D01*
X45245237Y69832619D01*
X45149998Y69832619D01*
X45054760Y69880238D01*
X45007141Y69927857D01*
X44959522Y70023095D01*
X44911903Y70213571D01*
X44911903Y70451666D01*
X44959522Y70642142D01*
X45007141Y70737380D01*
X45054760Y70785000D01*
X45149998Y70832619D01*
X72503967Y69880238D02*
X72646824Y69832619D01*
X72884920Y69832619D01*
X72980158Y69880238D01*
X73027777Y69927857D01*
X73075396Y70023095D01*
X73075396Y70118333D01*
X73027777Y70213571D01*
X72980158Y70261190D01*
X72884920Y70308809D01*
X72694443Y70356428D01*
X72599205Y70404047D01*
X72551586Y70451666D01*
X72503967Y70546904D01*
X72503967Y70642142D01*
X72551586Y70737380D01*
X72599205Y70785000D01*
X72694443Y70832619D01*
X72932539Y70832619D01*
X73075396Y70785000D01*
X74027777Y69832619D02*
X73456348Y69832619D01*
X73742063Y69832619D02*
X73742063Y70832619D01*
X73646824Y70689761D01*
X73551586Y70594523D01*
X73456348Y70546904D01*
X74980158Y69832619D02*
X74408729Y69832619D01*
X74694443Y69832619D02*
X74694443Y70832619D01*
X74599205Y70689761D01*
X74503967Y70594523D01*
X74408729Y70546904D01*
X-89728570Y44335238D02*
X-89585713Y44287619D01*
X-89347617Y44287619D01*
X-89252379Y44335238D01*
X-89204760Y44382857D01*
X-89157141Y44478095D01*
X-89157141Y44573333D01*
X-89204760Y44668571D01*
X-89252379Y44716190D01*
X-89347617Y44763809D01*
X-89538094Y44811428D01*
X-89633332Y44859047D01*
X-89680951Y44906666D01*
X-89728570Y45001904D01*
X-89728570Y45097142D01*
X-89680951Y45192380D01*
X-89633332Y45240000D01*
X-89538094Y45287619D01*
X-89299998Y45287619D01*
X-89157141Y45240000D01*
X-88204760Y44287619D02*
X-88776189Y44287619D01*
X-88490475Y44287619D02*
X-88490475Y45287619D01*
X-88585713Y45144761D01*
X-88680951Y45049523D01*
X-88776189Y45001904D01*
X-87823808Y45192380D02*
X-87776189Y45240000D01*
X-87680951Y45287619D01*
X-87442855Y45287619D01*
X-87347617Y45240000D01*
X-87299998Y45192380D01*
X-87252379Y45097142D01*
X-87252379Y45001904D01*
X-87299998Y44859047D01*
X-87871427Y44287619D01*
X-87252379Y44287619D01*
X-60231745Y44335238D02*
X-60088888Y44287619D01*
X-59850792Y44287619D01*
X-59755554Y44335238D01*
X-59707935Y44382857D01*
X-59660316Y44478095D01*
X-59660316Y44573333D01*
X-59707935Y44668571D01*
X-59755554Y44716190D01*
X-59850792Y44763809D01*
X-60041269Y44811428D01*
X-60136507Y44859047D01*
X-60184126Y44906666D01*
X-60231745Y45001904D01*
X-60231745Y45097142D01*
X-60184126Y45192380D01*
X-60136507Y45240000D01*
X-60041269Y45287619D01*
X-59803173Y45287619D01*
X-59660316Y45240000D01*
X-58707935Y44287619D02*
X-59279364Y44287619D01*
X-58993650Y44287619D02*
X-58993650Y45287619D01*
X-59088888Y45144761D01*
X-59184126Y45049523D01*
X-59279364Y45001904D01*
X-58374602Y45287619D02*
X-57755554Y45287619D01*
X-58088888Y44906666D01*
X-57946030Y44906666D01*
X-57850792Y44859047D01*
X-57803173Y44811428D01*
X-57755554Y44716190D01*
X-57755554Y44478095D01*
X-57803173Y44382857D01*
X-57850792Y44335238D01*
X-57946030Y44287619D01*
X-58231745Y44287619D01*
X-58326983Y44335238D01*
X-58374602Y44382857D01*
X-30734920Y44335238D02*
X-30592063Y44287619D01*
X-30353967Y44287619D01*
X-30258729Y44335238D01*
X-30211110Y44382857D01*
X-30163491Y44478095D01*
X-30163491Y44573333D01*
X-30211110Y44668571D01*
X-30258729Y44716190D01*
X-30353967Y44763809D01*
X-30544444Y44811428D01*
X-30639682Y44859047D01*
X-30687301Y44906666D01*
X-30734920Y45001904D01*
X-30734920Y45097142D01*
X-30687301Y45192380D01*
X-30639682Y45240000D01*
X-30544444Y45287619D01*
X-30306348Y45287619D01*
X-30163491Y45240000D01*
X-29211110Y44287619D02*
X-29782539Y44287619D01*
X-29496825Y44287619D02*
X-29496825Y45287619D01*
X-29592063Y45144761D01*
X-29687301Y45049523D01*
X-29782539Y45001904D01*
X-28353967Y44954285D02*
X-28353967Y44287619D01*
X-28592063Y45335238D02*
X-28830158Y44620952D01*
X-28211110Y44620952D01*
X-1238095Y44335238D02*
X-1095238Y44287619D01*
X-857142Y44287619D01*
X-761904Y44335238D01*
X-714285Y44382857D01*
X-666666Y44478095D01*
X-666666Y44573333D01*
X-714285Y44668571D01*
X-761904Y44716190D01*
X-857142Y44763809D01*
X-1047619Y44811428D01*
X-1142857Y44859047D01*
X-1190476Y44906666D01*
X-1238095Y45001904D01*
X-1238095Y45097142D01*
X-1190476Y45192380D01*
X-1142857Y45240000D01*
X-1047619Y45287619D01*
X-809523Y45287619D01*
X-666666Y45240000D01*
X285714Y44287619D02*
X-285714Y44287619D01*
X0Y44287619D02*
X0Y45287619D01*
X-95238Y45144761D01*
X-190476Y45049523D01*
X-285714Y45001904D01*
X1190476Y45287619D02*
X714285Y45287619D01*
X666666Y44811428D01*
X714285Y44859047D01*
X809523Y44906666D01*
X1047619Y44906666D01*
X1142857Y44859047D01*
X1190476Y44811428D01*
X1238095Y44716190D01*
X1238095Y44478095D01*
X1190476Y44382857D01*
X1142857Y44335238D01*
X1047619Y44287619D01*
X809523Y44287619D01*
X714285Y44335238D01*
X666666Y44382857D01*
X28258729Y44335238D02*
X28401586Y44287619D01*
X28639682Y44287619D01*
X28734920Y44335238D01*
X28782539Y44382857D01*
X28830158Y44478095D01*
X28830158Y44573333D01*
X28782539Y44668571D01*
X28734920Y44716190D01*
X28639682Y44763809D01*
X28449205Y44811428D01*
X28353967Y44859047D01*
X28306348Y44906666D01*
X28258729Y45001904D01*
X28258729Y45097142D01*
X28306348Y45192380D01*
X28353967Y45240000D01*
X28449205Y45287619D01*
X28687301Y45287619D01*
X28830158Y45240000D01*
X29782539Y44287619D02*
X29211110Y44287619D01*
X29496825Y44287619D02*
X29496825Y45287619D01*
X29401586Y45144761D01*
X29306348Y45049523D01*
X29211110Y45001904D01*
X30639682Y45287619D02*
X30449205Y45287619D01*
X30353967Y45240000D01*
X30306348Y45192380D01*
X30211110Y45049523D01*
X30163491Y44859047D01*
X30163491Y44478095D01*
X30211110Y44382857D01*
X30258729Y44335238D01*
X30353967Y44287619D01*
X30544444Y44287619D01*
X30639682Y44335238D01*
X30687301Y44382857D01*
X30734920Y44478095D01*
X30734920Y44716190D01*
X30687301Y44811428D01*
X30639682Y44859047D01*
X30544444Y44906666D01*
X30353967Y44906666D01*
X30258729Y44859047D01*
X30211110Y44811428D01*
X30163491Y44716190D01*
X57755554Y44335238D02*
X57898411Y44287619D01*
X58136507Y44287619D01*
X58231745Y44335238D01*
X58279364Y44382857D01*
X58326983Y44478095D01*
X58326983Y44573333D01*
X58279364Y44668571D01*
X58231745Y44716190D01*
X58136507Y44763809D01*
X57946030Y44811428D01*
X57850792Y44859047D01*
X57803173Y44906666D01*
X57755554Y45001904D01*
X57755554Y45097142D01*
X57803173Y45192380D01*
X57850792Y45240000D01*
X57946030Y45287619D01*
X58184126Y45287619D01*
X58326983Y45240000D01*
X59279364Y44287619D02*
X58707935Y44287619D01*
X58993650Y44287619D02*
X58993650Y45287619D01*
X58898411Y45144761D01*
X58803173Y45049523D01*
X58707935Y45001904D01*
X59612697Y45287619D02*
X60279364Y45287619D01*
X59850792Y44287619D01*
X87252379Y44335238D02*
X87395236Y44287619D01*
X87633332Y44287619D01*
X87728570Y44335238D01*
X87776189Y44382857D01*
X87823808Y44478095D01*
X87823808Y44573333D01*
X87776189Y44668571D01*
X87728570Y44716190D01*
X87633332Y44763809D01*
X87442855Y44811428D01*
X87347617Y44859047D01*
X87299998Y44906666D01*
X87252379Y45001904D01*
X87252379Y45097142D01*
X87299998Y45192380D01*
X87347617Y45240000D01*
X87442855Y45287619D01*
X87680951Y45287619D01*
X87823808Y45240000D01*
X88776189Y44287619D02*
X88204760Y44287619D01*
X88490475Y44287619D02*
X88490475Y45287619D01*
X88395236Y45144761D01*
X88299998Y45049523D01*
X88204760Y45001904D01*
X89347617Y44859047D02*
X89252379Y44906666D01*
X89204760Y44954285D01*
X89157141Y45049523D01*
X89157141Y45097142D01*
X89204760Y45192380D01*
X89252379Y45240000D01*
X89347617Y45287619D01*
X89538094Y45287619D01*
X89633332Y45240000D01*
X89680951Y45192380D01*
X89728570Y45097142D01*
X89728570Y45049523D01*
X89680951Y44954285D01*
X89633332Y44906666D01*
X89538094Y44859047D01*
X89347617Y44859047D01*
X89252379Y44811428D01*
X89204760Y44763809D01*
X89157141Y44668571D01*
X89157141Y44478095D01*
X89204760Y44382857D01*
X89252379Y44335238D01*
X89347617Y44287619D01*
X89538094Y44287619D01*
X89633332Y44335238D01*
X89680951Y44382857D01*
X89728570Y44478095D01*
X89728570Y44668571D01*
X89680951Y44763809D01*
X89633332Y44811428D01*
X89538094Y44859047D01*
X-104476983Y18790238D02*
X-104334126Y18742619D01*
X-104096030Y18742619D01*
X-104000792Y18790238D01*
X-103953173Y18837857D01*
X-103905554Y18933095D01*
X-103905554Y19028333D01*
X-103953173Y19123571D01*
X-104000792Y19171190D01*
X-104096030Y19218809D01*
X-104286507Y19266428D01*
X-104381745Y19314047D01*
X-104429364Y19361666D01*
X-104476983Y19456904D01*
X-104476983Y19552142D01*
X-104429364Y19647380D01*
X-104381745Y19695000D01*
X-104286507Y19742619D01*
X-104048411Y19742619D01*
X-103905554Y19695000D01*
X-102953173Y18742619D02*
X-103524602Y18742619D01*
X-103238888Y18742619D02*
X-103238888Y19742619D01*
X-103334126Y19599761D01*
X-103429364Y19504523D01*
X-103524602Y19456904D01*
X-102476983Y18742619D02*
X-102286507Y18742619D01*
X-102191268Y18790238D01*
X-102143649Y18837857D01*
X-102048411Y18980714D01*
X-102000792Y19171190D01*
X-102000792Y19552142D01*
X-102048411Y19647380D01*
X-102096030Y19695000D01*
X-102191268Y19742619D01*
X-102381745Y19742619D01*
X-102476983Y19695000D01*
X-102524602Y19647380D01*
X-102572221Y19552142D01*
X-102572221Y19314047D01*
X-102524602Y19218809D01*
X-102476983Y19171190D01*
X-102381745Y19123571D01*
X-102191268Y19123571D01*
X-102096030Y19171190D01*
X-102048411Y19218809D01*
X-102000792Y19314047D01*
X-74980158Y18790238D02*
X-74837301Y18742619D01*
X-74599205Y18742619D01*
X-74503967Y18790238D01*
X-74456348Y18837857D01*
X-74408729Y18933095D01*
X-74408729Y19028333D01*
X-74456348Y19123571D01*
X-74503967Y19171190D01*
X-74599205Y19218809D01*
X-74789682Y19266428D01*
X-74884920Y19314047D01*
X-74932539Y19361666D01*
X-74980158Y19456904D01*
X-74980158Y19552142D01*
X-74932539Y19647380D01*
X-74884920Y19695000D01*
X-74789682Y19742619D01*
X-74551586Y19742619D01*
X-74408729Y19695000D01*
X-74027777Y19647380D02*
X-73980158Y19695000D01*
X-73884920Y19742619D01*
X-73646824Y19742619D01*
X-73551586Y19695000D01*
X-73503967Y19647380D01*
X-73456348Y19552142D01*
X-73456348Y19456904D01*
X-73503967Y19314047D01*
X-74075396Y18742619D01*
X-73456348Y18742619D01*
X-72837301Y19742619D02*
X-72742063Y19742619D01*
X-72646824Y19695000D01*
X-72599205Y19647380D01*
X-72551586Y19552142D01*
X-72503967Y19361666D01*
X-72503967Y19123571D01*
X-72551586Y18933095D01*
X-72599205Y18837857D01*
X-72646824Y18790238D01*
X-72742063Y18742619D01*
X-72837301Y18742619D01*
X-72932539Y18790238D01*
X-72980158Y18837857D01*
X-73027777Y18933095D01*
X-73075396Y19123571D01*
X-73075396Y19361666D01*
X-73027777Y19552142D01*
X-72980158Y19647380D01*
X-72932539Y19695000D01*
X-72837301Y19742619D01*
X-45483332Y18790238D02*
X-45340475Y18742619D01*
X-45102379Y18742619D01*
X-45007141Y18790238D01*
X-44959522Y18837857D01*
X-44911903Y18933095D01*
X-44911903Y19028333D01*
X-44959522Y19123571D01*
X-45007141Y19171190D01*
X-45102379Y19218809D01*
X-45292856Y19266428D01*
X-45388094Y19314047D01*
X-45435713Y19361666D01*
X-45483332Y19456904D01*
X-45483332Y19552142D01*
X-45435713Y19647380D01*
X-45388094Y19695000D01*
X-45292856Y19742619D01*
X-45054760Y19742619D01*
X-44911903Y19695000D01*
X-44530951Y19647380D02*
X-44483332Y19695000D01*
X-44388094Y19742619D01*
X-44149998Y19742619D01*
X-44054760Y19695000D01*
X-44007141Y19647380D01*
X-43959522Y19552142D01*
X-43959522Y19456904D01*
X-44007141Y19314047D01*
X-44578570Y18742619D01*
X-43959522Y18742619D01*
X-43007141Y18742619D02*
X-43578570Y18742619D01*
X-43292856Y18742619D02*
X-43292856Y19742619D01*
X-43388094Y19599761D01*
X-43483332Y19504523D01*
X-43578570Y19456904D01*
X-15986507Y18790238D02*
X-15843650Y18742619D01*
X-15605554Y18742619D01*
X-15510316Y18790238D01*
X-15462697Y18837857D01*
X-15415078Y18933095D01*
X-15415078Y19028333D01*
X-15462697Y19123571D01*
X-15510316Y19171190D01*
X-15605554Y19218809D01*
X-15796031Y19266428D01*
X-15891269Y19314047D01*
X-15938888Y19361666D01*
X-15986507Y19456904D01*
X-15986507Y19552142D01*
X-15938888Y19647380D01*
X-15891269Y19695000D01*
X-15796031Y19742619D01*
X-15557935Y19742619D01*
X-15415078Y19695000D01*
X-15034126Y19647380D02*
X-14986507Y19695000D01*
X-14891269Y19742619D01*
X-14653173Y19742619D01*
X-14557935Y19695000D01*
X-14510316Y19647380D01*
X-14462697Y19552142D01*
X-14462697Y19456904D01*
X-14510316Y19314047D01*
X-15081745Y18742619D01*
X-14462697Y18742619D01*
X-14081745Y19647380D02*
X-14034126Y19695000D01*
X-13938888Y19742619D01*
X-13700792Y19742619D01*
X-13605554Y19695000D01*
X-13557935Y19647380D01*
X-13510316Y19552142D01*
X-13510316Y19456904D01*
X-13557935Y19314047D01*
X-14129364Y18742619D01*
X-13510316Y18742619D01*
X13510316Y18790238D02*
X13653173Y18742619D01*
X13891269Y18742619D01*
X13986507Y18790238D01*
X14034126Y18837857D01*
X14081745Y18933095D01*
X14081745Y19028333D01*
X14034126Y19123571D01*
X13986507Y19171190D01*
X13891269Y19218809D01*
X13700792Y19266428D01*
X13605554Y19314047D01*
X13557935Y19361666D01*
X13510316Y19456904D01*
X13510316Y19552142D01*
X13557935Y19647380D01*
X13605554Y19695000D01*
X13700792Y19742619D01*
X13938888Y19742619D01*
X14081745Y19695000D01*
X14462697Y19647380D02*
X14510316Y19695000D01*
X14605554Y19742619D01*
X14843650Y19742619D01*
X14938888Y19695000D01*
X14986507Y19647380D01*
X15034126Y19552142D01*
X15034126Y19456904D01*
X14986507Y19314047D01*
X14415078Y18742619D01*
X15034126Y18742619D01*
X15367459Y19742619D02*
X15986507Y19742619D01*
X15653173Y19361666D01*
X15796031Y19361666D01*
X15891269Y19314047D01*
X15938888Y19266428D01*
X15986507Y19171190D01*
X15986507Y18933095D01*
X15938888Y18837857D01*
X15891269Y18790238D01*
X15796031Y18742619D01*
X15510316Y18742619D01*
X15415078Y18790238D01*
X15367459Y18837857D01*
X43007141Y18790238D02*
X43149998Y18742619D01*
X43388094Y18742619D01*
X43483332Y18790238D01*
X43530951Y18837857D01*
X43578570Y18933095D01*
X43578570Y19028333D01*
X43530951Y19123571D01*
X43483332Y19171190D01*
X43388094Y19218809D01*
X43197617Y19266428D01*
X43102379Y19314047D01*
X43054760Y19361666D01*
X43007141Y19456904D01*
X43007141Y19552142D01*
X43054760Y19647380D01*
X43102379Y19695000D01*
X43197617Y19742619D01*
X43435713Y19742619D01*
X43578570Y19695000D01*
X43959522Y19647380D02*
X44007141Y19695000D01*
X44102379Y19742619D01*
X44340475Y19742619D01*
X44435713Y19695000D01*
X44483332Y19647380D01*
X44530951Y19552142D01*
X44530951Y19456904D01*
X44483332Y19314047D01*
X43911903Y18742619D01*
X44530951Y18742619D01*
X45388094Y19409285D02*
X45388094Y18742619D01*
X45149998Y19790238D02*
X44911903Y19075952D01*
X45530951Y19075952D01*
X72503967Y18790238D02*
X72646824Y18742619D01*
X72884920Y18742619D01*
X72980158Y18790238D01*
X73027777Y18837857D01*
X73075396Y18933095D01*
X73075396Y19028333D01*
X73027777Y19123571D01*
X72980158Y19171190D01*
X72884920Y19218809D01*
X72694443Y19266428D01*
X72599205Y19314047D01*
X72551586Y19361666D01*
X72503967Y19456904D01*
X72503967Y19552142D01*
X72551586Y19647380D01*
X72599205Y19695000D01*
X72694443Y19742619D01*
X72932539Y19742619D01*
X73075396Y19695000D01*
X73456348Y19647380D02*
X73503967Y19695000D01*
X73599205Y19742619D01*
X73837301Y19742619D01*
X73932539Y19695000D01*
X73980158Y19647380D01*
X74027777Y19552142D01*
X74027777Y19456904D01*
X73980158Y19314047D01*
X73408729Y18742619D01*
X74027777Y18742619D01*
X74932539Y19742619D02*
X74456348Y19742619D01*
X74408729Y19266428D01*
X74456348Y19314047D01*
X74551586Y19361666D01*
X74789682Y19361666D01*
X74884920Y19314047D01*
X74932539Y19266428D01*
X74980158Y19171190D01*
X74980158Y18933095D01*
X74932539Y18837857D01*
X74884920Y18790238D01*
X74789682Y18742619D01*
X74551586Y18742619D01*
X74456348Y18790238D01*
X74408729Y18837857D01*
X102000792Y18790238D02*
X102143649Y18742619D01*
X102381745Y18742619D01*
X102476983Y18790238D01*
X102524602Y18837857D01*
X102572221Y18933095D01*
X102572221Y19028333D01*
X102524602Y19123571D01*
X102476983Y19171190D01*
X102381745Y19218809D01*
X102191268Y19266428D01*
X102096030Y19314047D01*
X102048411Y19361666D01*
X102000792Y19456904D01*
X102000792Y19552142D01*
X102048411Y19647380D01*
X102096030Y19695000D01*
X102191268Y19742619D01*
X102429364Y19742619D01*
X102572221Y19695000D01*
X102953173Y19647380D02*
X103000792Y19695000D01*
X103096030Y19742619D01*
X103334126Y19742619D01*
X103429364Y19695000D01*
X103476983Y19647380D01*
X103524602Y19552142D01*
X103524602Y19456904D01*
X103476983Y19314047D01*
X102905554Y18742619D01*
X103524602Y18742619D01*
X104381745Y19742619D02*
X104191268Y19742619D01*
X104096030Y19695000D01*
X104048411Y19647380D01*
X103953173Y19504523D01*
X103905554Y19314047D01*
X103905554Y18933095D01*
X103953173Y18837857D01*
X104000792Y18790238D01*
X104096030Y18742619D01*
X104286507Y18742619D01*
X104381745Y18790238D01*
X104429364Y18837857D01*
X104476983Y18933095D01*
X104476983Y19171190D01*
X104429364Y19266428D01*
X104381745Y19314047D01*
X104286507Y19361666D01*
X104096030Y19361666D01*
X104000792Y19314047D01*
X103953173Y19266428D01*
X103905554Y19171190D01*
X-119225396Y-6754761D02*
X-119082539Y-6802380D01*
X-118844443Y-6802380D01*
X-118749205Y-6754761D01*
X-118701586Y-6707142D01*
X-118653967Y-6611904D01*
X-118653967Y-6516666D01*
X-118701586Y-6421428D01*
X-118749205Y-6373809D01*
X-118844443Y-6326190D01*
X-119034920Y-6278571D01*
X-119130158Y-6230952D01*
X-119177777Y-6183333D01*
X-119225396Y-6088095D01*
X-119225396Y-5992857D01*
X-119177777Y-5897619D01*
X-119130158Y-5850000D01*
X-119034920Y-5802380D01*
X-118796824Y-5802380D01*
X-118653967Y-5850000D01*
X-118273015Y-5897619D02*
X-118225396Y-5850000D01*
X-118130158Y-5802380D01*
X-117892062Y-5802380D01*
X-117796824Y-5850000D01*
X-117749205Y-5897619D01*
X-117701586Y-5992857D01*
X-117701586Y-6088095D01*
X-117749205Y-6230952D01*
X-118320634Y-6802380D01*
X-117701586Y-6802380D01*
X-117368253Y-5802380D02*
X-116701586Y-5802380D01*
X-117130158Y-6802380D01*
X-89728570Y-6754761D02*
X-89585713Y-6802380D01*
X-89347617Y-6802380D01*
X-89252379Y-6754761D01*
X-89204760Y-6707142D01*
X-89157141Y-6611904D01*
X-89157141Y-6516666D01*
X-89204760Y-6421428D01*
X-89252379Y-6373809D01*
X-89347617Y-6326190D01*
X-89538094Y-6278571D01*
X-89633332Y-6230952D01*
X-89680951Y-6183333D01*
X-89728570Y-6088095D01*
X-89728570Y-5992857D01*
X-89680951Y-5897619D01*
X-89633332Y-5850000D01*
X-89538094Y-5802380D01*
X-89299998Y-5802380D01*
X-89157141Y-5850000D01*
X-88776189Y-5897619D02*
X-88728570Y-5850000D01*
X-88633332Y-5802380D01*
X-88395236Y-5802380D01*
X-88299998Y-5850000D01*
X-88252379Y-5897619D01*
X-88204760Y-5992857D01*
X-88204760Y-6088095D01*
X-88252379Y-6230952D01*
X-88823808Y-6802380D01*
X-88204760Y-6802380D01*
X-87633332Y-6230952D02*
X-87728570Y-6183333D01*
X-87776189Y-6135714D01*
X-87823808Y-6040476D01*
X-87823808Y-5992857D01*
X-87776189Y-5897619D01*
X-87728570Y-5850000D01*
X-87633332Y-5802380D01*
X-87442855Y-5802380D01*
X-87347617Y-5850000D01*
X-87299998Y-5897619D01*
X-87252379Y-5992857D01*
X-87252379Y-6040476D01*
X-87299998Y-6135714D01*
X-87347617Y-6183333D01*
X-87442855Y-6230952D01*
X-87633332Y-6230952D01*
X-87728570Y-6278571D01*
X-87776189Y-6326190D01*
X-87823808Y-6421428D01*
X-87823808Y-6611904D01*
X-87776189Y-6707142D01*
X-87728570Y-6754761D01*
X-87633332Y-6802380D01*
X-87442855Y-6802380D01*
X-87347617Y-6754761D01*
X-87299998Y-6707142D01*
X-87252379Y-6611904D01*
X-87252379Y-6421428D01*
X-87299998Y-6326190D01*
X-87347617Y-6278571D01*
X-87442855Y-6230952D01*
X-60231745Y-6754761D02*
X-60088888Y-6802380D01*
X-59850792Y-6802380D01*
X-59755554Y-6754761D01*
X-59707935Y-6707142D01*
X-59660316Y-6611904D01*
X-59660316Y-6516666D01*
X-59707935Y-6421428D01*
X-59755554Y-6373809D01*
X-59850792Y-6326190D01*
X-60041269Y-6278571D01*
X-60136507Y-6230952D01*
X-60184126Y-6183333D01*
X-60231745Y-6088095D01*
X-60231745Y-5992857D01*
X-60184126Y-5897619D01*
X-60136507Y-5850000D01*
X-60041269Y-5802380D01*
X-59803173Y-5802380D01*
X-59660316Y-5850000D01*
X-59279364Y-5897619D02*
X-59231745Y-5850000D01*
X-59136507Y-5802380D01*
X-58898411Y-5802380D01*
X-58803173Y-5850000D01*
X-58755554Y-5897619D01*
X-58707935Y-5992857D01*
X-58707935Y-6088095D01*
X-58755554Y-6230952D01*
X-59326983Y-6802380D01*
X-58707935Y-6802380D01*
X-58231745Y-6802380D02*
X-58041269Y-6802380D01*
X-57946030Y-6754761D01*
X-57898411Y-6707142D01*
X-57803173Y-6564285D01*
X-57755554Y-6373809D01*
X-57755554Y-5992857D01*
X-57803173Y-5897619D01*
X-57850792Y-5850000D01*
X-57946030Y-5802380D01*
X-58136507Y-5802380D01*
X-58231745Y-5850000D01*
X-58279364Y-5897619D01*
X-58326983Y-5992857D01*
X-58326983Y-6230952D01*
X-58279364Y-6326190D01*
X-58231745Y-6373809D01*
X-58136507Y-6421428D01*
X-57946030Y-6421428D01*
X-57850792Y-6373809D01*
X-57803173Y-6326190D01*
X-57755554Y-6230952D01*
X-30734920Y-6754761D02*
X-30592063Y-6802380D01*
X-30353967Y-6802380D01*
X-30258729Y-6754761D01*
X-30211110Y-6707142D01*
X-30163491Y-6611904D01*
X-30163491Y-6516666D01*
X-30211110Y-6421428D01*
X-30258729Y-6373809D01*
X-30353967Y-6326190D01*
X-30544444Y-6278571D01*
X-30639682Y-6230952D01*
X-30687301Y-6183333D01*
X-30734920Y-6088095D01*
X-30734920Y-5992857D01*
X-30687301Y-5897619D01*
X-30639682Y-5850000D01*
X-30544444Y-5802380D01*
X-30306348Y-5802380D01*
X-30163491Y-5850000D01*
X-29830158Y-5802380D02*
X-29211110Y-5802380D01*
X-29544444Y-6183333D01*
X-29401586Y-6183333D01*
X-29306348Y-6230952D01*
X-29258729Y-6278571D01*
X-29211110Y-6373809D01*
X-29211110Y-6611904D01*
X-29258729Y-6707142D01*
X-29306348Y-6754761D01*
X-29401586Y-6802380D01*
X-29687301Y-6802380D01*
X-29782539Y-6754761D01*
X-29830158Y-6707142D01*
X-28592063Y-5802380D02*
X-28496825Y-5802380D01*
X-28401586Y-5850000D01*
X-28353967Y-5897619D01*
X-28306348Y-5992857D01*
X-28258729Y-6183333D01*
X-28258729Y-6421428D01*
X-28306348Y-6611904D01*
X-28353967Y-6707142D01*
X-28401586Y-6754761D01*
X-28496825Y-6802380D01*
X-28592063Y-6802380D01*
X-28687301Y-6754761D01*
X-28734920Y-6707142D01*
X-28782539Y-6611904D01*
X-28830158Y-6421428D01*
X-28830158Y-6183333D01*
X-28782539Y-5992857D01*
X-28734920Y-5897619D01*
X-28687301Y-5850000D01*
X-28592063Y-5802380D01*
X-1238095Y-6754761D02*
X-1095238Y-6802380D01*
X-857142Y-6802380D01*
X-761904Y-6754761D01*
X-714285Y-6707142D01*
X-666666Y-6611904D01*
X-666666Y-6516666D01*
X-714285Y-6421428D01*
X-761904Y-6373809D01*
X-857142Y-6326190D01*
X-1047619Y-6278571D01*
X-1142857Y-6230952D01*
X-1190476Y-6183333D01*
X-1238095Y-6088095D01*
X-1238095Y-5992857D01*
X-1190476Y-5897619D01*
X-1142857Y-5850000D01*
X-1047619Y-5802380D01*
X-809523Y-5802380D01*
X-666666Y-5850000D01*
X-333333Y-5802380D02*
X285714Y-5802380D01*
X-47619Y-6183333D01*
X95238Y-6183333D01*
X190476Y-6230952D01*
X238095Y-6278571D01*
X285714Y-6373809D01*
X285714Y-6611904D01*
X238095Y-6707142D01*
X190476Y-6754761D01*
X95238Y-6802380D01*
X-190476Y-6802380D01*
X-285714Y-6754761D01*
X-333333Y-6707142D01*
X1238095Y-6802380D02*
X666666Y-6802380D01*
X952380Y-6802380D02*
X952380Y-5802380D01*
X857142Y-5945238D01*
X761904Y-6040476D01*
X666666Y-6088095D01*
X28258729Y-6754761D02*
X28401586Y-6802380D01*
X28639682Y-6802380D01*
X28734920Y-6754761D01*
X28782539Y-6707142D01*
X28830158Y-6611904D01*
X28830158Y-6516666D01*
X28782539Y-6421428D01*
X28734920Y-6373809D01*
X28639682Y-6326190D01*
X28449205Y-6278571D01*
X28353967Y-6230952D01*
X28306348Y-6183333D01*
X28258729Y-6088095D01*
X28258729Y-5992857D01*
X28306348Y-5897619D01*
X28353967Y-5850000D01*
X28449205Y-5802380D01*
X28687301Y-5802380D01*
X28830158Y-5850000D01*
X29163491Y-5802380D02*
X29782539Y-5802380D01*
X29449205Y-6183333D01*
X29592063Y-6183333D01*
X29687301Y-6230952D01*
X29734920Y-6278571D01*
X29782539Y-6373809D01*
X29782539Y-6611904D01*
X29734920Y-6707142D01*
X29687301Y-6754761D01*
X29592063Y-6802380D01*
X29306348Y-6802380D01*
X29211110Y-6754761D01*
X29163491Y-6707142D01*
X30163491Y-5897619D02*
X30211110Y-5850000D01*
X30306348Y-5802380D01*
X30544444Y-5802380D01*
X30639682Y-5850000D01*
X30687301Y-5897619D01*
X30734920Y-5992857D01*
X30734920Y-6088095D01*
X30687301Y-6230952D01*
X30115872Y-6802380D01*
X30734920Y-6802380D01*
X57755554Y-6754761D02*
X57898411Y-6802380D01*
X58136507Y-6802380D01*
X58231745Y-6754761D01*
X58279364Y-6707142D01*
X58326983Y-6611904D01*
X58326983Y-6516666D01*
X58279364Y-6421428D01*
X58231745Y-6373809D01*
X58136507Y-6326190D01*
X57946030Y-6278571D01*
X57850792Y-6230952D01*
X57803173Y-6183333D01*
X57755554Y-6088095D01*
X57755554Y-5992857D01*
X57803173Y-5897619D01*
X57850792Y-5850000D01*
X57946030Y-5802380D01*
X58184126Y-5802380D01*
X58326983Y-5850000D01*
X58660316Y-5802380D02*
X59279364Y-5802380D01*
X58946030Y-6183333D01*
X59088888Y-6183333D01*
X59184126Y-6230952D01*
X59231745Y-6278571D01*
X59279364Y-6373809D01*
X59279364Y-6611904D01*
X59231745Y-6707142D01*
X59184126Y-6754761D01*
X59088888Y-6802380D01*
X58803173Y-6802380D01*
X58707935Y-6754761D01*
X58660316Y-6707142D01*
X59612697Y-5802380D02*
X60231745Y-5802380D01*
X59898411Y-6183333D01*
X60041269Y-6183333D01*
X60136507Y-6230952D01*
X60184126Y-6278571D01*
X60231745Y-6373809D01*
X60231745Y-6611904D01*
X60184126Y-6707142D01*
X60136507Y-6754761D01*
X60041269Y-6802380D01*
X59755554Y-6802380D01*
X59660316Y-6754761D01*
X59612697Y-6707142D01*
X87252379Y-6754761D02*
X87395236Y-6802380D01*
X87633332Y-6802380D01*
X87728570Y-6754761D01*
X87776189Y-6707142D01*
X87823808Y-6611904D01*
X87823808Y-6516666D01*
X87776189Y-6421428D01*
X87728570Y-6373809D01*
X87633332Y-6326190D01*
X87442855Y-6278571D01*
X87347617Y-6230952D01*
X87299998Y-6183333D01*
X87252379Y-6088095D01*
X87252379Y-5992857D01*
X87299998Y-5897619D01*
X87347617Y-5850000D01*
X87442855Y-5802380D01*
X87680951Y-5802380D01*
X87823808Y-5850000D01*
X88157141Y-5802380D02*
X88776189Y-5802380D01*
X88442855Y-6183333D01*
X88585713Y-6183333D01*
X88680951Y-6230952D01*
X88728570Y-6278571D01*
X88776189Y-6373809D01*
X88776189Y-6611904D01*
X88728570Y-6707142D01*
X88680951Y-6754761D01*
X88585713Y-6802380D01*
X88299998Y-6802380D01*
X88204760Y-6754761D01*
X88157141Y-6707142D01*
X89633332Y-6135714D02*
X89633332Y-6802380D01*
X89395236Y-5754761D02*
X89157141Y-6469047D01*
X89776189Y-6469047D01*
X116749205Y-6754761D02*
X116892062Y-6802380D01*
X117130158Y-6802380D01*
X117225396Y-6754761D01*
X117273015Y-6707142D01*
X117320634Y-6611904D01*
X117320634Y-6516666D01*
X117273015Y-6421428D01*
X117225396Y-6373809D01*
X117130158Y-6326190D01*
X116939681Y-6278571D01*
X116844443Y-6230952D01*
X116796824Y-6183333D01*
X116749205Y-6088095D01*
X116749205Y-5992857D01*
X116796824Y-5897619D01*
X116844443Y-5850000D01*
X116939681Y-5802380D01*
X117177777Y-5802380D01*
X117320634Y-5850000D01*
X117653967Y-5802380D02*
X118273015Y-5802380D01*
X117939681Y-6183333D01*
X118082539Y-6183333D01*
X118177777Y-6230952D01*
X118225396Y-6278571D01*
X118273015Y-6373809D01*
X118273015Y-6611904D01*
X118225396Y-6707142D01*
X118177777Y-6754761D01*
X118082539Y-6802380D01*
X117796824Y-6802380D01*
X117701586Y-6754761D01*
X117653967Y-6707142D01*
X119177777Y-5802380D02*
X118701586Y-5802380D01*
X118653967Y-6278571D01*
X118701586Y-6230952D01*
X118796824Y-6183333D01*
X119034920Y-6183333D01*
X119130158Y-6230952D01*
X119177777Y-6278571D01*
X119225396Y-6373809D01*
X119225396Y-6611904D01*
X119177777Y-6707142D01*
X119130158Y-6754761D01*
X119034920Y-6802380D01*
X118796824Y-6802380D01*
X118701586Y-6754761D01*
X118653967Y-6707142D01*
X-104476983Y-32299761D02*
X-104334126Y-32347380D01*
X-104096030Y-32347380D01*
X-104000792Y-32299761D01*
X-103953173Y-32252142D01*
X-103905554Y-32156904D01*
X-103905554Y-32061666D01*
X-103953173Y-31966428D01*
X-104000792Y-31918809D01*
X-104096030Y-31871190D01*
X-104286507Y-31823571D01*
X-104381745Y-31775952D01*
X-104429364Y-31728333D01*
X-104476983Y-31633095D01*
X-104476983Y-31537857D01*
X-104429364Y-31442619D01*
X-104381745Y-31395000D01*
X-104286507Y-31347380D01*
X-104048411Y-31347380D01*
X-103905554Y-31395000D01*
X-103572221Y-31347380D02*
X-102953173Y-31347380D01*
X-103286507Y-31728333D01*
X-103143649Y-31728333D01*
X-103048411Y-31775952D01*
X-103000792Y-31823571D01*
X-102953173Y-31918809D01*
X-102953173Y-32156904D01*
X-103000792Y-32252142D01*
X-103048411Y-32299761D01*
X-103143649Y-32347380D01*
X-103429364Y-32347380D01*
X-103524602Y-32299761D01*
X-103572221Y-32252142D01*
X-102096030Y-31347380D02*
X-102286507Y-31347380D01*
X-102381745Y-31395000D01*
X-102429364Y-31442619D01*
X-102524602Y-31585476D01*
X-102572221Y-31775952D01*
X-102572221Y-32156904D01*
X-102524602Y-32252142D01*
X-102476983Y-32299761D01*
X-102381745Y-32347380D01*
X-102191268Y-32347380D01*
X-102096030Y-32299761D01*
X-102048411Y-32252142D01*
X-102000792Y-32156904D01*
X-102000792Y-31918809D01*
X-102048411Y-31823571D01*
X-102096030Y-31775952D01*
X-102191268Y-31728333D01*
X-102381745Y-31728333D01*
X-102476983Y-31775952D01*
X-102524602Y-31823571D01*
X-102572221Y-31918809D01*
X-74980158Y-32299761D02*
X-74837301Y-32347380D01*
X-74599205Y-32347380D01*
X-74503967Y-32299761D01*
X-74456348Y-32252142D01*
X-74408729Y-32156904D01*
X-74408729Y-32061666D01*
X-74456348Y-31966428D01*
X-74503967Y-31918809D01*
X-74599205Y-31871190D01*
X-74789682Y-31823571D01*
X-74884920Y-31775952D01*
X-74932539Y-31728333D01*
X-74980158Y-31633095D01*
X-74980158Y-31537857D01*
X-74932539Y-31442619D01*
X-74884920Y-31395000D01*
X-74789682Y-31347380D01*
X-74551586Y-31347380D01*
X-74408729Y-31395000D01*
X-74075396Y-31347380D02*
X-73456348Y-31347380D01*
X-73789682Y-31728333D01*
X-73646824Y-31728333D01*
X-73551586Y-31775952D01*
X-73503967Y-31823571D01*
X-73456348Y-31918809D01*
X-73456348Y-32156904D01*
X-73503967Y-32252142D01*
X-73551586Y-32299761D01*
X-73646824Y-32347380D01*
X-73932539Y-32347380D01*
X-74027777Y-32299761D01*
X-74075396Y-32252142D01*
X-73123015Y-31347380D02*
X-72456348Y-31347380D01*
X-72884920Y-32347380D01*
X-45483332Y-32299761D02*
X-45340475Y-32347380D01*
X-45102379Y-32347380D01*
X-45007141Y-32299761D01*
X-44959522Y-32252142D01*
X-44911903Y-32156904D01*
X-44911903Y-32061666D01*
X-44959522Y-31966428D01*
X-45007141Y-31918809D01*
X-45102379Y-31871190D01*
X-45292856Y-31823571D01*
X-45388094Y-31775952D01*
X-45435713Y-31728333D01*
X-45483332Y-31633095D01*
X-45483332Y-31537857D01*
X-45435713Y-31442619D01*
X-45388094Y-31395000D01*
X-45292856Y-31347380D01*
X-45054760Y-31347380D01*
X-44911903Y-31395000D01*
X-44578570Y-31347380D02*
X-43959522Y-31347380D01*
X-44292856Y-31728333D01*
X-44149998Y-31728333D01*
X-44054760Y-31775952D01*
X-44007141Y-31823571D01*
X-43959522Y-31918809D01*
X-43959522Y-32156904D01*
X-44007141Y-32252142D01*
X-44054760Y-32299761D01*
X-44149998Y-32347380D01*
X-44435713Y-32347380D01*
X-44530951Y-32299761D01*
X-44578570Y-32252142D01*
X-43388094Y-31775952D02*
X-43483332Y-31728333D01*
X-43530951Y-31680714D01*
X-43578570Y-31585476D01*
X-43578570Y-31537857D01*
X-43530951Y-31442619D01*
X-43483332Y-31395000D01*
X-43388094Y-31347380D01*
X-43197617Y-31347380D01*
X-43102379Y-31395000D01*
X-43054760Y-31442619D01*
X-43007141Y-31537857D01*
X-43007141Y-31585476D01*
X-43054760Y-31680714D01*
X-43102379Y-31728333D01*
X-43197617Y-31775952D01*
X-43388094Y-31775952D01*
X-43483332Y-31823571D01*
X-43530951Y-31871190D01*
X-43578570Y-31966428D01*
X-43578570Y-32156904D01*
X-43530951Y-32252142D01*
X-43483332Y-32299761D01*
X-43388094Y-32347380D01*
X-43197617Y-32347380D01*
X-43102379Y-32299761D01*
X-43054760Y-32252142D01*
X-43007141Y-32156904D01*
X-43007141Y-31966428D01*
X-43054760Y-31871190D01*
X-43102379Y-31823571D01*
X-43197617Y-31775952D01*
X72503967Y-32299761D02*
X72646824Y-32347380D01*
X72884920Y-32347380D01*
X72980158Y-32299761D01*
X73027777Y-32252142D01*
X73075396Y-32156904D01*
X73075396Y-32061666D01*
X73027777Y-31966428D01*
X72980158Y-31918809D01*
X72884920Y-31871190D01*
X72694443Y-31823571D01*
X72599205Y-31775952D01*
X72551586Y-31728333D01*
X72503967Y-31633095D01*
X72503967Y-31537857D01*
X72551586Y-31442619D01*
X72599205Y-31395000D01*
X72694443Y-31347380D01*
X72932539Y-31347380D01*
X73075396Y-31395000D01*
X73932539Y-31680714D02*
X73932539Y-32347380D01*
X73694443Y-31299761D02*
X73456348Y-32014047D01*
X74075396Y-32014047D01*
X74408729Y-31442619D02*
X74456348Y-31395000D01*
X74551586Y-31347380D01*
X74789682Y-31347380D01*
X74884920Y-31395000D01*
X74932539Y-31442619D01*
X74980158Y-31537857D01*
X74980158Y-31633095D01*
X74932539Y-31775952D01*
X74361110Y-32347380D01*
X74980158Y-32347380D01*
X102000792Y-32299761D02*
X102143649Y-32347380D01*
X102381745Y-32347380D01*
X102476983Y-32299761D01*
X102524602Y-32252142D01*
X102572221Y-32156904D01*
X102572221Y-32061666D01*
X102524602Y-31966428D01*
X102476983Y-31918809D01*
X102381745Y-31871190D01*
X102191268Y-31823571D01*
X102096030Y-31775952D01*
X102048411Y-31728333D01*
X102000792Y-31633095D01*
X102000792Y-31537857D01*
X102048411Y-31442619D01*
X102096030Y-31395000D01*
X102191268Y-31347380D01*
X102429364Y-31347380D01*
X102572221Y-31395000D01*
X103429364Y-31680714D02*
X103429364Y-32347380D01*
X103191268Y-31299761D02*
X102953173Y-32014047D01*
X103572221Y-32014047D01*
X103857935Y-31347380D02*
X104476983Y-31347380D01*
X104143649Y-31728333D01*
X104286507Y-31728333D01*
X104381745Y-31775952D01*
X104429364Y-31823571D01*
X104476983Y-31918809D01*
X104476983Y-32156904D01*
X104429364Y-32252142D01*
X104381745Y-32299761D01*
X104286507Y-32347380D01*
X104000792Y-32347380D01*
X103905554Y-32299761D01*
X103857935Y-32252142D01*
X-89728570Y-57844761D02*
X-89585713Y-57892380D01*
X-89347617Y-57892380D01*
X-89252379Y-57844761D01*
X-89204760Y-57797142D01*
X-89157141Y-57701904D01*
X-89157141Y-57606666D01*
X-89204760Y-57511428D01*
X-89252379Y-57463809D01*
X-89347617Y-57416190D01*
X-89538094Y-57368571D01*
X-89633332Y-57320952D01*
X-89680951Y-57273333D01*
X-89728570Y-57178095D01*
X-89728570Y-57082857D01*
X-89680951Y-56987619D01*
X-89633332Y-56940000D01*
X-89538094Y-56892380D01*
X-89299998Y-56892380D01*
X-89157141Y-56940000D01*
X-88299998Y-57225714D02*
X-88299998Y-57892380D01*
X-88538094Y-56844761D02*
X-88776189Y-57559047D01*
X-88157141Y-57559047D01*
X-87347617Y-57225714D02*
X-87347617Y-57892380D01*
X-87585713Y-56844761D02*
X-87823808Y-57559047D01*
X-87204760Y-57559047D01*
X-60231745Y-57844761D02*
X-60088888Y-57892380D01*
X-59850792Y-57892380D01*
X-59755554Y-57844761D01*
X-59707935Y-57797142D01*
X-59660316Y-57701904D01*
X-59660316Y-57606666D01*
X-59707935Y-57511428D01*
X-59755554Y-57463809D01*
X-59850792Y-57416190D01*
X-60041269Y-57368571D01*
X-60136507Y-57320952D01*
X-60184126Y-57273333D01*
X-60231745Y-57178095D01*
X-60231745Y-57082857D01*
X-60184126Y-56987619D01*
X-60136507Y-56940000D01*
X-60041269Y-56892380D01*
X-59803173Y-56892380D01*
X-59660316Y-56940000D01*
X-58803173Y-57225714D02*
X-58803173Y-57892380D01*
X-59041269Y-56844761D02*
X-59279364Y-57559047D01*
X-58660316Y-57559047D01*
X-57803173Y-56892380D02*
X-58279364Y-56892380D01*
X-58326983Y-57368571D01*
X-58279364Y-57320952D01*
X-58184126Y-57273333D01*
X-57946030Y-57273333D01*
X-57850792Y-57320952D01*
X-57803173Y-57368571D01*
X-57755554Y-57463809D01*
X-57755554Y-57701904D01*
X-57803173Y-57797142D01*
X-57850792Y-57844761D01*
X-57946030Y-57892380D01*
X-58184126Y-57892380D01*
X-58279364Y-57844761D01*
X-58326983Y-57797142D01*
X-30734920Y-57844761D02*
X-30592063Y-57892380D01*
X-30353967Y-57892380D01*
X-30258729Y-57844761D01*
X-30211110Y-57797142D01*
X-30163491Y-57701904D01*
X-30163491Y-57606666D01*
X-30211110Y-57511428D01*
X-30258729Y-57463809D01*
X-30353967Y-57416190D01*
X-30544444Y-57368571D01*
X-30639682Y-57320952D01*
X-30687301Y-57273333D01*
X-30734920Y-57178095D01*
X-30734920Y-57082857D01*
X-30687301Y-56987619D01*
X-30639682Y-56940000D01*
X-30544444Y-56892380D01*
X-30306348Y-56892380D01*
X-30163491Y-56940000D01*
X-29306348Y-57225714D02*
X-29306348Y-57892380D01*
X-29544444Y-56844761D02*
X-29782539Y-57559047D01*
X-29163491Y-57559047D01*
X-28353967Y-56892380D02*
X-28544444Y-56892380D01*
X-28639682Y-56940000D01*
X-28687301Y-56987619D01*
X-28782539Y-57130476D01*
X-28830158Y-57320952D01*
X-28830158Y-57701904D01*
X-28782539Y-57797142D01*
X-28734920Y-57844761D01*
X-28639682Y-57892380D01*
X-28449205Y-57892380D01*
X-28353967Y-57844761D01*
X-28306348Y-57797142D01*
X-28258729Y-57701904D01*
X-28258729Y-57463809D01*
X-28306348Y-57368571D01*
X-28353967Y-57320952D01*
X-28449205Y-57273333D01*
X-28639682Y-57273333D01*
X-28734920Y-57320952D01*
X-28782539Y-57368571D01*
X-28830158Y-57463809D01*
X57755554Y-57844761D02*
X57898411Y-57892380D01*
X58136507Y-57892380D01*
X58231745Y-57844761D01*
X58279364Y-57797142D01*
X58326983Y-57701904D01*
X58326983Y-57606666D01*
X58279364Y-57511428D01*
X58231745Y-57463809D01*
X58136507Y-57416190D01*
X57946030Y-57368571D01*
X57850792Y-57320952D01*
X57803173Y-57273333D01*
X57755554Y-57178095D01*
X57755554Y-57082857D01*
X57803173Y-56987619D01*
X57850792Y-56940000D01*
X57946030Y-56892380D01*
X58184126Y-56892380D01*
X58326983Y-56940000D01*
X59184126Y-57225714D02*
X59184126Y-57892380D01*
X58946030Y-56844761D02*
X58707935Y-57559047D01*
X59326983Y-57559047D01*
X59755554Y-57892380D02*
X59946030Y-57892380D01*
X60041269Y-57844761D01*
X60088888Y-57797142D01*
X60184126Y-57654285D01*
X60231745Y-57463809D01*
X60231745Y-57082857D01*
X60184126Y-56987619D01*
X60136507Y-56940000D01*
X60041269Y-56892380D01*
X59850792Y-56892380D01*
X59755554Y-56940000D01*
X59707935Y-56987619D01*
X59660316Y-57082857D01*
X59660316Y-57320952D01*
X59707935Y-57416190D01*
X59755554Y-57463809D01*
X59850792Y-57511428D01*
X60041269Y-57511428D01*
X60136507Y-57463809D01*
X60184126Y-57416190D01*
X60231745Y-57320952D01*
X87252379Y-57844761D02*
X87395236Y-57892380D01*
X87633332Y-57892380D01*
X87728570Y-57844761D01*
X87776189Y-57797142D01*
X87823808Y-57701904D01*
X87823808Y-57606666D01*
X87776189Y-57511428D01*
X87728570Y-57463809D01*
X87633332Y-57416190D01*
X87442855Y-57368571D01*
X87347617Y-57320952D01*
X87299998Y-57273333D01*
X87252379Y-57178095D01*
X87252379Y-57082857D01*
X87299998Y-56987619D01*
X87347617Y-56940000D01*
X87442855Y-56892380D01*
X87680951Y-56892380D01*
X87823808Y-56940000D01*
X88728570Y-56892380D02*
X88252379Y-56892380D01*
X88204760Y-57368571D01*
X88252379Y-57320952D01*
X88347617Y-57273333D01*
X88585713Y-57273333D01*
X88680951Y-57320952D01*
X88728570Y-57368571D01*
X88776189Y-57463809D01*
X88776189Y-57701904D01*
X88728570Y-57797142D01*
X88680951Y-57844761D01*
X88585713Y-57892380D01*
X88347617Y-57892380D01*
X88252379Y-57844761D01*
X88204760Y-57797142D01*
X89395236Y-56892380D02*
X89490475Y-56892380D01*
X89585713Y-56940000D01*
X89633332Y-56987619D01*
X89680951Y-57082857D01*
X89728570Y-57273333D01*
X89728570Y-57511428D01*
X89680951Y-57701904D01*
X89633332Y-57797142D01*
X89585713Y-57844761D01*
X89490475Y-57892380D01*
X89395236Y-57892380D01*
X89299998Y-57844761D01*
X89252379Y-57797142D01*
X89204760Y-57701904D01*
X89157141Y-57511428D01*
X89157141Y-57273333D01*
X89204760Y-57082857D01*
X89252379Y-56987619D01*
X89299998Y-56940000D01*
X89395236Y-56892380D01*
X-74980158Y-83389761D02*
X-74837301Y-83437380D01*
X-74599205Y-83437380D01*
X-74503967Y-83389761D01*
X-74456348Y-83342142D01*
X-74408729Y-83246904D01*
X-74408729Y-83151666D01*
X-74456348Y-83056428D01*
X-74503967Y-83008809D01*
X-74599205Y-82961190D01*
X-74789682Y-82913571D01*
X-74884920Y-82865952D01*
X-74932539Y-82818333D01*
X-74980158Y-82723095D01*
X-74980158Y-82627857D01*
X-74932539Y-82532619D01*
X-74884920Y-82485000D01*
X-74789682Y-82437380D01*
X-74551586Y-82437380D01*
X-74408729Y-82485000D01*
X-73503967Y-82437380D02*
X-73980158Y-82437380D01*
X-74027777Y-82913571D01*
X-73980158Y-82865952D01*
X-73884920Y-82818333D01*
X-73646824Y-82818333D01*
X-73551586Y-82865952D01*
X-73503967Y-82913571D01*
X-73456348Y-83008809D01*
X-73456348Y-83246904D01*
X-73503967Y-83342142D01*
X-73551586Y-83389761D01*
X-73646824Y-83437380D01*
X-73884920Y-83437380D01*
X-73980158Y-83389761D01*
X-74027777Y-83342142D01*
X-72503967Y-83437380D02*
X-73075396Y-83437380D01*
X-72789682Y-83437380D02*
X-72789682Y-82437380D01*
X-72884920Y-82580238D01*
X-72980158Y-82675476D01*
X-73075396Y-82723095D01*
X-45483332Y-83389761D02*
X-45340475Y-83437380D01*
X-45102379Y-83437380D01*
X-45007141Y-83389761D01*
X-44959522Y-83342142D01*
X-44911903Y-83246904D01*
X-44911903Y-83151666D01*
X-44959522Y-83056428D01*
X-45007141Y-83008809D01*
X-45102379Y-82961190D01*
X-45292856Y-82913571D01*
X-45388094Y-82865952D01*
X-45435713Y-82818333D01*
X-45483332Y-82723095D01*
X-45483332Y-82627857D01*
X-45435713Y-82532619D01*
X-45388094Y-82485000D01*
X-45292856Y-82437380D01*
X-45054760Y-82437380D01*
X-44911903Y-82485000D01*
X-44007141Y-82437380D02*
X-44483332Y-82437380D01*
X-44530951Y-82913571D01*
X-44483332Y-82865952D01*
X-44388094Y-82818333D01*
X-44149998Y-82818333D01*
X-44054760Y-82865952D01*
X-44007141Y-82913571D01*
X-43959522Y-83008809D01*
X-43959522Y-83246904D01*
X-44007141Y-83342142D01*
X-44054760Y-83389761D01*
X-44149998Y-83437380D01*
X-44388094Y-83437380D01*
X-44483332Y-83389761D01*
X-44530951Y-83342142D01*
X-43578570Y-82532619D02*
X-43530951Y-82485000D01*
X-43435713Y-82437380D01*
X-43197617Y-82437380D01*
X-43102379Y-82485000D01*
X-43054760Y-82532619D01*
X-43007141Y-82627857D01*
X-43007141Y-82723095D01*
X-43054760Y-82865952D01*
X-43626189Y-83437380D01*
X-43007141Y-83437380D01*
X13510316Y-83389761D02*
X13653173Y-83437380D01*
X13891269Y-83437380D01*
X13986507Y-83389761D01*
X14034126Y-83342142D01*
X14081745Y-83246904D01*
X14081745Y-83151666D01*
X14034126Y-83056428D01*
X13986507Y-83008809D01*
X13891269Y-82961190D01*
X13700792Y-82913571D01*
X13605554Y-82865952D01*
X13557935Y-82818333D01*
X13510316Y-82723095D01*
X13510316Y-82627857D01*
X13557935Y-82532619D01*
X13605554Y-82485000D01*
X13700792Y-82437380D01*
X13938888Y-82437380D01*
X14081745Y-82485000D01*
X14986507Y-82437380D02*
X14510316Y-82437380D01*
X14462697Y-82913571D01*
X14510316Y-82865952D01*
X14605554Y-82818333D01*
X14843650Y-82818333D01*
X14938888Y-82865952D01*
X14986507Y-82913571D01*
X15034126Y-83008809D01*
X15034126Y-83246904D01*
X14986507Y-83342142D01*
X14938888Y-83389761D01*
X14843650Y-83437380D01*
X14605554Y-83437380D01*
X14510316Y-83389761D01*
X14462697Y-83342142D01*
X15891269Y-82770714D02*
X15891269Y-83437380D01*
X15653173Y-82389761D02*
X15415078Y-83104047D01*
X16034126Y-83104047D01*
X72503967Y-83389761D02*
X72646824Y-83437380D01*
X72884920Y-83437380D01*
X72980158Y-83389761D01*
X73027777Y-83342142D01*
X73075396Y-83246904D01*
X73075396Y-83151666D01*
X73027777Y-83056428D01*
X72980158Y-83008809D01*
X72884920Y-82961190D01*
X72694443Y-82913571D01*
X72599205Y-82865952D01*
X72551586Y-82818333D01*
X72503967Y-82723095D01*
X72503967Y-82627857D01*
X72551586Y-82532619D01*
X72599205Y-82485000D01*
X72694443Y-82437380D01*
X72932539Y-82437380D01*
X73075396Y-82485000D01*
X73980158Y-82437380D02*
X73503967Y-82437380D01*
X73456348Y-82913571D01*
X73503967Y-82865952D01*
X73599205Y-82818333D01*
X73837301Y-82818333D01*
X73932539Y-82865952D01*
X73980158Y-82913571D01*
X74027777Y-83008809D01*
X74027777Y-83246904D01*
X73980158Y-83342142D01*
X73932539Y-83389761D01*
X73837301Y-83437380D01*
X73599205Y-83437380D01*
X73503967Y-83389761D01*
X73456348Y-83342142D01*
X74884920Y-82437380D02*
X74694443Y-82437380D01*
X74599205Y-82485000D01*
X74551586Y-82532619D01*
X74456348Y-82675476D01*
X74408729Y-82865952D01*
X74408729Y-83246904D01*
X74456348Y-83342142D01*
X74503967Y-83389761D01*
X74599205Y-83437380D01*
X74789682Y-83437380D01*
X74884920Y-83389761D01*
X74932539Y-83342142D01*
X74980158Y-83246904D01*
X74980158Y-83008809D01*
X74932539Y-82913571D01*
X74884920Y-82865952D01*
X74789682Y-82818333D01*
X74599205Y-82818333D01*
X74503967Y-82865952D01*
X74456348Y-82913571D01*
X74408729Y-83008809D01*
X-60231745Y-108934761D02*
X-60088888Y-108982380D01*
X-59850792Y-108982380D01*
X-59755554Y-108934761D01*
X-59707935Y-108887142D01*
X-59660316Y-108791904D01*
X-59660316Y-108696666D01*
X-59707935Y-108601428D01*
X-59755554Y-108553809D01*
X-59850792Y-108506190D01*
X-60041269Y-108458571D01*
X-60136507Y-108410952D01*
X-60184126Y-108363333D01*
X-60231745Y-108268095D01*
X-60231745Y-108172857D01*
X-60184126Y-108077619D01*
X-60136507Y-108030000D01*
X-60041269Y-107982380D01*
X-59803173Y-107982380D01*
X-59660316Y-108030000D01*
X-58755554Y-107982380D02*
X-59231745Y-107982380D01*
X-59279364Y-108458571D01*
X-59231745Y-108410952D01*
X-59136507Y-108363333D01*
X-58898411Y-108363333D01*
X-58803173Y-108410952D01*
X-58755554Y-108458571D01*
X-58707935Y-108553809D01*
X-58707935Y-108791904D01*
X-58755554Y-108887142D01*
X-58803173Y-108934761D01*
X-58898411Y-108982380D01*
X-59136507Y-108982380D01*
X-59231745Y-108934761D01*
X-59279364Y-108887142D01*
X-58374602Y-107982380D02*
X-57707935Y-107982380D01*
X-58136507Y-108982380D01*
X-30734920Y-108934761D02*
X-30592063Y-108982380D01*
X-30353967Y-108982380D01*
X-30258729Y-108934761D01*
X-30211110Y-108887142D01*
X-30163491Y-108791904D01*
X-30163491Y-108696666D01*
X-30211110Y-108601428D01*
X-30258729Y-108553809D01*
X-30353967Y-108506190D01*
X-30544444Y-108458571D01*
X-30639682Y-108410952D01*
X-30687301Y-108363333D01*
X-30734920Y-108268095D01*
X-30734920Y-108172857D01*
X-30687301Y-108077619D01*
X-30639682Y-108030000D01*
X-30544444Y-107982380D01*
X-30306348Y-107982380D01*
X-30163491Y-108030000D01*
X-29258729Y-107982380D02*
X-29734920Y-107982380D01*
X-29782539Y-108458571D01*
X-29734920Y-108410952D01*
X-29639682Y-108363333D01*
X-29401586Y-108363333D01*
X-29306348Y-108410952D01*
X-29258729Y-108458571D01*
X-29211110Y-108553809D01*
X-29211110Y-108791904D01*
X-29258729Y-108887142D01*
X-29306348Y-108934761D01*
X-29401586Y-108982380D01*
X-29639682Y-108982380D01*
X-29734920Y-108934761D01*
X-29782539Y-108887142D01*
X-28639682Y-108410952D02*
X-28734920Y-108363333D01*
X-28782539Y-108315714D01*
X-28830158Y-108220476D01*
X-28830158Y-108172857D01*
X-28782539Y-108077619D01*
X-28734920Y-108030000D01*
X-28639682Y-107982380D01*
X-28449205Y-107982380D01*
X-28353967Y-108030000D01*
X-28306348Y-108077619D01*
X-28258729Y-108172857D01*
X-28258729Y-108220476D01*
X-28306348Y-108315714D01*
X-28353967Y-108363333D01*
X-28449205Y-108410952D01*
X-28639682Y-108410952D01*
X-28734920Y-108458571D01*
X-28782539Y-108506190D01*
X-28830158Y-108601428D01*
X-28830158Y-108791904D01*
X-28782539Y-108887142D01*
X-28734920Y-108934761D01*
X-28639682Y-108982380D01*
X-28449205Y-108982380D01*
X-28353967Y-108934761D01*
X-28306348Y-108887142D01*
X-28258729Y-108791904D01*
X-28258729Y-108601428D01*
X-28306348Y-108506190D01*
X-28353967Y-108458571D01*
X-28449205Y-108410952D01*
X57755554Y-108934761D02*
X57898411Y-108982380D01*
X58136507Y-108982380D01*
X58231745Y-108934761D01*
X58279364Y-108887142D01*
X58326983Y-108791904D01*
X58326983Y-108696666D01*
X58279364Y-108601428D01*
X58231745Y-108553809D01*
X58136507Y-108506190D01*
X57946030Y-108458571D01*
X57850792Y-108410952D01*
X57803173Y-108363333D01*
X57755554Y-108268095D01*
X57755554Y-108172857D01*
X57803173Y-108077619D01*
X57850792Y-108030000D01*
X57946030Y-107982380D01*
X58184126Y-107982380D01*
X58326983Y-108030000D01*
X59184126Y-107982380D02*
X58993650Y-107982380D01*
X58898411Y-108030000D01*
X58850792Y-108077619D01*
X58755554Y-108220476D01*
X58707935Y-108410952D01*
X58707935Y-108791904D01*
X58755554Y-108887142D01*
X58803173Y-108934761D01*
X58898411Y-108982380D01*
X59088888Y-108982380D01*
X59184126Y-108934761D01*
X59231745Y-108887142D01*
X59279364Y-108791904D01*
X59279364Y-108553809D01*
X59231745Y-108458571D01*
X59184126Y-108410952D01*
X59088888Y-108363333D01*
X58898411Y-108363333D01*
X58803173Y-108410952D01*
X58755554Y-108458571D01*
X58707935Y-108553809D01*
X60231745Y-108982380D02*
X59660316Y-108982380D01*
X59946030Y-108982380D02*
X59946030Y-107982380D01*
X59850792Y-108125238D01*
X59755554Y-108220476D01*
X59660316Y-108268095D01*
M02*
