G04 #@! TF.GenerationSoftware,KiCad,Pcbnew,(5.1.5-0-10_14)*
G04 #@! TF.CreationDate,2020-10-18T20:02:10-04:00*
G04 #@! TF.ProjectId,rainboard_newfighter,7261696e-626f-4617-9264-5f6e65776669,rev?*
G04 #@! TF.SameCoordinates,Original*
G04 #@! TF.FileFunction,Copper,L1,Top*
G04 #@! TF.FilePolarity,Positive*
%FSLAX46Y46*%
G04 Gerber Fmt 4.6, Leading zero omitted, Abs format (unit mm)*
G04 Created by KiCad (PCBNEW (5.1.5-0-10_14)) date 2020-10-18 20:02:10*
%MOMM*%
%LPD*%
G04 APERTURE LIST*
%ADD10R,2.500000X1.800000*%
%ADD11O,3.000000X6.000000*%
%ADD12C,0.100000*%
%ADD13C,1.700000*%
%ADD14O,1.700000X2.000000*%
%ADD15C,1.950000*%
%ADD16R,1.930000X0.590000*%
%ADD17R,0.600000X1.900000*%
%ADD18R,0.533400X1.701800*%
%ADD19O,6.000000X3.000000*%
%ADD20O,1.727200X1.727200*%
%ADD21C,0.800000*%
%ADD22C,0.200600*%
%ADD23C,0.500000*%
G04 APERTURE END LIST*
D10*
X-37100000Y-115800000D03*
X-33100000Y-115800000D03*
D11*
X-77842100Y-75235000D03*
X-69642100Y-75235000D03*
G04 #@! TA.AperFunction,SMDPad,CuDef*
D12*
G36*
X-5747309Y-115326053D02*
G01*
X-5726074Y-115329203D01*
X-5705250Y-115334419D01*
X-5685038Y-115341651D01*
X-5665632Y-115350830D01*
X-5647219Y-115361866D01*
X-5629976Y-115374654D01*
X-5614070Y-115389070D01*
X-5599654Y-115404976D01*
X-5586866Y-115422219D01*
X-5575830Y-115440632D01*
X-5566651Y-115460038D01*
X-5559419Y-115480250D01*
X-5554203Y-115501074D01*
X-5551053Y-115522309D01*
X-5550000Y-115543750D01*
X-5550000Y-116056250D01*
X-5551053Y-116077691D01*
X-5554203Y-116098926D01*
X-5559419Y-116119750D01*
X-5566651Y-116139962D01*
X-5575830Y-116159368D01*
X-5586866Y-116177781D01*
X-5599654Y-116195024D01*
X-5614070Y-116210930D01*
X-5629976Y-116225346D01*
X-5647219Y-116238134D01*
X-5665632Y-116249170D01*
X-5685038Y-116258349D01*
X-5705250Y-116265581D01*
X-5726074Y-116270797D01*
X-5747309Y-116273947D01*
X-5768750Y-116275000D01*
X-6206250Y-116275000D01*
X-6227691Y-116273947D01*
X-6248926Y-116270797D01*
X-6269750Y-116265581D01*
X-6289962Y-116258349D01*
X-6309368Y-116249170D01*
X-6327781Y-116238134D01*
X-6345024Y-116225346D01*
X-6360930Y-116210930D01*
X-6375346Y-116195024D01*
X-6388134Y-116177781D01*
X-6399170Y-116159368D01*
X-6408349Y-116139962D01*
X-6415581Y-116119750D01*
X-6420797Y-116098926D01*
X-6423947Y-116077691D01*
X-6425000Y-116056250D01*
X-6425000Y-115543750D01*
X-6423947Y-115522309D01*
X-6420797Y-115501074D01*
X-6415581Y-115480250D01*
X-6408349Y-115460038D01*
X-6399170Y-115440632D01*
X-6388134Y-115422219D01*
X-6375346Y-115404976D01*
X-6360930Y-115389070D01*
X-6345024Y-115374654D01*
X-6327781Y-115361866D01*
X-6309368Y-115350830D01*
X-6289962Y-115341651D01*
X-6269750Y-115334419D01*
X-6248926Y-115329203D01*
X-6227691Y-115326053D01*
X-6206250Y-115325000D01*
X-5768750Y-115325000D01*
X-5747309Y-115326053D01*
G37*
G04 #@! TD.AperFunction*
G04 #@! TA.AperFunction,SMDPad,CuDef*
G36*
X-4172309Y-115326053D02*
G01*
X-4151074Y-115329203D01*
X-4130250Y-115334419D01*
X-4110038Y-115341651D01*
X-4090632Y-115350830D01*
X-4072219Y-115361866D01*
X-4054976Y-115374654D01*
X-4039070Y-115389070D01*
X-4024654Y-115404976D01*
X-4011866Y-115422219D01*
X-4000830Y-115440632D01*
X-3991651Y-115460038D01*
X-3984419Y-115480250D01*
X-3979203Y-115501074D01*
X-3976053Y-115522309D01*
X-3975000Y-115543750D01*
X-3975000Y-116056250D01*
X-3976053Y-116077691D01*
X-3979203Y-116098926D01*
X-3984419Y-116119750D01*
X-3991651Y-116139962D01*
X-4000830Y-116159368D01*
X-4011866Y-116177781D01*
X-4024654Y-116195024D01*
X-4039070Y-116210930D01*
X-4054976Y-116225346D01*
X-4072219Y-116238134D01*
X-4090632Y-116249170D01*
X-4110038Y-116258349D01*
X-4130250Y-116265581D01*
X-4151074Y-116270797D01*
X-4172309Y-116273947D01*
X-4193750Y-116275000D01*
X-4631250Y-116275000D01*
X-4652691Y-116273947D01*
X-4673926Y-116270797D01*
X-4694750Y-116265581D01*
X-4714962Y-116258349D01*
X-4734368Y-116249170D01*
X-4752781Y-116238134D01*
X-4770024Y-116225346D01*
X-4785930Y-116210930D01*
X-4800346Y-116195024D01*
X-4813134Y-116177781D01*
X-4824170Y-116159368D01*
X-4833349Y-116139962D01*
X-4840581Y-116119750D01*
X-4845797Y-116098926D01*
X-4848947Y-116077691D01*
X-4850000Y-116056250D01*
X-4850000Y-115543750D01*
X-4848947Y-115522309D01*
X-4845797Y-115501074D01*
X-4840581Y-115480250D01*
X-4833349Y-115460038D01*
X-4824170Y-115440632D01*
X-4813134Y-115422219D01*
X-4800346Y-115404976D01*
X-4785930Y-115389070D01*
X-4770024Y-115374654D01*
X-4752781Y-115361866D01*
X-4734368Y-115350830D01*
X-4714962Y-115341651D01*
X-4694750Y-115334419D01*
X-4673926Y-115329203D01*
X-4652691Y-115326053D01*
X-4631250Y-115325000D01*
X-4193750Y-115325000D01*
X-4172309Y-115326053D01*
G37*
G04 #@! TD.AperFunction*
G04 #@! TA.AperFunction,SMDPad,CuDef*
G36*
X-2247309Y-117726053D02*
G01*
X-2226074Y-117729203D01*
X-2205250Y-117734419D01*
X-2185038Y-117741651D01*
X-2165632Y-117750830D01*
X-2147219Y-117761866D01*
X-2129976Y-117774654D01*
X-2114070Y-117789070D01*
X-2099654Y-117804976D01*
X-2086866Y-117822219D01*
X-2075830Y-117840632D01*
X-2066651Y-117860038D01*
X-2059419Y-117880250D01*
X-2054203Y-117901074D01*
X-2051053Y-117922309D01*
X-2050000Y-117943750D01*
X-2050000Y-118456250D01*
X-2051053Y-118477691D01*
X-2054203Y-118498926D01*
X-2059419Y-118519750D01*
X-2066651Y-118539962D01*
X-2075830Y-118559368D01*
X-2086866Y-118577781D01*
X-2099654Y-118595024D01*
X-2114070Y-118610930D01*
X-2129976Y-118625346D01*
X-2147219Y-118638134D01*
X-2165632Y-118649170D01*
X-2185038Y-118658349D01*
X-2205250Y-118665581D01*
X-2226074Y-118670797D01*
X-2247309Y-118673947D01*
X-2268750Y-118675000D01*
X-2706250Y-118675000D01*
X-2727691Y-118673947D01*
X-2748926Y-118670797D01*
X-2769750Y-118665581D01*
X-2789962Y-118658349D01*
X-2809368Y-118649170D01*
X-2827781Y-118638134D01*
X-2845024Y-118625346D01*
X-2860930Y-118610930D01*
X-2875346Y-118595024D01*
X-2888134Y-118577781D01*
X-2899170Y-118559368D01*
X-2908349Y-118539962D01*
X-2915581Y-118519750D01*
X-2920797Y-118498926D01*
X-2923947Y-118477691D01*
X-2925000Y-118456250D01*
X-2925000Y-117943750D01*
X-2923947Y-117922309D01*
X-2920797Y-117901074D01*
X-2915581Y-117880250D01*
X-2908349Y-117860038D01*
X-2899170Y-117840632D01*
X-2888134Y-117822219D01*
X-2875346Y-117804976D01*
X-2860930Y-117789070D01*
X-2845024Y-117774654D01*
X-2827781Y-117761866D01*
X-2809368Y-117750830D01*
X-2789962Y-117741651D01*
X-2769750Y-117734419D01*
X-2748926Y-117729203D01*
X-2727691Y-117726053D01*
X-2706250Y-117725000D01*
X-2268750Y-117725000D01*
X-2247309Y-117726053D01*
G37*
G04 #@! TD.AperFunction*
G04 #@! TA.AperFunction,SMDPad,CuDef*
G36*
X-672309Y-117726053D02*
G01*
X-651074Y-117729203D01*
X-630250Y-117734419D01*
X-610038Y-117741651D01*
X-590632Y-117750830D01*
X-572219Y-117761866D01*
X-554976Y-117774654D01*
X-539070Y-117789070D01*
X-524654Y-117804976D01*
X-511866Y-117822219D01*
X-500830Y-117840632D01*
X-491651Y-117860038D01*
X-484419Y-117880250D01*
X-479203Y-117901074D01*
X-476053Y-117922309D01*
X-475000Y-117943750D01*
X-475000Y-118456250D01*
X-476053Y-118477691D01*
X-479203Y-118498926D01*
X-484419Y-118519750D01*
X-491651Y-118539962D01*
X-500830Y-118559368D01*
X-511866Y-118577781D01*
X-524654Y-118595024D01*
X-539070Y-118610930D01*
X-554976Y-118625346D01*
X-572219Y-118638134D01*
X-590632Y-118649170D01*
X-610038Y-118658349D01*
X-630250Y-118665581D01*
X-651074Y-118670797D01*
X-672309Y-118673947D01*
X-693750Y-118675000D01*
X-1131250Y-118675000D01*
X-1152691Y-118673947D01*
X-1173926Y-118670797D01*
X-1194750Y-118665581D01*
X-1214962Y-118658349D01*
X-1234368Y-118649170D01*
X-1252781Y-118638134D01*
X-1270024Y-118625346D01*
X-1285930Y-118610930D01*
X-1300346Y-118595024D01*
X-1313134Y-118577781D01*
X-1324170Y-118559368D01*
X-1333349Y-118539962D01*
X-1340581Y-118519750D01*
X-1345797Y-118498926D01*
X-1348947Y-118477691D01*
X-1350000Y-118456250D01*
X-1350000Y-117943750D01*
X-1348947Y-117922309D01*
X-1345797Y-117901074D01*
X-1340581Y-117880250D01*
X-1333349Y-117860038D01*
X-1324170Y-117840632D01*
X-1313134Y-117822219D01*
X-1300346Y-117804976D01*
X-1285930Y-117789070D01*
X-1270024Y-117774654D01*
X-1252781Y-117761866D01*
X-1234368Y-117750830D01*
X-1214962Y-117741651D01*
X-1194750Y-117734419D01*
X-1173926Y-117729203D01*
X-1152691Y-117726053D01*
X-1131250Y-117725000D01*
X-693750Y-117725000D01*
X-672309Y-117726053D01*
G37*
G04 #@! TD.AperFunction*
D11*
X-63093700Y-100780000D03*
X-54893700Y-100780000D03*
X33596800Y-52490000D03*
X25396800Y-52490000D03*
D13*
X61260653Y-89279427D02*
X61044147Y-89154427D01*
X62510653Y-87114364D02*
X62294147Y-86989364D01*
G04 #@! TA.AperFunction,ComponentPad*
D12*
G36*
X63357164Y-83756824D02*
G01*
X63381301Y-83761216D01*
X63404892Y-83767952D01*
X63427709Y-83776969D01*
X63449532Y-83788179D01*
X64705268Y-84513179D01*
X64725887Y-84526473D01*
X64745105Y-84541725D01*
X64762734Y-84558787D01*
X64778606Y-84577495D01*
X64792569Y-84597668D01*
X64804486Y-84619113D01*
X64814245Y-84641623D01*
X64821749Y-84664980D01*
X64826929Y-84688961D01*
X64829733Y-84713334D01*
X64830134Y-84737865D01*
X64828129Y-84762317D01*
X64823737Y-84786454D01*
X64817001Y-84810045D01*
X64807984Y-84832862D01*
X64796774Y-84854685D01*
X64196774Y-85893915D01*
X64183480Y-85914534D01*
X64168228Y-85933751D01*
X64151166Y-85951381D01*
X64132458Y-85967253D01*
X64112285Y-85981216D01*
X64090840Y-85993133D01*
X64068330Y-86002891D01*
X64044973Y-86010396D01*
X64020992Y-86015576D01*
X63996619Y-86018380D01*
X63972088Y-86018781D01*
X63947636Y-86016776D01*
X63923499Y-86012384D01*
X63899908Y-86005648D01*
X63877091Y-85996631D01*
X63855268Y-85985421D01*
X62599532Y-85260421D01*
X62578913Y-85247127D01*
X62559695Y-85231875D01*
X62542066Y-85214813D01*
X62526194Y-85196105D01*
X62512231Y-85175932D01*
X62500314Y-85154487D01*
X62490555Y-85131977D01*
X62483051Y-85108620D01*
X62477871Y-85084639D01*
X62475067Y-85060266D01*
X62474666Y-85035735D01*
X62476671Y-85011283D01*
X62481063Y-84987146D01*
X62487799Y-84963555D01*
X62496816Y-84940738D01*
X62508026Y-84918915D01*
X63108026Y-83879685D01*
X63121320Y-83859066D01*
X63136572Y-83839849D01*
X63153634Y-83822219D01*
X63172342Y-83806347D01*
X63192515Y-83792384D01*
X63213960Y-83780467D01*
X63236470Y-83770709D01*
X63259827Y-83763204D01*
X63283808Y-83758024D01*
X63308181Y-83755220D01*
X63332712Y-83754819D01*
X63357164Y-83756824D01*
G37*
G04 #@! TD.AperFunction*
D13*
X75851853Y-63674227D02*
X75635347Y-63549227D01*
X77101853Y-61509164D02*
X76885347Y-61384164D01*
G04 #@! TA.AperFunction,ComponentPad*
D12*
G36*
X77948364Y-58151624D02*
G01*
X77972501Y-58156016D01*
X77996092Y-58162752D01*
X78018909Y-58171769D01*
X78040732Y-58182979D01*
X79296468Y-58907979D01*
X79317087Y-58921273D01*
X79336305Y-58936525D01*
X79353934Y-58953587D01*
X79369806Y-58972295D01*
X79383769Y-58992468D01*
X79395686Y-59013913D01*
X79405445Y-59036423D01*
X79412949Y-59059780D01*
X79418129Y-59083761D01*
X79420933Y-59108134D01*
X79421334Y-59132665D01*
X79419329Y-59157117D01*
X79414937Y-59181254D01*
X79408201Y-59204845D01*
X79399184Y-59227662D01*
X79387974Y-59249485D01*
X78787974Y-60288715D01*
X78774680Y-60309334D01*
X78759428Y-60328551D01*
X78742366Y-60346181D01*
X78723658Y-60362053D01*
X78703485Y-60376016D01*
X78682040Y-60387933D01*
X78659530Y-60397691D01*
X78636173Y-60405196D01*
X78612192Y-60410376D01*
X78587819Y-60413180D01*
X78563288Y-60413581D01*
X78538836Y-60411576D01*
X78514699Y-60407184D01*
X78491108Y-60400448D01*
X78468291Y-60391431D01*
X78446468Y-60380221D01*
X77190732Y-59655221D01*
X77170113Y-59641927D01*
X77150895Y-59626675D01*
X77133266Y-59609613D01*
X77117394Y-59590905D01*
X77103431Y-59570732D01*
X77091514Y-59549287D01*
X77081755Y-59526777D01*
X77074251Y-59503420D01*
X77069071Y-59479439D01*
X77066267Y-59455066D01*
X77065866Y-59430535D01*
X77067871Y-59406083D01*
X77072263Y-59381946D01*
X77078999Y-59358355D01*
X77088016Y-59335538D01*
X77099226Y-59313715D01*
X77699226Y-58274485D01*
X77712520Y-58253866D01*
X77727772Y-58234649D01*
X77744834Y-58217019D01*
X77763542Y-58201147D01*
X77783715Y-58187184D01*
X77805160Y-58175267D01*
X77827670Y-58165509D01*
X77851027Y-58158004D01*
X77875008Y-58152824D01*
X77899381Y-58150020D01*
X77923912Y-58149619D01*
X77948364Y-58151624D01*
G37*
G04 #@! TD.AperFunction*
D14*
X30541600Y78587600D03*
G04 #@! TA.AperFunction,ComponentPad*
D12*
G36*
X28666104Y79586396D02*
G01*
X28690373Y79582796D01*
X28714171Y79576835D01*
X28737271Y79568570D01*
X28759449Y79558080D01*
X28780493Y79545467D01*
X28800198Y79530853D01*
X28818377Y79514377D01*
X28834853Y79496198D01*
X28849467Y79476493D01*
X28862080Y79455449D01*
X28872570Y79433271D01*
X28880835Y79410171D01*
X28886796Y79386373D01*
X28890396Y79362104D01*
X28891600Y79337600D01*
X28891600Y77837600D01*
X28890396Y77813096D01*
X28886796Y77788827D01*
X28880835Y77765029D01*
X28872570Y77741929D01*
X28862080Y77719751D01*
X28849467Y77698707D01*
X28834853Y77679002D01*
X28818377Y77660823D01*
X28800198Y77644347D01*
X28780493Y77629733D01*
X28759449Y77617120D01*
X28737271Y77606630D01*
X28714171Y77598365D01*
X28690373Y77592404D01*
X28666104Y77588804D01*
X28641600Y77587600D01*
X27441600Y77587600D01*
X27417096Y77588804D01*
X27392827Y77592404D01*
X27369029Y77598365D01*
X27345929Y77606630D01*
X27323751Y77617120D01*
X27302707Y77629733D01*
X27283002Y77644347D01*
X27264823Y77660823D01*
X27248347Y77679002D01*
X27233733Y77698707D01*
X27221120Y77719751D01*
X27210630Y77741929D01*
X27202365Y77765029D01*
X27196404Y77788827D01*
X27192804Y77813096D01*
X27191600Y77837600D01*
X27191600Y79337600D01*
X27192804Y79362104D01*
X27196404Y79386373D01*
X27202365Y79410171D01*
X27210630Y79433271D01*
X27221120Y79455449D01*
X27233733Y79476493D01*
X27248347Y79496198D01*
X27264823Y79514377D01*
X27283002Y79530853D01*
X27302707Y79545467D01*
X27323751Y79558080D01*
X27345929Y79568570D01*
X27369029Y79576835D01*
X27392827Y79582796D01*
X27417096Y79586396D01*
X27441600Y79587600D01*
X28641600Y79587600D01*
X28666104Y79586396D01*
G37*
G04 #@! TD.AperFunction*
D14*
X-28234000Y78587600D03*
G04 #@! TA.AperFunction,ComponentPad*
D12*
G36*
X-30109496Y79586396D02*
G01*
X-30085227Y79582796D01*
X-30061429Y79576835D01*
X-30038329Y79568570D01*
X-30016151Y79558080D01*
X-29995107Y79545467D01*
X-29975402Y79530853D01*
X-29957223Y79514377D01*
X-29940747Y79496198D01*
X-29926133Y79476493D01*
X-29913520Y79455449D01*
X-29903030Y79433271D01*
X-29894765Y79410171D01*
X-29888804Y79386373D01*
X-29885204Y79362104D01*
X-29884000Y79337600D01*
X-29884000Y77837600D01*
X-29885204Y77813096D01*
X-29888804Y77788827D01*
X-29894765Y77765029D01*
X-29903030Y77741929D01*
X-29913520Y77719751D01*
X-29926133Y77698707D01*
X-29940747Y77679002D01*
X-29957223Y77660823D01*
X-29975402Y77644347D01*
X-29995107Y77629733D01*
X-30016151Y77617120D01*
X-30038329Y77606630D01*
X-30061429Y77598365D01*
X-30085227Y77592404D01*
X-30109496Y77588804D01*
X-30134000Y77587600D01*
X-31334000Y77587600D01*
X-31358504Y77588804D01*
X-31382773Y77592404D01*
X-31406571Y77598365D01*
X-31429671Y77606630D01*
X-31451849Y77617120D01*
X-31472893Y77629733D01*
X-31492598Y77644347D01*
X-31510777Y77660823D01*
X-31527253Y77679002D01*
X-31541867Y77698707D01*
X-31554480Y77719751D01*
X-31564970Y77741929D01*
X-31573235Y77765029D01*
X-31579196Y77788827D01*
X-31582796Y77813096D01*
X-31584000Y77837600D01*
X-31584000Y79337600D01*
X-31582796Y79362104D01*
X-31579196Y79386373D01*
X-31573235Y79410171D01*
X-31564970Y79433271D01*
X-31554480Y79455449D01*
X-31541867Y79476493D01*
X-31527253Y79496198D01*
X-31510777Y79514377D01*
X-31492598Y79530853D01*
X-31472893Y79545467D01*
X-31451849Y79558080D01*
X-31429671Y79568570D01*
X-31406571Y79576835D01*
X-31382773Y79582796D01*
X-31358504Y79586396D01*
X-31334000Y79587600D01*
X-30134000Y79587600D01*
X-30109496Y79586396D01*
G37*
G04 #@! TD.AperFunction*
D13*
X109431904Y10609936D02*
X109172096Y10459936D01*
G04 #@! TA.AperFunction,ComponentPad*
D12*
G36*
X108417870Y13844080D02*
G01*
X108442243Y13841276D01*
X108466224Y13836096D01*
X108489582Y13828591D01*
X108512091Y13818833D01*
X108533536Y13806916D01*
X108553709Y13792953D01*
X108572417Y13777081D01*
X108589479Y13759451D01*
X108604731Y13740234D01*
X108618025Y13719615D01*
X109218025Y12680385D01*
X109229235Y12658562D01*
X109238252Y12635745D01*
X109244988Y12612154D01*
X109249380Y12588017D01*
X109251385Y12563565D01*
X109250984Y12539034D01*
X109248180Y12514661D01*
X109243000Y12490680D01*
X109235495Y12467323D01*
X109225737Y12444813D01*
X109213820Y12423368D01*
X109199857Y12403195D01*
X109183985Y12384487D01*
X109166355Y12367425D01*
X109147138Y12352173D01*
X109126519Y12338879D01*
X107827481Y11588879D01*
X107805658Y11577669D01*
X107782841Y11568652D01*
X107759250Y11561916D01*
X107735113Y11557524D01*
X107710661Y11555519D01*
X107686130Y11555920D01*
X107661757Y11558724D01*
X107637776Y11563904D01*
X107614418Y11571409D01*
X107591909Y11581167D01*
X107570464Y11593084D01*
X107550291Y11607047D01*
X107531583Y11622919D01*
X107514521Y11640549D01*
X107499269Y11659766D01*
X107485975Y11680385D01*
X106885975Y12719615D01*
X106874765Y12741438D01*
X106865748Y12764255D01*
X106859012Y12787846D01*
X106854620Y12811983D01*
X106852615Y12836435D01*
X106853016Y12860966D01*
X106855820Y12885339D01*
X106861000Y12909320D01*
X106868505Y12932677D01*
X106878263Y12955187D01*
X106890180Y12976632D01*
X106904143Y12996805D01*
X106920015Y13015513D01*
X106937645Y13032575D01*
X106956862Y13047827D01*
X106977481Y13061121D01*
X108276519Y13811121D01*
X108298342Y13822331D01*
X108321159Y13831348D01*
X108344750Y13838084D01*
X108368887Y13842476D01*
X108393339Y13844481D01*
X108417870Y13844080D01*
G37*
G04 #@! TD.AperFunction*
D13*
X94648704Y36145436D02*
X94388896Y35995436D01*
G04 #@! TA.AperFunction,ComponentPad*
D12*
G36*
X93634670Y39379580D02*
G01*
X93659043Y39376776D01*
X93683024Y39371596D01*
X93706382Y39364091D01*
X93728891Y39354333D01*
X93750336Y39342416D01*
X93770509Y39328453D01*
X93789217Y39312581D01*
X93806279Y39294951D01*
X93821531Y39275734D01*
X93834825Y39255115D01*
X94434825Y38215885D01*
X94446035Y38194062D01*
X94455052Y38171245D01*
X94461788Y38147654D01*
X94466180Y38123517D01*
X94468185Y38099065D01*
X94467784Y38074534D01*
X94464980Y38050161D01*
X94459800Y38026180D01*
X94452295Y38002823D01*
X94442537Y37980313D01*
X94430620Y37958868D01*
X94416657Y37938695D01*
X94400785Y37919987D01*
X94383155Y37902925D01*
X94363938Y37887673D01*
X94343319Y37874379D01*
X93044281Y37124379D01*
X93022458Y37113169D01*
X92999641Y37104152D01*
X92976050Y37097416D01*
X92951913Y37093024D01*
X92927461Y37091019D01*
X92902930Y37091420D01*
X92878557Y37094224D01*
X92854576Y37099404D01*
X92831218Y37106909D01*
X92808709Y37116667D01*
X92787264Y37128584D01*
X92767091Y37142547D01*
X92748383Y37158419D01*
X92731321Y37176049D01*
X92716069Y37195266D01*
X92702775Y37215885D01*
X92102775Y38255115D01*
X92091565Y38276938D01*
X92082548Y38299755D01*
X92075812Y38323346D01*
X92071420Y38347483D01*
X92069415Y38371935D01*
X92069816Y38396466D01*
X92072620Y38420839D01*
X92077800Y38444820D01*
X92085305Y38468177D01*
X92095063Y38490687D01*
X92106980Y38512132D01*
X92120943Y38532305D01*
X92136815Y38551013D01*
X92154445Y38568075D01*
X92173662Y38583327D01*
X92194281Y38596621D01*
X93493319Y39346621D01*
X93515142Y39357831D01*
X93537959Y39366848D01*
X93561550Y39373584D01*
X93585687Y39377976D01*
X93610139Y39379981D01*
X93634670Y39379580D01*
G37*
G04 #@! TD.AperFunction*
D13*
X79865904Y61680836D02*
X79606096Y61530836D01*
G04 #@! TA.AperFunction,ComponentPad*
D12*
G36*
X78851870Y64914980D02*
G01*
X78876243Y64912176D01*
X78900224Y64906996D01*
X78923582Y64899491D01*
X78946091Y64889733D01*
X78967536Y64877816D01*
X78987709Y64863853D01*
X79006417Y64847981D01*
X79023479Y64830351D01*
X79038731Y64811134D01*
X79052025Y64790515D01*
X79652025Y63751285D01*
X79663235Y63729462D01*
X79672252Y63706645D01*
X79678988Y63683054D01*
X79683380Y63658917D01*
X79685385Y63634465D01*
X79684984Y63609934D01*
X79682180Y63585561D01*
X79677000Y63561580D01*
X79669495Y63538223D01*
X79659737Y63515713D01*
X79647820Y63494268D01*
X79633857Y63474095D01*
X79617985Y63455387D01*
X79600355Y63438325D01*
X79581138Y63423073D01*
X79560519Y63409779D01*
X78261481Y62659779D01*
X78239658Y62648569D01*
X78216841Y62639552D01*
X78193250Y62632816D01*
X78169113Y62628424D01*
X78144661Y62626419D01*
X78120130Y62626820D01*
X78095757Y62629624D01*
X78071776Y62634804D01*
X78048418Y62642309D01*
X78025909Y62652067D01*
X78004464Y62663984D01*
X77984291Y62677947D01*
X77965583Y62693819D01*
X77948521Y62711449D01*
X77933269Y62730666D01*
X77919975Y62751285D01*
X77319975Y63790515D01*
X77308765Y63812338D01*
X77299748Y63835155D01*
X77293012Y63858746D01*
X77288620Y63882883D01*
X77286615Y63907335D01*
X77287016Y63931866D01*
X77289820Y63956239D01*
X77295000Y63980220D01*
X77302505Y64003577D01*
X77312263Y64026087D01*
X77324180Y64047532D01*
X77338143Y64067705D01*
X77354015Y64086413D01*
X77371645Y64103475D01*
X77390862Y64118727D01*
X77411481Y64132021D01*
X78710519Y64882021D01*
X78732342Y64893231D01*
X78755159Y64902248D01*
X78778750Y64908984D01*
X78802887Y64913376D01*
X78827339Y64915381D01*
X78851870Y64914980D01*
G37*
G04 #@! TD.AperFunction*
D13*
X65083104Y87216336D02*
X64823296Y87066336D01*
G04 #@! TA.AperFunction,ComponentPad*
D12*
G36*
X64069070Y90450480D02*
G01*
X64093443Y90447676D01*
X64117424Y90442496D01*
X64140782Y90434991D01*
X64163291Y90425233D01*
X64184736Y90413316D01*
X64204909Y90399353D01*
X64223617Y90383481D01*
X64240679Y90365851D01*
X64255931Y90346634D01*
X64269225Y90326015D01*
X64869225Y89286785D01*
X64880435Y89264962D01*
X64889452Y89242145D01*
X64896188Y89218554D01*
X64900580Y89194417D01*
X64902585Y89169965D01*
X64902184Y89145434D01*
X64899380Y89121061D01*
X64894200Y89097080D01*
X64886695Y89073723D01*
X64876937Y89051213D01*
X64865020Y89029768D01*
X64851057Y89009595D01*
X64835185Y88990887D01*
X64817555Y88973825D01*
X64798338Y88958573D01*
X64777719Y88945279D01*
X63478681Y88195279D01*
X63456858Y88184069D01*
X63434041Y88175052D01*
X63410450Y88168316D01*
X63386313Y88163924D01*
X63361861Y88161919D01*
X63337330Y88162320D01*
X63312957Y88165124D01*
X63288976Y88170304D01*
X63265618Y88177809D01*
X63243109Y88187567D01*
X63221664Y88199484D01*
X63201491Y88213447D01*
X63182783Y88229319D01*
X63165721Y88246949D01*
X63150469Y88266166D01*
X63137175Y88286785D01*
X62537175Y89326015D01*
X62525965Y89347838D01*
X62516948Y89370655D01*
X62510212Y89394246D01*
X62505820Y89418383D01*
X62503815Y89442835D01*
X62504216Y89467366D01*
X62507020Y89491739D01*
X62512200Y89515720D01*
X62519705Y89539077D01*
X62529463Y89561587D01*
X62541380Y89583032D01*
X62555343Y89603205D01*
X62571215Y89621913D01*
X62588845Y89638975D01*
X62608062Y89654227D01*
X62628681Y89667521D01*
X63927719Y90417521D01*
X63949542Y90428731D01*
X63972359Y90437748D01*
X63995950Y90444484D01*
X64020087Y90448876D01*
X64044539Y90450881D01*
X64069070Y90450480D01*
G37*
G04 #@! TD.AperFunction*
D14*
X45527600Y99872800D03*
G04 #@! TA.AperFunction,ComponentPad*
D12*
G36*
X43652104Y100871596D02*
G01*
X43676373Y100867996D01*
X43700171Y100862035D01*
X43723271Y100853770D01*
X43745449Y100843280D01*
X43766493Y100830667D01*
X43786198Y100816053D01*
X43804377Y100799577D01*
X43820853Y100781398D01*
X43835467Y100761693D01*
X43848080Y100740649D01*
X43858570Y100718471D01*
X43866835Y100695371D01*
X43872796Y100671573D01*
X43876396Y100647304D01*
X43877600Y100622800D01*
X43877600Y99122800D01*
X43876396Y99098296D01*
X43872796Y99074027D01*
X43866835Y99050229D01*
X43858570Y99027129D01*
X43848080Y99004951D01*
X43835467Y98983907D01*
X43820853Y98964202D01*
X43804377Y98946023D01*
X43786198Y98929547D01*
X43766493Y98914933D01*
X43745449Y98902320D01*
X43723271Y98891830D01*
X43700171Y98883565D01*
X43676373Y98877604D01*
X43652104Y98874004D01*
X43627600Y98872800D01*
X42427600Y98872800D01*
X42403096Y98874004D01*
X42378827Y98877604D01*
X42355029Y98883565D01*
X42331929Y98891830D01*
X42309751Y98902320D01*
X42288707Y98914933D01*
X42269002Y98929547D01*
X42250823Y98946023D01*
X42234347Y98964202D01*
X42219733Y98983907D01*
X42207120Y99004951D01*
X42196630Y99027129D01*
X42188365Y99050229D01*
X42182404Y99074027D01*
X42178804Y99098296D01*
X42177600Y99122800D01*
X42177600Y100622800D01*
X42178804Y100647304D01*
X42182404Y100671573D01*
X42188365Y100695371D01*
X42196630Y100718471D01*
X42207120Y100740649D01*
X42219733Y100761693D01*
X42234347Y100781398D01*
X42250823Y100799577D01*
X42269002Y100816053D01*
X42288707Y100830667D01*
X42309751Y100843280D01*
X42331929Y100853770D01*
X42355029Y100862035D01*
X42378827Y100867996D01*
X42403096Y100871596D01*
X42427600Y100872800D01*
X43627600Y100872800D01*
X43652104Y100871596D01*
G37*
G04 #@! TD.AperFunction*
D14*
X16012800Y99872800D03*
G04 #@! TA.AperFunction,ComponentPad*
D12*
G36*
X14137304Y100871596D02*
G01*
X14161573Y100867996D01*
X14185371Y100862035D01*
X14208471Y100853770D01*
X14230649Y100843280D01*
X14251693Y100830667D01*
X14271398Y100816053D01*
X14289577Y100799577D01*
X14306053Y100781398D01*
X14320667Y100761693D01*
X14333280Y100740649D01*
X14343770Y100718471D01*
X14352035Y100695371D01*
X14357996Y100671573D01*
X14361596Y100647304D01*
X14362800Y100622800D01*
X14362800Y99122800D01*
X14361596Y99098296D01*
X14357996Y99074027D01*
X14352035Y99050229D01*
X14343770Y99027129D01*
X14333280Y99004951D01*
X14320667Y98983907D01*
X14306053Y98964202D01*
X14289577Y98946023D01*
X14271398Y98929547D01*
X14251693Y98914933D01*
X14230649Y98902320D01*
X14208471Y98891830D01*
X14185371Y98883565D01*
X14161573Y98877604D01*
X14137304Y98874004D01*
X14112800Y98872800D01*
X12912800Y98872800D01*
X12888296Y98874004D01*
X12864027Y98877604D01*
X12840229Y98883565D01*
X12817129Y98891830D01*
X12794951Y98902320D01*
X12773907Y98914933D01*
X12754202Y98929547D01*
X12736023Y98946023D01*
X12719547Y98964202D01*
X12704933Y98983907D01*
X12692320Y99004951D01*
X12681830Y99027129D01*
X12673565Y99050229D01*
X12667604Y99074027D01*
X12664004Y99098296D01*
X12662800Y99122800D01*
X12662800Y100622800D01*
X12664004Y100647304D01*
X12667604Y100671573D01*
X12673565Y100695371D01*
X12681830Y100718471D01*
X12692320Y100740649D01*
X12704933Y100761693D01*
X12719547Y100781398D01*
X12736023Y100799577D01*
X12754202Y100816053D01*
X12773907Y100830667D01*
X12794951Y100843280D01*
X12817129Y100853770D01*
X12840229Y100862035D01*
X12864027Y100867996D01*
X12888296Y100871596D01*
X12912800Y100872800D01*
X14112800Y100872800D01*
X14137304Y100871596D01*
G37*
G04 #@! TD.AperFunction*
D14*
X-13502000Y99872800D03*
G04 #@! TA.AperFunction,ComponentPad*
D12*
G36*
X-15377496Y100871596D02*
G01*
X-15353227Y100867996D01*
X-15329429Y100862035D01*
X-15306329Y100853770D01*
X-15284151Y100843280D01*
X-15263107Y100830667D01*
X-15243402Y100816053D01*
X-15225223Y100799577D01*
X-15208747Y100781398D01*
X-15194133Y100761693D01*
X-15181520Y100740649D01*
X-15171030Y100718471D01*
X-15162765Y100695371D01*
X-15156804Y100671573D01*
X-15153204Y100647304D01*
X-15152000Y100622800D01*
X-15152000Y99122800D01*
X-15153204Y99098296D01*
X-15156804Y99074027D01*
X-15162765Y99050229D01*
X-15171030Y99027129D01*
X-15181520Y99004951D01*
X-15194133Y98983907D01*
X-15208747Y98964202D01*
X-15225223Y98946023D01*
X-15243402Y98929547D01*
X-15263107Y98914933D01*
X-15284151Y98902320D01*
X-15306329Y98891830D01*
X-15329429Y98883565D01*
X-15353227Y98877604D01*
X-15377496Y98874004D01*
X-15402000Y98872800D01*
X-16602000Y98872800D01*
X-16626504Y98874004D01*
X-16650773Y98877604D01*
X-16674571Y98883565D01*
X-16697671Y98891830D01*
X-16719849Y98902320D01*
X-16740893Y98914933D01*
X-16760598Y98929547D01*
X-16778777Y98946023D01*
X-16795253Y98964202D01*
X-16809867Y98983907D01*
X-16822480Y99004951D01*
X-16832970Y99027129D01*
X-16841235Y99050229D01*
X-16847196Y99074027D01*
X-16850796Y99098296D01*
X-16852000Y99122800D01*
X-16852000Y100622800D01*
X-16850796Y100647304D01*
X-16847196Y100671573D01*
X-16841235Y100695371D01*
X-16832970Y100718471D01*
X-16822480Y100740649D01*
X-16809867Y100761693D01*
X-16795253Y100781398D01*
X-16778777Y100799577D01*
X-16760598Y100816053D01*
X-16740893Y100830667D01*
X-16719849Y100843280D01*
X-16697671Y100853770D01*
X-16674571Y100862035D01*
X-16650773Y100867996D01*
X-16626504Y100871596D01*
X-16602000Y100872800D01*
X-15402000Y100872800D01*
X-15377496Y100871596D01*
G37*
G04 #@! TD.AperFunction*
D14*
X-43016800Y99872800D03*
G04 #@! TA.AperFunction,ComponentPad*
D12*
G36*
X-44892296Y100871596D02*
G01*
X-44868027Y100867996D01*
X-44844229Y100862035D01*
X-44821129Y100853770D01*
X-44798951Y100843280D01*
X-44777907Y100830667D01*
X-44758202Y100816053D01*
X-44740023Y100799577D01*
X-44723547Y100781398D01*
X-44708933Y100761693D01*
X-44696320Y100740649D01*
X-44685830Y100718471D01*
X-44677565Y100695371D01*
X-44671604Y100671573D01*
X-44668004Y100647304D01*
X-44666800Y100622800D01*
X-44666800Y99122800D01*
X-44668004Y99098296D01*
X-44671604Y99074027D01*
X-44677565Y99050229D01*
X-44685830Y99027129D01*
X-44696320Y99004951D01*
X-44708933Y98983907D01*
X-44723547Y98964202D01*
X-44740023Y98946023D01*
X-44758202Y98929547D01*
X-44777907Y98914933D01*
X-44798951Y98902320D01*
X-44821129Y98891830D01*
X-44844229Y98883565D01*
X-44868027Y98877604D01*
X-44892296Y98874004D01*
X-44916800Y98872800D01*
X-46116800Y98872800D01*
X-46141304Y98874004D01*
X-46165573Y98877604D01*
X-46189371Y98883565D01*
X-46212471Y98891830D01*
X-46234649Y98902320D01*
X-46255693Y98914933D01*
X-46275398Y98929547D01*
X-46293577Y98946023D01*
X-46310053Y98964202D01*
X-46324667Y98983907D01*
X-46337280Y99004951D01*
X-46347770Y99027129D01*
X-46356035Y99050229D01*
X-46361996Y99074027D01*
X-46365596Y99098296D01*
X-46366800Y99122800D01*
X-46366800Y100622800D01*
X-46365596Y100647304D01*
X-46361996Y100671573D01*
X-46356035Y100695371D01*
X-46347770Y100718471D01*
X-46337280Y100740649D01*
X-46324667Y100761693D01*
X-46310053Y100781398D01*
X-46293577Y100799577D01*
X-46275398Y100816053D01*
X-46255693Y100830667D01*
X-46234649Y100843280D01*
X-46212471Y100853770D01*
X-46189371Y100862035D01*
X-46165573Y100867996D01*
X-46141304Y100871596D01*
X-46116800Y100872800D01*
X-44916800Y100872800D01*
X-44892296Y100871596D01*
G37*
G04 #@! TD.AperFunction*
D13*
X-64005504Y89666864D02*
X-63745696Y89516864D01*
G04 #@! TA.AperFunction,ComponentPad*
D12*
G36*
X-65442487Y88569276D02*
G01*
X-65418350Y88564884D01*
X-65394759Y88558148D01*
X-65371942Y88549131D01*
X-65350119Y88537921D01*
X-64051081Y87787921D01*
X-64030462Y87774627D01*
X-64011245Y87759375D01*
X-63993615Y87742313D01*
X-63977743Y87723605D01*
X-63963780Y87703432D01*
X-63951863Y87681987D01*
X-63942105Y87659478D01*
X-63934600Y87636120D01*
X-63929420Y87612139D01*
X-63926616Y87587766D01*
X-63926215Y87563235D01*
X-63928220Y87538783D01*
X-63932612Y87514646D01*
X-63939348Y87491055D01*
X-63948365Y87468238D01*
X-63959575Y87446415D01*
X-64559575Y86407185D01*
X-64572869Y86386566D01*
X-64588121Y86367349D01*
X-64605183Y86349719D01*
X-64623891Y86333847D01*
X-64644064Y86319884D01*
X-64665509Y86307967D01*
X-64688019Y86298209D01*
X-64711376Y86290704D01*
X-64735357Y86285524D01*
X-64759730Y86282720D01*
X-64784261Y86282319D01*
X-64808713Y86284324D01*
X-64832850Y86288716D01*
X-64856441Y86295452D01*
X-64879258Y86304469D01*
X-64901081Y86315679D01*
X-66200119Y87065679D01*
X-66220738Y87078973D01*
X-66239955Y87094225D01*
X-66257585Y87111287D01*
X-66273457Y87129995D01*
X-66287420Y87150168D01*
X-66299337Y87171613D01*
X-66309095Y87194122D01*
X-66316600Y87217480D01*
X-66321780Y87241461D01*
X-66324584Y87265834D01*
X-66324985Y87290365D01*
X-66322980Y87314817D01*
X-66318588Y87338954D01*
X-66311852Y87362545D01*
X-66302835Y87385362D01*
X-66291625Y87407185D01*
X-65691625Y88446415D01*
X-65678331Y88467034D01*
X-65663079Y88486251D01*
X-65646017Y88503881D01*
X-65627309Y88519753D01*
X-65607136Y88533716D01*
X-65585691Y88545633D01*
X-65563181Y88555391D01*
X-65539824Y88562896D01*
X-65515843Y88568076D01*
X-65491470Y88570880D01*
X-65466939Y88571281D01*
X-65442487Y88569276D01*
G37*
G04 #@! TD.AperFunction*
D13*
X-78703604Y64012864D02*
X-78443796Y63862864D01*
G04 #@! TA.AperFunction,ComponentPad*
D12*
G36*
X-80140587Y62915276D02*
G01*
X-80116450Y62910884D01*
X-80092859Y62904148D01*
X-80070042Y62895131D01*
X-80048219Y62883921D01*
X-78749181Y62133921D01*
X-78728562Y62120627D01*
X-78709345Y62105375D01*
X-78691715Y62088313D01*
X-78675843Y62069605D01*
X-78661880Y62049432D01*
X-78649963Y62027987D01*
X-78640205Y62005478D01*
X-78632700Y61982120D01*
X-78627520Y61958139D01*
X-78624716Y61933766D01*
X-78624315Y61909235D01*
X-78626320Y61884783D01*
X-78630712Y61860646D01*
X-78637448Y61837055D01*
X-78646465Y61814238D01*
X-78657675Y61792415D01*
X-79257675Y60753185D01*
X-79270969Y60732566D01*
X-79286221Y60713349D01*
X-79303283Y60695719D01*
X-79321991Y60679847D01*
X-79342164Y60665884D01*
X-79363609Y60653967D01*
X-79386119Y60644209D01*
X-79409476Y60636704D01*
X-79433457Y60631524D01*
X-79457830Y60628720D01*
X-79482361Y60628319D01*
X-79506813Y60630324D01*
X-79530950Y60634716D01*
X-79554541Y60641452D01*
X-79577358Y60650469D01*
X-79599181Y60661679D01*
X-80898219Y61411679D01*
X-80918838Y61424973D01*
X-80938055Y61440225D01*
X-80955685Y61457287D01*
X-80971557Y61475995D01*
X-80985520Y61496168D01*
X-80997437Y61517613D01*
X-81007195Y61540122D01*
X-81014700Y61563480D01*
X-81019880Y61587461D01*
X-81022684Y61611834D01*
X-81023085Y61636365D01*
X-81021080Y61660817D01*
X-81016688Y61684954D01*
X-81009952Y61708545D01*
X-81000935Y61731362D01*
X-80989725Y61753185D01*
X-80389725Y62792415D01*
X-80376431Y62813034D01*
X-80361179Y62832251D01*
X-80344117Y62849881D01*
X-80325409Y62865753D01*
X-80305236Y62879716D01*
X-80283791Y62891633D01*
X-80261281Y62901391D01*
X-80237924Y62908896D01*
X-80213943Y62914076D01*
X-80189570Y62916880D01*
X-80165039Y62917281D01*
X-80140587Y62915276D01*
G37*
G04 #@! TD.AperFunction*
D13*
X-93401804Y38358864D02*
X-93141996Y38208864D01*
G04 #@! TA.AperFunction,ComponentPad*
D12*
G36*
X-94838787Y37261276D02*
G01*
X-94814650Y37256884D01*
X-94791059Y37250148D01*
X-94768242Y37241131D01*
X-94746419Y37229921D01*
X-93447381Y36479921D01*
X-93426762Y36466627D01*
X-93407545Y36451375D01*
X-93389915Y36434313D01*
X-93374043Y36415605D01*
X-93360080Y36395432D01*
X-93348163Y36373987D01*
X-93338405Y36351478D01*
X-93330900Y36328120D01*
X-93325720Y36304139D01*
X-93322916Y36279766D01*
X-93322515Y36255235D01*
X-93324520Y36230783D01*
X-93328912Y36206646D01*
X-93335648Y36183055D01*
X-93344665Y36160238D01*
X-93355875Y36138415D01*
X-93955875Y35099185D01*
X-93969169Y35078566D01*
X-93984421Y35059349D01*
X-94001483Y35041719D01*
X-94020191Y35025847D01*
X-94040364Y35011884D01*
X-94061809Y34999967D01*
X-94084319Y34990209D01*
X-94107676Y34982704D01*
X-94131657Y34977524D01*
X-94156030Y34974720D01*
X-94180561Y34974319D01*
X-94205013Y34976324D01*
X-94229150Y34980716D01*
X-94252741Y34987452D01*
X-94275558Y34996469D01*
X-94297381Y35007679D01*
X-95596419Y35757679D01*
X-95617038Y35770973D01*
X-95636255Y35786225D01*
X-95653885Y35803287D01*
X-95669757Y35821995D01*
X-95683720Y35842168D01*
X-95695637Y35863613D01*
X-95705395Y35886122D01*
X-95712900Y35909480D01*
X-95718080Y35933461D01*
X-95720884Y35957834D01*
X-95721285Y35982365D01*
X-95719280Y36006817D01*
X-95714888Y36030954D01*
X-95708152Y36054545D01*
X-95699135Y36077362D01*
X-95687925Y36099185D01*
X-95087925Y37138415D01*
X-95074631Y37159034D01*
X-95059379Y37178251D01*
X-95042317Y37195881D01*
X-95023609Y37211753D01*
X-95003436Y37225716D01*
X-94981991Y37237633D01*
X-94959481Y37247391D01*
X-94936124Y37254896D01*
X-94912143Y37260076D01*
X-94887770Y37262880D01*
X-94863239Y37263281D01*
X-94838787Y37261276D01*
G37*
G04 #@! TD.AperFunction*
D13*
X-108099904Y12704864D02*
X-107840096Y12554864D01*
G04 #@! TA.AperFunction,ComponentPad*
D12*
G36*
X-109536887Y11607276D02*
G01*
X-109512750Y11602884D01*
X-109489159Y11596148D01*
X-109466342Y11587131D01*
X-109444519Y11575921D01*
X-108145481Y10825921D01*
X-108124862Y10812627D01*
X-108105645Y10797375D01*
X-108088015Y10780313D01*
X-108072143Y10761605D01*
X-108058180Y10741432D01*
X-108046263Y10719987D01*
X-108036505Y10697478D01*
X-108029000Y10674120D01*
X-108023820Y10650139D01*
X-108021016Y10625766D01*
X-108020615Y10601235D01*
X-108022620Y10576783D01*
X-108027012Y10552646D01*
X-108033748Y10529055D01*
X-108042765Y10506238D01*
X-108053975Y10484415D01*
X-108653975Y9445185D01*
X-108667269Y9424566D01*
X-108682521Y9405349D01*
X-108699583Y9387719D01*
X-108718291Y9371847D01*
X-108738464Y9357884D01*
X-108759909Y9345967D01*
X-108782419Y9336209D01*
X-108805776Y9328704D01*
X-108829757Y9323524D01*
X-108854130Y9320720D01*
X-108878661Y9320319D01*
X-108903113Y9322324D01*
X-108927250Y9326716D01*
X-108950841Y9333452D01*
X-108973658Y9342469D01*
X-108995481Y9353679D01*
X-110294519Y10103679D01*
X-110315138Y10116973D01*
X-110334355Y10132225D01*
X-110351985Y10149287D01*
X-110367857Y10167995D01*
X-110381820Y10188168D01*
X-110393737Y10209613D01*
X-110403495Y10232122D01*
X-110411000Y10255480D01*
X-110416180Y10279461D01*
X-110418984Y10303834D01*
X-110419385Y10328365D01*
X-110417380Y10352817D01*
X-110412988Y10376954D01*
X-110406252Y10400545D01*
X-110397235Y10423362D01*
X-110386025Y10445185D01*
X-109786025Y11484415D01*
X-109772731Y11505034D01*
X-109757479Y11524251D01*
X-109740417Y11541881D01*
X-109721709Y11557753D01*
X-109701536Y11571716D01*
X-109680091Y11583633D01*
X-109657581Y11593391D01*
X-109634224Y11600896D01*
X-109610243Y11606076D01*
X-109585870Y11608880D01*
X-109561339Y11609281D01*
X-109536887Y11607276D01*
G37*
G04 #@! TD.AperFunction*
G04 #@! TA.AperFunction,SMDPad,CuDef*
G36*
X-20722309Y-112776053D02*
G01*
X-20701074Y-112779203D01*
X-20680250Y-112784419D01*
X-20660038Y-112791651D01*
X-20640632Y-112800830D01*
X-20622219Y-112811866D01*
X-20604976Y-112824654D01*
X-20589070Y-112839070D01*
X-20574654Y-112854976D01*
X-20561866Y-112872219D01*
X-20550830Y-112890632D01*
X-20541651Y-112910038D01*
X-20534419Y-112930250D01*
X-20529203Y-112951074D01*
X-20526053Y-112972309D01*
X-20525000Y-112993750D01*
X-20525000Y-113431250D01*
X-20526053Y-113452691D01*
X-20529203Y-113473926D01*
X-20534419Y-113494750D01*
X-20541651Y-113514962D01*
X-20550830Y-113534368D01*
X-20561866Y-113552781D01*
X-20574654Y-113570024D01*
X-20589070Y-113585930D01*
X-20604976Y-113600346D01*
X-20622219Y-113613134D01*
X-20640632Y-113624170D01*
X-20660038Y-113633349D01*
X-20680250Y-113640581D01*
X-20701074Y-113645797D01*
X-20722309Y-113648947D01*
X-20743750Y-113650000D01*
X-21256250Y-113650000D01*
X-21277691Y-113648947D01*
X-21298926Y-113645797D01*
X-21319750Y-113640581D01*
X-21339962Y-113633349D01*
X-21359368Y-113624170D01*
X-21377781Y-113613134D01*
X-21395024Y-113600346D01*
X-21410930Y-113585930D01*
X-21425346Y-113570024D01*
X-21438134Y-113552781D01*
X-21449170Y-113534368D01*
X-21458349Y-113514962D01*
X-21465581Y-113494750D01*
X-21470797Y-113473926D01*
X-21473947Y-113452691D01*
X-21475000Y-113431250D01*
X-21475000Y-112993750D01*
X-21473947Y-112972309D01*
X-21470797Y-112951074D01*
X-21465581Y-112930250D01*
X-21458349Y-112910038D01*
X-21449170Y-112890632D01*
X-21438134Y-112872219D01*
X-21425346Y-112854976D01*
X-21410930Y-112839070D01*
X-21395024Y-112824654D01*
X-21377781Y-112811866D01*
X-21359368Y-112800830D01*
X-21339962Y-112791651D01*
X-21319750Y-112784419D01*
X-21298926Y-112779203D01*
X-21277691Y-112776053D01*
X-21256250Y-112775000D01*
X-20743750Y-112775000D01*
X-20722309Y-112776053D01*
G37*
G04 #@! TD.AperFunction*
G04 #@! TA.AperFunction,SMDPad,CuDef*
G36*
X-20722309Y-114351053D02*
G01*
X-20701074Y-114354203D01*
X-20680250Y-114359419D01*
X-20660038Y-114366651D01*
X-20640632Y-114375830D01*
X-20622219Y-114386866D01*
X-20604976Y-114399654D01*
X-20589070Y-114414070D01*
X-20574654Y-114429976D01*
X-20561866Y-114447219D01*
X-20550830Y-114465632D01*
X-20541651Y-114485038D01*
X-20534419Y-114505250D01*
X-20529203Y-114526074D01*
X-20526053Y-114547309D01*
X-20525000Y-114568750D01*
X-20525000Y-115006250D01*
X-20526053Y-115027691D01*
X-20529203Y-115048926D01*
X-20534419Y-115069750D01*
X-20541651Y-115089962D01*
X-20550830Y-115109368D01*
X-20561866Y-115127781D01*
X-20574654Y-115145024D01*
X-20589070Y-115160930D01*
X-20604976Y-115175346D01*
X-20622219Y-115188134D01*
X-20640632Y-115199170D01*
X-20660038Y-115208349D01*
X-20680250Y-115215581D01*
X-20701074Y-115220797D01*
X-20722309Y-115223947D01*
X-20743750Y-115225000D01*
X-21256250Y-115225000D01*
X-21277691Y-115223947D01*
X-21298926Y-115220797D01*
X-21319750Y-115215581D01*
X-21339962Y-115208349D01*
X-21359368Y-115199170D01*
X-21377781Y-115188134D01*
X-21395024Y-115175346D01*
X-21410930Y-115160930D01*
X-21425346Y-115145024D01*
X-21438134Y-115127781D01*
X-21449170Y-115109368D01*
X-21458349Y-115089962D01*
X-21465581Y-115069750D01*
X-21470797Y-115048926D01*
X-21473947Y-115027691D01*
X-21475000Y-115006250D01*
X-21475000Y-114568750D01*
X-21473947Y-114547309D01*
X-21470797Y-114526074D01*
X-21465581Y-114505250D01*
X-21458349Y-114485038D01*
X-21449170Y-114465632D01*
X-21438134Y-114447219D01*
X-21425346Y-114429976D01*
X-21410930Y-114414070D01*
X-21395024Y-114399654D01*
X-21377781Y-114386866D01*
X-21359368Y-114375830D01*
X-21339962Y-114366651D01*
X-21319750Y-114359419D01*
X-21298926Y-114354203D01*
X-21277691Y-114351053D01*
X-21256250Y-114350000D01*
X-20743750Y-114350000D01*
X-20722309Y-114351053D01*
G37*
G04 #@! TD.AperFunction*
D15*
X-34500000Y-138100000D03*
X-39500000Y-138100000D03*
X-44500000Y-128100000D03*
X-42000000Y-125600000D03*
X-29500000Y-128100000D03*
X-32000000Y-125600000D03*
X-37000000Y-128100000D03*
X-12900000Y-138100000D03*
X-17900000Y-138100000D03*
X-22900000Y-128100000D03*
X-20400000Y-125600000D03*
X-7900000Y-128100000D03*
X-10400000Y-125600000D03*
X-15400000Y-128100000D03*
D16*
X-20960000Y-118230000D03*
X-20960000Y-120770000D03*
X-27040000Y-120770000D03*
X-27040000Y-118230000D03*
G04 #@! TA.AperFunction,SMDPad,CuDef*
D12*
G36*
X-15222309Y-118276053D02*
G01*
X-15201074Y-118279203D01*
X-15180250Y-118284419D01*
X-15160038Y-118291651D01*
X-15140632Y-118300830D01*
X-15122219Y-118311866D01*
X-15104976Y-118324654D01*
X-15089070Y-118339070D01*
X-15074654Y-118354976D01*
X-15061866Y-118372219D01*
X-15050830Y-118390632D01*
X-15041651Y-118410038D01*
X-15034419Y-118430250D01*
X-15029203Y-118451074D01*
X-15026053Y-118472309D01*
X-15025000Y-118493750D01*
X-15025000Y-118931250D01*
X-15026053Y-118952691D01*
X-15029203Y-118973926D01*
X-15034419Y-118994750D01*
X-15041651Y-119014962D01*
X-15050830Y-119034368D01*
X-15061866Y-119052781D01*
X-15074654Y-119070024D01*
X-15089070Y-119085930D01*
X-15104976Y-119100346D01*
X-15122219Y-119113134D01*
X-15140632Y-119124170D01*
X-15160038Y-119133349D01*
X-15180250Y-119140581D01*
X-15201074Y-119145797D01*
X-15222309Y-119148947D01*
X-15243750Y-119150000D01*
X-15756250Y-119150000D01*
X-15777691Y-119148947D01*
X-15798926Y-119145797D01*
X-15819750Y-119140581D01*
X-15839962Y-119133349D01*
X-15859368Y-119124170D01*
X-15877781Y-119113134D01*
X-15895024Y-119100346D01*
X-15910930Y-119085930D01*
X-15925346Y-119070024D01*
X-15938134Y-119052781D01*
X-15949170Y-119034368D01*
X-15958349Y-119014962D01*
X-15965581Y-118994750D01*
X-15970797Y-118973926D01*
X-15973947Y-118952691D01*
X-15975000Y-118931250D01*
X-15975000Y-118493750D01*
X-15973947Y-118472309D01*
X-15970797Y-118451074D01*
X-15965581Y-118430250D01*
X-15958349Y-118410038D01*
X-15949170Y-118390632D01*
X-15938134Y-118372219D01*
X-15925346Y-118354976D01*
X-15910930Y-118339070D01*
X-15895024Y-118324654D01*
X-15877781Y-118311866D01*
X-15859368Y-118300830D01*
X-15839962Y-118291651D01*
X-15819750Y-118284419D01*
X-15798926Y-118279203D01*
X-15777691Y-118276053D01*
X-15756250Y-118275000D01*
X-15243750Y-118275000D01*
X-15222309Y-118276053D01*
G37*
G04 #@! TD.AperFunction*
G04 #@! TA.AperFunction,SMDPad,CuDef*
G36*
X-15222309Y-119851053D02*
G01*
X-15201074Y-119854203D01*
X-15180250Y-119859419D01*
X-15160038Y-119866651D01*
X-15140632Y-119875830D01*
X-15122219Y-119886866D01*
X-15104976Y-119899654D01*
X-15089070Y-119914070D01*
X-15074654Y-119929976D01*
X-15061866Y-119947219D01*
X-15050830Y-119965632D01*
X-15041651Y-119985038D01*
X-15034419Y-120005250D01*
X-15029203Y-120026074D01*
X-15026053Y-120047309D01*
X-15025000Y-120068750D01*
X-15025000Y-120506250D01*
X-15026053Y-120527691D01*
X-15029203Y-120548926D01*
X-15034419Y-120569750D01*
X-15041651Y-120589962D01*
X-15050830Y-120609368D01*
X-15061866Y-120627781D01*
X-15074654Y-120645024D01*
X-15089070Y-120660930D01*
X-15104976Y-120675346D01*
X-15122219Y-120688134D01*
X-15140632Y-120699170D01*
X-15160038Y-120708349D01*
X-15180250Y-120715581D01*
X-15201074Y-120720797D01*
X-15222309Y-120723947D01*
X-15243750Y-120725000D01*
X-15756250Y-120725000D01*
X-15777691Y-120723947D01*
X-15798926Y-120720797D01*
X-15819750Y-120715581D01*
X-15839962Y-120708349D01*
X-15859368Y-120699170D01*
X-15877781Y-120688134D01*
X-15895024Y-120675346D01*
X-15910930Y-120660930D01*
X-15925346Y-120645024D01*
X-15938134Y-120627781D01*
X-15949170Y-120609368D01*
X-15958349Y-120589962D01*
X-15965581Y-120569750D01*
X-15970797Y-120548926D01*
X-15973947Y-120527691D01*
X-15975000Y-120506250D01*
X-15975000Y-120068750D01*
X-15973947Y-120047309D01*
X-15970797Y-120026074D01*
X-15965581Y-120005250D01*
X-15958349Y-119985038D01*
X-15949170Y-119965632D01*
X-15938134Y-119947219D01*
X-15925346Y-119929976D01*
X-15910930Y-119914070D01*
X-15895024Y-119899654D01*
X-15877781Y-119886866D01*
X-15859368Y-119875830D01*
X-15839962Y-119866651D01*
X-15819750Y-119859419D01*
X-15798926Y-119854203D01*
X-15777691Y-119851053D01*
X-15756250Y-119850000D01*
X-15243750Y-119850000D01*
X-15222309Y-119851053D01*
G37*
G04 #@! TD.AperFunction*
D17*
X-52255000Y-84895000D03*
X-50985000Y-84895000D03*
X-49715000Y-84895000D03*
X-48445000Y-84895000D03*
X-47175000Y-84895000D03*
X-45905000Y-84895000D03*
X-44635000Y-84895000D03*
X-43365000Y-84895000D03*
X-42095000Y-84895000D03*
X-40825000Y-84895000D03*
X-39555000Y-84895000D03*
X-38285000Y-84895000D03*
X-37015000Y-84895000D03*
X-35745000Y-84895000D03*
X-35745000Y-94105000D03*
X-37015000Y-94105000D03*
X-38285000Y-94105000D03*
X-39555000Y-94105000D03*
X-40825000Y-94105000D03*
X-42095000Y-94105000D03*
X-43365000Y-94105000D03*
X-44635000Y-94105000D03*
X-45905000Y-94105000D03*
X-47175000Y-94105000D03*
X-48445000Y-94105000D03*
X-49715000Y-94105000D03*
X-50985000Y-94105000D03*
X-52255000Y-94105000D03*
G04 #@! TA.AperFunction,SMDPad,CuDef*
D12*
G36*
X-15222309Y-114351053D02*
G01*
X-15201074Y-114354203D01*
X-15180250Y-114359419D01*
X-15160038Y-114366651D01*
X-15140632Y-114375830D01*
X-15122219Y-114386866D01*
X-15104976Y-114399654D01*
X-15089070Y-114414070D01*
X-15074654Y-114429976D01*
X-15061866Y-114447219D01*
X-15050830Y-114465632D01*
X-15041651Y-114485038D01*
X-15034419Y-114505250D01*
X-15029203Y-114526074D01*
X-15026053Y-114547309D01*
X-15025000Y-114568750D01*
X-15025000Y-115006250D01*
X-15026053Y-115027691D01*
X-15029203Y-115048926D01*
X-15034419Y-115069750D01*
X-15041651Y-115089962D01*
X-15050830Y-115109368D01*
X-15061866Y-115127781D01*
X-15074654Y-115145024D01*
X-15089070Y-115160930D01*
X-15104976Y-115175346D01*
X-15122219Y-115188134D01*
X-15140632Y-115199170D01*
X-15160038Y-115208349D01*
X-15180250Y-115215581D01*
X-15201074Y-115220797D01*
X-15222309Y-115223947D01*
X-15243750Y-115225000D01*
X-15756250Y-115225000D01*
X-15777691Y-115223947D01*
X-15798926Y-115220797D01*
X-15819750Y-115215581D01*
X-15839962Y-115208349D01*
X-15859368Y-115199170D01*
X-15877781Y-115188134D01*
X-15895024Y-115175346D01*
X-15910930Y-115160930D01*
X-15925346Y-115145024D01*
X-15938134Y-115127781D01*
X-15949170Y-115109368D01*
X-15958349Y-115089962D01*
X-15965581Y-115069750D01*
X-15970797Y-115048926D01*
X-15973947Y-115027691D01*
X-15975000Y-115006250D01*
X-15975000Y-114568750D01*
X-15973947Y-114547309D01*
X-15970797Y-114526074D01*
X-15965581Y-114505250D01*
X-15958349Y-114485038D01*
X-15949170Y-114465632D01*
X-15938134Y-114447219D01*
X-15925346Y-114429976D01*
X-15910930Y-114414070D01*
X-15895024Y-114399654D01*
X-15877781Y-114386866D01*
X-15859368Y-114375830D01*
X-15839962Y-114366651D01*
X-15819750Y-114359419D01*
X-15798926Y-114354203D01*
X-15777691Y-114351053D01*
X-15756250Y-114350000D01*
X-15243750Y-114350000D01*
X-15222309Y-114351053D01*
G37*
G04 #@! TD.AperFunction*
G04 #@! TA.AperFunction,SMDPad,CuDef*
G36*
X-15222309Y-112776053D02*
G01*
X-15201074Y-112779203D01*
X-15180250Y-112784419D01*
X-15160038Y-112791651D01*
X-15140632Y-112800830D01*
X-15122219Y-112811866D01*
X-15104976Y-112824654D01*
X-15089070Y-112839070D01*
X-15074654Y-112854976D01*
X-15061866Y-112872219D01*
X-15050830Y-112890632D01*
X-15041651Y-112910038D01*
X-15034419Y-112930250D01*
X-15029203Y-112951074D01*
X-15026053Y-112972309D01*
X-15025000Y-112993750D01*
X-15025000Y-113431250D01*
X-15026053Y-113452691D01*
X-15029203Y-113473926D01*
X-15034419Y-113494750D01*
X-15041651Y-113514962D01*
X-15050830Y-113534368D01*
X-15061866Y-113552781D01*
X-15074654Y-113570024D01*
X-15089070Y-113585930D01*
X-15104976Y-113600346D01*
X-15122219Y-113613134D01*
X-15140632Y-113624170D01*
X-15160038Y-113633349D01*
X-15180250Y-113640581D01*
X-15201074Y-113645797D01*
X-15222309Y-113648947D01*
X-15243750Y-113650000D01*
X-15756250Y-113650000D01*
X-15777691Y-113648947D01*
X-15798926Y-113645797D01*
X-15819750Y-113640581D01*
X-15839962Y-113633349D01*
X-15859368Y-113624170D01*
X-15877781Y-113613134D01*
X-15895024Y-113600346D01*
X-15910930Y-113585930D01*
X-15925346Y-113570024D01*
X-15938134Y-113552781D01*
X-15949170Y-113534368D01*
X-15958349Y-113514962D01*
X-15965581Y-113494750D01*
X-15970797Y-113473926D01*
X-15973947Y-113452691D01*
X-15975000Y-113431250D01*
X-15975000Y-112993750D01*
X-15973947Y-112972309D01*
X-15970797Y-112951074D01*
X-15965581Y-112930250D01*
X-15958349Y-112910038D01*
X-15949170Y-112890632D01*
X-15938134Y-112872219D01*
X-15925346Y-112854976D01*
X-15910930Y-112839070D01*
X-15895024Y-112824654D01*
X-15877781Y-112811866D01*
X-15859368Y-112800830D01*
X-15839962Y-112791651D01*
X-15819750Y-112784419D01*
X-15798926Y-112779203D01*
X-15777691Y-112776053D01*
X-15756250Y-112775000D01*
X-15243750Y-112775000D01*
X-15222309Y-112776053D01*
G37*
G04 #@! TD.AperFunction*
D18*
X-41690000Y-119090800D03*
X-42960000Y-119090800D03*
X-44230000Y-119090800D03*
X-45500000Y-119090800D03*
X-46770000Y-119090800D03*
X-48040000Y-119090800D03*
X-49310000Y-119090800D03*
X-49310000Y-113909200D03*
X-48040000Y-113909200D03*
X-46770000Y-113909200D03*
X-45500000Y-113909200D03*
X-44230000Y-113909200D03*
X-42960000Y-113909200D03*
X-41690000Y-113909200D03*
G04 #@! TA.AperFunction,SMDPad,CuDef*
D12*
G36*
X-36722309Y-119976053D02*
G01*
X-36701074Y-119979203D01*
X-36680250Y-119984419D01*
X-36660038Y-119991651D01*
X-36640632Y-120000830D01*
X-36622219Y-120011866D01*
X-36604976Y-120024654D01*
X-36589070Y-120039070D01*
X-36574654Y-120054976D01*
X-36561866Y-120072219D01*
X-36550830Y-120090632D01*
X-36541651Y-120110038D01*
X-36534419Y-120130250D01*
X-36529203Y-120151074D01*
X-36526053Y-120172309D01*
X-36525000Y-120193750D01*
X-36525000Y-120631250D01*
X-36526053Y-120652691D01*
X-36529203Y-120673926D01*
X-36534419Y-120694750D01*
X-36541651Y-120714962D01*
X-36550830Y-120734368D01*
X-36561866Y-120752781D01*
X-36574654Y-120770024D01*
X-36589070Y-120785930D01*
X-36604976Y-120800346D01*
X-36622219Y-120813134D01*
X-36640632Y-120824170D01*
X-36660038Y-120833349D01*
X-36680250Y-120840581D01*
X-36701074Y-120845797D01*
X-36722309Y-120848947D01*
X-36743750Y-120850000D01*
X-37256250Y-120850000D01*
X-37277691Y-120848947D01*
X-37298926Y-120845797D01*
X-37319750Y-120840581D01*
X-37339962Y-120833349D01*
X-37359368Y-120824170D01*
X-37377781Y-120813134D01*
X-37395024Y-120800346D01*
X-37410930Y-120785930D01*
X-37425346Y-120770024D01*
X-37438134Y-120752781D01*
X-37449170Y-120734368D01*
X-37458349Y-120714962D01*
X-37465581Y-120694750D01*
X-37470797Y-120673926D01*
X-37473947Y-120652691D01*
X-37475000Y-120631250D01*
X-37475000Y-120193750D01*
X-37473947Y-120172309D01*
X-37470797Y-120151074D01*
X-37465581Y-120130250D01*
X-37458349Y-120110038D01*
X-37449170Y-120090632D01*
X-37438134Y-120072219D01*
X-37425346Y-120054976D01*
X-37410930Y-120039070D01*
X-37395024Y-120024654D01*
X-37377781Y-120011866D01*
X-37359368Y-120000830D01*
X-37339962Y-119991651D01*
X-37319750Y-119984419D01*
X-37298926Y-119979203D01*
X-37277691Y-119976053D01*
X-37256250Y-119975000D01*
X-36743750Y-119975000D01*
X-36722309Y-119976053D01*
G37*
G04 #@! TD.AperFunction*
G04 #@! TA.AperFunction,SMDPad,CuDef*
G36*
X-36722309Y-121551053D02*
G01*
X-36701074Y-121554203D01*
X-36680250Y-121559419D01*
X-36660038Y-121566651D01*
X-36640632Y-121575830D01*
X-36622219Y-121586866D01*
X-36604976Y-121599654D01*
X-36589070Y-121614070D01*
X-36574654Y-121629976D01*
X-36561866Y-121647219D01*
X-36550830Y-121665632D01*
X-36541651Y-121685038D01*
X-36534419Y-121705250D01*
X-36529203Y-121726074D01*
X-36526053Y-121747309D01*
X-36525000Y-121768750D01*
X-36525000Y-122206250D01*
X-36526053Y-122227691D01*
X-36529203Y-122248926D01*
X-36534419Y-122269750D01*
X-36541651Y-122289962D01*
X-36550830Y-122309368D01*
X-36561866Y-122327781D01*
X-36574654Y-122345024D01*
X-36589070Y-122360930D01*
X-36604976Y-122375346D01*
X-36622219Y-122388134D01*
X-36640632Y-122399170D01*
X-36660038Y-122408349D01*
X-36680250Y-122415581D01*
X-36701074Y-122420797D01*
X-36722309Y-122423947D01*
X-36743750Y-122425000D01*
X-37256250Y-122425000D01*
X-37277691Y-122423947D01*
X-37298926Y-122420797D01*
X-37319750Y-122415581D01*
X-37339962Y-122408349D01*
X-37359368Y-122399170D01*
X-37377781Y-122388134D01*
X-37395024Y-122375346D01*
X-37410930Y-122360930D01*
X-37425346Y-122345024D01*
X-37438134Y-122327781D01*
X-37449170Y-122309368D01*
X-37458349Y-122289962D01*
X-37465581Y-122269750D01*
X-37470797Y-122248926D01*
X-37473947Y-122227691D01*
X-37475000Y-122206250D01*
X-37475000Y-121768750D01*
X-37473947Y-121747309D01*
X-37470797Y-121726074D01*
X-37465581Y-121705250D01*
X-37458349Y-121685038D01*
X-37449170Y-121665632D01*
X-37438134Y-121647219D01*
X-37425346Y-121629976D01*
X-37410930Y-121614070D01*
X-37395024Y-121599654D01*
X-37377781Y-121586866D01*
X-37359368Y-121575830D01*
X-37339962Y-121566651D01*
X-37319750Y-121559419D01*
X-37298926Y-121554203D01*
X-37277691Y-121551053D01*
X-37256250Y-121550000D01*
X-36743750Y-121550000D01*
X-36722309Y-121551053D01*
G37*
G04 #@! TD.AperFunction*
G04 #@! TA.AperFunction,SMDPad,CuDef*
G36*
X-44047309Y-108526053D02*
G01*
X-44026074Y-108529203D01*
X-44005250Y-108534419D01*
X-43985038Y-108541651D01*
X-43965632Y-108550830D01*
X-43947219Y-108561866D01*
X-43929976Y-108574654D01*
X-43914070Y-108589070D01*
X-43899654Y-108604976D01*
X-43886866Y-108622219D01*
X-43875830Y-108640632D01*
X-43866651Y-108660038D01*
X-43859419Y-108680250D01*
X-43854203Y-108701074D01*
X-43851053Y-108722309D01*
X-43850000Y-108743750D01*
X-43850000Y-109256250D01*
X-43851053Y-109277691D01*
X-43854203Y-109298926D01*
X-43859419Y-109319750D01*
X-43866651Y-109339962D01*
X-43875830Y-109359368D01*
X-43886866Y-109377781D01*
X-43899654Y-109395024D01*
X-43914070Y-109410930D01*
X-43929976Y-109425346D01*
X-43947219Y-109438134D01*
X-43965632Y-109449170D01*
X-43985038Y-109458349D01*
X-44005250Y-109465581D01*
X-44026074Y-109470797D01*
X-44047309Y-109473947D01*
X-44068750Y-109475000D01*
X-44506250Y-109475000D01*
X-44527691Y-109473947D01*
X-44548926Y-109470797D01*
X-44569750Y-109465581D01*
X-44589962Y-109458349D01*
X-44609368Y-109449170D01*
X-44627781Y-109438134D01*
X-44645024Y-109425346D01*
X-44660930Y-109410930D01*
X-44675346Y-109395024D01*
X-44688134Y-109377781D01*
X-44699170Y-109359368D01*
X-44708349Y-109339962D01*
X-44715581Y-109319750D01*
X-44720797Y-109298926D01*
X-44723947Y-109277691D01*
X-44725000Y-109256250D01*
X-44725000Y-108743750D01*
X-44723947Y-108722309D01*
X-44720797Y-108701074D01*
X-44715581Y-108680250D01*
X-44708349Y-108660038D01*
X-44699170Y-108640632D01*
X-44688134Y-108622219D01*
X-44675346Y-108604976D01*
X-44660930Y-108589070D01*
X-44645024Y-108574654D01*
X-44627781Y-108561866D01*
X-44609368Y-108550830D01*
X-44589962Y-108541651D01*
X-44569750Y-108534419D01*
X-44548926Y-108529203D01*
X-44527691Y-108526053D01*
X-44506250Y-108525000D01*
X-44068750Y-108525000D01*
X-44047309Y-108526053D01*
G37*
G04 #@! TD.AperFunction*
G04 #@! TA.AperFunction,SMDPad,CuDef*
G36*
X-42472309Y-108526053D02*
G01*
X-42451074Y-108529203D01*
X-42430250Y-108534419D01*
X-42410038Y-108541651D01*
X-42390632Y-108550830D01*
X-42372219Y-108561866D01*
X-42354976Y-108574654D01*
X-42339070Y-108589070D01*
X-42324654Y-108604976D01*
X-42311866Y-108622219D01*
X-42300830Y-108640632D01*
X-42291651Y-108660038D01*
X-42284419Y-108680250D01*
X-42279203Y-108701074D01*
X-42276053Y-108722309D01*
X-42275000Y-108743750D01*
X-42275000Y-109256250D01*
X-42276053Y-109277691D01*
X-42279203Y-109298926D01*
X-42284419Y-109319750D01*
X-42291651Y-109339962D01*
X-42300830Y-109359368D01*
X-42311866Y-109377781D01*
X-42324654Y-109395024D01*
X-42339070Y-109410930D01*
X-42354976Y-109425346D01*
X-42372219Y-109438134D01*
X-42390632Y-109449170D01*
X-42410038Y-109458349D01*
X-42430250Y-109465581D01*
X-42451074Y-109470797D01*
X-42472309Y-109473947D01*
X-42493750Y-109475000D01*
X-42931250Y-109475000D01*
X-42952691Y-109473947D01*
X-42973926Y-109470797D01*
X-42994750Y-109465581D01*
X-43014962Y-109458349D01*
X-43034368Y-109449170D01*
X-43052781Y-109438134D01*
X-43070024Y-109425346D01*
X-43085930Y-109410930D01*
X-43100346Y-109395024D01*
X-43113134Y-109377781D01*
X-43124170Y-109359368D01*
X-43133349Y-109339962D01*
X-43140581Y-109319750D01*
X-43145797Y-109298926D01*
X-43148947Y-109277691D01*
X-43150000Y-109256250D01*
X-43150000Y-108743750D01*
X-43148947Y-108722309D01*
X-43145797Y-108701074D01*
X-43140581Y-108680250D01*
X-43133349Y-108660038D01*
X-43124170Y-108640632D01*
X-43113134Y-108622219D01*
X-43100346Y-108604976D01*
X-43085930Y-108589070D01*
X-43070024Y-108574654D01*
X-43052781Y-108561866D01*
X-43034368Y-108550830D01*
X-43014962Y-108541651D01*
X-42994750Y-108534419D01*
X-42973926Y-108529203D01*
X-42952691Y-108526053D01*
X-42931250Y-108525000D01*
X-42493750Y-108525000D01*
X-42472309Y-108526053D01*
G37*
G04 #@! TD.AperFunction*
G04 #@! TA.AperFunction,SMDPad,CuDef*
G36*
X-31722309Y-119976053D02*
G01*
X-31701074Y-119979203D01*
X-31680250Y-119984419D01*
X-31660038Y-119991651D01*
X-31640632Y-120000830D01*
X-31622219Y-120011866D01*
X-31604976Y-120024654D01*
X-31589070Y-120039070D01*
X-31574654Y-120054976D01*
X-31561866Y-120072219D01*
X-31550830Y-120090632D01*
X-31541651Y-120110038D01*
X-31534419Y-120130250D01*
X-31529203Y-120151074D01*
X-31526053Y-120172309D01*
X-31525000Y-120193750D01*
X-31525000Y-120631250D01*
X-31526053Y-120652691D01*
X-31529203Y-120673926D01*
X-31534419Y-120694750D01*
X-31541651Y-120714962D01*
X-31550830Y-120734368D01*
X-31561866Y-120752781D01*
X-31574654Y-120770024D01*
X-31589070Y-120785930D01*
X-31604976Y-120800346D01*
X-31622219Y-120813134D01*
X-31640632Y-120824170D01*
X-31660038Y-120833349D01*
X-31680250Y-120840581D01*
X-31701074Y-120845797D01*
X-31722309Y-120848947D01*
X-31743750Y-120850000D01*
X-32256250Y-120850000D01*
X-32277691Y-120848947D01*
X-32298926Y-120845797D01*
X-32319750Y-120840581D01*
X-32339962Y-120833349D01*
X-32359368Y-120824170D01*
X-32377781Y-120813134D01*
X-32395024Y-120800346D01*
X-32410930Y-120785930D01*
X-32425346Y-120770024D01*
X-32438134Y-120752781D01*
X-32449170Y-120734368D01*
X-32458349Y-120714962D01*
X-32465581Y-120694750D01*
X-32470797Y-120673926D01*
X-32473947Y-120652691D01*
X-32475000Y-120631250D01*
X-32475000Y-120193750D01*
X-32473947Y-120172309D01*
X-32470797Y-120151074D01*
X-32465581Y-120130250D01*
X-32458349Y-120110038D01*
X-32449170Y-120090632D01*
X-32438134Y-120072219D01*
X-32425346Y-120054976D01*
X-32410930Y-120039070D01*
X-32395024Y-120024654D01*
X-32377781Y-120011866D01*
X-32359368Y-120000830D01*
X-32339962Y-119991651D01*
X-32319750Y-119984419D01*
X-32298926Y-119979203D01*
X-32277691Y-119976053D01*
X-32256250Y-119975000D01*
X-31743750Y-119975000D01*
X-31722309Y-119976053D01*
G37*
G04 #@! TD.AperFunction*
G04 #@! TA.AperFunction,SMDPad,CuDef*
G36*
X-31722309Y-121551053D02*
G01*
X-31701074Y-121554203D01*
X-31680250Y-121559419D01*
X-31660038Y-121566651D01*
X-31640632Y-121575830D01*
X-31622219Y-121586866D01*
X-31604976Y-121599654D01*
X-31589070Y-121614070D01*
X-31574654Y-121629976D01*
X-31561866Y-121647219D01*
X-31550830Y-121665632D01*
X-31541651Y-121685038D01*
X-31534419Y-121705250D01*
X-31529203Y-121726074D01*
X-31526053Y-121747309D01*
X-31525000Y-121768750D01*
X-31525000Y-122206250D01*
X-31526053Y-122227691D01*
X-31529203Y-122248926D01*
X-31534419Y-122269750D01*
X-31541651Y-122289962D01*
X-31550830Y-122309368D01*
X-31561866Y-122327781D01*
X-31574654Y-122345024D01*
X-31589070Y-122360930D01*
X-31604976Y-122375346D01*
X-31622219Y-122388134D01*
X-31640632Y-122399170D01*
X-31660038Y-122408349D01*
X-31680250Y-122415581D01*
X-31701074Y-122420797D01*
X-31722309Y-122423947D01*
X-31743750Y-122425000D01*
X-32256250Y-122425000D01*
X-32277691Y-122423947D01*
X-32298926Y-122420797D01*
X-32319750Y-122415581D01*
X-32339962Y-122408349D01*
X-32359368Y-122399170D01*
X-32377781Y-122388134D01*
X-32395024Y-122375346D01*
X-32410930Y-122360930D01*
X-32425346Y-122345024D01*
X-32438134Y-122327781D01*
X-32449170Y-122309368D01*
X-32458349Y-122289962D01*
X-32465581Y-122269750D01*
X-32470797Y-122248926D01*
X-32473947Y-122227691D01*
X-32475000Y-122206250D01*
X-32475000Y-121768750D01*
X-32473947Y-121747309D01*
X-32470797Y-121726074D01*
X-32465581Y-121705250D01*
X-32458349Y-121685038D01*
X-32449170Y-121665632D01*
X-32438134Y-121647219D01*
X-32425346Y-121629976D01*
X-32410930Y-121614070D01*
X-32395024Y-121599654D01*
X-32377781Y-121586866D01*
X-32359368Y-121575830D01*
X-32339962Y-121566651D01*
X-32319750Y-121559419D01*
X-32298926Y-121554203D01*
X-32277691Y-121551053D01*
X-32256250Y-121550000D01*
X-31743750Y-121550000D01*
X-31722309Y-121551053D01*
G37*
G04 #@! TD.AperFunction*
G04 #@! TA.AperFunction,SMDPad,CuDef*
G36*
X57522259Y-71147548D02*
G01*
X57543379Y-71151391D01*
X57564021Y-71157286D01*
X57583986Y-71165176D01*
X57603081Y-71174984D01*
X58046919Y-71431234D01*
X58064961Y-71442867D01*
X58081776Y-71456212D01*
X58097202Y-71471141D01*
X58111090Y-71487510D01*
X58123307Y-71505162D01*
X58133735Y-71523926D01*
X58142273Y-71543622D01*
X58148840Y-71564060D01*
X58153372Y-71585044D01*
X58155826Y-71606370D01*
X58156177Y-71627834D01*
X58154423Y-71649230D01*
X58150580Y-71670350D01*
X58144685Y-71690992D01*
X58136795Y-71710957D01*
X58126987Y-71730052D01*
X57908237Y-72108938D01*
X57896604Y-72126980D01*
X57883259Y-72143795D01*
X57868330Y-72159221D01*
X57851961Y-72173109D01*
X57834309Y-72185326D01*
X57815545Y-72195754D01*
X57795849Y-72204292D01*
X57775411Y-72210859D01*
X57754427Y-72215391D01*
X57733101Y-72217845D01*
X57711637Y-72218196D01*
X57690241Y-72216442D01*
X57669121Y-72212599D01*
X57648479Y-72206704D01*
X57628514Y-72198814D01*
X57609419Y-72189006D01*
X57165581Y-71932756D01*
X57147539Y-71921123D01*
X57130724Y-71907778D01*
X57115298Y-71892849D01*
X57101410Y-71876480D01*
X57089193Y-71858828D01*
X57078765Y-71840064D01*
X57070227Y-71820368D01*
X57063660Y-71799930D01*
X57059128Y-71778946D01*
X57056674Y-71757620D01*
X57056323Y-71736156D01*
X57058077Y-71714760D01*
X57061920Y-71693640D01*
X57067815Y-71672998D01*
X57075705Y-71653033D01*
X57085513Y-71633938D01*
X57304263Y-71255052D01*
X57315896Y-71237010D01*
X57329241Y-71220195D01*
X57344170Y-71204769D01*
X57360539Y-71190881D01*
X57378191Y-71178664D01*
X57396955Y-71168236D01*
X57416651Y-71159698D01*
X57437089Y-71153131D01*
X57458073Y-71148599D01*
X57479399Y-71146145D01*
X57500863Y-71145794D01*
X57522259Y-71147548D01*
G37*
G04 #@! TD.AperFunction*
G04 #@! TA.AperFunction,SMDPad,CuDef*
G36*
X58309759Y-69783558D02*
G01*
X58330879Y-69787401D01*
X58351521Y-69793296D01*
X58371486Y-69801186D01*
X58390581Y-69810994D01*
X58834419Y-70067244D01*
X58852461Y-70078877D01*
X58869276Y-70092222D01*
X58884702Y-70107151D01*
X58898590Y-70123520D01*
X58910807Y-70141172D01*
X58921235Y-70159936D01*
X58929773Y-70179632D01*
X58936340Y-70200070D01*
X58940872Y-70221054D01*
X58943326Y-70242380D01*
X58943677Y-70263844D01*
X58941923Y-70285240D01*
X58938080Y-70306360D01*
X58932185Y-70327002D01*
X58924295Y-70346967D01*
X58914487Y-70366062D01*
X58695737Y-70744948D01*
X58684104Y-70762990D01*
X58670759Y-70779805D01*
X58655830Y-70795231D01*
X58639461Y-70809119D01*
X58621809Y-70821336D01*
X58603045Y-70831764D01*
X58583349Y-70840302D01*
X58562911Y-70846869D01*
X58541927Y-70851401D01*
X58520601Y-70853855D01*
X58499137Y-70854206D01*
X58477741Y-70852452D01*
X58456621Y-70848609D01*
X58435979Y-70842714D01*
X58416014Y-70834824D01*
X58396919Y-70825016D01*
X57953081Y-70568766D01*
X57935039Y-70557133D01*
X57918224Y-70543788D01*
X57902798Y-70528859D01*
X57888910Y-70512490D01*
X57876693Y-70494838D01*
X57866265Y-70476074D01*
X57857727Y-70456378D01*
X57851160Y-70435940D01*
X57846628Y-70414956D01*
X57844174Y-70393630D01*
X57843823Y-70372166D01*
X57845577Y-70350770D01*
X57849420Y-70329650D01*
X57855315Y-70309008D01*
X57863205Y-70289043D01*
X57873013Y-70269948D01*
X58091763Y-69891062D01*
X58103396Y-69873020D01*
X58116741Y-69856205D01*
X58131670Y-69840779D01*
X58148039Y-69826891D01*
X58165691Y-69814674D01*
X58184455Y-69804246D01*
X58204151Y-69795708D01*
X58224589Y-69789141D01*
X58245573Y-69784609D01*
X58266899Y-69782155D01*
X58288363Y-69781804D01*
X58309759Y-69783558D01*
G37*
G04 #@! TD.AperFunction*
G04 #@! TA.AperFunction,SMDPad,CuDef*
G36*
X60309759Y-66283558D02*
G01*
X60330879Y-66287401D01*
X60351521Y-66293296D01*
X60371486Y-66301186D01*
X60390581Y-66310994D01*
X60834419Y-66567244D01*
X60852461Y-66578877D01*
X60869276Y-66592222D01*
X60884702Y-66607151D01*
X60898590Y-66623520D01*
X60910807Y-66641172D01*
X60921235Y-66659936D01*
X60929773Y-66679632D01*
X60936340Y-66700070D01*
X60940872Y-66721054D01*
X60943326Y-66742380D01*
X60943677Y-66763844D01*
X60941923Y-66785240D01*
X60938080Y-66806360D01*
X60932185Y-66827002D01*
X60924295Y-66846967D01*
X60914487Y-66866062D01*
X60695737Y-67244948D01*
X60684104Y-67262990D01*
X60670759Y-67279805D01*
X60655830Y-67295231D01*
X60639461Y-67309119D01*
X60621809Y-67321336D01*
X60603045Y-67331764D01*
X60583349Y-67340302D01*
X60562911Y-67346869D01*
X60541927Y-67351401D01*
X60520601Y-67353855D01*
X60499137Y-67354206D01*
X60477741Y-67352452D01*
X60456621Y-67348609D01*
X60435979Y-67342714D01*
X60416014Y-67334824D01*
X60396919Y-67325016D01*
X59953081Y-67068766D01*
X59935039Y-67057133D01*
X59918224Y-67043788D01*
X59902798Y-67028859D01*
X59888910Y-67012490D01*
X59876693Y-66994838D01*
X59866265Y-66976074D01*
X59857727Y-66956378D01*
X59851160Y-66935940D01*
X59846628Y-66914956D01*
X59844174Y-66893630D01*
X59843823Y-66872166D01*
X59845577Y-66850770D01*
X59849420Y-66829650D01*
X59855315Y-66809008D01*
X59863205Y-66789043D01*
X59873013Y-66769948D01*
X60091763Y-66391062D01*
X60103396Y-66373020D01*
X60116741Y-66356205D01*
X60131670Y-66340779D01*
X60148039Y-66326891D01*
X60165691Y-66314674D01*
X60184455Y-66304246D01*
X60204151Y-66295708D01*
X60224589Y-66289141D01*
X60245573Y-66284609D01*
X60266899Y-66282155D01*
X60288363Y-66281804D01*
X60309759Y-66283558D01*
G37*
G04 #@! TD.AperFunction*
G04 #@! TA.AperFunction,SMDPad,CuDef*
G36*
X59522259Y-67647548D02*
G01*
X59543379Y-67651391D01*
X59564021Y-67657286D01*
X59583986Y-67665176D01*
X59603081Y-67674984D01*
X60046919Y-67931234D01*
X60064961Y-67942867D01*
X60081776Y-67956212D01*
X60097202Y-67971141D01*
X60111090Y-67987510D01*
X60123307Y-68005162D01*
X60133735Y-68023926D01*
X60142273Y-68043622D01*
X60148840Y-68064060D01*
X60153372Y-68085044D01*
X60155826Y-68106370D01*
X60156177Y-68127834D01*
X60154423Y-68149230D01*
X60150580Y-68170350D01*
X60144685Y-68190992D01*
X60136795Y-68210957D01*
X60126987Y-68230052D01*
X59908237Y-68608938D01*
X59896604Y-68626980D01*
X59883259Y-68643795D01*
X59868330Y-68659221D01*
X59851961Y-68673109D01*
X59834309Y-68685326D01*
X59815545Y-68695754D01*
X59795849Y-68704292D01*
X59775411Y-68710859D01*
X59754427Y-68715391D01*
X59733101Y-68717845D01*
X59711637Y-68718196D01*
X59690241Y-68716442D01*
X59669121Y-68712599D01*
X59648479Y-68706704D01*
X59628514Y-68698814D01*
X59609419Y-68689006D01*
X59165581Y-68432756D01*
X59147539Y-68421123D01*
X59130724Y-68407778D01*
X59115298Y-68392849D01*
X59101410Y-68376480D01*
X59089193Y-68358828D01*
X59078765Y-68340064D01*
X59070227Y-68320368D01*
X59063660Y-68299930D01*
X59059128Y-68278946D01*
X59056674Y-68257620D01*
X59056323Y-68236156D01*
X59058077Y-68214760D01*
X59061920Y-68193640D01*
X59067815Y-68172998D01*
X59075705Y-68153033D01*
X59085513Y-68133938D01*
X59304263Y-67755052D01*
X59315896Y-67737010D01*
X59329241Y-67720195D01*
X59344170Y-67704769D01*
X59360539Y-67690881D01*
X59378191Y-67678664D01*
X59396955Y-67668236D01*
X59416651Y-67659698D01*
X59437089Y-67653131D01*
X59458073Y-67648599D01*
X59479399Y-67646145D01*
X59500863Y-67645794D01*
X59522259Y-67647548D01*
G37*
G04 #@! TD.AperFunction*
G04 #@! TA.AperFunction,SMDPad,CuDef*
G36*
X54284659Y-86761548D02*
G01*
X54305779Y-86765391D01*
X54326421Y-86771286D01*
X54346386Y-86779176D01*
X54365481Y-86788984D01*
X54809319Y-87045234D01*
X54827361Y-87056867D01*
X54844176Y-87070212D01*
X54859602Y-87085141D01*
X54873490Y-87101510D01*
X54885707Y-87119162D01*
X54896135Y-87137926D01*
X54904673Y-87157622D01*
X54911240Y-87178060D01*
X54915772Y-87199044D01*
X54918226Y-87220370D01*
X54918577Y-87241834D01*
X54916823Y-87263230D01*
X54912980Y-87284350D01*
X54907085Y-87304992D01*
X54899195Y-87324957D01*
X54889387Y-87344052D01*
X54670637Y-87722938D01*
X54659004Y-87740980D01*
X54645659Y-87757795D01*
X54630730Y-87773221D01*
X54614361Y-87787109D01*
X54596709Y-87799326D01*
X54577945Y-87809754D01*
X54558249Y-87818292D01*
X54537811Y-87824859D01*
X54516827Y-87829391D01*
X54495501Y-87831845D01*
X54474037Y-87832196D01*
X54452641Y-87830442D01*
X54431521Y-87826599D01*
X54410879Y-87820704D01*
X54390914Y-87812814D01*
X54371819Y-87803006D01*
X53927981Y-87546756D01*
X53909939Y-87535123D01*
X53893124Y-87521778D01*
X53877698Y-87506849D01*
X53863810Y-87490480D01*
X53851593Y-87472828D01*
X53841165Y-87454064D01*
X53832627Y-87434368D01*
X53826060Y-87413930D01*
X53821528Y-87392946D01*
X53819074Y-87371620D01*
X53818723Y-87350156D01*
X53820477Y-87328760D01*
X53824320Y-87307640D01*
X53830215Y-87286998D01*
X53838105Y-87267033D01*
X53847913Y-87247938D01*
X54066663Y-86869052D01*
X54078296Y-86851010D01*
X54091641Y-86834195D01*
X54106570Y-86818769D01*
X54122939Y-86804881D01*
X54140591Y-86792664D01*
X54159355Y-86782236D01*
X54179051Y-86773698D01*
X54199489Y-86767131D01*
X54220473Y-86762599D01*
X54241799Y-86760145D01*
X54263263Y-86759794D01*
X54284659Y-86761548D01*
G37*
G04 #@! TD.AperFunction*
G04 #@! TA.AperFunction,SMDPad,CuDef*
G36*
X55072159Y-85397558D02*
G01*
X55093279Y-85401401D01*
X55113921Y-85407296D01*
X55133886Y-85415186D01*
X55152981Y-85424994D01*
X55596819Y-85681244D01*
X55614861Y-85692877D01*
X55631676Y-85706222D01*
X55647102Y-85721151D01*
X55660990Y-85737520D01*
X55673207Y-85755172D01*
X55683635Y-85773936D01*
X55692173Y-85793632D01*
X55698740Y-85814070D01*
X55703272Y-85835054D01*
X55705726Y-85856380D01*
X55706077Y-85877844D01*
X55704323Y-85899240D01*
X55700480Y-85920360D01*
X55694585Y-85941002D01*
X55686695Y-85960967D01*
X55676887Y-85980062D01*
X55458137Y-86358948D01*
X55446504Y-86376990D01*
X55433159Y-86393805D01*
X55418230Y-86409231D01*
X55401861Y-86423119D01*
X55384209Y-86435336D01*
X55365445Y-86445764D01*
X55345749Y-86454302D01*
X55325311Y-86460869D01*
X55304327Y-86465401D01*
X55283001Y-86467855D01*
X55261537Y-86468206D01*
X55240141Y-86466452D01*
X55219021Y-86462609D01*
X55198379Y-86456714D01*
X55178414Y-86448824D01*
X55159319Y-86439016D01*
X54715481Y-86182766D01*
X54697439Y-86171133D01*
X54680624Y-86157788D01*
X54665198Y-86142859D01*
X54651310Y-86126490D01*
X54639093Y-86108838D01*
X54628665Y-86090074D01*
X54620127Y-86070378D01*
X54613560Y-86049940D01*
X54609028Y-86028956D01*
X54606574Y-86007630D01*
X54606223Y-85986166D01*
X54607977Y-85964770D01*
X54611820Y-85943650D01*
X54617715Y-85923008D01*
X54625605Y-85903043D01*
X54635413Y-85883948D01*
X54854163Y-85505062D01*
X54865796Y-85487020D01*
X54879141Y-85470205D01*
X54894070Y-85454779D01*
X54910439Y-85440891D01*
X54928091Y-85428674D01*
X54946855Y-85418246D01*
X54966551Y-85409708D01*
X54986989Y-85403141D01*
X55007973Y-85398609D01*
X55029299Y-85396155D01*
X55050763Y-85395804D01*
X55072159Y-85397558D01*
G37*
G04 #@! TD.AperFunction*
G04 #@! TA.AperFunction,SMDPad,CuDef*
G36*
X74309759Y-53783558D02*
G01*
X74330879Y-53787401D01*
X74351521Y-53793296D01*
X74371486Y-53801186D01*
X74390581Y-53810994D01*
X74834419Y-54067244D01*
X74852461Y-54078877D01*
X74869276Y-54092222D01*
X74884702Y-54107151D01*
X74898590Y-54123520D01*
X74910807Y-54141172D01*
X74921235Y-54159936D01*
X74929773Y-54179632D01*
X74936340Y-54200070D01*
X74940872Y-54221054D01*
X74943326Y-54242380D01*
X74943677Y-54263844D01*
X74941923Y-54285240D01*
X74938080Y-54306360D01*
X74932185Y-54327002D01*
X74924295Y-54346967D01*
X74914487Y-54366062D01*
X74695737Y-54744948D01*
X74684104Y-54762990D01*
X74670759Y-54779805D01*
X74655830Y-54795231D01*
X74639461Y-54809119D01*
X74621809Y-54821336D01*
X74603045Y-54831764D01*
X74583349Y-54840302D01*
X74562911Y-54846869D01*
X74541927Y-54851401D01*
X74520601Y-54853855D01*
X74499137Y-54854206D01*
X74477741Y-54852452D01*
X74456621Y-54848609D01*
X74435979Y-54842714D01*
X74416014Y-54834824D01*
X74396919Y-54825016D01*
X73953081Y-54568766D01*
X73935039Y-54557133D01*
X73918224Y-54543788D01*
X73902798Y-54528859D01*
X73888910Y-54512490D01*
X73876693Y-54494838D01*
X73866265Y-54476074D01*
X73857727Y-54456378D01*
X73851160Y-54435940D01*
X73846628Y-54414956D01*
X73844174Y-54393630D01*
X73843823Y-54372166D01*
X73845577Y-54350770D01*
X73849420Y-54329650D01*
X73855315Y-54309008D01*
X73863205Y-54289043D01*
X73873013Y-54269948D01*
X74091763Y-53891062D01*
X74103396Y-53873020D01*
X74116741Y-53856205D01*
X74131670Y-53840779D01*
X74148039Y-53826891D01*
X74165691Y-53814674D01*
X74184455Y-53804246D01*
X74204151Y-53795708D01*
X74224589Y-53789141D01*
X74245573Y-53784609D01*
X74266899Y-53782155D01*
X74288363Y-53781804D01*
X74309759Y-53783558D01*
G37*
G04 #@! TD.AperFunction*
G04 #@! TA.AperFunction,SMDPad,CuDef*
G36*
X73522259Y-55147548D02*
G01*
X73543379Y-55151391D01*
X73564021Y-55157286D01*
X73583986Y-55165176D01*
X73603081Y-55174984D01*
X74046919Y-55431234D01*
X74064961Y-55442867D01*
X74081776Y-55456212D01*
X74097202Y-55471141D01*
X74111090Y-55487510D01*
X74123307Y-55505162D01*
X74133735Y-55523926D01*
X74142273Y-55543622D01*
X74148840Y-55564060D01*
X74153372Y-55585044D01*
X74155826Y-55606370D01*
X74156177Y-55627834D01*
X74154423Y-55649230D01*
X74150580Y-55670350D01*
X74144685Y-55690992D01*
X74136795Y-55710957D01*
X74126987Y-55730052D01*
X73908237Y-56108938D01*
X73896604Y-56126980D01*
X73883259Y-56143795D01*
X73868330Y-56159221D01*
X73851961Y-56173109D01*
X73834309Y-56185326D01*
X73815545Y-56195754D01*
X73795849Y-56204292D01*
X73775411Y-56210859D01*
X73754427Y-56215391D01*
X73733101Y-56217845D01*
X73711637Y-56218196D01*
X73690241Y-56216442D01*
X73669121Y-56212599D01*
X73648479Y-56206704D01*
X73628514Y-56198814D01*
X73609419Y-56189006D01*
X73165581Y-55932756D01*
X73147539Y-55921123D01*
X73130724Y-55907778D01*
X73115298Y-55892849D01*
X73101410Y-55876480D01*
X73089193Y-55858828D01*
X73078765Y-55840064D01*
X73070227Y-55820368D01*
X73063660Y-55799930D01*
X73059128Y-55778946D01*
X73056674Y-55757620D01*
X73056323Y-55736156D01*
X73058077Y-55714760D01*
X73061920Y-55693640D01*
X73067815Y-55672998D01*
X73075705Y-55653033D01*
X73085513Y-55633938D01*
X73304263Y-55255052D01*
X73315896Y-55237010D01*
X73329241Y-55220195D01*
X73344170Y-55204769D01*
X73360539Y-55190881D01*
X73378191Y-55178664D01*
X73396955Y-55168236D01*
X73416651Y-55159698D01*
X73437089Y-55153131D01*
X73458073Y-55148599D01*
X73479399Y-55146145D01*
X73500863Y-55145794D01*
X73522259Y-55147548D01*
G37*
G04 #@! TD.AperFunction*
G04 #@! TA.AperFunction,SMDPad,CuDef*
G36*
X-15222309Y-107276053D02*
G01*
X-15201074Y-107279203D01*
X-15180250Y-107284419D01*
X-15160038Y-107291651D01*
X-15140632Y-107300830D01*
X-15122219Y-107311866D01*
X-15104976Y-107324654D01*
X-15089070Y-107339070D01*
X-15074654Y-107354976D01*
X-15061866Y-107372219D01*
X-15050830Y-107390632D01*
X-15041651Y-107410038D01*
X-15034419Y-107430250D01*
X-15029203Y-107451074D01*
X-15026053Y-107472309D01*
X-15025000Y-107493750D01*
X-15025000Y-107931250D01*
X-15026053Y-107952691D01*
X-15029203Y-107973926D01*
X-15034419Y-107994750D01*
X-15041651Y-108014962D01*
X-15050830Y-108034368D01*
X-15061866Y-108052781D01*
X-15074654Y-108070024D01*
X-15089070Y-108085930D01*
X-15104976Y-108100346D01*
X-15122219Y-108113134D01*
X-15140632Y-108124170D01*
X-15160038Y-108133349D01*
X-15180250Y-108140581D01*
X-15201074Y-108145797D01*
X-15222309Y-108148947D01*
X-15243750Y-108150000D01*
X-15756250Y-108150000D01*
X-15777691Y-108148947D01*
X-15798926Y-108145797D01*
X-15819750Y-108140581D01*
X-15839962Y-108133349D01*
X-15859368Y-108124170D01*
X-15877781Y-108113134D01*
X-15895024Y-108100346D01*
X-15910930Y-108085930D01*
X-15925346Y-108070024D01*
X-15938134Y-108052781D01*
X-15949170Y-108034368D01*
X-15958349Y-108014962D01*
X-15965581Y-107994750D01*
X-15970797Y-107973926D01*
X-15973947Y-107952691D01*
X-15975000Y-107931250D01*
X-15975000Y-107493750D01*
X-15973947Y-107472309D01*
X-15970797Y-107451074D01*
X-15965581Y-107430250D01*
X-15958349Y-107410038D01*
X-15949170Y-107390632D01*
X-15938134Y-107372219D01*
X-15925346Y-107354976D01*
X-15910930Y-107339070D01*
X-15895024Y-107324654D01*
X-15877781Y-107311866D01*
X-15859368Y-107300830D01*
X-15839962Y-107291651D01*
X-15819750Y-107284419D01*
X-15798926Y-107279203D01*
X-15777691Y-107276053D01*
X-15756250Y-107275000D01*
X-15243750Y-107275000D01*
X-15222309Y-107276053D01*
G37*
G04 #@! TD.AperFunction*
G04 #@! TA.AperFunction,SMDPad,CuDef*
G36*
X-15222309Y-108851053D02*
G01*
X-15201074Y-108854203D01*
X-15180250Y-108859419D01*
X-15160038Y-108866651D01*
X-15140632Y-108875830D01*
X-15122219Y-108886866D01*
X-15104976Y-108899654D01*
X-15089070Y-108914070D01*
X-15074654Y-108929976D01*
X-15061866Y-108947219D01*
X-15050830Y-108965632D01*
X-15041651Y-108985038D01*
X-15034419Y-109005250D01*
X-15029203Y-109026074D01*
X-15026053Y-109047309D01*
X-15025000Y-109068750D01*
X-15025000Y-109506250D01*
X-15026053Y-109527691D01*
X-15029203Y-109548926D01*
X-15034419Y-109569750D01*
X-15041651Y-109589962D01*
X-15050830Y-109609368D01*
X-15061866Y-109627781D01*
X-15074654Y-109645024D01*
X-15089070Y-109660930D01*
X-15104976Y-109675346D01*
X-15122219Y-109688134D01*
X-15140632Y-109699170D01*
X-15160038Y-109708349D01*
X-15180250Y-109715581D01*
X-15201074Y-109720797D01*
X-15222309Y-109723947D01*
X-15243750Y-109725000D01*
X-15756250Y-109725000D01*
X-15777691Y-109723947D01*
X-15798926Y-109720797D01*
X-15819750Y-109715581D01*
X-15839962Y-109708349D01*
X-15859368Y-109699170D01*
X-15877781Y-109688134D01*
X-15895024Y-109675346D01*
X-15910930Y-109660930D01*
X-15925346Y-109645024D01*
X-15938134Y-109627781D01*
X-15949170Y-109609368D01*
X-15958349Y-109589962D01*
X-15965581Y-109569750D01*
X-15970797Y-109548926D01*
X-15973947Y-109527691D01*
X-15975000Y-109506250D01*
X-15975000Y-109068750D01*
X-15973947Y-109047309D01*
X-15970797Y-109026074D01*
X-15965581Y-109005250D01*
X-15958349Y-108985038D01*
X-15949170Y-108965632D01*
X-15938134Y-108947219D01*
X-15925346Y-108929976D01*
X-15910930Y-108914070D01*
X-15895024Y-108899654D01*
X-15877781Y-108886866D01*
X-15859368Y-108875830D01*
X-15839962Y-108866651D01*
X-15819750Y-108859419D01*
X-15798926Y-108854203D01*
X-15777691Y-108851053D01*
X-15756250Y-108850000D01*
X-15243750Y-108850000D01*
X-15222309Y-108851053D01*
G37*
G04 #@! TD.AperFunction*
G04 #@! TA.AperFunction,SMDPad,CuDef*
G36*
X-30622309Y-85476053D02*
G01*
X-30601074Y-85479203D01*
X-30580250Y-85484419D01*
X-30560038Y-85491651D01*
X-30540632Y-85500830D01*
X-30522219Y-85511866D01*
X-30504976Y-85524654D01*
X-30489070Y-85539070D01*
X-30474654Y-85554976D01*
X-30461866Y-85572219D01*
X-30450830Y-85590632D01*
X-30441651Y-85610038D01*
X-30434419Y-85630250D01*
X-30429203Y-85651074D01*
X-30426053Y-85672309D01*
X-30425000Y-85693750D01*
X-30425000Y-86131250D01*
X-30426053Y-86152691D01*
X-30429203Y-86173926D01*
X-30434419Y-86194750D01*
X-30441651Y-86214962D01*
X-30450830Y-86234368D01*
X-30461866Y-86252781D01*
X-30474654Y-86270024D01*
X-30489070Y-86285930D01*
X-30504976Y-86300346D01*
X-30522219Y-86313134D01*
X-30540632Y-86324170D01*
X-30560038Y-86333349D01*
X-30580250Y-86340581D01*
X-30601074Y-86345797D01*
X-30622309Y-86348947D01*
X-30643750Y-86350000D01*
X-31156250Y-86350000D01*
X-31177691Y-86348947D01*
X-31198926Y-86345797D01*
X-31219750Y-86340581D01*
X-31239962Y-86333349D01*
X-31259368Y-86324170D01*
X-31277781Y-86313134D01*
X-31295024Y-86300346D01*
X-31310930Y-86285930D01*
X-31325346Y-86270024D01*
X-31338134Y-86252781D01*
X-31349170Y-86234368D01*
X-31358349Y-86214962D01*
X-31365581Y-86194750D01*
X-31370797Y-86173926D01*
X-31373947Y-86152691D01*
X-31375000Y-86131250D01*
X-31375000Y-85693750D01*
X-31373947Y-85672309D01*
X-31370797Y-85651074D01*
X-31365581Y-85630250D01*
X-31358349Y-85610038D01*
X-31349170Y-85590632D01*
X-31338134Y-85572219D01*
X-31325346Y-85554976D01*
X-31310930Y-85539070D01*
X-31295024Y-85524654D01*
X-31277781Y-85511866D01*
X-31259368Y-85500830D01*
X-31239962Y-85491651D01*
X-31219750Y-85484419D01*
X-31198926Y-85479203D01*
X-31177691Y-85476053D01*
X-31156250Y-85475000D01*
X-30643750Y-85475000D01*
X-30622309Y-85476053D01*
G37*
G04 #@! TD.AperFunction*
G04 #@! TA.AperFunction,SMDPad,CuDef*
G36*
X-30622309Y-87051053D02*
G01*
X-30601074Y-87054203D01*
X-30580250Y-87059419D01*
X-30560038Y-87066651D01*
X-30540632Y-87075830D01*
X-30522219Y-87086866D01*
X-30504976Y-87099654D01*
X-30489070Y-87114070D01*
X-30474654Y-87129976D01*
X-30461866Y-87147219D01*
X-30450830Y-87165632D01*
X-30441651Y-87185038D01*
X-30434419Y-87205250D01*
X-30429203Y-87226074D01*
X-30426053Y-87247309D01*
X-30425000Y-87268750D01*
X-30425000Y-87706250D01*
X-30426053Y-87727691D01*
X-30429203Y-87748926D01*
X-30434419Y-87769750D01*
X-30441651Y-87789962D01*
X-30450830Y-87809368D01*
X-30461866Y-87827781D01*
X-30474654Y-87845024D01*
X-30489070Y-87860930D01*
X-30504976Y-87875346D01*
X-30522219Y-87888134D01*
X-30540632Y-87899170D01*
X-30560038Y-87908349D01*
X-30580250Y-87915581D01*
X-30601074Y-87920797D01*
X-30622309Y-87923947D01*
X-30643750Y-87925000D01*
X-31156250Y-87925000D01*
X-31177691Y-87923947D01*
X-31198926Y-87920797D01*
X-31219750Y-87915581D01*
X-31239962Y-87908349D01*
X-31259368Y-87899170D01*
X-31277781Y-87888134D01*
X-31295024Y-87875346D01*
X-31310930Y-87860930D01*
X-31325346Y-87845024D01*
X-31338134Y-87827781D01*
X-31349170Y-87809368D01*
X-31358349Y-87789962D01*
X-31365581Y-87769750D01*
X-31370797Y-87748926D01*
X-31373947Y-87727691D01*
X-31375000Y-87706250D01*
X-31375000Y-87268750D01*
X-31373947Y-87247309D01*
X-31370797Y-87226074D01*
X-31365581Y-87205250D01*
X-31358349Y-87185038D01*
X-31349170Y-87165632D01*
X-31338134Y-87147219D01*
X-31325346Y-87129976D01*
X-31310930Y-87114070D01*
X-31295024Y-87099654D01*
X-31277781Y-87086866D01*
X-31259368Y-87075830D01*
X-31239962Y-87066651D01*
X-31219750Y-87059419D01*
X-31198926Y-87054203D01*
X-31177691Y-87051053D01*
X-31156250Y-87050000D01*
X-30643750Y-87050000D01*
X-30622309Y-87051053D01*
G37*
G04 #@! TD.AperFunction*
D19*
X28096800Y-106280000D03*
X28096800Y-98080000D03*
X1400000Y-98080000D03*
X1400000Y-106280000D03*
X-16148400Y-80735000D03*
X-16148400Y-72535000D03*
X45645200Y-72535000D03*
X45645200Y-80735000D03*
D11*
X40145200Y-24145000D03*
X48345200Y-24145000D03*
X-18848400Y-24145000D03*
X-10648400Y-24145000D03*
X4100000Y-52490000D03*
X-4100000Y-52490000D03*
X10648400Y-24145000D03*
X18848400Y-24145000D03*
X-63093700Y103580000D03*
X-54893700Y103580000D03*
X-33596800Y103580000D03*
X-25396800Y103580000D03*
X-4100000Y103580000D03*
X4100000Y103580000D03*
X25396800Y103580000D03*
X33596800Y103580000D03*
X54893700Y103580000D03*
X63093700Y103580000D03*
X-77842100Y78035000D03*
X-69642100Y78035000D03*
X-48345200Y78035000D03*
X-40145200Y78035000D03*
X-18848400Y78035000D03*
X-10648400Y78035000D03*
X10648400Y78035000D03*
X18848400Y78035000D03*
X40145200Y78035000D03*
X48345200Y78035000D03*
X69642100Y78035000D03*
X77842100Y78035000D03*
X-92590500Y52490000D03*
X-84390500Y52490000D03*
X-63093700Y52490000D03*
X-54893700Y52490000D03*
X-33596800Y52490000D03*
X-25396800Y52490000D03*
X-4100000Y52490000D03*
X4100000Y52490000D03*
X25396800Y52490000D03*
X33596800Y52490000D03*
X54893700Y52490000D03*
X63093700Y52490000D03*
X84390500Y52490000D03*
X92590500Y52490000D03*
X-107339000Y26945000D03*
X-99139000Y26945000D03*
X-77842100Y26945000D03*
X-69642100Y26945000D03*
X-48345200Y26945000D03*
X-40145200Y26945000D03*
X-18848400Y26945000D03*
X-10648400Y26945000D03*
X10648400Y26945000D03*
X18848400Y26945000D03*
X40145200Y26945000D03*
X48345200Y26945000D03*
X69642100Y26945000D03*
X77842100Y26945000D03*
X99139000Y26945000D03*
X107339000Y26945000D03*
X-122087000Y1400000D03*
X-113887000Y1400000D03*
X-92590500Y1400000D03*
X-84390500Y1400000D03*
X-63093700Y1400000D03*
X-54893700Y1400000D03*
X-33596800Y1400000D03*
X-25396800Y1400000D03*
X-4100000Y1400000D03*
X4100000Y1400000D03*
X25396800Y1400000D03*
X33596800Y1400000D03*
X54893700Y1400000D03*
X63093700Y1400000D03*
X84390500Y1400000D03*
X92590500Y1400000D03*
X113887000Y1400000D03*
X122087000Y1400000D03*
X-107339000Y-24145000D03*
X-99139000Y-24145000D03*
X-77842100Y-24145000D03*
X-69642100Y-24145000D03*
X-48345200Y-24145000D03*
X-40145200Y-24145000D03*
X69642100Y-24145000D03*
X77842100Y-24145000D03*
X99139000Y-24145000D03*
X107339000Y-24145000D03*
X-92590500Y-49690000D03*
X-84390500Y-49690000D03*
X-63093700Y-49690000D03*
X-54893700Y-49690000D03*
X-33596800Y-49690000D03*
X-25396800Y-49690000D03*
X54893700Y-49690000D03*
X63093700Y-49690000D03*
X84390500Y-49690000D03*
X92590500Y-49690000D03*
X-48345200Y-75235000D03*
X-40145200Y-75235000D03*
X18848400Y-78035000D03*
X10648400Y-78035000D03*
X69642100Y-75235000D03*
X77842100Y-75235000D03*
X-33596800Y-100780000D03*
X-25396800Y-100780000D03*
X54893700Y-100780000D03*
X63093700Y-100780000D03*
D20*
X12020000Y-73873000D03*
X34880000Y-40980000D03*
X34880000Y-43520000D03*
X32340000Y-40980000D03*
X32340000Y-43520000D03*
X29800000Y-40980000D03*
X29800000Y-43520000D03*
X27260000Y-40980000D03*
X27260000Y-43520000D03*
X24720000Y-40980000D03*
X24720000Y-43520000D03*
X22180000Y-40980000D03*
X22180000Y-43520000D03*
X19640000Y-40980000D03*
X19640000Y-43520000D03*
X17100000Y-40980000D03*
X17100000Y-43520000D03*
X14560000Y-40980000D03*
X14560000Y-43520000D03*
X12020000Y-40980000D03*
X12020000Y-43520000D03*
X9480000Y-40980000D03*
X9480000Y-43520000D03*
X6940000Y-40980000D03*
X6940000Y-43520000D03*
X4400000Y-40980000D03*
X4400000Y-43520000D03*
X1860000Y-40980000D03*
X1860000Y-43520000D03*
X-680000Y-40980000D03*
X-680000Y-43520000D03*
X-3220000Y-40980000D03*
X-3220000Y-43520000D03*
X-5760000Y-40980000D03*
X-5760000Y-43520000D03*
X-8300000Y-40980000D03*
X-8300000Y-43520000D03*
X39960000Y-46060000D03*
X39960000Y-48600000D03*
X39960000Y-51140000D03*
X39960000Y-53680000D03*
X39960000Y-56220000D03*
X39960000Y-58760000D03*
X39960000Y-61300000D03*
X39960000Y-63840000D03*
X39960000Y-68920000D03*
X39960000Y-71460000D03*
X39960000Y-74000000D03*
X39960000Y-76540000D03*
X39960000Y-79080000D03*
X39960000Y-81620000D03*
X39960000Y-84160000D03*
X39960000Y-109560000D03*
X-8300000Y-103464000D03*
X-8300000Y-106004000D03*
X-8300000Y-108544000D03*
X-8300000Y-113624000D03*
X-8300000Y-116164000D03*
X-8300000Y-118704000D03*
X-8300000Y-100924000D03*
X-8300000Y-98384000D03*
X-8300000Y-95844000D03*
X-8300000Y-111084000D03*
X-8300000Y-91780000D03*
X-8300000Y-89240000D03*
X-8300000Y-86700000D03*
X-8300000Y-84160000D03*
X-8300000Y-81620000D03*
X-8300000Y-79080000D03*
X-8300000Y-76540000D03*
X-8300000Y-74000000D03*
X-8300000Y-68920000D03*
X-8300000Y-66380000D03*
X-8300000Y-63840000D03*
X-8300000Y-61300000D03*
X-8300000Y-58760000D03*
X-8300000Y-56220000D03*
X-8300000Y-53680000D03*
X-8300000Y-51140000D03*
X39960000Y-107020000D03*
X39960000Y-104480000D03*
X39960000Y-101940000D03*
X39960000Y-99400000D03*
X39960000Y-96860000D03*
X39960000Y-94320000D03*
X39960000Y-91780000D03*
X39960000Y-86700000D03*
X12020000Y-71333000D03*
X14560000Y-73873000D03*
X14560000Y-71333000D03*
X17100000Y-71333000D03*
X17100000Y-73873000D03*
D21*
X-40009800Y-96802100D03*
X34090900Y-25821600D03*
X-46184900Y-79272800D03*
X-32834100Y-37288900D03*
X39864900Y-19705500D03*
X-43623800Y12654800D03*
X55649100Y-84625000D03*
X-42517400Y-81108500D03*
X-40916300Y-88807900D03*
X-38184400Y-96983700D03*
X-3579700Y-119160400D03*
X-36669000Y-92569400D03*
X-33721000Y-121156800D03*
X-39115500Y-88340000D03*
X-32316000Y-81074700D03*
X-16559600Y-120263300D03*
X-42461300Y-111570300D03*
X-10044800Y-50585700D03*
X8844100Y-38868600D03*
X-32948900Y-74422300D03*
X-31272800Y-80361500D03*
X-46468700Y-82770100D03*
X64931100Y-61414300D03*
X-34186300Y5250500D03*
X-45648800Y-4241200D03*
X-36044100Y-117576300D03*
X-25089400Y-118198000D03*
X-29982600Y-115136000D03*
D22*
X-36867100Y-138100000D02*
X-34500000Y-138100000D01*
X-39500000Y-138100000D02*
X-36867100Y-138100000D01*
X-36867100Y-138100000D02*
X-36867100Y-128239000D01*
X-36867100Y-128239000D02*
X-37000000Y-128100000D01*
X-36867100Y-128239000D02*
X-36867000Y-128239000D01*
X-36867000Y-128239000D02*
X-28128900Y-120207500D01*
X-28128900Y-120207500D02*
X-28056200Y-120196500D01*
X-28056200Y-120196500D02*
X-26027400Y-120196500D01*
X-26027400Y-120196500D02*
X-25230900Y-120286600D01*
X-25230900Y-120286600D02*
X-22203400Y-120770000D01*
X99139000Y26945000D02*
X99139000Y23666600D01*
X99139000Y23666600D02*
X99139200Y23666600D01*
X99139200Y23666600D02*
X108052000Y12700000D01*
X54893700Y103580000D02*
X54893700Y100301600D01*
X63703200Y89306400D02*
X54893700Y100301600D01*
X-4100000Y103580000D02*
X-5878400Y103580000D01*
X-16002000Y99872800D02*
X-13965600Y101138600D01*
X-13965600Y101138600D02*
X-5878400Y103580000D01*
X-33596800Y1400000D02*
X-33596800Y4678400D01*
X-33596800Y4678400D02*
X-33596600Y4678400D01*
X-33596600Y4678400D02*
X-18848400Y23666600D01*
X-18848400Y26945000D02*
X-18848400Y23666600D01*
X-4100000Y1400000D02*
X-4100000Y4678400D01*
X-4100000Y4678400D02*
X-4100200Y4678400D01*
X-4100200Y4678400D02*
X-18848400Y23666600D01*
X-8557400Y42796000D02*
X-7998800Y42433300D01*
X-7998800Y42433300D02*
X10648400Y28584200D01*
X-8557400Y42796000D02*
X-8561200Y42798400D01*
X-8561200Y42798400D02*
X-18848400Y30223400D01*
X-4100000Y49211600D02*
X-8509500Y42869800D01*
X-8509500Y42869800D02*
X-8557400Y42796000D01*
X-18848400Y26945000D02*
X-18848400Y30223400D01*
X-42960000Y-120220100D02*
X-42644100Y-120721700D01*
X-42644100Y-120721700D02*
X-42454100Y-120960800D01*
X-42454100Y-120960800D02*
X-42230900Y-121184100D01*
X-42230900Y-121184100D02*
X-37000000Y-128100000D01*
X-20960000Y-120770000D02*
X-22203400Y-120770000D01*
X-20960000Y-120770000D02*
X-19716600Y-120770000D01*
X-33596800Y52490000D02*
X-33596800Y55768400D01*
X-30734000Y78587600D02*
X-33596800Y55768400D01*
X25396800Y103580000D02*
X27175200Y103580000D01*
X27175200Y103580000D02*
X32128900Y100638100D01*
X32128900Y100638100D02*
X32895200Y100303200D01*
X32895200Y100303200D02*
X43027600Y99872800D01*
X-63093700Y103580000D02*
X-61315300Y103580000D01*
X-61315300Y103580000D02*
X-55649300Y100326900D01*
X-55649300Y100326900D02*
X-55605100Y100303600D01*
X-55605100Y100303600D02*
X-45516800Y99872800D01*
X90148200Y42093400D02*
X93268800Y38235500D01*
X84390500Y49211600D02*
X90148200Y42093400D01*
X90148200Y42093400D02*
X71420500Y26945000D01*
X69642100Y-75235000D02*
X69642100Y-78513400D01*
X54893700Y-100780000D02*
X54893700Y-97501600D01*
X54893700Y-97501600D02*
X63707400Y-88508300D01*
X63707400Y-88508300D02*
X67026100Y-84907800D01*
X67026100Y-84907800D02*
X67289800Y-84337800D01*
X67289800Y-84337800D02*
X69642100Y-78513400D01*
X33596800Y-52490000D02*
X33596800Y-55768400D01*
X45645200Y-72535000D02*
X45645200Y-70756600D01*
X45645200Y-70756600D02*
X39179800Y-64739200D01*
X39179800Y-64739200D02*
X38844600Y-64335000D01*
X38844600Y-64335000D02*
X33596800Y-55768400D01*
X-45500000Y-120220100D02*
X-42960000Y-120220100D01*
X-49310000Y-115038500D02*
X-49854500Y-118162400D01*
X-49854500Y-118162400D02*
X-49901800Y-119244200D01*
X-49901800Y-119244200D02*
X-49847500Y-120106400D01*
X-49847500Y-120106400D02*
X-49690600Y-120206300D01*
X-49690600Y-120206300D02*
X-49638500Y-120220100D01*
X-49638500Y-120220100D02*
X-45500000Y-120220100D01*
X-42960000Y-119090800D02*
X-42960000Y-120220100D01*
X69642100Y26945000D02*
X71420500Y26945000D01*
X84390500Y52490000D02*
X84390500Y49211600D01*
X87718300Y-42127100D02*
X84390500Y-46411600D01*
X99139000Y-27423400D02*
X99138800Y-27423400D01*
X99138800Y-27423400D02*
X87718300Y-42127100D01*
X71420500Y-24145000D02*
X87534000Y-41983900D01*
X87534000Y-41983900D02*
X87718300Y-42127100D01*
X69642100Y-24145000D02*
X71420500Y-24145000D01*
X54893700Y-49690000D02*
X53115300Y-49690000D01*
X34559700Y-45797600D02*
X34880000Y-44662000D01*
X53115300Y-49690000D02*
X39524300Y-47197900D01*
X39524300Y-47197900D02*
X34559700Y-45797600D01*
X34559700Y-45797600D02*
X33596800Y-49211600D01*
X13512800Y99872800D02*
X3398400Y100303200D01*
X3398400Y100303200D02*
X2632100Y100638100D01*
X2632100Y100638100D02*
X-2321600Y103580000D01*
X10648400Y-24145000D02*
X10648400Y-20866600D01*
X25396800Y1809800D02*
X25396800Y2219600D01*
X25396800Y1400000D02*
X25396800Y1809800D01*
X25396800Y1809800D02*
X10648400Y-20866600D01*
X1400000Y-98080000D02*
X1400000Y-96301600D01*
X18848400Y-78035000D02*
X17070000Y-78035000D01*
X17070000Y-78035000D02*
X1400000Y-96301600D01*
X-4100000Y103580000D02*
X-2321600Y103580000D01*
X-33596800Y-103679000D02*
X-33596800Y-104058400D01*
X-33596800Y-100780000D02*
X-33596800Y-103679000D01*
X-8300000Y-110513000D02*
X-14618300Y-107145300D01*
X-14618300Y-107145300D02*
X-15340000Y-106902500D01*
X-15340000Y-106902500D02*
X-33596800Y-103679000D01*
X-8300000Y-110513000D02*
X-8300000Y-109942000D01*
X-8300000Y-111084000D02*
X-8300000Y-110513000D01*
X1400000Y-98080000D02*
X1400000Y-98524600D01*
X1400000Y-98524600D02*
X-7589600Y-109593200D01*
X-7589600Y-109593200D02*
X-8300000Y-109942000D01*
X-19716600Y-120770000D02*
X-15961500Y-121004200D01*
X-15961500Y-121004200D02*
X-15050000Y-121004200D01*
X-15050000Y-121004200D02*
X-14871100Y-120874200D01*
X-14871100Y-120874200D02*
X-14686200Y-120619200D01*
X-14686200Y-120619200D02*
X-14752500Y-118082100D01*
X-14752500Y-118082100D02*
X-15500000Y-114787500D01*
X-30894400Y-85911600D02*
X-30900000Y-85912500D01*
X-19426800Y-80735000D02*
X-30894300Y-85911600D01*
X-30894300Y-85911600D02*
X-30894400Y-85911600D01*
X-33596800Y-97501600D02*
X-32912000Y-97501600D01*
X-32912000Y-97501600D02*
X-32529400Y-97276700D01*
X-32529400Y-97276700D02*
X-30474500Y-95174600D01*
X-30474500Y-95174600D02*
X-30368600Y-94984600D01*
X-30368600Y-94984600D02*
X-30186900Y-91564400D01*
X-30186900Y-91564400D02*
X-30137300Y-87074400D01*
X-30137300Y-87074400D02*
X-30894300Y-85912100D01*
X-30894300Y-85912100D02*
X-30894400Y-85911600D01*
X-37000000Y-120412500D02*
X-35378600Y-117854400D01*
X-35378600Y-117854400D02*
X-35368000Y-117811700D01*
X-35368000Y-117811700D02*
X-33596800Y-104058400D01*
X-33596800Y-100780000D02*
X-33596800Y-97501600D01*
X-40825000Y-94105000D02*
X-40825000Y-95333400D01*
X-40009800Y-96802100D02*
X-40825000Y-95333400D01*
X-49310000Y-113909200D02*
X-49310000Y-115038500D01*
X-49310000Y-113909200D02*
X-49310000Y-113626800D01*
X-45500000Y-119090800D02*
X-45500000Y-120220100D01*
X10648400Y28584200D02*
X10648400Y30223400D01*
X10648400Y26945000D02*
X10648400Y28584200D01*
X113887000Y1400000D02*
X113887000Y4678400D01*
X113887000Y4678400D02*
X110622600Y11103000D01*
X110622600Y11103000D02*
X109940400Y11785200D01*
X109940400Y11785200D02*
X108052000Y12700000D01*
X84390500Y-49690000D02*
X84390500Y-46411600D01*
X40145200Y78035000D02*
X38366800Y78035000D01*
X28041600Y78587600D02*
X30114800Y79876200D01*
X30114800Y79876200D02*
X30950400Y79865900D01*
X30950400Y79865900D02*
X32709100Y79515700D01*
X32709100Y79515700D02*
X38366800Y78035000D01*
X99139000Y-24145000D02*
X99139000Y-27423400D01*
X34880000Y-43520000D02*
X34880000Y-42378000D01*
X40145200Y-24145000D02*
X40145200Y-27423400D01*
X35220500Y-41079000D02*
X35221000Y-41077500D01*
X35221000Y-41077500D02*
X40145200Y-27423400D01*
X34880000Y-42378000D02*
X35156600Y-41537000D01*
X35156600Y-41537000D02*
X35220400Y-41079600D01*
X35220400Y-41079600D02*
X35220500Y-41079000D01*
X35220500Y-41079000D02*
X34880000Y-40980000D01*
X25396800Y49771700D02*
X25396800Y49211600D01*
X25396800Y52490000D02*
X25396800Y49771700D01*
X25396800Y49771700D02*
X10648500Y30223400D01*
X10648500Y30223400D02*
X10648400Y30223400D01*
X10648400Y26945000D02*
X10648400Y23666600D01*
X25396800Y2219600D02*
X10648400Y23666600D01*
X25396800Y49211600D02*
X25397000Y49211600D01*
X25397000Y49211600D02*
X40145200Y30223400D01*
X-4100000Y52490000D02*
X-4100000Y49211600D01*
X-40825000Y-92876600D02*
X-38417300Y-88583800D01*
X-38417300Y-88583800D02*
X-38285000Y-86123400D01*
X-35745000Y-84895000D02*
X-35745000Y-86123400D01*
X-37015000Y-85509200D02*
X-37015000Y-86123400D01*
X-37015000Y-84895000D02*
X-37015000Y-85509200D01*
X-37015000Y-85509200D02*
X-36178900Y-86123400D01*
X-36178900Y-86123400D02*
X-35745000Y-86123400D01*
X-38285000Y-85509200D02*
X-38285000Y-86123400D01*
X-38285000Y-84895000D02*
X-38285000Y-85509200D01*
X-38285000Y-85509200D02*
X-37448900Y-86123400D01*
X-37448900Y-86123400D02*
X-37015000Y-86123400D01*
X-77842100Y78035000D02*
X-77842100Y74756600D01*
X-77842100Y74756600D02*
X-79894200Y64506100D01*
X-79894200Y64506100D02*
X-79894200Y63519700D01*
X-79894200Y63519700D02*
X-79823700Y61772800D01*
X-92590500Y52490000D02*
X-92590500Y49211600D01*
X-92590500Y49211600D02*
X-94592400Y38852100D01*
X-94592400Y38852100D02*
X-94592400Y37551000D01*
X-94592400Y37551000D02*
X-94521900Y36118800D01*
X-107339000Y26945000D02*
X-107339000Y23666600D01*
X-107339000Y23666600D02*
X-109290500Y13198100D01*
X-109290500Y13198100D02*
X-109290500Y12211700D01*
X-109290500Y12211700D02*
X-109220000Y10464800D01*
X-92590500Y-49690000D02*
X-92590500Y-46411600D01*
X-107339000Y-24145000D02*
X-107339000Y-27423400D01*
X-107339000Y-27423400D02*
X-107338800Y-27423400D01*
X-107338800Y-27423400D02*
X-92590500Y-46411600D01*
X-40825000Y-94105000D02*
X-40825000Y-92971300D01*
X-48345200Y-75235000D02*
X-48345200Y-71956600D01*
X-33596800Y-49690000D02*
X-33596800Y-52968400D01*
X-33596800Y-52968400D02*
X-33597000Y-52968400D01*
X-33597000Y-52968400D02*
X-48345200Y-71956600D01*
X-49310000Y-113626800D02*
X-49310000Y-112779900D01*
X69642100Y78035000D02*
X69642100Y74756600D01*
X78486000Y63770900D02*
X69642100Y74756600D01*
X40145200Y26945000D02*
X40145200Y30223400D01*
X-63093700Y-100780000D02*
X-63093700Y-97501600D01*
X-77842100Y-75235000D02*
X-77842100Y-78513400D01*
X-77842100Y-78513400D02*
X-77841900Y-78513400D01*
X-77841900Y-78513400D02*
X-63093700Y-97501600D01*
X-40825000Y-92876700D02*
X-40825000Y-92876600D01*
X-40825000Y-92971300D02*
X-40825000Y-92876700D01*
X-61315300Y-100780000D02*
X-52769800Y-109321400D01*
X-52769800Y-109321400D02*
X-49310000Y-112779900D01*
X-63093700Y-100780000D02*
X-61315300Y-100780000D01*
X-16148400Y-80735000D02*
X-19426800Y-80735000D01*
X54893700Y52490000D02*
X54893700Y49211600D01*
X40145200Y30223400D02*
X40145400Y30223400D01*
X40145400Y30223400D02*
X54893700Y49211600D01*
X-92590500Y1400000D02*
X-92590500Y-1878400D01*
X-77842100Y-24145000D02*
X-77842100Y-20866600D01*
X-77842100Y-20866600D02*
X-77842300Y-20866600D01*
X-77842300Y-20866600D02*
X-92590500Y-1878400D01*
X-63093700Y1400000D02*
X-63093700Y-1878400D01*
X-48345200Y-24145000D02*
X-48345200Y-20866600D01*
X-48345200Y-20866600D02*
X-48345400Y-20866600D01*
X-48345400Y-20866600D02*
X-63093700Y-1878400D01*
X34880000Y-43520000D02*
X34880000Y-44662000D01*
X33596800Y-52490000D02*
X33596800Y-49211600D01*
X-8300000Y-81620000D02*
X-8300000Y-80478000D01*
X-8300000Y-80478000D02*
X-7904600Y-80294000D01*
X-7904600Y-80294000D02*
X-6982800Y-79413900D01*
X-6982800Y-79413900D02*
X23350600Y-44044100D01*
X23350600Y-44044100D02*
X23581800Y-40519100D01*
X23581800Y-40519100D02*
X34090900Y-25821600D01*
X9480000Y-43520000D02*
X9480000Y-42378000D01*
X-10648400Y26945000D02*
X-10648400Y23666600D01*
X-10648400Y23666600D02*
X-7076000Y15655200D01*
X-7076000Y15655200D02*
X-2951100Y5356900D01*
X-2951100Y5356900D02*
X-2329300Y3612800D01*
X-2329300Y3612800D02*
X8345500Y-41428800D01*
X8345500Y-41428800D02*
X8354100Y-41452600D01*
X8354100Y-41452600D02*
X8494500Y-41710400D01*
X8494500Y-41710400D02*
X8899500Y-42096600D01*
X8899500Y-42096600D02*
X9480000Y-42378000D01*
X-49715000Y-84895000D02*
X-49715000Y-86123400D01*
X-49715000Y-86123400D02*
X-46597800Y-93025900D01*
X-46597800Y-93025900D02*
X-46595200Y-93098200D01*
X-46595200Y-93098200D02*
X-46596500Y-95132200D01*
X-46596500Y-95132200D02*
X-46623600Y-95193000D01*
X-46623600Y-95193000D02*
X-46645000Y-95218800D01*
X-46645000Y-95218800D02*
X-46760700Y-95334500D01*
X-46760700Y-95334500D02*
X-52602800Y-95333500D01*
X-52602800Y-95333500D02*
X-52671600Y-95325600D01*
X-52671600Y-95325600D02*
X-52737600Y-95268500D01*
X-52737600Y-95268500D02*
X-52794700Y-95208400D01*
X-52794700Y-95208400D02*
X-82963900Y-46698700D01*
X-82963900Y-46698700D02*
X-97390500Y-21884200D01*
X-97390500Y-21884200D02*
X-98119000Y-20855900D01*
X-98119000Y-20855900D02*
X-113887000Y-1878400D01*
X-113887000Y1400000D02*
X-113887000Y-1878400D01*
X-25396800Y1400000D02*
X-25396800Y-1878400D01*
X-680000Y-40980000D02*
X-680000Y-39838000D01*
X-680000Y-39838000D02*
X-7601400Y-32149800D01*
X-7601400Y-32149800D02*
X-10833900Y-28351100D01*
X-10833900Y-28351100D02*
X-12399400Y-26404100D01*
X-12399400Y-26404100D02*
X-25396800Y-1878400D01*
X63093700Y1400000D02*
X63093700Y-1878400D01*
X39960000Y-46060000D02*
X39960000Y-44918000D01*
X39960000Y-44918000D02*
X41938900Y-41651000D01*
X41938900Y-41651000D02*
X50104600Y-26386100D01*
X50104600Y-26386100D02*
X63093700Y-1878400D01*
X-48445000Y-84895000D02*
X-48445000Y-83666600D01*
X-48445000Y-83666600D02*
X-46184900Y-79272800D01*
X-40145200Y-24145000D02*
X-40145200Y-27423400D01*
X-32834100Y-37288900D02*
X-40145200Y-27423400D01*
X25396800Y-55768400D02*
X36420700Y-70164400D01*
X36420700Y-70164400D02*
X36732600Y-70664500D01*
X36732600Y-70664500D02*
X38878200Y-74570700D01*
X38878200Y-74570700D02*
X39533100Y-75191900D01*
X39533100Y-75191900D02*
X39960000Y-75398000D01*
X25396800Y-52490000D02*
X25396800Y-55768400D01*
X39960000Y-76540000D02*
X39960000Y-75398000D01*
X-16148400Y-72535000D02*
X-16148400Y-74313400D01*
X-8300000Y-98384000D02*
X-8300000Y-97242000D01*
X-8300000Y-97242000D02*
X-8859300Y-96942900D01*
X-8859300Y-96942900D02*
X-9445300Y-96312800D01*
X-9445300Y-96312800D02*
X-12877900Y-80018500D01*
X-12877900Y-80018500D02*
X-13232800Y-79222400D01*
X-13232800Y-79222400D02*
X-16148400Y-74313400D01*
X39864900Y-19705500D02*
X33810000Y-25143200D01*
X33810000Y-25143200D02*
X33412500Y-25540700D01*
X33412500Y-25540700D02*
X21066600Y-40480700D01*
X21066600Y-40480700D02*
X21049500Y-40519200D01*
X21049500Y-40519200D02*
X20760800Y-41473000D01*
X20760800Y-41473000D02*
X20156300Y-42102800D01*
X20156300Y-42102800D02*
X19491100Y-42225900D01*
X19491100Y-42225900D02*
X19107400Y-42423900D01*
X19107400Y-42423900D02*
X18430300Y-43079500D01*
X18430300Y-43079500D02*
X18230800Y-43993100D01*
X18230800Y-43993100D02*
X-119700Y-68261600D01*
X-119700Y-68261600D02*
X-7134300Y-77003200D01*
X-7134300Y-77003200D02*
X-7781100Y-77679700D01*
X-7781100Y-77679700D02*
X-8300000Y-77938000D01*
X-8300000Y-79080000D02*
X-8300000Y-77938000D01*
X-69642100Y26945000D02*
X-67863700Y26945000D01*
X-43623800Y12654800D02*
X-67863700Y26945000D01*
X45645200Y-80735000D02*
X42366800Y-80735000D01*
X39960000Y-84160000D02*
X41102000Y-84160000D01*
X41102000Y-84160000D02*
X41102000Y-84159900D01*
X41102000Y-84159900D02*
X42366800Y-80735000D01*
X28096800Y-98080000D02*
X28096800Y-96301600D01*
X39960000Y-86700000D02*
X38818000Y-86700000D01*
X38818000Y-86700000D02*
X38818000Y-86700200D01*
X38818000Y-86700200D02*
X28096800Y-96301600D01*
X-8300000Y-43520000D02*
X-8300000Y-44662000D01*
X-33948800Y-81351200D02*
X-9649000Y-58431500D01*
X-9649000Y-58431500D02*
X-8820900Y-57666100D01*
X-8820900Y-57666100D02*
X-8779800Y-57630500D01*
X-8779800Y-57630500D02*
X-7872400Y-57388100D01*
X-7872400Y-57388100D02*
X-7528700Y-57168500D01*
X-7528700Y-57168500D02*
X-7117200Y-56674800D01*
X-7117200Y-56674800D02*
X-6419800Y-48016800D01*
X-6419800Y-48016800D02*
X-6421500Y-46596500D01*
X-6421500Y-46596500D02*
X-6439600Y-46547200D01*
X-6439600Y-46547200D02*
X-6588600Y-46304700D01*
X-6588600Y-46304700D02*
X-8300000Y-44662000D01*
D23*
X-33948800Y-81351200D02*
X-34700000Y-80600000D01*
X-34700000Y-80600000D02*
X-39000000Y-80600000D01*
X-39000000Y-80600000D02*
X-39555000Y-81155000D01*
X-39555000Y-81155000D02*
X-39555000Y-84895000D01*
X-30900000Y-87487500D02*
X-31375000Y-87487500D01*
X-31375000Y-87487500D02*
X-33000000Y-85862500D01*
X-33000000Y-85862500D02*
X-33000000Y-82300000D01*
X-33000000Y-82300000D02*
X-33948800Y-81351200D01*
X-37177100Y-121988000D02*
X-40144200Y-121988000D01*
X-40144200Y-121988000D02*
X-41690000Y-120442000D01*
X-41690000Y-120442000D02*
X-41690000Y-119766500D01*
X-32692800Y-121988000D02*
X-37177100Y-121988000D01*
D22*
X-37177100Y-121988000D02*
X-37000000Y-121987500D01*
X-8300000Y-43520000D02*
X-8300000Y-40980000D01*
D23*
X-18812500Y-113212000D02*
X-21475000Y-113212000D01*
X-21475000Y-113212000D02*
X-24162500Y-115900000D01*
X-24162500Y-115900000D02*
X-27800000Y-115900000D01*
X-27800000Y-115900000D02*
X-30200000Y-118300000D01*
X-30200000Y-118300000D02*
X-30200000Y-120662000D01*
X-30200000Y-120662000D02*
X-31525000Y-121988000D01*
X-31525000Y-121988000D02*
X-32692800Y-121988000D01*
D22*
X-32692800Y-121988000D02*
X-32000000Y-121987500D01*
D23*
X-14731200Y-113212000D02*
X-15975000Y-113212000D01*
X-15975000Y-113212000D02*
X-16062500Y-113300000D01*
X-16062500Y-113300000D02*
X-16150000Y-113212000D01*
X-16150000Y-113212000D02*
X-18812500Y-113212000D01*
D22*
X-18812500Y-113212000D02*
X-21000000Y-113212500D01*
D23*
X-4412500Y-115800000D02*
X-4412500Y-127612000D01*
X-4412500Y-127612000D02*
X-6302800Y-129503000D01*
X-6302800Y-129503000D02*
X-11102800Y-129503000D01*
X-11102800Y-129503000D02*
X-12900000Y-127706000D01*
X-12900000Y-127706000D02*
X-12900000Y-113800000D01*
X-12900000Y-113800000D02*
X-13487500Y-113212000D01*
X-13487500Y-113212000D02*
X-14731200Y-113212000D01*
D22*
X-14731200Y-113212000D02*
X-15500000Y-113212500D01*
D23*
X-41690000Y-119766500D02*
X-41690000Y-119091000D01*
X-41690000Y-119091000D02*
X-40923300Y-119091000D01*
X-40923300Y-119091000D02*
X-40200000Y-118368000D01*
X-40200000Y-118368000D02*
X-40200000Y-99500000D01*
D22*
X-41690000Y-119766500D02*
X-41690000Y-119090800D01*
D23*
X-40200000Y-99500000D02*
X-39500000Y-99500000D01*
X-39500000Y-99500000D02*
X-36900000Y-96900000D01*
X-36900000Y-96900000D02*
X-33000000Y-96900000D01*
X-33000000Y-96900000D02*
X-30900000Y-94800000D01*
X-30900000Y-94800000D02*
X-30900000Y-87487500D01*
X-40200000Y-99500000D02*
X-42095000Y-97605000D01*
X-42095000Y-97605000D02*
X-42095000Y-94105000D01*
X-912500Y-118200000D02*
X-3312500Y-115800000D01*
X-3312500Y-115800000D02*
X-4412500Y-115800000D01*
X39960000Y-99400000D02*
X38738700Y-99400000D01*
X38738700Y-99400000D02*
X38638700Y-99300000D01*
X38638700Y-99300000D02*
X35600000Y-99300000D01*
X35600000Y-99300000D02*
X32300000Y-102600000D01*
X32300000Y-102600000D02*
X20700000Y-102600000D01*
X20700000Y-102600000D02*
X5100000Y-118200000D01*
X5100000Y-118200000D02*
X-912500Y-118200000D01*
D22*
X76993600Y-61446700D02*
X75908100Y-60820000D01*
X75908100Y-60820000D02*
X75908100Y-60819900D01*
X75908100Y-60819900D02*
X73606200Y-55682000D01*
X39960000Y-61300000D02*
X39960000Y-62442000D01*
X39960000Y-62442000D02*
X40362400Y-62627300D01*
X40362400Y-62627300D02*
X41303700Y-63514000D01*
X41303700Y-63514000D02*
X48840500Y-71686900D01*
X48840500Y-71686900D02*
X49449800Y-72610600D01*
X49449800Y-72610600D02*
X55649100Y-84625000D01*
X39960000Y-61300000D02*
X39960000Y-58760000D01*
X55156200Y-85932000D02*
X55649100Y-84625000D01*
X-79137900Y62960600D02*
X-79137700Y62960500D01*
X-79137700Y62960500D02*
X-78355600Y62175500D01*
X-78355600Y62175500D02*
X-53205000Y-86031300D01*
X-53205000Y-86031300D02*
X-51770100Y-89060700D01*
X-51770100Y-89060700D02*
X-49715000Y-92876600D01*
X-78573700Y63937900D02*
X-79137900Y62960600D01*
X-49715000Y-94105000D02*
X-49715000Y-92876600D01*
X-63875600Y89591900D02*
X-64439800Y88614600D01*
X-48445000Y-94105000D02*
X-48445000Y-92876600D01*
X-48445000Y-92876600D02*
X-52353800Y-86823200D01*
X-52353800Y-86823200D02*
X-52812500Y-85968600D01*
X-52812500Y-85968600D02*
X-52825700Y-85942800D01*
X-52825700Y-85942800D02*
X-71419700Y24766800D01*
X-71419700Y24766800D02*
X-71420600Y24772700D01*
X-71420600Y24772700D02*
X-71420600Y29110400D01*
X-71420600Y29110400D02*
X-71419500Y29124600D01*
X-71419500Y29124600D02*
X-63623700Y87035600D01*
X-63623700Y87035600D02*
X-63647400Y87824400D01*
X-63647400Y87824400D02*
X-64439600Y88614500D01*
X-64439600Y88614500D02*
X-64439800Y88614600D01*
X-43016800Y99872800D02*
X-43016800Y98594400D01*
X-47175000Y-94105000D02*
X-47175000Y-92876600D01*
X-47175000Y-92876600D02*
X-51061900Y-86897300D01*
X-51061900Y-86897300D02*
X-51560100Y-85934700D01*
X-51560100Y-85934700D02*
X-51563500Y-85889000D01*
X-51563500Y-85889000D02*
X-51563500Y-83899300D01*
X-51563500Y-83899300D02*
X-51058300Y-74762400D01*
X-51058300Y-74762400D02*
X-46464500Y-28406400D01*
X-46464500Y-28406400D02*
X-46191100Y-26379400D01*
X-46191100Y-26379400D02*
X-42945300Y12158600D01*
X-42945300Y12158600D02*
X-42945300Y15120500D01*
X-42945300Y15120500D02*
X-43016800Y98594400D01*
X-13502000Y98594400D02*
X-16626800Y78029800D01*
X-16626800Y78029800D02*
X-17225200Y75064900D01*
X-17225200Y75064900D02*
X-17961100Y71886300D01*
X-17961100Y71886300D02*
X-32786700Y15273300D01*
X-32786700Y15273300D02*
X-35312400Y6927100D01*
X-35312400Y6927100D02*
X-36122900Y3888000D01*
X-36122900Y3888000D02*
X-38087700Y-5928500D01*
X-38087700Y-5928500D02*
X-41652700Y-20557200D01*
X-41652700Y-20557200D02*
X-42194800Y-23181700D01*
X-42194800Y-23181700D02*
X-50122700Y-73055800D01*
X-50122700Y-73055800D02*
X-50123700Y-73070100D01*
X-50123700Y-73070100D02*
X-50123700Y-77395700D01*
X-50123700Y-77395700D02*
X-50123300Y-77410000D01*
X-50123300Y-77410000D02*
X-49137300Y-83888400D01*
X-49137300Y-83888400D02*
X-49021400Y-85923500D01*
X-49021400Y-85923500D02*
X-48399900Y-87481600D01*
X-48399900Y-87481600D02*
X-45905000Y-92876600D01*
X-13502000Y99872800D02*
X-13502000Y98594400D01*
X-45905000Y-94105000D02*
X-45905000Y-92876600D01*
X16012800Y98594400D02*
X-31719500Y11724900D01*
X-31719500Y11724900D02*
X-35212900Y5711400D01*
X-35212900Y5711400D02*
X-35773100Y3624700D01*
X-35773100Y3624700D02*
X-35773100Y3568700D01*
X-35773100Y3568700D02*
X-35861700Y848400D01*
X-35861700Y848400D02*
X-35705500Y-1688400D01*
X-35705500Y-1688400D02*
X-32156100Y-37071900D01*
X-32156100Y-37071900D02*
X-31818300Y-47530400D01*
X-31818300Y-47530400D02*
X-31818300Y-51875400D01*
X-31818300Y-51875400D02*
X-31830200Y-51916200D01*
X-31830200Y-51916200D02*
X-37700800Y-64198600D01*
X-37700800Y-64198600D02*
X-42248200Y-72781100D01*
X-42248200Y-72781100D02*
X-45815200Y-83096600D01*
X-45815200Y-83096600D02*
X-46436200Y-83782800D01*
X-46436200Y-83782800D02*
X-46483500Y-83838500D01*
X-46483500Y-83838500D02*
X-46484000Y-85922900D01*
X-46484000Y-85922900D02*
X-44635000Y-92876600D01*
X16012800Y99872800D02*
X16012800Y98594400D01*
X-44635000Y-94105000D02*
X-44635000Y-92876600D01*
X44399200Y99872800D02*
X44177100Y98927700D01*
X44177100Y98927700D02*
X44030000Y98715100D01*
X44030000Y98715100D02*
X18070400Y81271800D01*
X18070400Y81271800D02*
X18057200Y81259000D01*
X18057200Y81259000D02*
X17117000Y80318800D01*
X17117000Y80318800D02*
X-6143600Y54996200D01*
X-6143600Y54996200D02*
X-6154400Y54978600D01*
X-6154400Y54978600D02*
X-34834200Y5609300D01*
X-34834200Y5609300D02*
X-35394400Y3549700D01*
X-35394400Y3549700D02*
X-35418000Y48100D01*
X-35418000Y48100D02*
X-35331200Y-1600800D01*
X-35331200Y-1600800D02*
X-31777900Y-37046500D01*
X-31777900Y-37046500D02*
X-31439500Y-47518600D01*
X-31439500Y-47518600D02*
X-31437300Y-51921600D01*
X-31437300Y-51921600D02*
X-31541400Y-52281800D01*
X-31541400Y-52281800D02*
X-37166000Y-64046200D01*
X-37166000Y-64046200D02*
X-41920300Y-73023700D01*
X-41920300Y-73023700D02*
X-42517400Y-81108500D01*
X45527600Y99872800D02*
X44399200Y99872800D01*
X-43365000Y-94105000D02*
X-43365000Y-92876600D01*
X-43365000Y-92876600D02*
X-40916300Y-88807900D01*
X-107970000Y12629900D02*
X-106862800Y11990600D01*
X-52255000Y-94105000D02*
X-52255000Y-92876600D01*
X-52255000Y-92876600D02*
X-106862900Y11990500D01*
X-106862900Y11990500D02*
X-106862800Y11990600D01*
X-92164700Y37644600D02*
X-64862500Y-51907900D01*
X-64862500Y-51907900D02*
X-53583100Y-86123800D01*
X-53583100Y-86123800D02*
X-50985000Y-92876600D01*
X-93271900Y38283900D02*
X-92164700Y37644600D01*
X-50985000Y-94105000D02*
X-50985000Y-92876600D01*
X-38285000Y-95333400D02*
X-38184400Y-96983700D01*
X-38285000Y-94105000D02*
X-38285000Y-95333400D01*
X-2487500Y-118200000D02*
X-3579700Y-119160400D01*
X-8300000Y-116164000D02*
X-7158000Y-116164000D01*
X-7158000Y-116164000D02*
X-5987500Y-115800000D01*
X-37015000Y-94105000D02*
X-37015000Y-92876600D01*
X-36669000Y-92569400D02*
X-37015000Y-92876600D01*
X39960000Y-101940000D02*
X41102000Y-101940000D01*
X41102000Y-101940000D02*
X56187900Y-86645700D01*
X56187900Y-86645700D02*
X56208900Y-86619700D01*
X56208900Y-86619700D02*
X56398500Y-86237100D01*
X56398500Y-86237100D02*
X56404900Y-86219700D01*
X56404900Y-86219700D02*
X56409800Y-86200800D01*
X56409800Y-86200800D02*
X56700400Y-84974000D01*
X56700400Y-84974000D02*
X59010000Y-72111000D01*
X59010000Y-72111000D02*
X59606200Y-68182000D01*
X-32000000Y-120412500D02*
X-33721000Y-121156800D01*
X-45500000Y-113909200D02*
X-45500000Y-112779900D01*
X-45500000Y-112779900D02*
X-44287500Y-109000000D01*
X-48040000Y-113909200D02*
X-48040000Y-119090800D01*
X-44230000Y-113909200D02*
X-44230000Y-115038500D01*
X-42960000Y-113909200D02*
X-42960000Y-115038500D01*
X-42960000Y-115038500D02*
X-43368500Y-115038500D01*
X-43368500Y-115038500D02*
X-43549700Y-114989600D01*
X-43549700Y-114989600D02*
X-43684900Y-115038500D01*
X-43684900Y-115038500D02*
X-44230000Y-115038500D01*
X-41690000Y-112779900D02*
X-42623200Y-97756500D01*
X-42623200Y-97756500D02*
X-42681600Y-95145200D01*
X-42681600Y-95145200D02*
X-42673500Y-93112300D01*
X-42673500Y-93112300D02*
X-42669700Y-93046400D01*
X-42669700Y-93046400D02*
X-39115500Y-88340000D01*
X-9442000Y-58760000D02*
X-31554200Y-79683600D01*
X-31554200Y-79683600D02*
X-31951200Y-80080600D01*
X-31951200Y-80080600D02*
X-32316000Y-81074700D01*
X-41690000Y-113909200D02*
X-41690000Y-112779900D01*
X-8300000Y-58760000D02*
X-9442000Y-58760000D01*
X-15500000Y-120287500D02*
X-16559600Y-120263300D01*
X-42461300Y-111570300D02*
X-42712500Y-109000000D01*
X-10044800Y-50585700D02*
X-39819900Y-79592400D01*
X-39819900Y-79592400D02*
X-40631800Y-80399000D01*
X-40631800Y-80399000D02*
X-42118800Y-82377000D01*
X-42118800Y-82377000D02*
X-43365000Y-83666600D01*
X64953200Y87141300D02*
X65517400Y86164100D01*
X-43365000Y-84895000D02*
X-43365000Y-83666600D01*
X65517400Y86164100D02*
X65517300Y86164100D01*
X65517300Y86164100D02*
X57261700Y52301400D01*
X57261700Y52301400D02*
X56660200Y50263700D01*
X56660200Y50263700D02*
X56651400Y50245300D01*
X56651400Y50245300D02*
X17091000Y-21899800D01*
X17091000Y-21899800D02*
X8844100Y-38868600D01*
X-49310000Y-117961500D02*
X-48771300Y-114860100D01*
X-48771300Y-114860100D02*
X-48766000Y-114818400D01*
X-48766000Y-114818400D02*
X-48582900Y-112988500D01*
X-48582900Y-112988500D02*
X-44058200Y-95122300D01*
X-44058200Y-95122300D02*
X-44056900Y-95104200D01*
X-44056900Y-95104200D02*
X-43941700Y-93081700D01*
X-43941700Y-93081700D02*
X-41526100Y-85941500D01*
X-41526100Y-85941500D02*
X-41518200Y-85917100D01*
X-41518200Y-85917100D02*
X-41400700Y-83853800D01*
X-41400700Y-83853800D02*
X-40053800Y-80906400D01*
X-40053800Y-80906400D02*
X-39268000Y-80120600D01*
X-39268000Y-80120600D02*
X-37782200Y-78930000D01*
X-37782200Y-78930000D02*
X-32669700Y-75102000D01*
X-32669700Y-75102000D02*
X-9442000Y-56220000D01*
X-49310000Y-119090800D02*
X-49310000Y-117961500D01*
X-8300000Y-56220000D02*
X-9442000Y-56220000D01*
X-17900000Y-138100000D02*
X-12900000Y-138100000D01*
X60555100Y-67712400D02*
X60393800Y-66818000D01*
X63652400Y-84886800D02*
X60555100Y-67712400D01*
X60555100Y-67712400D02*
X76345100Y-64864800D01*
X76345100Y-64864800D02*
X77145400Y-64064500D01*
X77145400Y-64064500D02*
X78282700Y-62091000D01*
X78282700Y-62091000D02*
X78361300Y-61597500D01*
X78361300Y-61597500D02*
X78243600Y-59281600D01*
X-8300000Y-113624000D02*
X-9442000Y-113624000D01*
X-9442000Y-113624000D02*
X-9442000Y-113623900D01*
X-9442000Y-113623900D02*
X-15500000Y-109287500D01*
X78628900Y60966600D02*
X78628900Y60966500D01*
X78628900Y60966500D02*
X20591200Y-26414000D01*
X20591200Y-26414000D02*
X10902200Y-40491200D01*
X10902200Y-40491200D02*
X10880600Y-40537800D01*
X10880600Y-40537800D02*
X10652400Y-44017700D01*
X10652400Y-44017700D02*
X9964700Y-44662100D01*
X9964700Y-44662100D02*
X-1079900Y-44662100D01*
X-1079900Y-44662100D02*
X-1152200Y-44658100D01*
X-1152200Y-44658100D02*
X-1777300Y-44090700D01*
X-1777300Y-44090700D02*
X-2097800Y-43031800D01*
X-2097800Y-43031800D02*
X-2128400Y-42996400D01*
X-2128400Y-42996400D02*
X-2737800Y-42384000D01*
X-2737800Y-42384000D02*
X-6189700Y-42120000D01*
X-6189700Y-42120000D02*
X-6254800Y-42100300D01*
X-6254800Y-42100300D02*
X-6832900Y-41524300D01*
X-6832900Y-41524300D02*
X-6878400Y-41473500D01*
X-6878400Y-41473500D02*
X-6892500Y-41434300D01*
X-6892500Y-41434300D02*
X-7179100Y-40487300D01*
X-7179100Y-40487300D02*
X-7788900Y-39847900D01*
X-7788900Y-39847900D02*
X-8698300Y-39763300D01*
X-8698300Y-39763300D02*
X-9720600Y-40785600D01*
X-9720600Y-40785600D02*
X-38411000Y-77515100D01*
X-38411000Y-77515100D02*
X-39849800Y-79080600D01*
X-39849800Y-79080600D02*
X-40916000Y-80146800D01*
X-40916000Y-80146800D02*
X-42017500Y-81612000D01*
X-42017500Y-81612000D02*
X-44635000Y-83666600D01*
X79736000Y61605800D02*
X78628900Y60966600D01*
X-44635000Y-84895000D02*
X-44635000Y-83666600D01*
X-45905000Y-84895000D02*
X-45905000Y-86123400D01*
X-32948900Y-74422300D02*
X-39558000Y-79867600D01*
X-39558000Y-79867600D02*
X-40350000Y-80654400D01*
X-40350000Y-80654400D02*
X-42632800Y-83690900D01*
X-42632800Y-83690900D02*
X-42786500Y-84151000D01*
X-42786500Y-84151000D02*
X-42786500Y-85939300D01*
X-42786500Y-85939300D02*
X-42896200Y-86123400D01*
X-42896200Y-86123400D02*
X-45905000Y-86123400D01*
X-47175000Y-84895000D02*
X-47175000Y-83666600D01*
X109302000Y10534900D02*
X108194900Y9895700D01*
X-31272800Y-80361500D02*
X-26256400Y-75692300D01*
X-26256400Y-75692300D02*
X-8789300Y-60178100D01*
X-8789300Y-60178100D02*
X-7812300Y-59882400D01*
X-7812300Y-59882400D02*
X-7779600Y-59854300D01*
X-7779600Y-59854300D02*
X-3309700Y-55714900D01*
X-3309700Y-55714900D02*
X3324300Y-49250900D01*
X3324300Y-49250900D02*
X3350900Y-49234300D01*
X3350900Y-49234300D02*
X12440200Y-44703300D01*
X12440200Y-44703300D02*
X13041900Y-44188300D01*
X13041900Y-44188300D02*
X13196000Y-43961400D01*
X13196000Y-43961400D02*
X13420900Y-40533700D01*
X13420900Y-40533700D02*
X13450300Y-40476600D01*
X13450300Y-40476600D02*
X14124900Y-39730600D01*
X14124900Y-39730600D02*
X55679500Y-1829300D01*
X55679500Y-1829300D02*
X62340300Y4660800D01*
X62340300Y4660800D02*
X62400300Y4675500D01*
X62400300Y4675500D02*
X108194800Y9895700D01*
X108194800Y9895700D02*
X108194900Y9895700D01*
X-47175000Y-83666600D02*
X-46468700Y-82770100D01*
X39960000Y-56220000D02*
X41102000Y-56220000D01*
X41102000Y-56220000D02*
X64931100Y-61414300D01*
X58393800Y-70318000D02*
X58804500Y-67766600D01*
X58804500Y-67766600D02*
X59552600Y-66492400D01*
X59552600Y-66492400D02*
X59862100Y-66159800D01*
X59862100Y-66159800D02*
X60053800Y-66028000D01*
X60053800Y-66028000D02*
X60685500Y-65772500D01*
X60685500Y-65772500D02*
X74658100Y-62985100D01*
X74658100Y-62985100D02*
X74658100Y-62985000D01*
X75743600Y-63611700D02*
X74658100Y-62985000D01*
X-28234000Y78587600D02*
X-28234000Y77309200D01*
X-50985000Y-84895000D02*
X-50985000Y-83666600D01*
X-50985000Y-83666600D02*
X-50502300Y-73054500D01*
X-50502300Y-73054500D02*
X-50499100Y-73010900D01*
X-50499100Y-73010900D02*
X-31820100Y50305700D01*
X-31820100Y50305700D02*
X-28234000Y77309200D01*
X-34186300Y5250500D02*
X-28981700Y14683100D01*
X-28981700Y14683100D02*
X-5840400Y54764800D01*
X-5840400Y54764800D02*
X-4883900Y55721300D01*
X-4883900Y55721300D02*
X-4867700Y55733900D01*
X-4867700Y55733900D02*
X29048000Y77436200D01*
X29048000Y77436200D02*
X29204300Y77680000D01*
X29204300Y77680000D02*
X29413200Y78587600D01*
X-52255000Y-84895000D02*
X-52255000Y-83666600D01*
X30541600Y78587600D02*
X29413200Y78587600D01*
X-52255000Y-83666600D02*
X-52083200Y-81285200D01*
X-52083200Y-81285200D02*
X-47146300Y-30534000D01*
X-47146300Y-30534000D02*
X-46569300Y-26349300D01*
X-46569300Y-26349300D02*
X-46567000Y-26313200D01*
X-46567000Y-26313200D02*
X-45648800Y-4241200D01*
X57606200Y-71682000D02*
X57525900Y-70749500D01*
X57525900Y-70749500D02*
X57564600Y-70013800D01*
X57564600Y-70013800D02*
X58460800Y-67589400D01*
X58460800Y-67589400D02*
X59257800Y-66246800D01*
X59257800Y-66246800D02*
X59603300Y-65882300D01*
X59603300Y-65882300D02*
X59622900Y-65864600D01*
X59622900Y-65864600D02*
X59856600Y-65703800D01*
X59856600Y-65703800D02*
X65252700Y-62051600D01*
X65252700Y-62051600D02*
X73288500Y-54866500D01*
X73288500Y-54866500D02*
X74393800Y-54318000D01*
X57606200Y-71682000D02*
X57606100Y-71682000D01*
X57606100Y-71682000D02*
X56327600Y-84904500D01*
X56327600Y-84904500D02*
X56045100Y-86097100D01*
X56045100Y-86097100D02*
X55892800Y-86404300D01*
X55892800Y-86404300D02*
X55637800Y-86641900D01*
X55637800Y-86641900D02*
X55061200Y-87011500D01*
X55061200Y-87011500D02*
X54368600Y-87296000D01*
X39960000Y-94320000D02*
X38818000Y-94320000D01*
X38818000Y-94320000D02*
X31584800Y-99124700D01*
X31584800Y-99124700D02*
X30339900Y-99838900D01*
X30339900Y-99838900D02*
X30312800Y-99850200D01*
X30312800Y-99850200D02*
X20506800Y-102078700D01*
X20506800Y-102078700D02*
X-7846000Y-112216600D01*
X-7846000Y-112216600D02*
X-7877400Y-112226100D01*
X-7877400Y-112226100D02*
X-8697700Y-112226100D01*
X-8697700Y-112226100D02*
X-8755000Y-112224200D01*
X-8755000Y-112224200D02*
X-15500000Y-107712500D01*
X41102000Y-94320000D02*
X54368600Y-87296000D01*
X39960000Y-94320000D02*
X41102000Y-94320000D01*
X-21581700Y-118230000D02*
X-22203400Y-118230000D01*
X-20960000Y-118230000D02*
X-21581700Y-118230000D01*
X-21581700Y-118230000D02*
X-21000000Y-114787500D01*
X-46770000Y-113909200D02*
X-46770000Y-115038500D01*
X-46770000Y-115038500D02*
X-43969700Y-116906400D01*
X-43969700Y-116906400D02*
X-42478200Y-118047800D01*
X-42478200Y-118047800D02*
X-42419300Y-118141000D01*
X-42419300Y-118141000D02*
X-42213200Y-120655200D01*
X-42213200Y-120655200D02*
X-42170900Y-120708500D01*
X-42170900Y-120708500D02*
X-40364200Y-122515400D01*
X-40364200Y-122515400D02*
X-37461500Y-122704200D01*
X-37461500Y-122704200D02*
X-37267900Y-122704200D01*
X-37267900Y-122704200D02*
X-37264600Y-122704400D01*
X-37264600Y-122704400D02*
X-31664300Y-122704300D01*
X-31664300Y-122704300D02*
X-31663600Y-122704200D01*
X-31663600Y-122704200D02*
X-31547900Y-122704200D01*
X-31547900Y-122704200D02*
X-31257800Y-122468200D01*
X-31257800Y-122468200D02*
X-29711500Y-120920700D01*
X-29711500Y-120920700D02*
X-29694100Y-120892700D01*
X-29694100Y-120892700D02*
X-28263800Y-117813800D01*
X-28263800Y-117813800D02*
X-28249800Y-117787300D01*
X-28249800Y-117787300D02*
X-28230700Y-117766800D01*
X-28230700Y-117766800D02*
X-28133900Y-117670000D01*
X-28133900Y-117670000D02*
X-28069500Y-117658400D01*
X-28069500Y-117658400D02*
X-27135200Y-117551000D01*
X-27135200Y-117551000D02*
X-25261600Y-117492700D01*
X-25261600Y-117492700D02*
X-24618900Y-117526300D01*
X-24618900Y-117526300D02*
X-22203400Y-118230000D01*
X-27040000Y-120770000D02*
X-25796600Y-120770000D01*
X-25796600Y-120770000D02*
X-20400000Y-125600000D01*
X-37100000Y-115800000D02*
X-37100000Y-116978400D01*
X-36044100Y-117576300D02*
X-37100000Y-116978400D01*
X-25111000Y-118336800D02*
X-21758100Y-118859000D01*
X-21758100Y-118859000D02*
X-15500000Y-118712500D01*
X-25089400Y-118198000D02*
X-25111000Y-118336800D01*
X-25796600Y-118230000D02*
X-25111000Y-118336800D01*
X-33100000Y-115800000D02*
X-31571600Y-115800000D01*
X-29982600Y-115136000D02*
X-31571600Y-115800000D01*
X-27040000Y-118230000D02*
X-25796600Y-118230000D01*
M02*
