G04 #@! TF.GenerationSoftware,KiCad,Pcbnew,(5.1.5-0-10_14)*
G04 #@! TF.CreationDate,2020-10-18T20:02:10-04:00*
G04 #@! TF.ProjectId,rainboard_newfighter,7261696e-626f-4617-9264-5f6e65776669,rev?*
G04 #@! TF.SameCoordinates,Original*
G04 #@! TF.FileFunction,Paste,Top*
G04 #@! TF.FilePolarity,Positive*
%FSLAX46Y46*%
G04 Gerber Fmt 4.6, Leading zero omitted, Abs format (unit mm)*
G04 Created by KiCad (PCBNEW (5.1.5-0-10_14)) date 2020-10-18 20:02:10*
%MOMM*%
%LPD*%
G04 APERTURE LIST*
%ADD10R,2.500000X1.800000*%
%ADD11C,0.100000*%
%ADD12R,1.930000X0.590000*%
%ADD13R,0.600000X1.900000*%
%ADD14R,0.533400X1.701800*%
G04 APERTURE END LIST*
D10*
X-37100000Y-115800000D03*
X-33100000Y-115800000D03*
D11*
G36*
X-5747309Y-115326053D02*
G01*
X-5726074Y-115329203D01*
X-5705250Y-115334419D01*
X-5685038Y-115341651D01*
X-5665632Y-115350830D01*
X-5647219Y-115361866D01*
X-5629976Y-115374654D01*
X-5614070Y-115389070D01*
X-5599654Y-115404976D01*
X-5586866Y-115422219D01*
X-5575830Y-115440632D01*
X-5566651Y-115460038D01*
X-5559419Y-115480250D01*
X-5554203Y-115501074D01*
X-5551053Y-115522309D01*
X-5550000Y-115543750D01*
X-5550000Y-116056250D01*
X-5551053Y-116077691D01*
X-5554203Y-116098926D01*
X-5559419Y-116119750D01*
X-5566651Y-116139962D01*
X-5575830Y-116159368D01*
X-5586866Y-116177781D01*
X-5599654Y-116195024D01*
X-5614070Y-116210930D01*
X-5629976Y-116225346D01*
X-5647219Y-116238134D01*
X-5665632Y-116249170D01*
X-5685038Y-116258349D01*
X-5705250Y-116265581D01*
X-5726074Y-116270797D01*
X-5747309Y-116273947D01*
X-5768750Y-116275000D01*
X-6206250Y-116275000D01*
X-6227691Y-116273947D01*
X-6248926Y-116270797D01*
X-6269750Y-116265581D01*
X-6289962Y-116258349D01*
X-6309368Y-116249170D01*
X-6327781Y-116238134D01*
X-6345024Y-116225346D01*
X-6360930Y-116210930D01*
X-6375346Y-116195024D01*
X-6388134Y-116177781D01*
X-6399170Y-116159368D01*
X-6408349Y-116139962D01*
X-6415581Y-116119750D01*
X-6420797Y-116098926D01*
X-6423947Y-116077691D01*
X-6425000Y-116056250D01*
X-6425000Y-115543750D01*
X-6423947Y-115522309D01*
X-6420797Y-115501074D01*
X-6415581Y-115480250D01*
X-6408349Y-115460038D01*
X-6399170Y-115440632D01*
X-6388134Y-115422219D01*
X-6375346Y-115404976D01*
X-6360930Y-115389070D01*
X-6345024Y-115374654D01*
X-6327781Y-115361866D01*
X-6309368Y-115350830D01*
X-6289962Y-115341651D01*
X-6269750Y-115334419D01*
X-6248926Y-115329203D01*
X-6227691Y-115326053D01*
X-6206250Y-115325000D01*
X-5768750Y-115325000D01*
X-5747309Y-115326053D01*
G37*
G36*
X-4172309Y-115326053D02*
G01*
X-4151074Y-115329203D01*
X-4130250Y-115334419D01*
X-4110038Y-115341651D01*
X-4090632Y-115350830D01*
X-4072219Y-115361866D01*
X-4054976Y-115374654D01*
X-4039070Y-115389070D01*
X-4024654Y-115404976D01*
X-4011866Y-115422219D01*
X-4000830Y-115440632D01*
X-3991651Y-115460038D01*
X-3984419Y-115480250D01*
X-3979203Y-115501074D01*
X-3976053Y-115522309D01*
X-3975000Y-115543750D01*
X-3975000Y-116056250D01*
X-3976053Y-116077691D01*
X-3979203Y-116098926D01*
X-3984419Y-116119750D01*
X-3991651Y-116139962D01*
X-4000830Y-116159368D01*
X-4011866Y-116177781D01*
X-4024654Y-116195024D01*
X-4039070Y-116210930D01*
X-4054976Y-116225346D01*
X-4072219Y-116238134D01*
X-4090632Y-116249170D01*
X-4110038Y-116258349D01*
X-4130250Y-116265581D01*
X-4151074Y-116270797D01*
X-4172309Y-116273947D01*
X-4193750Y-116275000D01*
X-4631250Y-116275000D01*
X-4652691Y-116273947D01*
X-4673926Y-116270797D01*
X-4694750Y-116265581D01*
X-4714962Y-116258349D01*
X-4734368Y-116249170D01*
X-4752781Y-116238134D01*
X-4770024Y-116225346D01*
X-4785930Y-116210930D01*
X-4800346Y-116195024D01*
X-4813134Y-116177781D01*
X-4824170Y-116159368D01*
X-4833349Y-116139962D01*
X-4840581Y-116119750D01*
X-4845797Y-116098926D01*
X-4848947Y-116077691D01*
X-4850000Y-116056250D01*
X-4850000Y-115543750D01*
X-4848947Y-115522309D01*
X-4845797Y-115501074D01*
X-4840581Y-115480250D01*
X-4833349Y-115460038D01*
X-4824170Y-115440632D01*
X-4813134Y-115422219D01*
X-4800346Y-115404976D01*
X-4785930Y-115389070D01*
X-4770024Y-115374654D01*
X-4752781Y-115361866D01*
X-4734368Y-115350830D01*
X-4714962Y-115341651D01*
X-4694750Y-115334419D01*
X-4673926Y-115329203D01*
X-4652691Y-115326053D01*
X-4631250Y-115325000D01*
X-4193750Y-115325000D01*
X-4172309Y-115326053D01*
G37*
G36*
X-2247309Y-117726053D02*
G01*
X-2226074Y-117729203D01*
X-2205250Y-117734419D01*
X-2185038Y-117741651D01*
X-2165632Y-117750830D01*
X-2147219Y-117761866D01*
X-2129976Y-117774654D01*
X-2114070Y-117789070D01*
X-2099654Y-117804976D01*
X-2086866Y-117822219D01*
X-2075830Y-117840632D01*
X-2066651Y-117860038D01*
X-2059419Y-117880250D01*
X-2054203Y-117901074D01*
X-2051053Y-117922309D01*
X-2050000Y-117943750D01*
X-2050000Y-118456250D01*
X-2051053Y-118477691D01*
X-2054203Y-118498926D01*
X-2059419Y-118519750D01*
X-2066651Y-118539962D01*
X-2075830Y-118559368D01*
X-2086866Y-118577781D01*
X-2099654Y-118595024D01*
X-2114070Y-118610930D01*
X-2129976Y-118625346D01*
X-2147219Y-118638134D01*
X-2165632Y-118649170D01*
X-2185038Y-118658349D01*
X-2205250Y-118665581D01*
X-2226074Y-118670797D01*
X-2247309Y-118673947D01*
X-2268750Y-118675000D01*
X-2706250Y-118675000D01*
X-2727691Y-118673947D01*
X-2748926Y-118670797D01*
X-2769750Y-118665581D01*
X-2789962Y-118658349D01*
X-2809368Y-118649170D01*
X-2827781Y-118638134D01*
X-2845024Y-118625346D01*
X-2860930Y-118610930D01*
X-2875346Y-118595024D01*
X-2888134Y-118577781D01*
X-2899170Y-118559368D01*
X-2908349Y-118539962D01*
X-2915581Y-118519750D01*
X-2920797Y-118498926D01*
X-2923947Y-118477691D01*
X-2925000Y-118456250D01*
X-2925000Y-117943750D01*
X-2923947Y-117922309D01*
X-2920797Y-117901074D01*
X-2915581Y-117880250D01*
X-2908349Y-117860038D01*
X-2899170Y-117840632D01*
X-2888134Y-117822219D01*
X-2875346Y-117804976D01*
X-2860930Y-117789070D01*
X-2845024Y-117774654D01*
X-2827781Y-117761866D01*
X-2809368Y-117750830D01*
X-2789962Y-117741651D01*
X-2769750Y-117734419D01*
X-2748926Y-117729203D01*
X-2727691Y-117726053D01*
X-2706250Y-117725000D01*
X-2268750Y-117725000D01*
X-2247309Y-117726053D01*
G37*
G36*
X-672309Y-117726053D02*
G01*
X-651074Y-117729203D01*
X-630250Y-117734419D01*
X-610038Y-117741651D01*
X-590632Y-117750830D01*
X-572219Y-117761866D01*
X-554976Y-117774654D01*
X-539070Y-117789070D01*
X-524654Y-117804976D01*
X-511866Y-117822219D01*
X-500830Y-117840632D01*
X-491651Y-117860038D01*
X-484419Y-117880250D01*
X-479203Y-117901074D01*
X-476053Y-117922309D01*
X-475000Y-117943750D01*
X-475000Y-118456250D01*
X-476053Y-118477691D01*
X-479203Y-118498926D01*
X-484419Y-118519750D01*
X-491651Y-118539962D01*
X-500830Y-118559368D01*
X-511866Y-118577781D01*
X-524654Y-118595024D01*
X-539070Y-118610930D01*
X-554976Y-118625346D01*
X-572219Y-118638134D01*
X-590632Y-118649170D01*
X-610038Y-118658349D01*
X-630250Y-118665581D01*
X-651074Y-118670797D01*
X-672309Y-118673947D01*
X-693750Y-118675000D01*
X-1131250Y-118675000D01*
X-1152691Y-118673947D01*
X-1173926Y-118670797D01*
X-1194750Y-118665581D01*
X-1214962Y-118658349D01*
X-1234368Y-118649170D01*
X-1252781Y-118638134D01*
X-1270024Y-118625346D01*
X-1285930Y-118610930D01*
X-1300346Y-118595024D01*
X-1313134Y-118577781D01*
X-1324170Y-118559368D01*
X-1333349Y-118539962D01*
X-1340581Y-118519750D01*
X-1345797Y-118498926D01*
X-1348947Y-118477691D01*
X-1350000Y-118456250D01*
X-1350000Y-117943750D01*
X-1348947Y-117922309D01*
X-1345797Y-117901074D01*
X-1340581Y-117880250D01*
X-1333349Y-117860038D01*
X-1324170Y-117840632D01*
X-1313134Y-117822219D01*
X-1300346Y-117804976D01*
X-1285930Y-117789070D01*
X-1270024Y-117774654D01*
X-1252781Y-117761866D01*
X-1234368Y-117750830D01*
X-1214962Y-117741651D01*
X-1194750Y-117734419D01*
X-1173926Y-117729203D01*
X-1152691Y-117726053D01*
X-1131250Y-117725000D01*
X-693750Y-117725000D01*
X-672309Y-117726053D01*
G37*
G36*
X-20722309Y-112776053D02*
G01*
X-20701074Y-112779203D01*
X-20680250Y-112784419D01*
X-20660038Y-112791651D01*
X-20640632Y-112800830D01*
X-20622219Y-112811866D01*
X-20604976Y-112824654D01*
X-20589070Y-112839070D01*
X-20574654Y-112854976D01*
X-20561866Y-112872219D01*
X-20550830Y-112890632D01*
X-20541651Y-112910038D01*
X-20534419Y-112930250D01*
X-20529203Y-112951074D01*
X-20526053Y-112972309D01*
X-20525000Y-112993750D01*
X-20525000Y-113431250D01*
X-20526053Y-113452691D01*
X-20529203Y-113473926D01*
X-20534419Y-113494750D01*
X-20541651Y-113514962D01*
X-20550830Y-113534368D01*
X-20561866Y-113552781D01*
X-20574654Y-113570024D01*
X-20589070Y-113585930D01*
X-20604976Y-113600346D01*
X-20622219Y-113613134D01*
X-20640632Y-113624170D01*
X-20660038Y-113633349D01*
X-20680250Y-113640581D01*
X-20701074Y-113645797D01*
X-20722309Y-113648947D01*
X-20743750Y-113650000D01*
X-21256250Y-113650000D01*
X-21277691Y-113648947D01*
X-21298926Y-113645797D01*
X-21319750Y-113640581D01*
X-21339962Y-113633349D01*
X-21359368Y-113624170D01*
X-21377781Y-113613134D01*
X-21395024Y-113600346D01*
X-21410930Y-113585930D01*
X-21425346Y-113570024D01*
X-21438134Y-113552781D01*
X-21449170Y-113534368D01*
X-21458349Y-113514962D01*
X-21465581Y-113494750D01*
X-21470797Y-113473926D01*
X-21473947Y-113452691D01*
X-21475000Y-113431250D01*
X-21475000Y-112993750D01*
X-21473947Y-112972309D01*
X-21470797Y-112951074D01*
X-21465581Y-112930250D01*
X-21458349Y-112910038D01*
X-21449170Y-112890632D01*
X-21438134Y-112872219D01*
X-21425346Y-112854976D01*
X-21410930Y-112839070D01*
X-21395024Y-112824654D01*
X-21377781Y-112811866D01*
X-21359368Y-112800830D01*
X-21339962Y-112791651D01*
X-21319750Y-112784419D01*
X-21298926Y-112779203D01*
X-21277691Y-112776053D01*
X-21256250Y-112775000D01*
X-20743750Y-112775000D01*
X-20722309Y-112776053D01*
G37*
G36*
X-20722309Y-114351053D02*
G01*
X-20701074Y-114354203D01*
X-20680250Y-114359419D01*
X-20660038Y-114366651D01*
X-20640632Y-114375830D01*
X-20622219Y-114386866D01*
X-20604976Y-114399654D01*
X-20589070Y-114414070D01*
X-20574654Y-114429976D01*
X-20561866Y-114447219D01*
X-20550830Y-114465632D01*
X-20541651Y-114485038D01*
X-20534419Y-114505250D01*
X-20529203Y-114526074D01*
X-20526053Y-114547309D01*
X-20525000Y-114568750D01*
X-20525000Y-115006250D01*
X-20526053Y-115027691D01*
X-20529203Y-115048926D01*
X-20534419Y-115069750D01*
X-20541651Y-115089962D01*
X-20550830Y-115109368D01*
X-20561866Y-115127781D01*
X-20574654Y-115145024D01*
X-20589070Y-115160930D01*
X-20604976Y-115175346D01*
X-20622219Y-115188134D01*
X-20640632Y-115199170D01*
X-20660038Y-115208349D01*
X-20680250Y-115215581D01*
X-20701074Y-115220797D01*
X-20722309Y-115223947D01*
X-20743750Y-115225000D01*
X-21256250Y-115225000D01*
X-21277691Y-115223947D01*
X-21298926Y-115220797D01*
X-21319750Y-115215581D01*
X-21339962Y-115208349D01*
X-21359368Y-115199170D01*
X-21377781Y-115188134D01*
X-21395024Y-115175346D01*
X-21410930Y-115160930D01*
X-21425346Y-115145024D01*
X-21438134Y-115127781D01*
X-21449170Y-115109368D01*
X-21458349Y-115089962D01*
X-21465581Y-115069750D01*
X-21470797Y-115048926D01*
X-21473947Y-115027691D01*
X-21475000Y-115006250D01*
X-21475000Y-114568750D01*
X-21473947Y-114547309D01*
X-21470797Y-114526074D01*
X-21465581Y-114505250D01*
X-21458349Y-114485038D01*
X-21449170Y-114465632D01*
X-21438134Y-114447219D01*
X-21425346Y-114429976D01*
X-21410930Y-114414070D01*
X-21395024Y-114399654D01*
X-21377781Y-114386866D01*
X-21359368Y-114375830D01*
X-21339962Y-114366651D01*
X-21319750Y-114359419D01*
X-21298926Y-114354203D01*
X-21277691Y-114351053D01*
X-21256250Y-114350000D01*
X-20743750Y-114350000D01*
X-20722309Y-114351053D01*
G37*
D12*
X-20960000Y-118230000D03*
X-20960000Y-120770000D03*
X-27040000Y-120770000D03*
X-27040000Y-118230000D03*
D11*
G36*
X-15222309Y-118276053D02*
G01*
X-15201074Y-118279203D01*
X-15180250Y-118284419D01*
X-15160038Y-118291651D01*
X-15140632Y-118300830D01*
X-15122219Y-118311866D01*
X-15104976Y-118324654D01*
X-15089070Y-118339070D01*
X-15074654Y-118354976D01*
X-15061866Y-118372219D01*
X-15050830Y-118390632D01*
X-15041651Y-118410038D01*
X-15034419Y-118430250D01*
X-15029203Y-118451074D01*
X-15026053Y-118472309D01*
X-15025000Y-118493750D01*
X-15025000Y-118931250D01*
X-15026053Y-118952691D01*
X-15029203Y-118973926D01*
X-15034419Y-118994750D01*
X-15041651Y-119014962D01*
X-15050830Y-119034368D01*
X-15061866Y-119052781D01*
X-15074654Y-119070024D01*
X-15089070Y-119085930D01*
X-15104976Y-119100346D01*
X-15122219Y-119113134D01*
X-15140632Y-119124170D01*
X-15160038Y-119133349D01*
X-15180250Y-119140581D01*
X-15201074Y-119145797D01*
X-15222309Y-119148947D01*
X-15243750Y-119150000D01*
X-15756250Y-119150000D01*
X-15777691Y-119148947D01*
X-15798926Y-119145797D01*
X-15819750Y-119140581D01*
X-15839962Y-119133349D01*
X-15859368Y-119124170D01*
X-15877781Y-119113134D01*
X-15895024Y-119100346D01*
X-15910930Y-119085930D01*
X-15925346Y-119070024D01*
X-15938134Y-119052781D01*
X-15949170Y-119034368D01*
X-15958349Y-119014962D01*
X-15965581Y-118994750D01*
X-15970797Y-118973926D01*
X-15973947Y-118952691D01*
X-15975000Y-118931250D01*
X-15975000Y-118493750D01*
X-15973947Y-118472309D01*
X-15970797Y-118451074D01*
X-15965581Y-118430250D01*
X-15958349Y-118410038D01*
X-15949170Y-118390632D01*
X-15938134Y-118372219D01*
X-15925346Y-118354976D01*
X-15910930Y-118339070D01*
X-15895024Y-118324654D01*
X-15877781Y-118311866D01*
X-15859368Y-118300830D01*
X-15839962Y-118291651D01*
X-15819750Y-118284419D01*
X-15798926Y-118279203D01*
X-15777691Y-118276053D01*
X-15756250Y-118275000D01*
X-15243750Y-118275000D01*
X-15222309Y-118276053D01*
G37*
G36*
X-15222309Y-119851053D02*
G01*
X-15201074Y-119854203D01*
X-15180250Y-119859419D01*
X-15160038Y-119866651D01*
X-15140632Y-119875830D01*
X-15122219Y-119886866D01*
X-15104976Y-119899654D01*
X-15089070Y-119914070D01*
X-15074654Y-119929976D01*
X-15061866Y-119947219D01*
X-15050830Y-119965632D01*
X-15041651Y-119985038D01*
X-15034419Y-120005250D01*
X-15029203Y-120026074D01*
X-15026053Y-120047309D01*
X-15025000Y-120068750D01*
X-15025000Y-120506250D01*
X-15026053Y-120527691D01*
X-15029203Y-120548926D01*
X-15034419Y-120569750D01*
X-15041651Y-120589962D01*
X-15050830Y-120609368D01*
X-15061866Y-120627781D01*
X-15074654Y-120645024D01*
X-15089070Y-120660930D01*
X-15104976Y-120675346D01*
X-15122219Y-120688134D01*
X-15140632Y-120699170D01*
X-15160038Y-120708349D01*
X-15180250Y-120715581D01*
X-15201074Y-120720797D01*
X-15222309Y-120723947D01*
X-15243750Y-120725000D01*
X-15756250Y-120725000D01*
X-15777691Y-120723947D01*
X-15798926Y-120720797D01*
X-15819750Y-120715581D01*
X-15839962Y-120708349D01*
X-15859368Y-120699170D01*
X-15877781Y-120688134D01*
X-15895024Y-120675346D01*
X-15910930Y-120660930D01*
X-15925346Y-120645024D01*
X-15938134Y-120627781D01*
X-15949170Y-120609368D01*
X-15958349Y-120589962D01*
X-15965581Y-120569750D01*
X-15970797Y-120548926D01*
X-15973947Y-120527691D01*
X-15975000Y-120506250D01*
X-15975000Y-120068750D01*
X-15973947Y-120047309D01*
X-15970797Y-120026074D01*
X-15965581Y-120005250D01*
X-15958349Y-119985038D01*
X-15949170Y-119965632D01*
X-15938134Y-119947219D01*
X-15925346Y-119929976D01*
X-15910930Y-119914070D01*
X-15895024Y-119899654D01*
X-15877781Y-119886866D01*
X-15859368Y-119875830D01*
X-15839962Y-119866651D01*
X-15819750Y-119859419D01*
X-15798926Y-119854203D01*
X-15777691Y-119851053D01*
X-15756250Y-119850000D01*
X-15243750Y-119850000D01*
X-15222309Y-119851053D01*
G37*
D13*
X-52255000Y-84895000D03*
X-50985000Y-84895000D03*
X-49715000Y-84895000D03*
X-48445000Y-84895000D03*
X-47175000Y-84895000D03*
X-45905000Y-84895000D03*
X-44635000Y-84895000D03*
X-43365000Y-84895000D03*
X-42095000Y-84895000D03*
X-40825000Y-84895000D03*
X-39555000Y-84895000D03*
X-38285000Y-84895000D03*
X-37015000Y-84895000D03*
X-35745000Y-84895000D03*
X-35745000Y-94105000D03*
X-37015000Y-94105000D03*
X-38285000Y-94105000D03*
X-39555000Y-94105000D03*
X-40825000Y-94105000D03*
X-42095000Y-94105000D03*
X-43365000Y-94105000D03*
X-44635000Y-94105000D03*
X-45905000Y-94105000D03*
X-47175000Y-94105000D03*
X-48445000Y-94105000D03*
X-49715000Y-94105000D03*
X-50985000Y-94105000D03*
X-52255000Y-94105000D03*
D11*
G36*
X-15222309Y-114351053D02*
G01*
X-15201074Y-114354203D01*
X-15180250Y-114359419D01*
X-15160038Y-114366651D01*
X-15140632Y-114375830D01*
X-15122219Y-114386866D01*
X-15104976Y-114399654D01*
X-15089070Y-114414070D01*
X-15074654Y-114429976D01*
X-15061866Y-114447219D01*
X-15050830Y-114465632D01*
X-15041651Y-114485038D01*
X-15034419Y-114505250D01*
X-15029203Y-114526074D01*
X-15026053Y-114547309D01*
X-15025000Y-114568750D01*
X-15025000Y-115006250D01*
X-15026053Y-115027691D01*
X-15029203Y-115048926D01*
X-15034419Y-115069750D01*
X-15041651Y-115089962D01*
X-15050830Y-115109368D01*
X-15061866Y-115127781D01*
X-15074654Y-115145024D01*
X-15089070Y-115160930D01*
X-15104976Y-115175346D01*
X-15122219Y-115188134D01*
X-15140632Y-115199170D01*
X-15160038Y-115208349D01*
X-15180250Y-115215581D01*
X-15201074Y-115220797D01*
X-15222309Y-115223947D01*
X-15243750Y-115225000D01*
X-15756250Y-115225000D01*
X-15777691Y-115223947D01*
X-15798926Y-115220797D01*
X-15819750Y-115215581D01*
X-15839962Y-115208349D01*
X-15859368Y-115199170D01*
X-15877781Y-115188134D01*
X-15895024Y-115175346D01*
X-15910930Y-115160930D01*
X-15925346Y-115145024D01*
X-15938134Y-115127781D01*
X-15949170Y-115109368D01*
X-15958349Y-115089962D01*
X-15965581Y-115069750D01*
X-15970797Y-115048926D01*
X-15973947Y-115027691D01*
X-15975000Y-115006250D01*
X-15975000Y-114568750D01*
X-15973947Y-114547309D01*
X-15970797Y-114526074D01*
X-15965581Y-114505250D01*
X-15958349Y-114485038D01*
X-15949170Y-114465632D01*
X-15938134Y-114447219D01*
X-15925346Y-114429976D01*
X-15910930Y-114414070D01*
X-15895024Y-114399654D01*
X-15877781Y-114386866D01*
X-15859368Y-114375830D01*
X-15839962Y-114366651D01*
X-15819750Y-114359419D01*
X-15798926Y-114354203D01*
X-15777691Y-114351053D01*
X-15756250Y-114350000D01*
X-15243750Y-114350000D01*
X-15222309Y-114351053D01*
G37*
G36*
X-15222309Y-112776053D02*
G01*
X-15201074Y-112779203D01*
X-15180250Y-112784419D01*
X-15160038Y-112791651D01*
X-15140632Y-112800830D01*
X-15122219Y-112811866D01*
X-15104976Y-112824654D01*
X-15089070Y-112839070D01*
X-15074654Y-112854976D01*
X-15061866Y-112872219D01*
X-15050830Y-112890632D01*
X-15041651Y-112910038D01*
X-15034419Y-112930250D01*
X-15029203Y-112951074D01*
X-15026053Y-112972309D01*
X-15025000Y-112993750D01*
X-15025000Y-113431250D01*
X-15026053Y-113452691D01*
X-15029203Y-113473926D01*
X-15034419Y-113494750D01*
X-15041651Y-113514962D01*
X-15050830Y-113534368D01*
X-15061866Y-113552781D01*
X-15074654Y-113570024D01*
X-15089070Y-113585930D01*
X-15104976Y-113600346D01*
X-15122219Y-113613134D01*
X-15140632Y-113624170D01*
X-15160038Y-113633349D01*
X-15180250Y-113640581D01*
X-15201074Y-113645797D01*
X-15222309Y-113648947D01*
X-15243750Y-113650000D01*
X-15756250Y-113650000D01*
X-15777691Y-113648947D01*
X-15798926Y-113645797D01*
X-15819750Y-113640581D01*
X-15839962Y-113633349D01*
X-15859368Y-113624170D01*
X-15877781Y-113613134D01*
X-15895024Y-113600346D01*
X-15910930Y-113585930D01*
X-15925346Y-113570024D01*
X-15938134Y-113552781D01*
X-15949170Y-113534368D01*
X-15958349Y-113514962D01*
X-15965581Y-113494750D01*
X-15970797Y-113473926D01*
X-15973947Y-113452691D01*
X-15975000Y-113431250D01*
X-15975000Y-112993750D01*
X-15973947Y-112972309D01*
X-15970797Y-112951074D01*
X-15965581Y-112930250D01*
X-15958349Y-112910038D01*
X-15949170Y-112890632D01*
X-15938134Y-112872219D01*
X-15925346Y-112854976D01*
X-15910930Y-112839070D01*
X-15895024Y-112824654D01*
X-15877781Y-112811866D01*
X-15859368Y-112800830D01*
X-15839962Y-112791651D01*
X-15819750Y-112784419D01*
X-15798926Y-112779203D01*
X-15777691Y-112776053D01*
X-15756250Y-112775000D01*
X-15243750Y-112775000D01*
X-15222309Y-112776053D01*
G37*
D14*
X-41690000Y-119090800D03*
X-42960000Y-119090800D03*
X-44230000Y-119090800D03*
X-45500000Y-119090800D03*
X-46770000Y-119090800D03*
X-48040000Y-119090800D03*
X-49310000Y-119090800D03*
X-49310000Y-113909200D03*
X-48040000Y-113909200D03*
X-46770000Y-113909200D03*
X-45500000Y-113909200D03*
X-44230000Y-113909200D03*
X-42960000Y-113909200D03*
X-41690000Y-113909200D03*
D11*
G36*
X-36722309Y-119976053D02*
G01*
X-36701074Y-119979203D01*
X-36680250Y-119984419D01*
X-36660038Y-119991651D01*
X-36640632Y-120000830D01*
X-36622219Y-120011866D01*
X-36604976Y-120024654D01*
X-36589070Y-120039070D01*
X-36574654Y-120054976D01*
X-36561866Y-120072219D01*
X-36550830Y-120090632D01*
X-36541651Y-120110038D01*
X-36534419Y-120130250D01*
X-36529203Y-120151074D01*
X-36526053Y-120172309D01*
X-36525000Y-120193750D01*
X-36525000Y-120631250D01*
X-36526053Y-120652691D01*
X-36529203Y-120673926D01*
X-36534419Y-120694750D01*
X-36541651Y-120714962D01*
X-36550830Y-120734368D01*
X-36561866Y-120752781D01*
X-36574654Y-120770024D01*
X-36589070Y-120785930D01*
X-36604976Y-120800346D01*
X-36622219Y-120813134D01*
X-36640632Y-120824170D01*
X-36660038Y-120833349D01*
X-36680250Y-120840581D01*
X-36701074Y-120845797D01*
X-36722309Y-120848947D01*
X-36743750Y-120850000D01*
X-37256250Y-120850000D01*
X-37277691Y-120848947D01*
X-37298926Y-120845797D01*
X-37319750Y-120840581D01*
X-37339962Y-120833349D01*
X-37359368Y-120824170D01*
X-37377781Y-120813134D01*
X-37395024Y-120800346D01*
X-37410930Y-120785930D01*
X-37425346Y-120770024D01*
X-37438134Y-120752781D01*
X-37449170Y-120734368D01*
X-37458349Y-120714962D01*
X-37465581Y-120694750D01*
X-37470797Y-120673926D01*
X-37473947Y-120652691D01*
X-37475000Y-120631250D01*
X-37475000Y-120193750D01*
X-37473947Y-120172309D01*
X-37470797Y-120151074D01*
X-37465581Y-120130250D01*
X-37458349Y-120110038D01*
X-37449170Y-120090632D01*
X-37438134Y-120072219D01*
X-37425346Y-120054976D01*
X-37410930Y-120039070D01*
X-37395024Y-120024654D01*
X-37377781Y-120011866D01*
X-37359368Y-120000830D01*
X-37339962Y-119991651D01*
X-37319750Y-119984419D01*
X-37298926Y-119979203D01*
X-37277691Y-119976053D01*
X-37256250Y-119975000D01*
X-36743750Y-119975000D01*
X-36722309Y-119976053D01*
G37*
G36*
X-36722309Y-121551053D02*
G01*
X-36701074Y-121554203D01*
X-36680250Y-121559419D01*
X-36660038Y-121566651D01*
X-36640632Y-121575830D01*
X-36622219Y-121586866D01*
X-36604976Y-121599654D01*
X-36589070Y-121614070D01*
X-36574654Y-121629976D01*
X-36561866Y-121647219D01*
X-36550830Y-121665632D01*
X-36541651Y-121685038D01*
X-36534419Y-121705250D01*
X-36529203Y-121726074D01*
X-36526053Y-121747309D01*
X-36525000Y-121768750D01*
X-36525000Y-122206250D01*
X-36526053Y-122227691D01*
X-36529203Y-122248926D01*
X-36534419Y-122269750D01*
X-36541651Y-122289962D01*
X-36550830Y-122309368D01*
X-36561866Y-122327781D01*
X-36574654Y-122345024D01*
X-36589070Y-122360930D01*
X-36604976Y-122375346D01*
X-36622219Y-122388134D01*
X-36640632Y-122399170D01*
X-36660038Y-122408349D01*
X-36680250Y-122415581D01*
X-36701074Y-122420797D01*
X-36722309Y-122423947D01*
X-36743750Y-122425000D01*
X-37256250Y-122425000D01*
X-37277691Y-122423947D01*
X-37298926Y-122420797D01*
X-37319750Y-122415581D01*
X-37339962Y-122408349D01*
X-37359368Y-122399170D01*
X-37377781Y-122388134D01*
X-37395024Y-122375346D01*
X-37410930Y-122360930D01*
X-37425346Y-122345024D01*
X-37438134Y-122327781D01*
X-37449170Y-122309368D01*
X-37458349Y-122289962D01*
X-37465581Y-122269750D01*
X-37470797Y-122248926D01*
X-37473947Y-122227691D01*
X-37475000Y-122206250D01*
X-37475000Y-121768750D01*
X-37473947Y-121747309D01*
X-37470797Y-121726074D01*
X-37465581Y-121705250D01*
X-37458349Y-121685038D01*
X-37449170Y-121665632D01*
X-37438134Y-121647219D01*
X-37425346Y-121629976D01*
X-37410930Y-121614070D01*
X-37395024Y-121599654D01*
X-37377781Y-121586866D01*
X-37359368Y-121575830D01*
X-37339962Y-121566651D01*
X-37319750Y-121559419D01*
X-37298926Y-121554203D01*
X-37277691Y-121551053D01*
X-37256250Y-121550000D01*
X-36743750Y-121550000D01*
X-36722309Y-121551053D01*
G37*
G36*
X-44047309Y-108526053D02*
G01*
X-44026074Y-108529203D01*
X-44005250Y-108534419D01*
X-43985038Y-108541651D01*
X-43965632Y-108550830D01*
X-43947219Y-108561866D01*
X-43929976Y-108574654D01*
X-43914070Y-108589070D01*
X-43899654Y-108604976D01*
X-43886866Y-108622219D01*
X-43875830Y-108640632D01*
X-43866651Y-108660038D01*
X-43859419Y-108680250D01*
X-43854203Y-108701074D01*
X-43851053Y-108722309D01*
X-43850000Y-108743750D01*
X-43850000Y-109256250D01*
X-43851053Y-109277691D01*
X-43854203Y-109298926D01*
X-43859419Y-109319750D01*
X-43866651Y-109339962D01*
X-43875830Y-109359368D01*
X-43886866Y-109377781D01*
X-43899654Y-109395024D01*
X-43914070Y-109410930D01*
X-43929976Y-109425346D01*
X-43947219Y-109438134D01*
X-43965632Y-109449170D01*
X-43985038Y-109458349D01*
X-44005250Y-109465581D01*
X-44026074Y-109470797D01*
X-44047309Y-109473947D01*
X-44068750Y-109475000D01*
X-44506250Y-109475000D01*
X-44527691Y-109473947D01*
X-44548926Y-109470797D01*
X-44569750Y-109465581D01*
X-44589962Y-109458349D01*
X-44609368Y-109449170D01*
X-44627781Y-109438134D01*
X-44645024Y-109425346D01*
X-44660930Y-109410930D01*
X-44675346Y-109395024D01*
X-44688134Y-109377781D01*
X-44699170Y-109359368D01*
X-44708349Y-109339962D01*
X-44715581Y-109319750D01*
X-44720797Y-109298926D01*
X-44723947Y-109277691D01*
X-44725000Y-109256250D01*
X-44725000Y-108743750D01*
X-44723947Y-108722309D01*
X-44720797Y-108701074D01*
X-44715581Y-108680250D01*
X-44708349Y-108660038D01*
X-44699170Y-108640632D01*
X-44688134Y-108622219D01*
X-44675346Y-108604976D01*
X-44660930Y-108589070D01*
X-44645024Y-108574654D01*
X-44627781Y-108561866D01*
X-44609368Y-108550830D01*
X-44589962Y-108541651D01*
X-44569750Y-108534419D01*
X-44548926Y-108529203D01*
X-44527691Y-108526053D01*
X-44506250Y-108525000D01*
X-44068750Y-108525000D01*
X-44047309Y-108526053D01*
G37*
G36*
X-42472309Y-108526053D02*
G01*
X-42451074Y-108529203D01*
X-42430250Y-108534419D01*
X-42410038Y-108541651D01*
X-42390632Y-108550830D01*
X-42372219Y-108561866D01*
X-42354976Y-108574654D01*
X-42339070Y-108589070D01*
X-42324654Y-108604976D01*
X-42311866Y-108622219D01*
X-42300830Y-108640632D01*
X-42291651Y-108660038D01*
X-42284419Y-108680250D01*
X-42279203Y-108701074D01*
X-42276053Y-108722309D01*
X-42275000Y-108743750D01*
X-42275000Y-109256250D01*
X-42276053Y-109277691D01*
X-42279203Y-109298926D01*
X-42284419Y-109319750D01*
X-42291651Y-109339962D01*
X-42300830Y-109359368D01*
X-42311866Y-109377781D01*
X-42324654Y-109395024D01*
X-42339070Y-109410930D01*
X-42354976Y-109425346D01*
X-42372219Y-109438134D01*
X-42390632Y-109449170D01*
X-42410038Y-109458349D01*
X-42430250Y-109465581D01*
X-42451074Y-109470797D01*
X-42472309Y-109473947D01*
X-42493750Y-109475000D01*
X-42931250Y-109475000D01*
X-42952691Y-109473947D01*
X-42973926Y-109470797D01*
X-42994750Y-109465581D01*
X-43014962Y-109458349D01*
X-43034368Y-109449170D01*
X-43052781Y-109438134D01*
X-43070024Y-109425346D01*
X-43085930Y-109410930D01*
X-43100346Y-109395024D01*
X-43113134Y-109377781D01*
X-43124170Y-109359368D01*
X-43133349Y-109339962D01*
X-43140581Y-109319750D01*
X-43145797Y-109298926D01*
X-43148947Y-109277691D01*
X-43150000Y-109256250D01*
X-43150000Y-108743750D01*
X-43148947Y-108722309D01*
X-43145797Y-108701074D01*
X-43140581Y-108680250D01*
X-43133349Y-108660038D01*
X-43124170Y-108640632D01*
X-43113134Y-108622219D01*
X-43100346Y-108604976D01*
X-43085930Y-108589070D01*
X-43070024Y-108574654D01*
X-43052781Y-108561866D01*
X-43034368Y-108550830D01*
X-43014962Y-108541651D01*
X-42994750Y-108534419D01*
X-42973926Y-108529203D01*
X-42952691Y-108526053D01*
X-42931250Y-108525000D01*
X-42493750Y-108525000D01*
X-42472309Y-108526053D01*
G37*
G36*
X-31722309Y-119976053D02*
G01*
X-31701074Y-119979203D01*
X-31680250Y-119984419D01*
X-31660038Y-119991651D01*
X-31640632Y-120000830D01*
X-31622219Y-120011866D01*
X-31604976Y-120024654D01*
X-31589070Y-120039070D01*
X-31574654Y-120054976D01*
X-31561866Y-120072219D01*
X-31550830Y-120090632D01*
X-31541651Y-120110038D01*
X-31534419Y-120130250D01*
X-31529203Y-120151074D01*
X-31526053Y-120172309D01*
X-31525000Y-120193750D01*
X-31525000Y-120631250D01*
X-31526053Y-120652691D01*
X-31529203Y-120673926D01*
X-31534419Y-120694750D01*
X-31541651Y-120714962D01*
X-31550830Y-120734368D01*
X-31561866Y-120752781D01*
X-31574654Y-120770024D01*
X-31589070Y-120785930D01*
X-31604976Y-120800346D01*
X-31622219Y-120813134D01*
X-31640632Y-120824170D01*
X-31660038Y-120833349D01*
X-31680250Y-120840581D01*
X-31701074Y-120845797D01*
X-31722309Y-120848947D01*
X-31743750Y-120850000D01*
X-32256250Y-120850000D01*
X-32277691Y-120848947D01*
X-32298926Y-120845797D01*
X-32319750Y-120840581D01*
X-32339962Y-120833349D01*
X-32359368Y-120824170D01*
X-32377781Y-120813134D01*
X-32395024Y-120800346D01*
X-32410930Y-120785930D01*
X-32425346Y-120770024D01*
X-32438134Y-120752781D01*
X-32449170Y-120734368D01*
X-32458349Y-120714962D01*
X-32465581Y-120694750D01*
X-32470797Y-120673926D01*
X-32473947Y-120652691D01*
X-32475000Y-120631250D01*
X-32475000Y-120193750D01*
X-32473947Y-120172309D01*
X-32470797Y-120151074D01*
X-32465581Y-120130250D01*
X-32458349Y-120110038D01*
X-32449170Y-120090632D01*
X-32438134Y-120072219D01*
X-32425346Y-120054976D01*
X-32410930Y-120039070D01*
X-32395024Y-120024654D01*
X-32377781Y-120011866D01*
X-32359368Y-120000830D01*
X-32339962Y-119991651D01*
X-32319750Y-119984419D01*
X-32298926Y-119979203D01*
X-32277691Y-119976053D01*
X-32256250Y-119975000D01*
X-31743750Y-119975000D01*
X-31722309Y-119976053D01*
G37*
G36*
X-31722309Y-121551053D02*
G01*
X-31701074Y-121554203D01*
X-31680250Y-121559419D01*
X-31660038Y-121566651D01*
X-31640632Y-121575830D01*
X-31622219Y-121586866D01*
X-31604976Y-121599654D01*
X-31589070Y-121614070D01*
X-31574654Y-121629976D01*
X-31561866Y-121647219D01*
X-31550830Y-121665632D01*
X-31541651Y-121685038D01*
X-31534419Y-121705250D01*
X-31529203Y-121726074D01*
X-31526053Y-121747309D01*
X-31525000Y-121768750D01*
X-31525000Y-122206250D01*
X-31526053Y-122227691D01*
X-31529203Y-122248926D01*
X-31534419Y-122269750D01*
X-31541651Y-122289962D01*
X-31550830Y-122309368D01*
X-31561866Y-122327781D01*
X-31574654Y-122345024D01*
X-31589070Y-122360930D01*
X-31604976Y-122375346D01*
X-31622219Y-122388134D01*
X-31640632Y-122399170D01*
X-31660038Y-122408349D01*
X-31680250Y-122415581D01*
X-31701074Y-122420797D01*
X-31722309Y-122423947D01*
X-31743750Y-122425000D01*
X-32256250Y-122425000D01*
X-32277691Y-122423947D01*
X-32298926Y-122420797D01*
X-32319750Y-122415581D01*
X-32339962Y-122408349D01*
X-32359368Y-122399170D01*
X-32377781Y-122388134D01*
X-32395024Y-122375346D01*
X-32410930Y-122360930D01*
X-32425346Y-122345024D01*
X-32438134Y-122327781D01*
X-32449170Y-122309368D01*
X-32458349Y-122289962D01*
X-32465581Y-122269750D01*
X-32470797Y-122248926D01*
X-32473947Y-122227691D01*
X-32475000Y-122206250D01*
X-32475000Y-121768750D01*
X-32473947Y-121747309D01*
X-32470797Y-121726074D01*
X-32465581Y-121705250D01*
X-32458349Y-121685038D01*
X-32449170Y-121665632D01*
X-32438134Y-121647219D01*
X-32425346Y-121629976D01*
X-32410930Y-121614070D01*
X-32395024Y-121599654D01*
X-32377781Y-121586866D01*
X-32359368Y-121575830D01*
X-32339962Y-121566651D01*
X-32319750Y-121559419D01*
X-32298926Y-121554203D01*
X-32277691Y-121551053D01*
X-32256250Y-121550000D01*
X-31743750Y-121550000D01*
X-31722309Y-121551053D01*
G37*
G36*
X57522259Y-71147548D02*
G01*
X57543379Y-71151391D01*
X57564021Y-71157286D01*
X57583986Y-71165176D01*
X57603081Y-71174984D01*
X58046919Y-71431234D01*
X58064961Y-71442867D01*
X58081776Y-71456212D01*
X58097202Y-71471141D01*
X58111090Y-71487510D01*
X58123307Y-71505162D01*
X58133735Y-71523926D01*
X58142273Y-71543622D01*
X58148840Y-71564060D01*
X58153372Y-71585044D01*
X58155826Y-71606370D01*
X58156177Y-71627834D01*
X58154423Y-71649230D01*
X58150580Y-71670350D01*
X58144685Y-71690992D01*
X58136795Y-71710957D01*
X58126987Y-71730052D01*
X57908237Y-72108938D01*
X57896604Y-72126980D01*
X57883259Y-72143795D01*
X57868330Y-72159221D01*
X57851961Y-72173109D01*
X57834309Y-72185326D01*
X57815545Y-72195754D01*
X57795849Y-72204292D01*
X57775411Y-72210859D01*
X57754427Y-72215391D01*
X57733101Y-72217845D01*
X57711637Y-72218196D01*
X57690241Y-72216442D01*
X57669121Y-72212599D01*
X57648479Y-72206704D01*
X57628514Y-72198814D01*
X57609419Y-72189006D01*
X57165581Y-71932756D01*
X57147539Y-71921123D01*
X57130724Y-71907778D01*
X57115298Y-71892849D01*
X57101410Y-71876480D01*
X57089193Y-71858828D01*
X57078765Y-71840064D01*
X57070227Y-71820368D01*
X57063660Y-71799930D01*
X57059128Y-71778946D01*
X57056674Y-71757620D01*
X57056323Y-71736156D01*
X57058077Y-71714760D01*
X57061920Y-71693640D01*
X57067815Y-71672998D01*
X57075705Y-71653033D01*
X57085513Y-71633938D01*
X57304263Y-71255052D01*
X57315896Y-71237010D01*
X57329241Y-71220195D01*
X57344170Y-71204769D01*
X57360539Y-71190881D01*
X57378191Y-71178664D01*
X57396955Y-71168236D01*
X57416651Y-71159698D01*
X57437089Y-71153131D01*
X57458073Y-71148599D01*
X57479399Y-71146145D01*
X57500863Y-71145794D01*
X57522259Y-71147548D01*
G37*
G36*
X58309759Y-69783558D02*
G01*
X58330879Y-69787401D01*
X58351521Y-69793296D01*
X58371486Y-69801186D01*
X58390581Y-69810994D01*
X58834419Y-70067244D01*
X58852461Y-70078877D01*
X58869276Y-70092222D01*
X58884702Y-70107151D01*
X58898590Y-70123520D01*
X58910807Y-70141172D01*
X58921235Y-70159936D01*
X58929773Y-70179632D01*
X58936340Y-70200070D01*
X58940872Y-70221054D01*
X58943326Y-70242380D01*
X58943677Y-70263844D01*
X58941923Y-70285240D01*
X58938080Y-70306360D01*
X58932185Y-70327002D01*
X58924295Y-70346967D01*
X58914487Y-70366062D01*
X58695737Y-70744948D01*
X58684104Y-70762990D01*
X58670759Y-70779805D01*
X58655830Y-70795231D01*
X58639461Y-70809119D01*
X58621809Y-70821336D01*
X58603045Y-70831764D01*
X58583349Y-70840302D01*
X58562911Y-70846869D01*
X58541927Y-70851401D01*
X58520601Y-70853855D01*
X58499137Y-70854206D01*
X58477741Y-70852452D01*
X58456621Y-70848609D01*
X58435979Y-70842714D01*
X58416014Y-70834824D01*
X58396919Y-70825016D01*
X57953081Y-70568766D01*
X57935039Y-70557133D01*
X57918224Y-70543788D01*
X57902798Y-70528859D01*
X57888910Y-70512490D01*
X57876693Y-70494838D01*
X57866265Y-70476074D01*
X57857727Y-70456378D01*
X57851160Y-70435940D01*
X57846628Y-70414956D01*
X57844174Y-70393630D01*
X57843823Y-70372166D01*
X57845577Y-70350770D01*
X57849420Y-70329650D01*
X57855315Y-70309008D01*
X57863205Y-70289043D01*
X57873013Y-70269948D01*
X58091763Y-69891062D01*
X58103396Y-69873020D01*
X58116741Y-69856205D01*
X58131670Y-69840779D01*
X58148039Y-69826891D01*
X58165691Y-69814674D01*
X58184455Y-69804246D01*
X58204151Y-69795708D01*
X58224589Y-69789141D01*
X58245573Y-69784609D01*
X58266899Y-69782155D01*
X58288363Y-69781804D01*
X58309759Y-69783558D01*
G37*
G36*
X60309759Y-66283558D02*
G01*
X60330879Y-66287401D01*
X60351521Y-66293296D01*
X60371486Y-66301186D01*
X60390581Y-66310994D01*
X60834419Y-66567244D01*
X60852461Y-66578877D01*
X60869276Y-66592222D01*
X60884702Y-66607151D01*
X60898590Y-66623520D01*
X60910807Y-66641172D01*
X60921235Y-66659936D01*
X60929773Y-66679632D01*
X60936340Y-66700070D01*
X60940872Y-66721054D01*
X60943326Y-66742380D01*
X60943677Y-66763844D01*
X60941923Y-66785240D01*
X60938080Y-66806360D01*
X60932185Y-66827002D01*
X60924295Y-66846967D01*
X60914487Y-66866062D01*
X60695737Y-67244948D01*
X60684104Y-67262990D01*
X60670759Y-67279805D01*
X60655830Y-67295231D01*
X60639461Y-67309119D01*
X60621809Y-67321336D01*
X60603045Y-67331764D01*
X60583349Y-67340302D01*
X60562911Y-67346869D01*
X60541927Y-67351401D01*
X60520601Y-67353855D01*
X60499137Y-67354206D01*
X60477741Y-67352452D01*
X60456621Y-67348609D01*
X60435979Y-67342714D01*
X60416014Y-67334824D01*
X60396919Y-67325016D01*
X59953081Y-67068766D01*
X59935039Y-67057133D01*
X59918224Y-67043788D01*
X59902798Y-67028859D01*
X59888910Y-67012490D01*
X59876693Y-66994838D01*
X59866265Y-66976074D01*
X59857727Y-66956378D01*
X59851160Y-66935940D01*
X59846628Y-66914956D01*
X59844174Y-66893630D01*
X59843823Y-66872166D01*
X59845577Y-66850770D01*
X59849420Y-66829650D01*
X59855315Y-66809008D01*
X59863205Y-66789043D01*
X59873013Y-66769948D01*
X60091763Y-66391062D01*
X60103396Y-66373020D01*
X60116741Y-66356205D01*
X60131670Y-66340779D01*
X60148039Y-66326891D01*
X60165691Y-66314674D01*
X60184455Y-66304246D01*
X60204151Y-66295708D01*
X60224589Y-66289141D01*
X60245573Y-66284609D01*
X60266899Y-66282155D01*
X60288363Y-66281804D01*
X60309759Y-66283558D01*
G37*
G36*
X59522259Y-67647548D02*
G01*
X59543379Y-67651391D01*
X59564021Y-67657286D01*
X59583986Y-67665176D01*
X59603081Y-67674984D01*
X60046919Y-67931234D01*
X60064961Y-67942867D01*
X60081776Y-67956212D01*
X60097202Y-67971141D01*
X60111090Y-67987510D01*
X60123307Y-68005162D01*
X60133735Y-68023926D01*
X60142273Y-68043622D01*
X60148840Y-68064060D01*
X60153372Y-68085044D01*
X60155826Y-68106370D01*
X60156177Y-68127834D01*
X60154423Y-68149230D01*
X60150580Y-68170350D01*
X60144685Y-68190992D01*
X60136795Y-68210957D01*
X60126987Y-68230052D01*
X59908237Y-68608938D01*
X59896604Y-68626980D01*
X59883259Y-68643795D01*
X59868330Y-68659221D01*
X59851961Y-68673109D01*
X59834309Y-68685326D01*
X59815545Y-68695754D01*
X59795849Y-68704292D01*
X59775411Y-68710859D01*
X59754427Y-68715391D01*
X59733101Y-68717845D01*
X59711637Y-68718196D01*
X59690241Y-68716442D01*
X59669121Y-68712599D01*
X59648479Y-68706704D01*
X59628514Y-68698814D01*
X59609419Y-68689006D01*
X59165581Y-68432756D01*
X59147539Y-68421123D01*
X59130724Y-68407778D01*
X59115298Y-68392849D01*
X59101410Y-68376480D01*
X59089193Y-68358828D01*
X59078765Y-68340064D01*
X59070227Y-68320368D01*
X59063660Y-68299930D01*
X59059128Y-68278946D01*
X59056674Y-68257620D01*
X59056323Y-68236156D01*
X59058077Y-68214760D01*
X59061920Y-68193640D01*
X59067815Y-68172998D01*
X59075705Y-68153033D01*
X59085513Y-68133938D01*
X59304263Y-67755052D01*
X59315896Y-67737010D01*
X59329241Y-67720195D01*
X59344170Y-67704769D01*
X59360539Y-67690881D01*
X59378191Y-67678664D01*
X59396955Y-67668236D01*
X59416651Y-67659698D01*
X59437089Y-67653131D01*
X59458073Y-67648599D01*
X59479399Y-67646145D01*
X59500863Y-67645794D01*
X59522259Y-67647548D01*
G37*
G36*
X54284659Y-86761548D02*
G01*
X54305779Y-86765391D01*
X54326421Y-86771286D01*
X54346386Y-86779176D01*
X54365481Y-86788984D01*
X54809319Y-87045234D01*
X54827361Y-87056867D01*
X54844176Y-87070212D01*
X54859602Y-87085141D01*
X54873490Y-87101510D01*
X54885707Y-87119162D01*
X54896135Y-87137926D01*
X54904673Y-87157622D01*
X54911240Y-87178060D01*
X54915772Y-87199044D01*
X54918226Y-87220370D01*
X54918577Y-87241834D01*
X54916823Y-87263230D01*
X54912980Y-87284350D01*
X54907085Y-87304992D01*
X54899195Y-87324957D01*
X54889387Y-87344052D01*
X54670637Y-87722938D01*
X54659004Y-87740980D01*
X54645659Y-87757795D01*
X54630730Y-87773221D01*
X54614361Y-87787109D01*
X54596709Y-87799326D01*
X54577945Y-87809754D01*
X54558249Y-87818292D01*
X54537811Y-87824859D01*
X54516827Y-87829391D01*
X54495501Y-87831845D01*
X54474037Y-87832196D01*
X54452641Y-87830442D01*
X54431521Y-87826599D01*
X54410879Y-87820704D01*
X54390914Y-87812814D01*
X54371819Y-87803006D01*
X53927981Y-87546756D01*
X53909939Y-87535123D01*
X53893124Y-87521778D01*
X53877698Y-87506849D01*
X53863810Y-87490480D01*
X53851593Y-87472828D01*
X53841165Y-87454064D01*
X53832627Y-87434368D01*
X53826060Y-87413930D01*
X53821528Y-87392946D01*
X53819074Y-87371620D01*
X53818723Y-87350156D01*
X53820477Y-87328760D01*
X53824320Y-87307640D01*
X53830215Y-87286998D01*
X53838105Y-87267033D01*
X53847913Y-87247938D01*
X54066663Y-86869052D01*
X54078296Y-86851010D01*
X54091641Y-86834195D01*
X54106570Y-86818769D01*
X54122939Y-86804881D01*
X54140591Y-86792664D01*
X54159355Y-86782236D01*
X54179051Y-86773698D01*
X54199489Y-86767131D01*
X54220473Y-86762599D01*
X54241799Y-86760145D01*
X54263263Y-86759794D01*
X54284659Y-86761548D01*
G37*
G36*
X55072159Y-85397558D02*
G01*
X55093279Y-85401401D01*
X55113921Y-85407296D01*
X55133886Y-85415186D01*
X55152981Y-85424994D01*
X55596819Y-85681244D01*
X55614861Y-85692877D01*
X55631676Y-85706222D01*
X55647102Y-85721151D01*
X55660990Y-85737520D01*
X55673207Y-85755172D01*
X55683635Y-85773936D01*
X55692173Y-85793632D01*
X55698740Y-85814070D01*
X55703272Y-85835054D01*
X55705726Y-85856380D01*
X55706077Y-85877844D01*
X55704323Y-85899240D01*
X55700480Y-85920360D01*
X55694585Y-85941002D01*
X55686695Y-85960967D01*
X55676887Y-85980062D01*
X55458137Y-86358948D01*
X55446504Y-86376990D01*
X55433159Y-86393805D01*
X55418230Y-86409231D01*
X55401861Y-86423119D01*
X55384209Y-86435336D01*
X55365445Y-86445764D01*
X55345749Y-86454302D01*
X55325311Y-86460869D01*
X55304327Y-86465401D01*
X55283001Y-86467855D01*
X55261537Y-86468206D01*
X55240141Y-86466452D01*
X55219021Y-86462609D01*
X55198379Y-86456714D01*
X55178414Y-86448824D01*
X55159319Y-86439016D01*
X54715481Y-86182766D01*
X54697439Y-86171133D01*
X54680624Y-86157788D01*
X54665198Y-86142859D01*
X54651310Y-86126490D01*
X54639093Y-86108838D01*
X54628665Y-86090074D01*
X54620127Y-86070378D01*
X54613560Y-86049940D01*
X54609028Y-86028956D01*
X54606574Y-86007630D01*
X54606223Y-85986166D01*
X54607977Y-85964770D01*
X54611820Y-85943650D01*
X54617715Y-85923008D01*
X54625605Y-85903043D01*
X54635413Y-85883948D01*
X54854163Y-85505062D01*
X54865796Y-85487020D01*
X54879141Y-85470205D01*
X54894070Y-85454779D01*
X54910439Y-85440891D01*
X54928091Y-85428674D01*
X54946855Y-85418246D01*
X54966551Y-85409708D01*
X54986989Y-85403141D01*
X55007973Y-85398609D01*
X55029299Y-85396155D01*
X55050763Y-85395804D01*
X55072159Y-85397558D01*
G37*
G36*
X74309759Y-53783558D02*
G01*
X74330879Y-53787401D01*
X74351521Y-53793296D01*
X74371486Y-53801186D01*
X74390581Y-53810994D01*
X74834419Y-54067244D01*
X74852461Y-54078877D01*
X74869276Y-54092222D01*
X74884702Y-54107151D01*
X74898590Y-54123520D01*
X74910807Y-54141172D01*
X74921235Y-54159936D01*
X74929773Y-54179632D01*
X74936340Y-54200070D01*
X74940872Y-54221054D01*
X74943326Y-54242380D01*
X74943677Y-54263844D01*
X74941923Y-54285240D01*
X74938080Y-54306360D01*
X74932185Y-54327002D01*
X74924295Y-54346967D01*
X74914487Y-54366062D01*
X74695737Y-54744948D01*
X74684104Y-54762990D01*
X74670759Y-54779805D01*
X74655830Y-54795231D01*
X74639461Y-54809119D01*
X74621809Y-54821336D01*
X74603045Y-54831764D01*
X74583349Y-54840302D01*
X74562911Y-54846869D01*
X74541927Y-54851401D01*
X74520601Y-54853855D01*
X74499137Y-54854206D01*
X74477741Y-54852452D01*
X74456621Y-54848609D01*
X74435979Y-54842714D01*
X74416014Y-54834824D01*
X74396919Y-54825016D01*
X73953081Y-54568766D01*
X73935039Y-54557133D01*
X73918224Y-54543788D01*
X73902798Y-54528859D01*
X73888910Y-54512490D01*
X73876693Y-54494838D01*
X73866265Y-54476074D01*
X73857727Y-54456378D01*
X73851160Y-54435940D01*
X73846628Y-54414956D01*
X73844174Y-54393630D01*
X73843823Y-54372166D01*
X73845577Y-54350770D01*
X73849420Y-54329650D01*
X73855315Y-54309008D01*
X73863205Y-54289043D01*
X73873013Y-54269948D01*
X74091763Y-53891062D01*
X74103396Y-53873020D01*
X74116741Y-53856205D01*
X74131670Y-53840779D01*
X74148039Y-53826891D01*
X74165691Y-53814674D01*
X74184455Y-53804246D01*
X74204151Y-53795708D01*
X74224589Y-53789141D01*
X74245573Y-53784609D01*
X74266899Y-53782155D01*
X74288363Y-53781804D01*
X74309759Y-53783558D01*
G37*
G36*
X73522259Y-55147548D02*
G01*
X73543379Y-55151391D01*
X73564021Y-55157286D01*
X73583986Y-55165176D01*
X73603081Y-55174984D01*
X74046919Y-55431234D01*
X74064961Y-55442867D01*
X74081776Y-55456212D01*
X74097202Y-55471141D01*
X74111090Y-55487510D01*
X74123307Y-55505162D01*
X74133735Y-55523926D01*
X74142273Y-55543622D01*
X74148840Y-55564060D01*
X74153372Y-55585044D01*
X74155826Y-55606370D01*
X74156177Y-55627834D01*
X74154423Y-55649230D01*
X74150580Y-55670350D01*
X74144685Y-55690992D01*
X74136795Y-55710957D01*
X74126987Y-55730052D01*
X73908237Y-56108938D01*
X73896604Y-56126980D01*
X73883259Y-56143795D01*
X73868330Y-56159221D01*
X73851961Y-56173109D01*
X73834309Y-56185326D01*
X73815545Y-56195754D01*
X73795849Y-56204292D01*
X73775411Y-56210859D01*
X73754427Y-56215391D01*
X73733101Y-56217845D01*
X73711637Y-56218196D01*
X73690241Y-56216442D01*
X73669121Y-56212599D01*
X73648479Y-56206704D01*
X73628514Y-56198814D01*
X73609419Y-56189006D01*
X73165581Y-55932756D01*
X73147539Y-55921123D01*
X73130724Y-55907778D01*
X73115298Y-55892849D01*
X73101410Y-55876480D01*
X73089193Y-55858828D01*
X73078765Y-55840064D01*
X73070227Y-55820368D01*
X73063660Y-55799930D01*
X73059128Y-55778946D01*
X73056674Y-55757620D01*
X73056323Y-55736156D01*
X73058077Y-55714760D01*
X73061920Y-55693640D01*
X73067815Y-55672998D01*
X73075705Y-55653033D01*
X73085513Y-55633938D01*
X73304263Y-55255052D01*
X73315896Y-55237010D01*
X73329241Y-55220195D01*
X73344170Y-55204769D01*
X73360539Y-55190881D01*
X73378191Y-55178664D01*
X73396955Y-55168236D01*
X73416651Y-55159698D01*
X73437089Y-55153131D01*
X73458073Y-55148599D01*
X73479399Y-55146145D01*
X73500863Y-55145794D01*
X73522259Y-55147548D01*
G37*
G36*
X-15222309Y-107276053D02*
G01*
X-15201074Y-107279203D01*
X-15180250Y-107284419D01*
X-15160038Y-107291651D01*
X-15140632Y-107300830D01*
X-15122219Y-107311866D01*
X-15104976Y-107324654D01*
X-15089070Y-107339070D01*
X-15074654Y-107354976D01*
X-15061866Y-107372219D01*
X-15050830Y-107390632D01*
X-15041651Y-107410038D01*
X-15034419Y-107430250D01*
X-15029203Y-107451074D01*
X-15026053Y-107472309D01*
X-15025000Y-107493750D01*
X-15025000Y-107931250D01*
X-15026053Y-107952691D01*
X-15029203Y-107973926D01*
X-15034419Y-107994750D01*
X-15041651Y-108014962D01*
X-15050830Y-108034368D01*
X-15061866Y-108052781D01*
X-15074654Y-108070024D01*
X-15089070Y-108085930D01*
X-15104976Y-108100346D01*
X-15122219Y-108113134D01*
X-15140632Y-108124170D01*
X-15160038Y-108133349D01*
X-15180250Y-108140581D01*
X-15201074Y-108145797D01*
X-15222309Y-108148947D01*
X-15243750Y-108150000D01*
X-15756250Y-108150000D01*
X-15777691Y-108148947D01*
X-15798926Y-108145797D01*
X-15819750Y-108140581D01*
X-15839962Y-108133349D01*
X-15859368Y-108124170D01*
X-15877781Y-108113134D01*
X-15895024Y-108100346D01*
X-15910930Y-108085930D01*
X-15925346Y-108070024D01*
X-15938134Y-108052781D01*
X-15949170Y-108034368D01*
X-15958349Y-108014962D01*
X-15965581Y-107994750D01*
X-15970797Y-107973926D01*
X-15973947Y-107952691D01*
X-15975000Y-107931250D01*
X-15975000Y-107493750D01*
X-15973947Y-107472309D01*
X-15970797Y-107451074D01*
X-15965581Y-107430250D01*
X-15958349Y-107410038D01*
X-15949170Y-107390632D01*
X-15938134Y-107372219D01*
X-15925346Y-107354976D01*
X-15910930Y-107339070D01*
X-15895024Y-107324654D01*
X-15877781Y-107311866D01*
X-15859368Y-107300830D01*
X-15839962Y-107291651D01*
X-15819750Y-107284419D01*
X-15798926Y-107279203D01*
X-15777691Y-107276053D01*
X-15756250Y-107275000D01*
X-15243750Y-107275000D01*
X-15222309Y-107276053D01*
G37*
G36*
X-15222309Y-108851053D02*
G01*
X-15201074Y-108854203D01*
X-15180250Y-108859419D01*
X-15160038Y-108866651D01*
X-15140632Y-108875830D01*
X-15122219Y-108886866D01*
X-15104976Y-108899654D01*
X-15089070Y-108914070D01*
X-15074654Y-108929976D01*
X-15061866Y-108947219D01*
X-15050830Y-108965632D01*
X-15041651Y-108985038D01*
X-15034419Y-109005250D01*
X-15029203Y-109026074D01*
X-15026053Y-109047309D01*
X-15025000Y-109068750D01*
X-15025000Y-109506250D01*
X-15026053Y-109527691D01*
X-15029203Y-109548926D01*
X-15034419Y-109569750D01*
X-15041651Y-109589962D01*
X-15050830Y-109609368D01*
X-15061866Y-109627781D01*
X-15074654Y-109645024D01*
X-15089070Y-109660930D01*
X-15104976Y-109675346D01*
X-15122219Y-109688134D01*
X-15140632Y-109699170D01*
X-15160038Y-109708349D01*
X-15180250Y-109715581D01*
X-15201074Y-109720797D01*
X-15222309Y-109723947D01*
X-15243750Y-109725000D01*
X-15756250Y-109725000D01*
X-15777691Y-109723947D01*
X-15798926Y-109720797D01*
X-15819750Y-109715581D01*
X-15839962Y-109708349D01*
X-15859368Y-109699170D01*
X-15877781Y-109688134D01*
X-15895024Y-109675346D01*
X-15910930Y-109660930D01*
X-15925346Y-109645024D01*
X-15938134Y-109627781D01*
X-15949170Y-109609368D01*
X-15958349Y-109589962D01*
X-15965581Y-109569750D01*
X-15970797Y-109548926D01*
X-15973947Y-109527691D01*
X-15975000Y-109506250D01*
X-15975000Y-109068750D01*
X-15973947Y-109047309D01*
X-15970797Y-109026074D01*
X-15965581Y-109005250D01*
X-15958349Y-108985038D01*
X-15949170Y-108965632D01*
X-15938134Y-108947219D01*
X-15925346Y-108929976D01*
X-15910930Y-108914070D01*
X-15895024Y-108899654D01*
X-15877781Y-108886866D01*
X-15859368Y-108875830D01*
X-15839962Y-108866651D01*
X-15819750Y-108859419D01*
X-15798926Y-108854203D01*
X-15777691Y-108851053D01*
X-15756250Y-108850000D01*
X-15243750Y-108850000D01*
X-15222309Y-108851053D01*
G37*
G36*
X-30622309Y-85476053D02*
G01*
X-30601074Y-85479203D01*
X-30580250Y-85484419D01*
X-30560038Y-85491651D01*
X-30540632Y-85500830D01*
X-30522219Y-85511866D01*
X-30504976Y-85524654D01*
X-30489070Y-85539070D01*
X-30474654Y-85554976D01*
X-30461866Y-85572219D01*
X-30450830Y-85590632D01*
X-30441651Y-85610038D01*
X-30434419Y-85630250D01*
X-30429203Y-85651074D01*
X-30426053Y-85672309D01*
X-30425000Y-85693750D01*
X-30425000Y-86131250D01*
X-30426053Y-86152691D01*
X-30429203Y-86173926D01*
X-30434419Y-86194750D01*
X-30441651Y-86214962D01*
X-30450830Y-86234368D01*
X-30461866Y-86252781D01*
X-30474654Y-86270024D01*
X-30489070Y-86285930D01*
X-30504976Y-86300346D01*
X-30522219Y-86313134D01*
X-30540632Y-86324170D01*
X-30560038Y-86333349D01*
X-30580250Y-86340581D01*
X-30601074Y-86345797D01*
X-30622309Y-86348947D01*
X-30643750Y-86350000D01*
X-31156250Y-86350000D01*
X-31177691Y-86348947D01*
X-31198926Y-86345797D01*
X-31219750Y-86340581D01*
X-31239962Y-86333349D01*
X-31259368Y-86324170D01*
X-31277781Y-86313134D01*
X-31295024Y-86300346D01*
X-31310930Y-86285930D01*
X-31325346Y-86270024D01*
X-31338134Y-86252781D01*
X-31349170Y-86234368D01*
X-31358349Y-86214962D01*
X-31365581Y-86194750D01*
X-31370797Y-86173926D01*
X-31373947Y-86152691D01*
X-31375000Y-86131250D01*
X-31375000Y-85693750D01*
X-31373947Y-85672309D01*
X-31370797Y-85651074D01*
X-31365581Y-85630250D01*
X-31358349Y-85610038D01*
X-31349170Y-85590632D01*
X-31338134Y-85572219D01*
X-31325346Y-85554976D01*
X-31310930Y-85539070D01*
X-31295024Y-85524654D01*
X-31277781Y-85511866D01*
X-31259368Y-85500830D01*
X-31239962Y-85491651D01*
X-31219750Y-85484419D01*
X-31198926Y-85479203D01*
X-31177691Y-85476053D01*
X-31156250Y-85475000D01*
X-30643750Y-85475000D01*
X-30622309Y-85476053D01*
G37*
G36*
X-30622309Y-87051053D02*
G01*
X-30601074Y-87054203D01*
X-30580250Y-87059419D01*
X-30560038Y-87066651D01*
X-30540632Y-87075830D01*
X-30522219Y-87086866D01*
X-30504976Y-87099654D01*
X-30489070Y-87114070D01*
X-30474654Y-87129976D01*
X-30461866Y-87147219D01*
X-30450830Y-87165632D01*
X-30441651Y-87185038D01*
X-30434419Y-87205250D01*
X-30429203Y-87226074D01*
X-30426053Y-87247309D01*
X-30425000Y-87268750D01*
X-30425000Y-87706250D01*
X-30426053Y-87727691D01*
X-30429203Y-87748926D01*
X-30434419Y-87769750D01*
X-30441651Y-87789962D01*
X-30450830Y-87809368D01*
X-30461866Y-87827781D01*
X-30474654Y-87845024D01*
X-30489070Y-87860930D01*
X-30504976Y-87875346D01*
X-30522219Y-87888134D01*
X-30540632Y-87899170D01*
X-30560038Y-87908349D01*
X-30580250Y-87915581D01*
X-30601074Y-87920797D01*
X-30622309Y-87923947D01*
X-30643750Y-87925000D01*
X-31156250Y-87925000D01*
X-31177691Y-87923947D01*
X-31198926Y-87920797D01*
X-31219750Y-87915581D01*
X-31239962Y-87908349D01*
X-31259368Y-87899170D01*
X-31277781Y-87888134D01*
X-31295024Y-87875346D01*
X-31310930Y-87860930D01*
X-31325346Y-87845024D01*
X-31338134Y-87827781D01*
X-31349170Y-87809368D01*
X-31358349Y-87789962D01*
X-31365581Y-87769750D01*
X-31370797Y-87748926D01*
X-31373947Y-87727691D01*
X-31375000Y-87706250D01*
X-31375000Y-87268750D01*
X-31373947Y-87247309D01*
X-31370797Y-87226074D01*
X-31365581Y-87205250D01*
X-31358349Y-87185038D01*
X-31349170Y-87165632D01*
X-31338134Y-87147219D01*
X-31325346Y-87129976D01*
X-31310930Y-87114070D01*
X-31295024Y-87099654D01*
X-31277781Y-87086866D01*
X-31259368Y-87075830D01*
X-31239962Y-87066651D01*
X-31219750Y-87059419D01*
X-31198926Y-87054203D01*
X-31177691Y-87051053D01*
X-31156250Y-87050000D01*
X-30643750Y-87050000D01*
X-30622309Y-87051053D01*
G37*
M02*
