M48
; DRILL file {KiCad (5.1.5-0-10_14)} date Thursday, February 27, 2020 at 04:08:19 PM
; FORMAT={-:-/ absolute / inch / decimal}
; #@! TF.CreationDate,2020-02-27T16:08:19-05:00
; #@! TF.GenerationSoftware,Kicad,Pcbnew,(5.1.5-0-10_14)
; #@! TF.FileFunction,Plated,1,2,PTH
FMAT,2
INCH
T1C0.0394
T2C0.0400
%
G90
G05
T2
X-0.37Y-1.2
X-0.37Y-1.3
X-0.37Y-1.6
X-0.37Y-1.7
X-0.37Y-1.8
X-0.37Y-1.9
X-0.37Y-2.0
X-0.37Y-2.1
X-0.37Y-2.2
X-0.37Y-2.3
X-0.37Y-2.5
X-0.37Y-2.6
X-0.37Y-2.7
X-0.37Y-2.8
X-0.37Y-2.9
X-0.37Y-3.0
X-0.37Y-3.1
X-0.37Y-3.2
X-0.37Y-3.36
X-0.37Y-3.46
X-0.37Y-3.56
X-0.37Y-3.66
X-0.37Y-3.76
X-0.37Y-3.86
X-0.37Y-3.96
X-0.37Y-4.06
X-0.37Y-4.16
X-0.37Y-4.26
X-0.27Y-1.2
X-0.27Y-1.3
X-0.17Y-1.2
X-0.17Y-1.3
X-0.07Y-1.2
X-0.07Y-1.3
X0.03Y-1.2
X0.03Y-1.3
X0.13Y-1.2
X0.13Y-1.3
X0.23Y-1.2
X0.23Y-1.3
X0.33Y-1.2
X0.33Y-1.3
X0.43Y-1.2
X0.43Y-1.3
X0.53Y-1.2
X0.53Y-1.3
X0.63Y-1.2
X0.63Y-1.3
X0.73Y-1.2
X0.73Y-1.3
X0.83Y-1.2
X0.83Y-1.3
X0.93Y-1.2
X0.93Y-1.3
X1.03Y-1.2
X1.03Y-1.3
X1.13Y-1.2
X1.13Y-1.3
X1.23Y-1.2
X1.23Y-1.3
X1.33Y-1.2
X1.33Y-1.3
X1.53Y-1.4
X1.53Y-1.5
X1.53Y-1.6
X1.53Y-1.7
X1.53Y-1.8
X1.53Y-1.9
X1.53Y-2.0
X1.53Y-2.1
X1.53Y-2.3
X1.53Y-2.4
X1.53Y-2.5
X1.53Y-2.6
X1.53Y-2.7
X1.53Y-2.8
X1.53Y-2.9
X1.53Y-3.0
X1.53Y-3.2
X1.53Y-3.3
X1.53Y-3.4
X1.53Y-3.5
X1.53Y-3.6
X1.53Y-3.7
X1.53Y-3.8
X1.53Y-3.9
T1
G00X2.1612Y4.1173
M15
G01X2.1612Y4.0386
M16
G05
G00X2.484Y4.1173
M15
G01X2.484Y4.0386
M16
G05
G00X1.8364Y-0.8443
M15
G01X1.7577Y-0.8443
M16
G05
G00X1.8364Y-1.1671
M15
G01X1.7577Y-1.1671
M16
G05
G00X0.9999Y2.1059
M15
G01X0.9999Y2.0272
M16
G05
G00X1.3227Y2.1059
M15
G01X1.3227Y2.0272
M16
G05
G00X-0.7421Y1.1002
M15
G01X-0.7421Y1.0215
M16
G05
G00X-0.4192Y1.1002
M15
G01X-0.4192Y1.0215
M16
G05
G00X-2.484Y-1.9169
M15
G01X-2.484Y-1.9957
M16
G05
G00X-2.1612Y-1.9169
M15
G01X-2.1612Y-1.9957
M16
G05
G00X0.4192Y-2.9226
M15
G01X0.4192Y-3.0014
M16
G05
G00X0.7421Y-2.9226
M15
G01X0.7421Y-3.0014
M16
G05
G00X1.0668Y-1.85
M15
G01X1.1455Y-1.85
M16
G05
G00X1.0668Y-2.1728
M15
G01X1.1455Y-2.1728
M16
G05
G00X0.9999Y4.1173
M15
G01X0.9999Y4.0386
M16
G05
G00X1.3227Y4.1173
M15
G01X1.3227Y4.0386
M16
G05
G00X4.4838Y0.0945
M15
G01X4.4838Y0.0157
M16
G05
G00X4.8066Y0.0945
M15
G01X4.8066Y0.0157
M16
G05
G00X-3.6453Y-1.9169
M15
G01X-3.6453Y-1.9957
M16
G05
G00X-3.3225Y-1.9169
M15
G01X-3.3225Y-1.9957
M16
G05
G00X-1.9034Y-2.9226
M15
G01X-1.9034Y-3.0014
M16
G05
G00X-1.5805Y-2.9226
M15
G01X-1.5805Y-3.0014
M16
G05
G00X1.8364Y-2.8557
M15
G01X1.7577Y-2.8557
M16
G05
G00X1.8364Y-3.1785
M15
G01X1.7577Y-3.1785
M16
G05
G00X0.4192Y3.1116
M15
G01X0.4192Y3.0329
M16
G05
G00X0.7421Y3.1116
M15
G01X0.7421Y3.0329
M16
G05
G00X-0.6751Y-2.8557
M15
G01X-0.5964Y-2.8557
M16
G05
G00X-0.6751Y-3.1785
M15
G01X-0.5964Y-3.1785
M16
G05
G00X-3.6453Y0.0945
M15
G01X-3.6453Y0.0157
M16
G05
G00X-3.3225Y0.0945
M15
G01X-3.3225Y0.0157
M16
G05
G00X3.3225Y0.0945
M15
G01X3.3225Y0.0157
M16
G05
G00X3.6453Y0.0945
M15
G01X3.6453Y0.0157
M16
G05
G00X-1.3227Y-3.9283
M15
G01X-1.3227Y-4.0071
M16
G05
G00X-0.9999Y-3.9283
M15
G01X-0.9999Y-4.0071
M16
G05
G00X-0.1614Y-3.9283
M15
G01X-0.1614Y-4.0071
M16
G05
G00X0.1614Y-3.9283
M15
G01X0.1614Y-4.0071
M16
G05
G00X-0.1614Y2.1059
M15
G01X-0.1614Y2.0272
M16
G05
G00X0.1614Y2.1059
M15
G01X0.1614Y2.0272
M16
G05
G00X-1.9034Y1.1002
M15
G01X-1.9034Y1.0215
M16
G05
G00X-1.5805Y1.1002
M15
G01X-1.5805Y1.0215
M16
G05
G00X-4.8066Y0.0945
M15
G01X-4.8066Y0.0157
M16
G05
G00X-4.4838Y0.0945
M15
G01X-4.4838Y0.0157
M16
G05
G00X-0.1614Y4.1173
M15
G01X-0.1614Y4.0386
M16
G05
G00X0.1614Y4.1173
M15
G01X0.1614Y4.0386
M16
G05
G00X-2.484Y-3.9283
M15
G01X-2.484Y-4.0071
M16
G05
G00X-2.1612Y-3.9283
M15
G01X-2.1612Y-4.0071
M16
G05
G00X1.5805Y3.1116
M15
G01X1.5805Y3.0329
M16
G05
G00X1.9034Y3.1116
M15
G01X1.9034Y3.0329
M16
G05
G00X0.9999Y-3.9283
M15
G01X0.9999Y-4.0071
M16
G05
G00X1.3227Y-3.9283
M15
G01X1.3227Y-4.0071
M16
G05
G00X-1.3227Y2.1059
M15
G01X-1.3227Y2.0272
M16
G05
G00X-0.9999Y2.1059
M15
G01X-0.9999Y2.0272
M16
G05
G00X-3.0646Y1.1002
M15
G01X-3.0646Y1.0215
M16
G05
G00X-2.7418Y1.1002
M15
G01X-2.7418Y1.0215
M16
G05
G00X3.9031Y-0.9112
M15
G01X3.9031Y-0.99
M16
G05
G00X4.2259Y-0.9112
M15
G01X4.2259Y-0.99
M16
G05
G00X-3.0646Y-2.9226
M15
G01X-3.0646Y-3.0014
M16
G05
G00X-2.7418Y-2.9226
M15
G01X-2.7418Y-3.0014
M16
G05
G00X-1.3227Y4.1173
M15
G01X-1.3227Y4.0386
M16
G05
G00X-0.9999Y4.1173
M15
G01X-0.9999Y4.0386
M16
G05
G00X-0.7421Y3.1116
M15
G01X-0.7421Y3.0329
M16
G05
G00X-0.4192Y3.1116
M15
G01X-0.4192Y3.0329
M16
G05
G00X-4.2259Y1.1002
M15
G01X-4.2259Y1.0215
M16
G05
G00X-3.9031Y1.1002
M15
G01X-3.9031Y1.0215
M16
G05
G00X2.1612Y0.0945
M15
G01X2.1612Y0.0157
M16
G05
G00X2.484Y0.0945
M15
G01X2.484Y0.0157
M16
G05
G00X2.7418Y-0.9112
M15
G01X2.7418Y-0.99
M16
G05
G00X3.0646Y-0.9112
M15
G01X3.0646Y-0.99
M16
G05
G00X3.3225Y-1.9169
M15
G01X3.3225Y-1.9957
M16
G05
G00X3.6453Y-1.9169
M15
G01X3.6453Y-1.9957
M16
G05
G00X-2.484Y4.1173
M15
G01X-2.484Y4.0386
M16
G05
G00X-2.1612Y4.1173
M15
G01X-2.1612Y4.0386
M16
G05
G00X-1.9034Y3.1116
M15
G01X-1.9034Y3.0329
M16
G05
G00X-1.5805Y3.1116
M15
G01X-1.5805Y3.0329
M16
G05
G00X-3.6453Y2.1059
M15
G01X-3.6453Y2.0272
M16
G05
G00X-3.3225Y2.1059
M15
G01X-3.3225Y2.0272
M16
G05
G00X3.3225Y2.1059
M15
G01X3.3225Y2.0272
M16
G05
G00X3.6453Y2.1059
M15
G01X3.6453Y2.0272
M16
G05
G00X3.9031Y1.1002
M15
G01X3.9031Y1.0215
M16
G05
G00X4.2259Y1.1002
M15
G01X4.2259Y1.0215
M16
G05
G00X0.9999Y0.0945
M15
G01X0.9999Y0.0157
M16
G05
G00X1.3227Y0.0945
M15
G01X1.3227Y0.0157
M16
G05
G00X-1.9034Y-0.9112
M15
G01X-1.9034Y-0.99
M16
G05
G00X-1.5805Y-0.9112
M15
G01X-1.5805Y-0.99
M16
G05
G00X-3.0646Y3.1116
M15
G01X-3.0646Y3.0329
M16
G05
G00X-2.7418Y3.1116
M15
G01X-2.7418Y3.0329
M16
G05
G00X2.1612Y2.1059
M15
G01X2.1612Y2.0272
M16
G05
G00X2.484Y2.1059
M15
G01X2.484Y2.0272
M16
G05
G00X-2.484Y2.1059
M15
G01X-2.484Y2.0272
M16
G05
G00X-2.1612Y2.1059
M15
G01X-2.1612Y2.0272
M16
G05
G00X2.7418Y1.1002
M15
G01X2.7418Y1.0215
M16
G05
G00X3.0646Y1.1002
M15
G01X3.0646Y1.0215
M16
G05
G00X-0.1614Y0.0945
M15
G01X-0.1614Y0.0157
M16
G05
G00X0.1614Y0.0945
M15
G01X0.1614Y0.0157
M16
G05
G00X-3.0646Y-0.9112
M15
G01X-3.0646Y-0.99
M16
G05
G00X-2.7418Y-0.9112
M15
G01X-2.7418Y-0.99
M16
G05
G00X-4.2259Y-0.9112
M15
G01X-4.2259Y-0.99
M16
G05
G00X-3.9031Y-0.9112
M15
G01X-3.9031Y-0.99
M16
G05
G00X2.1612Y-1.9169
M15
G01X2.1612Y-1.9957
M16
G05
G00X2.484Y-1.9169
M15
G01X2.484Y-1.9957
M16
G05
G00X2.1612Y-3.9283
M15
G01X2.1612Y-4.0071
M16
G05
G00X2.484Y-3.9283
M15
G01X2.484Y-4.0071
M16
G05
G00X-1.3227Y-1.9169
M15
G01X-1.3227Y-1.9957
M16
G05
G00X-0.9999Y-1.9169
M15
G01X-0.9999Y-1.9957
M16
G05
G00X0.4192Y-0.9112
M15
G01X0.4192Y-0.99
M16
G05
G00X0.7421Y-0.9112
M15
G01X0.7421Y-0.99
M16
G05
G00X2.7418Y3.1116
M15
G01X2.7418Y3.0329
M16
G05
G00X3.0646Y3.1116
M15
G01X3.0646Y3.0329
M16
G05
G00X0.0945Y-1.85
M15
G01X0.0157Y-1.85
M16
G05
G00X0.0945Y-2.1728
M15
G01X0.0157Y-2.1728
M16
G05
G00X1.5805Y1.1002
M15
G01X1.5805Y1.0215
M16
G05
G00X1.9034Y1.1002
M15
G01X1.9034Y1.0215
M16
G05
G00X-1.3227Y0.0945
M15
G01X-1.3227Y0.0157
M16
G05
G00X-0.9999Y0.0945
M15
G01X-0.9999Y0.0157
M16
G05
G00X-0.6751Y-0.8443
M15
G01X-0.5964Y-0.8443
M16
G05
G00X-0.6751Y-1.1671
M15
G01X-0.5964Y-1.1671
M16
G05
G00X0.4192Y1.1002
M15
G01X0.4192Y1.0215
M16
G05
G00X0.7421Y1.1002
M15
G01X0.7421Y1.0215
M16
G05
G00X-2.484Y0.0945
M15
G01X-2.484Y0.0157
M16
G05
G00X-2.1612Y0.0945
M15
G01X-2.1612Y0.0157
M16
G05
G00X2.7418Y-2.9226
M15
G01X2.7418Y-3.0014
M16
G05
G00X3.0646Y-2.9226
M15
G01X3.0646Y-3.0014
M16
G05
T0
M30
