M48
; DRILL file {KiCad (5.1.5-0-10_14)} date Sunday, October 18, 2020 at 09:01:38 PM
; FORMAT={-:-/ absolute / inch / decimal}
; #@! TF.CreationDate,2020-10-18T21:01:38-04:00
; #@! TF.GenerationSoftware,Kicad,Pcbnew,(5.1.5-0-10_14)
; #@! TF.FileFunction,Plated,1,2,PTH
FMAT,2
INCH
T1C0.0157
T2C0.0374
T3C0.0394
T4C0.0400
T5C0.0512
%
G90
G05
T1
X-1.8295Y-3.2587
X-1.8183Y-3.121
X-1.7972Y-0.167
X-1.7175Y0.4982
X-1.6739Y-3.1932
X-1.6717Y-4.3925
X-1.6109Y-3.4964
X-1.5752Y-3.8111
X-1.54Y-3.478
X-1.5033Y-3.8183
X-1.4437Y-3.6445
X-1.4191Y-4.629
X-1.3459Y0.2067
X-1.3276Y-4.77
X-1.2972Y-2.93
X-1.2927Y-1.4681
X-1.2723Y-3.1919
X-1.2312Y-3.1638
X-1.1804Y-4.5329
X-0.9878Y-4.6535
X-0.652Y-4.7348
X-0.3955Y-1.9916
X-0.1409Y-4.6914
X0.3482Y-1.5303
X1.3422Y-1.0166
X1.5695Y-0.7758
X2.1909Y-3.3317
X2.5563Y-2.4179
T2
X2.982Y-2.5044
X3.0312Y-2.4192
X3.0805Y-2.3339
X2.4076Y-3.5125
X2.4568Y-3.4272
X2.506Y-3.342
T3
X3.09Y2.5107
X3.1392Y2.4254
X-4.3Y0.412
X-4.2508Y0.4972
X1.694Y3.932
X1.7924Y3.932
X-1.21Y3.094
X-1.1116Y3.094
X-0.63Y3.932
X-0.5316Y3.932
X4.254Y0.5
X4.3032Y0.4148
X0.532Y3.932
X0.6304Y3.932
X-3.7213Y1.422
X-3.6721Y1.5072
X-3.1427Y2.432
X-3.0935Y2.5172
X3.672Y1.5053
X3.7212Y1.4201
X2.508Y3.516
X2.5572Y3.4308
X-2.564Y3.442
X-2.5148Y3.5272
X1.104Y3.094
X1.2024Y3.094
X-1.792Y3.932
X-1.6936Y3.932
T4
X-0.3268Y-1.6134
X-0.3268Y-1.7134
X-0.3268Y-2.0134
X-0.3268Y-2.1134
X-0.3268Y-2.2134
X-0.3268Y-2.3134
X-0.3268Y-2.4134
X-0.3268Y-2.5134
X-0.3268Y-2.6134
X-0.3268Y-2.7134
X-0.3268Y-2.9134
X-0.3268Y-3.0134
X-0.3268Y-3.1134
X-0.3268Y-3.2134
X-0.3268Y-3.3134
X-0.3268Y-3.4134
X-0.3268Y-3.5134
X-0.3268Y-3.6134
X-0.3268Y-3.7734
X-0.3268Y-3.8734
X-0.3268Y-3.9734
X-0.3268Y-4.0734
X-0.3268Y-4.1734
X-0.3268Y-4.2734
X-0.3268Y-4.3734
X-0.3268Y-4.4734
X-0.3268Y-4.5734
X-0.3268Y-4.6734
X-0.2268Y-1.6134
X-0.2268Y-1.7134
X-0.1268Y-1.6134
X-0.1268Y-1.7134
X-0.0268Y-1.6134
X-0.0268Y-1.7134
X0.0732Y-1.6134
X0.0732Y-1.7134
X0.1732Y-1.6134
X0.1732Y-1.7134
X0.2732Y-1.6134
X0.2732Y-1.7134
X0.3732Y-1.6134
X0.3732Y-1.7134
X0.4732Y-1.6134
X0.4732Y-1.7134
X0.4732Y-2.8084
X0.4732Y-2.9084
X0.5732Y-1.6134
X0.5732Y-1.7134
X0.5732Y-2.8084
X0.5732Y-2.9084
X0.6732Y-1.6134
X0.6732Y-1.7134
X0.6732Y-2.8084
X0.6732Y-2.9084
X0.7732Y-1.6134
X0.7732Y-1.7134
X0.8732Y-1.6134
X0.8732Y-1.7134
X0.9732Y-1.6134
X0.9732Y-1.7134
X1.0732Y-1.6134
X1.0732Y-1.7134
X1.1732Y-1.6134
X1.1732Y-1.7134
X1.2732Y-1.6134
X1.2732Y-1.7134
X1.3732Y-1.6134
X1.3732Y-1.7134
X1.5732Y-1.8134
X1.5732Y-1.9134
X1.5732Y-2.0134
X1.5732Y-2.1134
X1.5732Y-2.2134
X1.5732Y-2.3134
X1.5732Y-2.4134
X1.5732Y-2.5134
X1.5732Y-2.7134
X1.5732Y-2.8134
X1.5732Y-2.9134
X1.5732Y-3.0134
X1.5732Y-3.1134
X1.5732Y-3.2134
X1.5732Y-3.3134
X1.5732Y-3.4134
X1.5732Y-3.6134
X1.5732Y-3.7134
X1.5732Y-3.8134
X1.5732Y-3.9134
X1.5732Y-4.0134
X1.5732Y-4.1134
X1.5732Y-4.2134
X1.5732Y-4.3134
T5
X-0.9016Y-5.0433
X-0.8031Y-4.9449
X-0.7047Y-5.437
X-0.6063Y-5.0433
X-0.5079Y-5.437
X-0.4094Y-4.9449
X-0.311Y-5.0433
X-1.752Y-5.0433
X-1.6535Y-4.9449
X-1.5551Y-5.437
X-1.4567Y-5.0433
X-1.3583Y-5.437
X-1.2598Y-4.9449
X-1.1614Y-5.0433
T3
G00X-1.9034Y-2.9226
M15
G01X-1.9034Y-3.0014
M16
G05
G00X-1.5805Y-2.9226
M15
G01X-1.5805Y-3.0014
M16
G05
G00X-1.9034Y3.1116
M15
G01X-1.9034Y3.0329
M16
G05
G00X-1.5805Y3.1116
M15
G01X-1.5805Y3.0329
M16
G05
G00X0.9999Y-2.1059
M15
G01X0.9999Y-2.0272
M16
G05
G00X1.3227Y-2.1059
M15
G01X1.3227Y-2.0272
M16
G05
G00X-1.9034Y1.1002
M15
G01X-1.9034Y1.0215
M16
G05
G00X-1.5805Y1.1002
M15
G01X-1.5805Y1.0215
M16
G05
G00X-4.8066Y0.0945
M15
G01X-4.8066Y0.0157
M16
G05
G00X-4.4837Y0.0945
M15
G01X-4.4837Y0.0157
M16
G05
G00X2.7418Y-0.9112
M15
G01X2.7418Y-0.99
M16
G05
G00X3.0646Y-0.9112
M15
G01X3.0646Y-0.99
M16
G05
G00X3.3225Y-1.9169
M15
G01X3.3225Y-1.9957
M16
G05
G00X3.6453Y-1.9169
M15
G01X3.6453Y-1.9957
M16
G05
G00X-0.7421Y-0.9112
M15
G01X-0.7421Y-0.99
M16
G05
G00X-0.4192Y-0.9112
M15
G01X-0.4192Y-0.99
M16
G05
G00X-3.0646Y3.1116
M15
G01X-3.0646Y3.0329
M16
G05
G00X-2.7418Y3.1116
M15
G01X-2.7418Y3.0329
M16
G05
G00X-3.0646Y1.1002
M15
G01X-3.0646Y1.0215
M16
G05
G00X-2.7418Y1.1002
M15
G01X-2.7418Y1.0215
M16
G05
G00X3.9031Y1.1002
M15
G01X3.9031Y1.0215
M16
G05
G00X4.2259Y1.1002
M15
G01X4.2259Y1.0215
M16
G05
G00X0.9999Y0.0945
M15
G01X0.9999Y0.0157
M16
G05
G00X1.3227Y0.0945
M15
G01X1.3227Y0.0157
M16
G05
G00X-1.9034Y-0.9112
M15
G01X-1.9034Y-0.99
M16
G05
G00X-1.5805Y-0.9112
M15
G01X-1.5805Y-0.99
M16
G05
G00X2.1612Y-1.9169
M15
G01X2.1612Y-1.9957
M16
G05
G00X2.484Y-1.9169
M15
G01X2.484Y-1.9957
M16
G05
G00X1.5805Y-0.9112
M15
G01X1.5805Y-0.99
M16
G05
G00X1.9034Y-0.9112
M15
G01X1.9034Y-0.99
M16
G05
G00X-2.484Y2.1059
M15
G01X-2.484Y2.0272
M16
G05
G00X-2.1612Y2.1059
M15
G01X-2.1612Y2.0272
M16
G05
G00X-4.2259Y1.1002
M15
G01X-4.2259Y1.0215
M16
G05
G00X-3.9031Y1.1002
M15
G01X-3.9031Y1.0215
M16
G05
G00X1.8364Y-2.8557
M15
G01X1.7577Y-2.8557
M16
G05
G00X1.8364Y-3.1785
M15
G01X1.7577Y-3.1785
M16
G05
G00X-3.6453Y2.1059
M15
G01X-3.6453Y2.0272
M16
G05
G00X-3.3225Y2.1059
M15
G01X-3.3225Y2.0272
M16
G05
G00X3.3225Y2.1059
M15
G01X3.3225Y2.0272
M16
G05
G00X3.6453Y2.1059
M15
G01X3.6453Y2.0272
M16
G05
G00X-3.0646Y-2.9226
M15
G01X-3.0646Y-3.0014
M16
G05
G00X-2.7418Y-2.9226
M15
G01X-2.7418Y-3.0014
M16
G05
G00X2.1612Y4.1173
M15
G01X2.1612Y4.0386
M16
G05
G00X2.484Y4.1173
M15
G01X2.484Y4.0386
M16
G05
G00X2.7418Y3.1116
M15
G01X2.7418Y3.0329
M16
G05
G00X3.0646Y3.1116
M15
G01X3.0646Y3.0329
M16
G05
G00X2.7418Y1.1002
M15
G01X2.7418Y1.0215
M16
G05
G00X3.0646Y1.1002
M15
G01X3.0646Y1.0215
M16
G05
G00X-0.1614Y0.0945
M15
G01X-0.1614Y0.0157
M16
G05
G00X0.1614Y0.0945
M15
G01X0.1614Y0.0157
M16
G05
G00X-3.0646Y-0.9112
M15
G01X-3.0646Y-0.99
M16
G05
G00X-2.7418Y-0.9112
M15
G01X-2.7418Y-0.99
M16
G05
G00X-1.3227Y-1.9169
M15
G01X-1.3227Y-1.9957
M16
G05
G00X-0.9999Y-1.9169
M15
G01X-0.9999Y-1.9957
M16
G05
G00X0.9999Y4.1173
M15
G01X0.9999Y4.0386
M16
G05
G00X1.3227Y4.1173
M15
G01X1.3227Y4.0386
M16
G05
G00X1.5805Y1.1002
M15
G01X1.5805Y1.0215
M16
G05
G00X1.9034Y1.1002
M15
G01X1.9034Y1.0215
M16
G05
G00X-1.3227Y0.0945
M15
G01X-1.3227Y0.0157
M16
G05
G00X-0.9999Y0.0945
M15
G01X-0.9999Y0.0157
M16
G05
G00X-4.2259Y-0.9112
M15
G01X-4.2259Y-0.99
M16
G05
G00X-3.9031Y-0.9112
M15
G01X-3.9031Y-0.99
M16
G05
G00X-2.484Y-1.9169
M15
G01X-2.484Y-1.9957
M16
G05
G00X-2.1612Y-1.9169
M15
G01X-2.1612Y-1.9957
M16
G05
G00X-2.484Y-3.9283
M15
G01X-2.484Y-4.0071
M16
G05
G00X-2.1612Y-3.9283
M15
G01X-2.1612Y-4.0071
M16
G05
G00X-0.6751Y-2.8557
M15
G01X-0.5964Y-2.8557
M16
G05
G00X-0.6751Y-3.1785
M15
G01X-0.5964Y-3.1785
M16
G05
G00X2.1612Y-3.9283
M15
G01X2.1612Y-4.0071
M16
G05
G00X2.484Y-3.9283
M15
G01X2.484Y-4.0071
M16
G05
G00X-0.1614Y4.1173
M15
G01X-0.1614Y4.0386
M16
G05
G00X0.1614Y4.1173
M15
G01X0.1614Y4.0386
M16
G05
G00X2.1612Y2.1059
M15
G01X2.1612Y2.0272
M16
G05
G00X2.484Y2.1059
M15
G01X2.484Y2.0272
M16
G05
G00X0.4192Y1.1002
M15
G01X0.4192Y1.0215
M16
G05
G00X0.7421Y1.1002
M15
G01X0.7421Y1.0215
M16
G05
G00X4.4837Y0.0945
M15
G01X4.4837Y0.0157
M16
G05
G00X4.8066Y0.0945
M15
G01X4.8066Y0.0157
M16
G05
G00X-3.6453Y-1.9169
M15
G01X-3.6453Y-1.9957
M16
G05
G00X-3.3225Y-1.9169
M15
G01X-3.3225Y-1.9957
M16
G05
G00X0.0945Y-3.8614
M15
G01X0.0157Y-3.8614
M16
G05
G00X0.0945Y-4.1843
M15
G01X0.0157Y-4.1843
M16
G05
G00X-1.3227Y-3.9283
M15
G01X-1.3227Y-4.0071
M16
G05
G00X-0.9999Y-3.9283
M15
G01X-0.9999Y-4.0071
M16
G05
G00X-1.3227Y4.1173
M15
G01X-1.3227Y4.0386
M16
G05
G00X-0.9999Y4.1173
M15
G01X-0.9999Y4.0386
M16
G05
G00X1.5805Y3.1116
M15
G01X1.5805Y3.0329
M16
G05
G00X1.9034Y3.1116
M15
G01X1.9034Y3.0329
M16
G05
G00X0.9999Y2.1059
M15
G01X0.9999Y2.0272
M16
G05
G00X1.3227Y2.1059
M15
G01X1.3227Y2.0272
M16
G05
G00X-0.7421Y1.1002
M15
G01X-0.7421Y1.0215
M16
G05
G00X-0.4192Y1.1002
M15
G01X-0.4192Y1.0215
M16
G05
G00X3.3225Y0.0945
M15
G01X3.3225Y0.0157
M16
G05
G00X3.6453Y0.0945
M15
G01X3.6453Y0.0157
M16
G05
G00X1.0668Y-3.8614
M15
G01X1.1455Y-3.8614
M16
G05
G00X1.0668Y-4.1843
M15
G01X1.1455Y-4.1843
M16
G05
G00X-2.484Y4.1173
M15
G01X-2.484Y4.0386
M16
G05
G00X-2.1612Y4.1173
M15
G01X-2.1612Y4.0386
M16
G05
G00X0.4192Y3.1116
M15
G01X0.4192Y3.0329
M16
G05
G00X0.7421Y3.1116
M15
G01X0.7421Y3.0329
M16
G05
G00X2.1612Y0.0945
M15
G01X2.1612Y0.0157
M16
G05
G00X2.484Y0.0945
M15
G01X2.484Y0.0157
M16
G05
G00X-2.484Y0.0945
M15
G01X-2.484Y0.0157
M16
G05
G00X-2.1612Y0.0945
M15
G01X-2.1612Y0.0157
M16
G05
G00X0.4192Y-0.9112
M15
G01X0.4192Y-0.99
M16
G05
G00X0.7421Y-0.9112
M15
G01X0.7421Y-0.99
M16
G05
G00X-3.6453Y0.0945
M15
G01X-3.6453Y0.0157
M16
G05
G00X-3.3225Y0.0945
M15
G01X-3.3225Y0.0157
M16
G05
G00X3.9031Y-0.9112
M15
G01X3.9031Y-0.99
M16
G05
G00X4.2259Y-0.9112
M15
G01X4.2259Y-0.99
M16
G05
G00X-0.1614Y-2.1059
M15
G01X-0.1614Y-2.0272
M16
G05
G00X0.1614Y-2.1059
M15
G01X0.1614Y-2.0272
M16
G05
G00X2.7418Y-2.9226
M15
G01X2.7418Y-3.0014
M16
G05
G00X3.0646Y-2.9226
M15
G01X3.0646Y-3.0014
M16
G05
G00X-0.1614Y2.1059
M15
G01X-0.1614Y2.0272
M16
G05
G00X0.1614Y2.1059
M15
G01X0.1614Y2.0272
M16
G05
G00X0.4192Y-3.1116
M15
G01X0.4192Y-3.0329
M16
G05
G00X0.7421Y-3.1116
M15
G01X0.7421Y-3.0329
M16
G05
G00X-0.7421Y3.1116
M15
G01X-0.7421Y3.0329
M16
G05
G00X-0.4192Y3.1116
M15
G01X-0.4192Y3.0329
M16
G05
G00X-1.3227Y2.1059
M15
G01X-1.3227Y2.0272
M16
G05
G00X-0.9999Y2.1059
M15
G01X-0.9999Y2.0272
M16
G05
T0
M30
