M48
; DRILL file {KiCad (5.1.5-0-10_14)} date Thursday, September 17, 2020 at 12:37:16 PM
; FORMAT={-:-/ absolute / inch / decimal}
; #@! TF.CreationDate,2020-09-17T12:37:16-04:00
; #@! TF.GenerationSoftware,Kicad,Pcbnew,(5.1.5-0-10_14)
; #@! TF.FileFunction,NonPlated,1,2,NPTH
FMAT,2
INCH
T1C0.0472
T2C0.0945
T3C0.1260
%
G90
G05
T1
X1.041Y3.1727
X2.6057Y-3.3268
X3.1801Y-2.3187
X-1.273Y3.1727
X4.2907Y0.5939
X2.5447Y3.6099
X1.631Y4.0107
X-0.693Y4.0107
X3.7087Y1.5993
X3.1267Y2.6046
X0.469Y4.0107
X-1.855Y4.0107
X-2.6637Y3.4268
X-3.2424Y2.4168
X-3.821Y1.4068
X-4.3997Y0.3968
T2
X-1.7323Y-5.2362
X-1.1417Y-5.2362
X-0.9252Y-5.2362
X-0.3346Y-5.2362
T3
X-0.3268Y-1.8437
X-0.3268Y-4.7937
X0.2732Y-2.7937
X1.3732Y-2.7937
X1.5732Y-1.5937
X1.5732Y-4.8437
T0
M30
