M48
; DRILL file {KiCad (5.1.5-0-10_14)} date Friday, September 18, 2020 at 04:36:43 PM
; FORMAT={-:-/ absolute / inch / decimal}
; #@! TF.CreationDate,2020-09-18T16:36:43-04:00
; #@! TF.GenerationSoftware,Kicad,Pcbnew,(5.1.5-0-10_14)
; #@! TF.FileFunction,Plated,1,2,PTH
FMAT,2
INCH
T1C0.0157
T2C0.0374
T3C0.0394
T4C0.0400
T5C0.0512
%
G90
G05
T1
X-2.5945Y-0.9331
X-2.0197Y1.9252
X-1.9692Y-3.1532
X-1.9658Y-3.1105
X-1.8205Y-3.0788
X-1.7849Y-4.072
X-1.7724Y-3.1672
X-1.6883Y-2.8035
X-1.685Y-1.7992
X-1.6161Y-3.6045
X-1.6095Y-4.2752
X-1.5079Y-4.2047
X-1.4798Y-3.7945
X-1.4409Y0.8622
X-1.4316Y-3.7796
X-1.4173Y-2.6417
X-1.4094Y-3.2126
X-1.3504Y-1.1929
X-1.3192Y-3.6323
X-1.2756Y-3.7598
X-1.2224Y-3.301
X-1.213Y-4.6951
X-1.1969Y-3.1575
X-1.1761Y-4.398
X-1.1744Y-3.4374
X-1.1581Y-4.2774
X-1.1496Y-2.815
X-1.1468Y-3.3673
X-1.0086Y-3.1261
X-0.9684Y-2.8231
X-0.7953Y-2.2205
X-0.626Y-1.5748
X-0.5887Y-2.0638
X-0.5866Y-0.5866
X-0.5551Y-1.2589
X-0.5432Y-2.3547
X-0.5095Y-1.084
X-0.4937Y-4.188
X-0.4114Y-1.9261
X-0.4063Y0.1734
X-0.4059Y-1.1547
X-0.3583Y-0.7402
X-0.278Y0.0198
X-0.1711Y-0.1528
X-0.1671Y-4.7121
X-0.1237Y-0.97
X-0.0787Y-1.8425
X-0.0535Y-0.9414
X0.0144Y-0.8592
X0.0842Y-1.3271
X0.4239Y-1.4709
X0.5591Y-1.9488
X0.6102Y-1.1654
X1.022Y-0.7935
X1.2362Y-0.1811
X1.3325Y-0.3252
X1.622Y0.4567
X1.7441Y-2.5591
X1.7483Y1.0799
X1.7913Y-2.0709
X1.8228Y0.4528
X2.0684Y-3.4061
X2.1811Y-3.6772
X2.2158Y-2.8094
X2.301Y-2.7179
X2.4256Y-2.6651
X2.8071Y-3.2008
X2.8343Y-2.1476
T2
X2.982Y-2.5044
X3.0312Y-2.4192
X3.0805Y-2.3339
X2.4076Y-3.5125
X2.4568Y-3.4272
X2.506Y-3.342
T3
X-4.3Y0.412
X-4.2508Y0.4972
X-2.564Y3.442
X-2.5148Y3.5272
X-1.792Y3.932
X-1.6936Y3.932
X1.694Y3.932
X1.7924Y3.932
X-1.21Y3.094
X-1.1116Y3.094
X1.104Y3.094
X1.2024Y3.094
X3.09Y2.5107
X3.1392Y2.4254
X0.532Y3.932
X0.6304Y3.932
X-3.1427Y2.432
X-3.0935Y2.5172
X2.508Y3.516
X2.5572Y3.4308
X4.254Y0.5
X4.3032Y0.4148
X-0.63Y3.932
X-0.5316Y3.932
X-3.7213Y1.422
X-3.6721Y1.5072
X3.672Y1.5053
X3.7212Y1.4201
T4
X-0.3268Y-1.6134
X-0.3268Y-1.7134
X-0.3268Y-2.0134
X-0.3268Y-2.1134
X-0.3268Y-2.2134
X-0.3268Y-2.3134
X-0.3268Y-2.4134
X-0.3268Y-2.5134
X-0.3268Y-2.6134
X-0.3268Y-2.7134
X-0.3268Y-2.9134
X-0.3268Y-3.0134
X-0.3268Y-3.1134
X-0.3268Y-3.2134
X-0.3268Y-3.3134
X-0.3268Y-3.4134
X-0.3268Y-3.5134
X-0.3268Y-3.6134
X-0.3268Y-3.7734
X-0.3268Y-3.8734
X-0.3268Y-3.9734
X-0.3268Y-4.0734
X-0.3268Y-4.1734
X-0.3268Y-4.2734
X-0.3268Y-4.3734
X-0.3268Y-4.4734
X-0.3268Y-4.5734
X-0.3268Y-4.6734
X-0.2268Y-1.6134
X-0.2268Y-1.7134
X-0.1268Y-1.6134
X-0.1268Y-1.7134
X-0.0268Y-1.6134
X-0.0268Y-1.7134
X0.0732Y-1.6134
X0.0732Y-1.7134
X0.1732Y-1.6134
X0.1732Y-1.7134
X0.2732Y-1.6134
X0.2732Y-1.7134
X0.3732Y-1.6134
X0.3732Y-1.7134
X0.4732Y-1.6134
X0.4732Y-1.7134
X0.4732Y-2.8084
X0.4732Y-2.9084
X0.5732Y-1.6134
X0.5732Y-1.7134
X0.5732Y-2.8084
X0.5732Y-2.9084
X0.6732Y-1.6134
X0.6732Y-1.7134
X0.6732Y-2.8084
X0.6732Y-2.9084
X0.7732Y-1.6134
X0.7732Y-1.7134
X0.8732Y-1.6134
X0.8732Y-1.7134
X0.9732Y-1.6134
X0.9732Y-1.7134
X1.0732Y-1.6134
X1.0732Y-1.7134
X1.1732Y-1.6134
X1.1732Y-1.7134
X1.2732Y-1.6134
X1.2732Y-1.7134
X1.3732Y-1.6134
X1.3732Y-1.7134
X1.5732Y-1.8134
X1.5732Y-1.9134
X1.5732Y-2.0134
X1.5732Y-2.1134
X1.5732Y-2.2134
X1.5732Y-2.3134
X1.5732Y-2.4134
X1.5732Y-2.5134
X1.5732Y-2.7134
X1.5732Y-2.8134
X1.5732Y-2.9134
X1.5732Y-3.0134
X1.5732Y-3.1134
X1.5732Y-3.2134
X1.5732Y-3.3134
X1.5732Y-3.4134
X1.5732Y-3.6134
X1.5732Y-3.7134
X1.5732Y-3.8134
X1.5732Y-3.9134
X1.5732Y-4.0134
X1.5732Y-4.1134
X1.5732Y-4.2134
X1.5732Y-4.3134
T5
X-0.9016Y-5.0433
X-0.8031Y-4.9449
X-0.7047Y-5.437
X-0.6063Y-5.0433
X-0.5079Y-5.437
X-0.4094Y-4.9449
X-0.311Y-5.0433
X-1.752Y-5.0433
X-1.6535Y-4.9449
X-1.5551Y-5.437
X-1.4567Y-5.0433
X-1.3583Y-5.437
X-1.2598Y-4.9449
X-1.1614Y-5.0433
T3
G00X2.1612Y4.1173
M15
G01X2.1612Y4.0386
M16
G05
G00X2.484Y4.1173
M15
G01X2.484Y4.0386
M16
G05
G00X-3.0646Y1.1002
M15
G01X-3.0646Y1.0215
M16
G05
G00X-2.7418Y1.1002
M15
G01X-2.7418Y1.0215
M16
G05
G00X3.9031Y1.1002
M15
G01X3.9031Y1.0215
M16
G05
G00X4.2259Y1.1002
M15
G01X4.2259Y1.0215
M16
G05
G00X0.9999Y4.1173
M15
G01X0.9999Y4.0386
M16
G05
G00X1.3227Y4.1173
M15
G01X1.3227Y4.0386
M16
G05
G00X-4.2259Y1.1002
M15
G01X-4.2259Y1.0215
M16
G05
G00X-3.9031Y1.1002
M15
G01X-3.9031Y1.0215
M16
G05
G00X2.7418Y1.1002
M15
G01X2.7418Y1.0215
M16
G05
G00X3.0646Y1.1002
M15
G01X3.0646Y1.0215
M16
G05
G00X-0.1614Y0.0945
M15
G01X-0.1614Y0.0157
M16
G05
G00X0.1614Y0.0945
M15
G01X0.1614Y0.0157
M16
G05
G00X2.7418Y-0.9112
M15
G01X2.7418Y-0.99
M16
G05
G00X3.0646Y-0.9112
M15
G01X3.0646Y-0.99
M16
G05
G00X3.3225Y-1.9169
M15
G01X3.3225Y-1.9957
M16
G05
G00X3.6453Y-1.9169
M15
G01X3.6453Y-1.9957
M16
G05
G00X-0.1614Y4.1173
M15
G01X-0.1614Y4.0386
M16
G05
G00X0.1614Y4.1173
M15
G01X0.1614Y4.0386
M16
G05
G00X3.3225Y2.1059
M15
G01X3.3225Y2.0272
M16
G05
G00X3.6453Y2.1059
M15
G01X3.6453Y2.0272
M16
G05
G00X1.5805Y1.1002
M15
G01X1.5805Y1.0215
M16
G05
G00X1.9034Y1.1002
M15
G01X1.9034Y1.0215
M16
G05
G00X0.0945Y-3.8614
M15
G01X0.0157Y-3.8614
M16
G05
G00X0.0945Y-4.1843
M15
G01X0.0157Y-4.1843
M16
G05
G00X-1.9034Y-0.9112
M15
G01X-1.9034Y-0.99
M16
G05
G00X-1.5805Y-0.9112
M15
G01X-1.5805Y-0.99
M16
G05
G00X2.1612Y-1.9169
M15
G01X2.1612Y-1.9957
M16
G05
G00X2.484Y-1.9169
M15
G01X2.484Y-1.9957
M16
G05
G00X-1.3227Y4.1173
M15
G01X-1.3227Y4.0386
M16
G05
G00X-0.9999Y4.1173
M15
G01X-0.9999Y4.0386
M16
G05
G00X0.4192Y3.1116
M15
G01X0.4192Y3.0329
M16
G05
G00X0.7421Y3.1116
M15
G01X0.7421Y3.0329
M16
G05
G00X2.1612Y2.1059
M15
G01X2.1612Y2.0272
M16
G05
G00X2.484Y2.1059
M15
G01X2.484Y2.0272
M16
G05
G00X1.0668Y-3.8614
M15
G01X1.1455Y-3.8614
M16
G05
G00X1.0668Y-4.1843
M15
G01X1.1455Y-4.1843
M16
G05
G00X-3.0646Y-2.9226
M15
G01X-3.0646Y-3.0014
M16
G05
G00X-2.7418Y-2.9226
M15
G01X-2.7418Y-3.0014
M16
G05
G00X-3.0646Y-0.9112
M15
G01X-3.0646Y-0.99
M16
G05
G00X-2.7418Y-0.9112
M15
G01X-2.7418Y-0.99
M16
G05
G00X-1.3227Y-1.9169
M15
G01X-1.3227Y-1.9957
M16
G05
G00X-0.9999Y-1.9169
M15
G01X-0.9999Y-1.9957
M16
G05
G00X-2.484Y4.1173
M15
G01X-2.484Y4.0386
M16
G05
G00X-2.1612Y4.1173
M15
G01X-2.1612Y4.0386
M16
G05
G00X-0.7421Y3.1116
M15
G01X-0.7421Y3.0329
M16
G05
G00X-0.4192Y3.1116
M15
G01X-0.4192Y3.0329
M16
G05
G00X-3.0646Y3.1116
M15
G01X-3.0646Y3.0329
M16
G05
G00X-2.7418Y3.1116
M15
G01X-2.7418Y3.0329
M16
G05
G00X0.9999Y2.1059
M15
G01X0.9999Y2.0272
M16
G05
G00X1.3227Y2.1059
M15
G01X1.3227Y2.0272
M16
G05
G00X0.4192Y-0.9112
M15
G01X0.4192Y-0.99
M16
G05
G00X0.7421Y-0.9112
M15
G01X0.7421Y-0.99
M16
G05
G00X-0.1614Y2.1059
M15
G01X-0.1614Y2.0272
M16
G05
G00X0.1614Y2.1059
M15
G01X0.1614Y2.0272
M16
G05
G00X0.9999Y-2.1059
M15
G01X0.9999Y-2.0272
M16
G05
G00X1.3227Y-2.1059
M15
G01X1.3227Y-2.0272
M16
G05
G00X-0.1614Y-2.1059
M15
G01X-0.1614Y-2.0272
M16
G05
G00X0.1614Y-2.1059
M15
G01X0.1614Y-2.0272
M16
G05
G00X-1.3227Y2.1059
M15
G01X-1.3227Y2.0272
M16
G05
G00X-0.9999Y2.1059
M15
G01X-0.9999Y2.0272
M16
G05
G00X-2.484Y-3.9283
M15
G01X-2.484Y-4.0071
M16
G05
G00X-2.1612Y-3.9283
M15
G01X-2.1612Y-4.0071
M16
G05
G00X-1.3227Y0.0945
M15
G01X-1.3227Y0.0157
M16
G05
G00X-0.9999Y0.0945
M15
G01X-0.9999Y0.0157
M16
G05
G00X-4.2259Y-0.9112
M15
G01X-4.2259Y-0.99
M16
G05
G00X-3.9031Y-0.9112
M15
G01X-3.9031Y-0.99
M16
G05
G00X-2.484Y-1.9169
M15
G01X-2.484Y-1.9957
M16
G05
G00X-2.1612Y-1.9169
M15
G01X-2.1612Y-1.9957
M16
G05
G00X-1.9034Y3.1116
M15
G01X-1.9034Y3.0329
M16
G05
G00X-1.5805Y3.1116
M15
G01X-1.5805Y3.0329
M16
G05
G00X-2.484Y2.1059
M15
G01X-2.484Y2.0272
M16
G05
G00X-2.1612Y2.1059
M15
G01X-2.1612Y2.0272
M16
G05
G00X0.4192Y1.1002
M15
G01X0.4192Y1.0215
M16
G05
G00X0.7421Y1.1002
M15
G01X0.7421Y1.0215
M16
G05
G00X-2.484Y0.0945
M15
G01X-2.484Y0.0157
M16
G05
G00X-2.1612Y0.0945
M15
G01X-2.1612Y0.0157
M16
G05
G00X4.4837Y0.0945
M15
G01X4.4837Y0.0157
M16
G05
G00X4.8066Y0.0945
M15
G01X4.8066Y0.0157
M16
G05
G00X-3.6453Y-1.9169
M15
G01X-3.6453Y-1.9957
M16
G05
G00X-3.3225Y-1.9169
M15
G01X-3.3225Y-1.9957
M16
G05
G00X2.1612Y-3.9283
M15
G01X2.1612Y-4.0071
M16
G05
G00X2.484Y-3.9283
M15
G01X2.484Y-4.0071
M16
G05
G00X-0.7421Y1.1002
M15
G01X-0.7421Y1.0215
M16
G05
G00X-0.4192Y1.1002
M15
G01X-0.4192Y1.0215
M16
G05
G00X3.3225Y0.0945
M15
G01X3.3225Y0.0157
M16
G05
G00X3.6453Y0.0945
M15
G01X3.6453Y0.0157
M16
G05
G00X3.9031Y-0.9112
M15
G01X3.9031Y-0.99
M16
G05
G00X4.2259Y-0.9112
M15
G01X4.2259Y-0.99
M16
G05
G00X-0.7421Y-0.9112
M15
G01X-0.7421Y-0.99
M16
G05
G00X-0.4192Y-0.9112
M15
G01X-0.4192Y-0.99
M16
G05
G00X-1.3227Y-3.9283
M15
G01X-1.3227Y-4.0071
M16
G05
G00X-0.9999Y-3.9283
M15
G01X-0.9999Y-4.0071
M16
G05
G00X-1.9034Y1.1002
M15
G01X-1.9034Y1.0215
M16
G05
G00X-1.5805Y1.1002
M15
G01X-1.5805Y1.0215
M16
G05
G00X2.1612Y0.0945
M15
G01X2.1612Y0.0157
M16
G05
G00X2.484Y0.0945
M15
G01X2.484Y0.0157
M16
G05
G00X1.5805Y-0.9112
M15
G01X1.5805Y-0.99
M16
G05
G00X1.9034Y-0.9112
M15
G01X1.9034Y-0.99
M16
G05
G00X-3.6453Y2.1059
M15
G01X-3.6453Y2.0272
M16
G05
G00X-3.3225Y2.1059
M15
G01X-3.3225Y2.0272
M16
G05
G00X2.7418Y-2.9226
M15
G01X2.7418Y-3.0014
M16
G05
G00X3.0646Y-2.9226
M15
G01X3.0646Y-3.0014
M16
G05
G00X0.9999Y0.0945
M15
G01X0.9999Y0.0157
M16
G05
G00X1.3227Y0.0945
M15
G01X1.3227Y0.0157
M16
G05
G00X1.8364Y-2.8557
M15
G01X1.7577Y-2.8557
M16
G05
G00X1.8364Y-3.1785
M15
G01X1.7577Y-3.1785
M16
G05
G00X-3.6453Y0.0945
M15
G01X-3.6453Y0.0157
M16
G05
G00X-3.3225Y0.0945
M15
G01X-3.3225Y0.0157
M16
G05
G00X2.7418Y3.1116
M15
G01X2.7418Y3.0329
M16
G05
G00X3.0646Y3.1116
M15
G01X3.0646Y3.0329
M16
G05
G00X0.4192Y-3.1116
M15
G01X0.4192Y-3.0329
M16
G05
G00X0.7421Y-3.1116
M15
G01X0.7421Y-3.0329
M16
G05
G00X-0.6751Y-2.8557
M15
G01X-0.5964Y-2.8557
M16
G05
G00X-0.6751Y-3.1785
M15
G01X-0.5964Y-3.1785
M16
G05
G00X-4.8066Y0.0945
M15
G01X-4.8066Y0.0157
M16
G05
G00X-4.4837Y0.0945
M15
G01X-4.4837Y0.0157
M16
G05
G00X1.5805Y3.1116
M15
G01X1.5805Y3.0329
M16
G05
G00X1.9034Y3.1116
M15
G01X1.9034Y3.0329
M16
G05
G00X-1.9034Y-2.9226
M15
G01X-1.9034Y-3.0014
M16
G05
G00X-1.5805Y-2.9226
M15
G01X-1.5805Y-3.0014
M16
G05
T0
M30
