G04 #@! TF.GenerationSoftware,KiCad,Pcbnew,(5.1.5-0-10_14)*
G04 #@! TF.CreationDate,2020-10-18T21:01:40-04:00*
G04 #@! TF.ProjectId,rainboard_newfighter,7261696e-626f-4617-9264-5f6e65776669,rev?*
G04 #@! TF.SameCoordinates,Original*
G04 #@! TF.FileFunction,Copper,L2,Bot*
G04 #@! TF.FilePolarity,Positive*
%FSLAX46Y46*%
G04 Gerber Fmt 4.6, Leading zero omitted, Abs format (unit mm)*
G04 Created by KiCad (PCBNEW (5.1.5-0-10_14)) date 2020-10-18 21:01:40*
%MOMM*%
%LPD*%
G04 APERTURE LIST*
%ADD10O,3.000000X6.000000*%
%ADD11C,1.700000*%
%ADD12C,0.100000*%
%ADD13O,1.700000X2.000000*%
%ADD14C,1.950000*%
%ADD15O,6.000000X3.000000*%
%ADD16O,1.727200X1.727200*%
%ADD17C,0.800000*%
%ADD18C,0.200600*%
G04 APERTURE END LIST*
D10*
X-77842100Y-75235000D03*
X-69642100Y-75235000D03*
X-63093700Y-100780000D03*
X-54893700Y-100780000D03*
X33596800Y-52490000D03*
X25396800Y-52490000D03*
D11*
X61260653Y-89279427D02*
X61044147Y-89154427D01*
X62510653Y-87114364D02*
X62294147Y-86989364D01*
G04 #@! TA.AperFunction,ComponentPad*
D12*
G36*
X63357164Y-83756824D02*
G01*
X63381301Y-83761216D01*
X63404892Y-83767952D01*
X63427709Y-83776969D01*
X63449532Y-83788179D01*
X64705268Y-84513179D01*
X64725887Y-84526473D01*
X64745105Y-84541725D01*
X64762734Y-84558787D01*
X64778606Y-84577495D01*
X64792569Y-84597668D01*
X64804486Y-84619113D01*
X64814245Y-84641623D01*
X64821749Y-84664980D01*
X64826929Y-84688961D01*
X64829733Y-84713334D01*
X64830134Y-84737865D01*
X64828129Y-84762317D01*
X64823737Y-84786454D01*
X64817001Y-84810045D01*
X64807984Y-84832862D01*
X64796774Y-84854685D01*
X64196774Y-85893915D01*
X64183480Y-85914534D01*
X64168228Y-85933751D01*
X64151166Y-85951381D01*
X64132458Y-85967253D01*
X64112285Y-85981216D01*
X64090840Y-85993133D01*
X64068330Y-86002891D01*
X64044973Y-86010396D01*
X64020992Y-86015576D01*
X63996619Y-86018380D01*
X63972088Y-86018781D01*
X63947636Y-86016776D01*
X63923499Y-86012384D01*
X63899908Y-86005648D01*
X63877091Y-85996631D01*
X63855268Y-85985421D01*
X62599532Y-85260421D01*
X62578913Y-85247127D01*
X62559695Y-85231875D01*
X62542066Y-85214813D01*
X62526194Y-85196105D01*
X62512231Y-85175932D01*
X62500314Y-85154487D01*
X62490555Y-85131977D01*
X62483051Y-85108620D01*
X62477871Y-85084639D01*
X62475067Y-85060266D01*
X62474666Y-85035735D01*
X62476671Y-85011283D01*
X62481063Y-84987146D01*
X62487799Y-84963555D01*
X62496816Y-84940738D01*
X62508026Y-84918915D01*
X63108026Y-83879685D01*
X63121320Y-83859066D01*
X63136572Y-83839849D01*
X63153634Y-83822219D01*
X63172342Y-83806347D01*
X63192515Y-83792384D01*
X63213960Y-83780467D01*
X63236470Y-83770709D01*
X63259827Y-83763204D01*
X63283808Y-83758024D01*
X63308181Y-83755220D01*
X63332712Y-83754819D01*
X63357164Y-83756824D01*
G37*
G04 #@! TD.AperFunction*
D11*
X75851853Y-63674227D02*
X75635347Y-63549227D01*
X77101853Y-61509164D02*
X76885347Y-61384164D01*
G04 #@! TA.AperFunction,ComponentPad*
D12*
G36*
X77948364Y-58151624D02*
G01*
X77972501Y-58156016D01*
X77996092Y-58162752D01*
X78018909Y-58171769D01*
X78040732Y-58182979D01*
X79296468Y-58907979D01*
X79317087Y-58921273D01*
X79336305Y-58936525D01*
X79353934Y-58953587D01*
X79369806Y-58972295D01*
X79383769Y-58992468D01*
X79395686Y-59013913D01*
X79405445Y-59036423D01*
X79412949Y-59059780D01*
X79418129Y-59083761D01*
X79420933Y-59108134D01*
X79421334Y-59132665D01*
X79419329Y-59157117D01*
X79414937Y-59181254D01*
X79408201Y-59204845D01*
X79399184Y-59227662D01*
X79387974Y-59249485D01*
X78787974Y-60288715D01*
X78774680Y-60309334D01*
X78759428Y-60328551D01*
X78742366Y-60346181D01*
X78723658Y-60362053D01*
X78703485Y-60376016D01*
X78682040Y-60387933D01*
X78659530Y-60397691D01*
X78636173Y-60405196D01*
X78612192Y-60410376D01*
X78587819Y-60413180D01*
X78563288Y-60413581D01*
X78538836Y-60411576D01*
X78514699Y-60407184D01*
X78491108Y-60400448D01*
X78468291Y-60391431D01*
X78446468Y-60380221D01*
X77190732Y-59655221D01*
X77170113Y-59641927D01*
X77150895Y-59626675D01*
X77133266Y-59609613D01*
X77117394Y-59590905D01*
X77103431Y-59570732D01*
X77091514Y-59549287D01*
X77081755Y-59526777D01*
X77074251Y-59503420D01*
X77069071Y-59479439D01*
X77066267Y-59455066D01*
X77065866Y-59430535D01*
X77067871Y-59406083D01*
X77072263Y-59381946D01*
X77078999Y-59358355D01*
X77088016Y-59335538D01*
X77099226Y-59313715D01*
X77699226Y-58274485D01*
X77712520Y-58253866D01*
X77727772Y-58234649D01*
X77744834Y-58217019D01*
X77763542Y-58201147D01*
X77783715Y-58187184D01*
X77805160Y-58175267D01*
X77827670Y-58165509D01*
X77851027Y-58158004D01*
X77875008Y-58152824D01*
X77899381Y-58150020D01*
X77923912Y-58149619D01*
X77948364Y-58151624D01*
G37*
G04 #@! TD.AperFunction*
D13*
X30541600Y78587600D03*
G04 #@! TA.AperFunction,ComponentPad*
D12*
G36*
X28666104Y79586396D02*
G01*
X28690373Y79582796D01*
X28714171Y79576835D01*
X28737271Y79568570D01*
X28759449Y79558080D01*
X28780493Y79545467D01*
X28800198Y79530853D01*
X28818377Y79514377D01*
X28834853Y79496198D01*
X28849467Y79476493D01*
X28862080Y79455449D01*
X28872570Y79433271D01*
X28880835Y79410171D01*
X28886796Y79386373D01*
X28890396Y79362104D01*
X28891600Y79337600D01*
X28891600Y77837600D01*
X28890396Y77813096D01*
X28886796Y77788827D01*
X28880835Y77765029D01*
X28872570Y77741929D01*
X28862080Y77719751D01*
X28849467Y77698707D01*
X28834853Y77679002D01*
X28818377Y77660823D01*
X28800198Y77644347D01*
X28780493Y77629733D01*
X28759449Y77617120D01*
X28737271Y77606630D01*
X28714171Y77598365D01*
X28690373Y77592404D01*
X28666104Y77588804D01*
X28641600Y77587600D01*
X27441600Y77587600D01*
X27417096Y77588804D01*
X27392827Y77592404D01*
X27369029Y77598365D01*
X27345929Y77606630D01*
X27323751Y77617120D01*
X27302707Y77629733D01*
X27283002Y77644347D01*
X27264823Y77660823D01*
X27248347Y77679002D01*
X27233733Y77698707D01*
X27221120Y77719751D01*
X27210630Y77741929D01*
X27202365Y77765029D01*
X27196404Y77788827D01*
X27192804Y77813096D01*
X27191600Y77837600D01*
X27191600Y79337600D01*
X27192804Y79362104D01*
X27196404Y79386373D01*
X27202365Y79410171D01*
X27210630Y79433271D01*
X27221120Y79455449D01*
X27233733Y79476493D01*
X27248347Y79496198D01*
X27264823Y79514377D01*
X27283002Y79530853D01*
X27302707Y79545467D01*
X27323751Y79558080D01*
X27345929Y79568570D01*
X27369029Y79576835D01*
X27392827Y79582796D01*
X27417096Y79586396D01*
X27441600Y79587600D01*
X28641600Y79587600D01*
X28666104Y79586396D01*
G37*
G04 #@! TD.AperFunction*
D13*
X-28234000Y78587600D03*
G04 #@! TA.AperFunction,ComponentPad*
D12*
G36*
X-30109496Y79586396D02*
G01*
X-30085227Y79582796D01*
X-30061429Y79576835D01*
X-30038329Y79568570D01*
X-30016151Y79558080D01*
X-29995107Y79545467D01*
X-29975402Y79530853D01*
X-29957223Y79514377D01*
X-29940747Y79496198D01*
X-29926133Y79476493D01*
X-29913520Y79455449D01*
X-29903030Y79433271D01*
X-29894765Y79410171D01*
X-29888804Y79386373D01*
X-29885204Y79362104D01*
X-29884000Y79337600D01*
X-29884000Y77837600D01*
X-29885204Y77813096D01*
X-29888804Y77788827D01*
X-29894765Y77765029D01*
X-29903030Y77741929D01*
X-29913520Y77719751D01*
X-29926133Y77698707D01*
X-29940747Y77679002D01*
X-29957223Y77660823D01*
X-29975402Y77644347D01*
X-29995107Y77629733D01*
X-30016151Y77617120D01*
X-30038329Y77606630D01*
X-30061429Y77598365D01*
X-30085227Y77592404D01*
X-30109496Y77588804D01*
X-30134000Y77587600D01*
X-31334000Y77587600D01*
X-31358504Y77588804D01*
X-31382773Y77592404D01*
X-31406571Y77598365D01*
X-31429671Y77606630D01*
X-31451849Y77617120D01*
X-31472893Y77629733D01*
X-31492598Y77644347D01*
X-31510777Y77660823D01*
X-31527253Y77679002D01*
X-31541867Y77698707D01*
X-31554480Y77719751D01*
X-31564970Y77741929D01*
X-31573235Y77765029D01*
X-31579196Y77788827D01*
X-31582796Y77813096D01*
X-31584000Y77837600D01*
X-31584000Y79337600D01*
X-31582796Y79362104D01*
X-31579196Y79386373D01*
X-31573235Y79410171D01*
X-31564970Y79433271D01*
X-31554480Y79455449D01*
X-31541867Y79476493D01*
X-31527253Y79496198D01*
X-31510777Y79514377D01*
X-31492598Y79530853D01*
X-31472893Y79545467D01*
X-31451849Y79558080D01*
X-31429671Y79568570D01*
X-31406571Y79576835D01*
X-31382773Y79582796D01*
X-31358504Y79586396D01*
X-31334000Y79587600D01*
X-30134000Y79587600D01*
X-30109496Y79586396D01*
G37*
G04 #@! TD.AperFunction*
D11*
X109431904Y10609936D02*
X109172096Y10459936D01*
G04 #@! TA.AperFunction,ComponentPad*
D12*
G36*
X108417870Y13844080D02*
G01*
X108442243Y13841276D01*
X108466224Y13836096D01*
X108489582Y13828591D01*
X108512091Y13818833D01*
X108533536Y13806916D01*
X108553709Y13792953D01*
X108572417Y13777081D01*
X108589479Y13759451D01*
X108604731Y13740234D01*
X108618025Y13719615D01*
X109218025Y12680385D01*
X109229235Y12658562D01*
X109238252Y12635745D01*
X109244988Y12612154D01*
X109249380Y12588017D01*
X109251385Y12563565D01*
X109250984Y12539034D01*
X109248180Y12514661D01*
X109243000Y12490680D01*
X109235495Y12467323D01*
X109225737Y12444813D01*
X109213820Y12423368D01*
X109199857Y12403195D01*
X109183985Y12384487D01*
X109166355Y12367425D01*
X109147138Y12352173D01*
X109126519Y12338879D01*
X107827481Y11588879D01*
X107805658Y11577669D01*
X107782841Y11568652D01*
X107759250Y11561916D01*
X107735113Y11557524D01*
X107710661Y11555519D01*
X107686130Y11555920D01*
X107661757Y11558724D01*
X107637776Y11563904D01*
X107614418Y11571409D01*
X107591909Y11581167D01*
X107570464Y11593084D01*
X107550291Y11607047D01*
X107531583Y11622919D01*
X107514521Y11640549D01*
X107499269Y11659766D01*
X107485975Y11680385D01*
X106885975Y12719615D01*
X106874765Y12741438D01*
X106865748Y12764255D01*
X106859012Y12787846D01*
X106854620Y12811983D01*
X106852615Y12836435D01*
X106853016Y12860966D01*
X106855820Y12885339D01*
X106861000Y12909320D01*
X106868505Y12932677D01*
X106878263Y12955187D01*
X106890180Y12976632D01*
X106904143Y12996805D01*
X106920015Y13015513D01*
X106937645Y13032575D01*
X106956862Y13047827D01*
X106977481Y13061121D01*
X108276519Y13811121D01*
X108298342Y13822331D01*
X108321159Y13831348D01*
X108344750Y13838084D01*
X108368887Y13842476D01*
X108393339Y13844481D01*
X108417870Y13844080D01*
G37*
G04 #@! TD.AperFunction*
D11*
X94648704Y36145436D02*
X94388896Y35995436D01*
G04 #@! TA.AperFunction,ComponentPad*
D12*
G36*
X93634670Y39379580D02*
G01*
X93659043Y39376776D01*
X93683024Y39371596D01*
X93706382Y39364091D01*
X93728891Y39354333D01*
X93750336Y39342416D01*
X93770509Y39328453D01*
X93789217Y39312581D01*
X93806279Y39294951D01*
X93821531Y39275734D01*
X93834825Y39255115D01*
X94434825Y38215885D01*
X94446035Y38194062D01*
X94455052Y38171245D01*
X94461788Y38147654D01*
X94466180Y38123517D01*
X94468185Y38099065D01*
X94467784Y38074534D01*
X94464980Y38050161D01*
X94459800Y38026180D01*
X94452295Y38002823D01*
X94442537Y37980313D01*
X94430620Y37958868D01*
X94416657Y37938695D01*
X94400785Y37919987D01*
X94383155Y37902925D01*
X94363938Y37887673D01*
X94343319Y37874379D01*
X93044281Y37124379D01*
X93022458Y37113169D01*
X92999641Y37104152D01*
X92976050Y37097416D01*
X92951913Y37093024D01*
X92927461Y37091019D01*
X92902930Y37091420D01*
X92878557Y37094224D01*
X92854576Y37099404D01*
X92831218Y37106909D01*
X92808709Y37116667D01*
X92787264Y37128584D01*
X92767091Y37142547D01*
X92748383Y37158419D01*
X92731321Y37176049D01*
X92716069Y37195266D01*
X92702775Y37215885D01*
X92102775Y38255115D01*
X92091565Y38276938D01*
X92082548Y38299755D01*
X92075812Y38323346D01*
X92071420Y38347483D01*
X92069415Y38371935D01*
X92069816Y38396466D01*
X92072620Y38420839D01*
X92077800Y38444820D01*
X92085305Y38468177D01*
X92095063Y38490687D01*
X92106980Y38512132D01*
X92120943Y38532305D01*
X92136815Y38551013D01*
X92154445Y38568075D01*
X92173662Y38583327D01*
X92194281Y38596621D01*
X93493319Y39346621D01*
X93515142Y39357831D01*
X93537959Y39366848D01*
X93561550Y39373584D01*
X93585687Y39377976D01*
X93610139Y39379981D01*
X93634670Y39379580D01*
G37*
G04 #@! TD.AperFunction*
D11*
X79865904Y61680836D02*
X79606096Y61530836D01*
G04 #@! TA.AperFunction,ComponentPad*
D12*
G36*
X78851870Y64914980D02*
G01*
X78876243Y64912176D01*
X78900224Y64906996D01*
X78923582Y64899491D01*
X78946091Y64889733D01*
X78967536Y64877816D01*
X78987709Y64863853D01*
X79006417Y64847981D01*
X79023479Y64830351D01*
X79038731Y64811134D01*
X79052025Y64790515D01*
X79652025Y63751285D01*
X79663235Y63729462D01*
X79672252Y63706645D01*
X79678988Y63683054D01*
X79683380Y63658917D01*
X79685385Y63634465D01*
X79684984Y63609934D01*
X79682180Y63585561D01*
X79677000Y63561580D01*
X79669495Y63538223D01*
X79659737Y63515713D01*
X79647820Y63494268D01*
X79633857Y63474095D01*
X79617985Y63455387D01*
X79600355Y63438325D01*
X79581138Y63423073D01*
X79560519Y63409779D01*
X78261481Y62659779D01*
X78239658Y62648569D01*
X78216841Y62639552D01*
X78193250Y62632816D01*
X78169113Y62628424D01*
X78144661Y62626419D01*
X78120130Y62626820D01*
X78095757Y62629624D01*
X78071776Y62634804D01*
X78048418Y62642309D01*
X78025909Y62652067D01*
X78004464Y62663984D01*
X77984291Y62677947D01*
X77965583Y62693819D01*
X77948521Y62711449D01*
X77933269Y62730666D01*
X77919975Y62751285D01*
X77319975Y63790515D01*
X77308765Y63812338D01*
X77299748Y63835155D01*
X77293012Y63858746D01*
X77288620Y63882883D01*
X77286615Y63907335D01*
X77287016Y63931866D01*
X77289820Y63956239D01*
X77295000Y63980220D01*
X77302505Y64003577D01*
X77312263Y64026087D01*
X77324180Y64047532D01*
X77338143Y64067705D01*
X77354015Y64086413D01*
X77371645Y64103475D01*
X77390862Y64118727D01*
X77411481Y64132021D01*
X78710519Y64882021D01*
X78732342Y64893231D01*
X78755159Y64902248D01*
X78778750Y64908984D01*
X78802887Y64913376D01*
X78827339Y64915381D01*
X78851870Y64914980D01*
G37*
G04 #@! TD.AperFunction*
D11*
X65083104Y87216336D02*
X64823296Y87066336D01*
G04 #@! TA.AperFunction,ComponentPad*
D12*
G36*
X64069070Y90450480D02*
G01*
X64093443Y90447676D01*
X64117424Y90442496D01*
X64140782Y90434991D01*
X64163291Y90425233D01*
X64184736Y90413316D01*
X64204909Y90399353D01*
X64223617Y90383481D01*
X64240679Y90365851D01*
X64255931Y90346634D01*
X64269225Y90326015D01*
X64869225Y89286785D01*
X64880435Y89264962D01*
X64889452Y89242145D01*
X64896188Y89218554D01*
X64900580Y89194417D01*
X64902585Y89169965D01*
X64902184Y89145434D01*
X64899380Y89121061D01*
X64894200Y89097080D01*
X64886695Y89073723D01*
X64876937Y89051213D01*
X64865020Y89029768D01*
X64851057Y89009595D01*
X64835185Y88990887D01*
X64817555Y88973825D01*
X64798338Y88958573D01*
X64777719Y88945279D01*
X63478681Y88195279D01*
X63456858Y88184069D01*
X63434041Y88175052D01*
X63410450Y88168316D01*
X63386313Y88163924D01*
X63361861Y88161919D01*
X63337330Y88162320D01*
X63312957Y88165124D01*
X63288976Y88170304D01*
X63265618Y88177809D01*
X63243109Y88187567D01*
X63221664Y88199484D01*
X63201491Y88213447D01*
X63182783Y88229319D01*
X63165721Y88246949D01*
X63150469Y88266166D01*
X63137175Y88286785D01*
X62537175Y89326015D01*
X62525965Y89347838D01*
X62516948Y89370655D01*
X62510212Y89394246D01*
X62505820Y89418383D01*
X62503815Y89442835D01*
X62504216Y89467366D01*
X62507020Y89491739D01*
X62512200Y89515720D01*
X62519705Y89539077D01*
X62529463Y89561587D01*
X62541380Y89583032D01*
X62555343Y89603205D01*
X62571215Y89621913D01*
X62588845Y89638975D01*
X62608062Y89654227D01*
X62628681Y89667521D01*
X63927719Y90417521D01*
X63949542Y90428731D01*
X63972359Y90437748D01*
X63995950Y90444484D01*
X64020087Y90448876D01*
X64044539Y90450881D01*
X64069070Y90450480D01*
G37*
G04 #@! TD.AperFunction*
D13*
X45527600Y99872800D03*
G04 #@! TA.AperFunction,ComponentPad*
D12*
G36*
X43652104Y100871596D02*
G01*
X43676373Y100867996D01*
X43700171Y100862035D01*
X43723271Y100853770D01*
X43745449Y100843280D01*
X43766493Y100830667D01*
X43786198Y100816053D01*
X43804377Y100799577D01*
X43820853Y100781398D01*
X43835467Y100761693D01*
X43848080Y100740649D01*
X43858570Y100718471D01*
X43866835Y100695371D01*
X43872796Y100671573D01*
X43876396Y100647304D01*
X43877600Y100622800D01*
X43877600Y99122800D01*
X43876396Y99098296D01*
X43872796Y99074027D01*
X43866835Y99050229D01*
X43858570Y99027129D01*
X43848080Y99004951D01*
X43835467Y98983907D01*
X43820853Y98964202D01*
X43804377Y98946023D01*
X43786198Y98929547D01*
X43766493Y98914933D01*
X43745449Y98902320D01*
X43723271Y98891830D01*
X43700171Y98883565D01*
X43676373Y98877604D01*
X43652104Y98874004D01*
X43627600Y98872800D01*
X42427600Y98872800D01*
X42403096Y98874004D01*
X42378827Y98877604D01*
X42355029Y98883565D01*
X42331929Y98891830D01*
X42309751Y98902320D01*
X42288707Y98914933D01*
X42269002Y98929547D01*
X42250823Y98946023D01*
X42234347Y98964202D01*
X42219733Y98983907D01*
X42207120Y99004951D01*
X42196630Y99027129D01*
X42188365Y99050229D01*
X42182404Y99074027D01*
X42178804Y99098296D01*
X42177600Y99122800D01*
X42177600Y100622800D01*
X42178804Y100647304D01*
X42182404Y100671573D01*
X42188365Y100695371D01*
X42196630Y100718471D01*
X42207120Y100740649D01*
X42219733Y100761693D01*
X42234347Y100781398D01*
X42250823Y100799577D01*
X42269002Y100816053D01*
X42288707Y100830667D01*
X42309751Y100843280D01*
X42331929Y100853770D01*
X42355029Y100862035D01*
X42378827Y100867996D01*
X42403096Y100871596D01*
X42427600Y100872800D01*
X43627600Y100872800D01*
X43652104Y100871596D01*
G37*
G04 #@! TD.AperFunction*
D13*
X16012800Y99872800D03*
G04 #@! TA.AperFunction,ComponentPad*
D12*
G36*
X14137304Y100871596D02*
G01*
X14161573Y100867996D01*
X14185371Y100862035D01*
X14208471Y100853770D01*
X14230649Y100843280D01*
X14251693Y100830667D01*
X14271398Y100816053D01*
X14289577Y100799577D01*
X14306053Y100781398D01*
X14320667Y100761693D01*
X14333280Y100740649D01*
X14343770Y100718471D01*
X14352035Y100695371D01*
X14357996Y100671573D01*
X14361596Y100647304D01*
X14362800Y100622800D01*
X14362800Y99122800D01*
X14361596Y99098296D01*
X14357996Y99074027D01*
X14352035Y99050229D01*
X14343770Y99027129D01*
X14333280Y99004951D01*
X14320667Y98983907D01*
X14306053Y98964202D01*
X14289577Y98946023D01*
X14271398Y98929547D01*
X14251693Y98914933D01*
X14230649Y98902320D01*
X14208471Y98891830D01*
X14185371Y98883565D01*
X14161573Y98877604D01*
X14137304Y98874004D01*
X14112800Y98872800D01*
X12912800Y98872800D01*
X12888296Y98874004D01*
X12864027Y98877604D01*
X12840229Y98883565D01*
X12817129Y98891830D01*
X12794951Y98902320D01*
X12773907Y98914933D01*
X12754202Y98929547D01*
X12736023Y98946023D01*
X12719547Y98964202D01*
X12704933Y98983907D01*
X12692320Y99004951D01*
X12681830Y99027129D01*
X12673565Y99050229D01*
X12667604Y99074027D01*
X12664004Y99098296D01*
X12662800Y99122800D01*
X12662800Y100622800D01*
X12664004Y100647304D01*
X12667604Y100671573D01*
X12673565Y100695371D01*
X12681830Y100718471D01*
X12692320Y100740649D01*
X12704933Y100761693D01*
X12719547Y100781398D01*
X12736023Y100799577D01*
X12754202Y100816053D01*
X12773907Y100830667D01*
X12794951Y100843280D01*
X12817129Y100853770D01*
X12840229Y100862035D01*
X12864027Y100867996D01*
X12888296Y100871596D01*
X12912800Y100872800D01*
X14112800Y100872800D01*
X14137304Y100871596D01*
G37*
G04 #@! TD.AperFunction*
D13*
X-13502000Y99872800D03*
G04 #@! TA.AperFunction,ComponentPad*
D12*
G36*
X-15377496Y100871596D02*
G01*
X-15353227Y100867996D01*
X-15329429Y100862035D01*
X-15306329Y100853770D01*
X-15284151Y100843280D01*
X-15263107Y100830667D01*
X-15243402Y100816053D01*
X-15225223Y100799577D01*
X-15208747Y100781398D01*
X-15194133Y100761693D01*
X-15181520Y100740649D01*
X-15171030Y100718471D01*
X-15162765Y100695371D01*
X-15156804Y100671573D01*
X-15153204Y100647304D01*
X-15152000Y100622800D01*
X-15152000Y99122800D01*
X-15153204Y99098296D01*
X-15156804Y99074027D01*
X-15162765Y99050229D01*
X-15171030Y99027129D01*
X-15181520Y99004951D01*
X-15194133Y98983907D01*
X-15208747Y98964202D01*
X-15225223Y98946023D01*
X-15243402Y98929547D01*
X-15263107Y98914933D01*
X-15284151Y98902320D01*
X-15306329Y98891830D01*
X-15329429Y98883565D01*
X-15353227Y98877604D01*
X-15377496Y98874004D01*
X-15402000Y98872800D01*
X-16602000Y98872800D01*
X-16626504Y98874004D01*
X-16650773Y98877604D01*
X-16674571Y98883565D01*
X-16697671Y98891830D01*
X-16719849Y98902320D01*
X-16740893Y98914933D01*
X-16760598Y98929547D01*
X-16778777Y98946023D01*
X-16795253Y98964202D01*
X-16809867Y98983907D01*
X-16822480Y99004951D01*
X-16832970Y99027129D01*
X-16841235Y99050229D01*
X-16847196Y99074027D01*
X-16850796Y99098296D01*
X-16852000Y99122800D01*
X-16852000Y100622800D01*
X-16850796Y100647304D01*
X-16847196Y100671573D01*
X-16841235Y100695371D01*
X-16832970Y100718471D01*
X-16822480Y100740649D01*
X-16809867Y100761693D01*
X-16795253Y100781398D01*
X-16778777Y100799577D01*
X-16760598Y100816053D01*
X-16740893Y100830667D01*
X-16719849Y100843280D01*
X-16697671Y100853770D01*
X-16674571Y100862035D01*
X-16650773Y100867996D01*
X-16626504Y100871596D01*
X-16602000Y100872800D01*
X-15402000Y100872800D01*
X-15377496Y100871596D01*
G37*
G04 #@! TD.AperFunction*
D13*
X-43016800Y99872800D03*
G04 #@! TA.AperFunction,ComponentPad*
D12*
G36*
X-44892296Y100871596D02*
G01*
X-44868027Y100867996D01*
X-44844229Y100862035D01*
X-44821129Y100853770D01*
X-44798951Y100843280D01*
X-44777907Y100830667D01*
X-44758202Y100816053D01*
X-44740023Y100799577D01*
X-44723547Y100781398D01*
X-44708933Y100761693D01*
X-44696320Y100740649D01*
X-44685830Y100718471D01*
X-44677565Y100695371D01*
X-44671604Y100671573D01*
X-44668004Y100647304D01*
X-44666800Y100622800D01*
X-44666800Y99122800D01*
X-44668004Y99098296D01*
X-44671604Y99074027D01*
X-44677565Y99050229D01*
X-44685830Y99027129D01*
X-44696320Y99004951D01*
X-44708933Y98983907D01*
X-44723547Y98964202D01*
X-44740023Y98946023D01*
X-44758202Y98929547D01*
X-44777907Y98914933D01*
X-44798951Y98902320D01*
X-44821129Y98891830D01*
X-44844229Y98883565D01*
X-44868027Y98877604D01*
X-44892296Y98874004D01*
X-44916800Y98872800D01*
X-46116800Y98872800D01*
X-46141304Y98874004D01*
X-46165573Y98877604D01*
X-46189371Y98883565D01*
X-46212471Y98891830D01*
X-46234649Y98902320D01*
X-46255693Y98914933D01*
X-46275398Y98929547D01*
X-46293577Y98946023D01*
X-46310053Y98964202D01*
X-46324667Y98983907D01*
X-46337280Y99004951D01*
X-46347770Y99027129D01*
X-46356035Y99050229D01*
X-46361996Y99074027D01*
X-46365596Y99098296D01*
X-46366800Y99122800D01*
X-46366800Y100622800D01*
X-46365596Y100647304D01*
X-46361996Y100671573D01*
X-46356035Y100695371D01*
X-46347770Y100718471D01*
X-46337280Y100740649D01*
X-46324667Y100761693D01*
X-46310053Y100781398D01*
X-46293577Y100799577D01*
X-46275398Y100816053D01*
X-46255693Y100830667D01*
X-46234649Y100843280D01*
X-46212471Y100853770D01*
X-46189371Y100862035D01*
X-46165573Y100867996D01*
X-46141304Y100871596D01*
X-46116800Y100872800D01*
X-44916800Y100872800D01*
X-44892296Y100871596D01*
G37*
G04 #@! TD.AperFunction*
D11*
X-64005504Y89666864D02*
X-63745696Y89516864D01*
G04 #@! TA.AperFunction,ComponentPad*
D12*
G36*
X-65442487Y88569276D02*
G01*
X-65418350Y88564884D01*
X-65394759Y88558148D01*
X-65371942Y88549131D01*
X-65350119Y88537921D01*
X-64051081Y87787921D01*
X-64030462Y87774627D01*
X-64011245Y87759375D01*
X-63993615Y87742313D01*
X-63977743Y87723605D01*
X-63963780Y87703432D01*
X-63951863Y87681987D01*
X-63942105Y87659478D01*
X-63934600Y87636120D01*
X-63929420Y87612139D01*
X-63926616Y87587766D01*
X-63926215Y87563235D01*
X-63928220Y87538783D01*
X-63932612Y87514646D01*
X-63939348Y87491055D01*
X-63948365Y87468238D01*
X-63959575Y87446415D01*
X-64559575Y86407185D01*
X-64572869Y86386566D01*
X-64588121Y86367349D01*
X-64605183Y86349719D01*
X-64623891Y86333847D01*
X-64644064Y86319884D01*
X-64665509Y86307967D01*
X-64688019Y86298209D01*
X-64711376Y86290704D01*
X-64735357Y86285524D01*
X-64759730Y86282720D01*
X-64784261Y86282319D01*
X-64808713Y86284324D01*
X-64832850Y86288716D01*
X-64856441Y86295452D01*
X-64879258Y86304469D01*
X-64901081Y86315679D01*
X-66200119Y87065679D01*
X-66220738Y87078973D01*
X-66239955Y87094225D01*
X-66257585Y87111287D01*
X-66273457Y87129995D01*
X-66287420Y87150168D01*
X-66299337Y87171613D01*
X-66309095Y87194122D01*
X-66316600Y87217480D01*
X-66321780Y87241461D01*
X-66324584Y87265834D01*
X-66324985Y87290365D01*
X-66322980Y87314817D01*
X-66318588Y87338954D01*
X-66311852Y87362545D01*
X-66302835Y87385362D01*
X-66291625Y87407185D01*
X-65691625Y88446415D01*
X-65678331Y88467034D01*
X-65663079Y88486251D01*
X-65646017Y88503881D01*
X-65627309Y88519753D01*
X-65607136Y88533716D01*
X-65585691Y88545633D01*
X-65563181Y88555391D01*
X-65539824Y88562896D01*
X-65515843Y88568076D01*
X-65491470Y88570880D01*
X-65466939Y88571281D01*
X-65442487Y88569276D01*
G37*
G04 #@! TD.AperFunction*
D11*
X-78703604Y64012864D02*
X-78443796Y63862864D01*
G04 #@! TA.AperFunction,ComponentPad*
D12*
G36*
X-80140587Y62915276D02*
G01*
X-80116450Y62910884D01*
X-80092859Y62904148D01*
X-80070042Y62895131D01*
X-80048219Y62883921D01*
X-78749181Y62133921D01*
X-78728562Y62120627D01*
X-78709345Y62105375D01*
X-78691715Y62088313D01*
X-78675843Y62069605D01*
X-78661880Y62049432D01*
X-78649963Y62027987D01*
X-78640205Y62005478D01*
X-78632700Y61982120D01*
X-78627520Y61958139D01*
X-78624716Y61933766D01*
X-78624315Y61909235D01*
X-78626320Y61884783D01*
X-78630712Y61860646D01*
X-78637448Y61837055D01*
X-78646465Y61814238D01*
X-78657675Y61792415D01*
X-79257675Y60753185D01*
X-79270969Y60732566D01*
X-79286221Y60713349D01*
X-79303283Y60695719D01*
X-79321991Y60679847D01*
X-79342164Y60665884D01*
X-79363609Y60653967D01*
X-79386119Y60644209D01*
X-79409476Y60636704D01*
X-79433457Y60631524D01*
X-79457830Y60628720D01*
X-79482361Y60628319D01*
X-79506813Y60630324D01*
X-79530950Y60634716D01*
X-79554541Y60641452D01*
X-79577358Y60650469D01*
X-79599181Y60661679D01*
X-80898219Y61411679D01*
X-80918838Y61424973D01*
X-80938055Y61440225D01*
X-80955685Y61457287D01*
X-80971557Y61475995D01*
X-80985520Y61496168D01*
X-80997437Y61517613D01*
X-81007195Y61540122D01*
X-81014700Y61563480D01*
X-81019880Y61587461D01*
X-81022684Y61611834D01*
X-81023085Y61636365D01*
X-81021080Y61660817D01*
X-81016688Y61684954D01*
X-81009952Y61708545D01*
X-81000935Y61731362D01*
X-80989725Y61753185D01*
X-80389725Y62792415D01*
X-80376431Y62813034D01*
X-80361179Y62832251D01*
X-80344117Y62849881D01*
X-80325409Y62865753D01*
X-80305236Y62879716D01*
X-80283791Y62891633D01*
X-80261281Y62901391D01*
X-80237924Y62908896D01*
X-80213943Y62914076D01*
X-80189570Y62916880D01*
X-80165039Y62917281D01*
X-80140587Y62915276D01*
G37*
G04 #@! TD.AperFunction*
D11*
X-93401804Y38358864D02*
X-93141996Y38208864D01*
G04 #@! TA.AperFunction,ComponentPad*
D12*
G36*
X-94838787Y37261276D02*
G01*
X-94814650Y37256884D01*
X-94791059Y37250148D01*
X-94768242Y37241131D01*
X-94746419Y37229921D01*
X-93447381Y36479921D01*
X-93426762Y36466627D01*
X-93407545Y36451375D01*
X-93389915Y36434313D01*
X-93374043Y36415605D01*
X-93360080Y36395432D01*
X-93348163Y36373987D01*
X-93338405Y36351478D01*
X-93330900Y36328120D01*
X-93325720Y36304139D01*
X-93322916Y36279766D01*
X-93322515Y36255235D01*
X-93324520Y36230783D01*
X-93328912Y36206646D01*
X-93335648Y36183055D01*
X-93344665Y36160238D01*
X-93355875Y36138415D01*
X-93955875Y35099185D01*
X-93969169Y35078566D01*
X-93984421Y35059349D01*
X-94001483Y35041719D01*
X-94020191Y35025847D01*
X-94040364Y35011884D01*
X-94061809Y34999967D01*
X-94084319Y34990209D01*
X-94107676Y34982704D01*
X-94131657Y34977524D01*
X-94156030Y34974720D01*
X-94180561Y34974319D01*
X-94205013Y34976324D01*
X-94229150Y34980716D01*
X-94252741Y34987452D01*
X-94275558Y34996469D01*
X-94297381Y35007679D01*
X-95596419Y35757679D01*
X-95617038Y35770973D01*
X-95636255Y35786225D01*
X-95653885Y35803287D01*
X-95669757Y35821995D01*
X-95683720Y35842168D01*
X-95695637Y35863613D01*
X-95705395Y35886122D01*
X-95712900Y35909480D01*
X-95718080Y35933461D01*
X-95720884Y35957834D01*
X-95721285Y35982365D01*
X-95719280Y36006817D01*
X-95714888Y36030954D01*
X-95708152Y36054545D01*
X-95699135Y36077362D01*
X-95687925Y36099185D01*
X-95087925Y37138415D01*
X-95074631Y37159034D01*
X-95059379Y37178251D01*
X-95042317Y37195881D01*
X-95023609Y37211753D01*
X-95003436Y37225716D01*
X-94981991Y37237633D01*
X-94959481Y37247391D01*
X-94936124Y37254896D01*
X-94912143Y37260076D01*
X-94887770Y37262880D01*
X-94863239Y37263281D01*
X-94838787Y37261276D01*
G37*
G04 #@! TD.AperFunction*
D11*
X-108099904Y12704864D02*
X-107840096Y12554864D01*
G04 #@! TA.AperFunction,ComponentPad*
D12*
G36*
X-109536887Y11607276D02*
G01*
X-109512750Y11602884D01*
X-109489159Y11596148D01*
X-109466342Y11587131D01*
X-109444519Y11575921D01*
X-108145481Y10825921D01*
X-108124862Y10812627D01*
X-108105645Y10797375D01*
X-108088015Y10780313D01*
X-108072143Y10761605D01*
X-108058180Y10741432D01*
X-108046263Y10719987D01*
X-108036505Y10697478D01*
X-108029000Y10674120D01*
X-108023820Y10650139D01*
X-108021016Y10625766D01*
X-108020615Y10601235D01*
X-108022620Y10576783D01*
X-108027012Y10552646D01*
X-108033748Y10529055D01*
X-108042765Y10506238D01*
X-108053975Y10484415D01*
X-108653975Y9445185D01*
X-108667269Y9424566D01*
X-108682521Y9405349D01*
X-108699583Y9387719D01*
X-108718291Y9371847D01*
X-108738464Y9357884D01*
X-108759909Y9345967D01*
X-108782419Y9336209D01*
X-108805776Y9328704D01*
X-108829757Y9323524D01*
X-108854130Y9320720D01*
X-108878661Y9320319D01*
X-108903113Y9322324D01*
X-108927250Y9326716D01*
X-108950841Y9333452D01*
X-108973658Y9342469D01*
X-108995481Y9353679D01*
X-110294519Y10103679D01*
X-110315138Y10116973D01*
X-110334355Y10132225D01*
X-110351985Y10149287D01*
X-110367857Y10167995D01*
X-110381820Y10188168D01*
X-110393737Y10209613D01*
X-110403495Y10232122D01*
X-110411000Y10255480D01*
X-110416180Y10279461D01*
X-110418984Y10303834D01*
X-110419385Y10328365D01*
X-110417380Y10352817D01*
X-110412988Y10376954D01*
X-110406252Y10400545D01*
X-110397235Y10423362D01*
X-110386025Y10445185D01*
X-109786025Y11484415D01*
X-109772731Y11505034D01*
X-109757479Y11524251D01*
X-109740417Y11541881D01*
X-109721709Y11557753D01*
X-109701536Y11571716D01*
X-109680091Y11583633D01*
X-109657581Y11593391D01*
X-109634224Y11600896D01*
X-109610243Y11606076D01*
X-109585870Y11608880D01*
X-109561339Y11609281D01*
X-109536887Y11607276D01*
G37*
G04 #@! TD.AperFunction*
D14*
X-34500000Y-138100000D03*
X-39500000Y-138100000D03*
X-44500000Y-128100000D03*
X-42000000Y-125600000D03*
X-29500000Y-128100000D03*
X-32000000Y-125600000D03*
X-37000000Y-128100000D03*
X-12900000Y-138100000D03*
X-17900000Y-138100000D03*
X-22900000Y-128100000D03*
X-20400000Y-125600000D03*
X-7900000Y-128100000D03*
X-10400000Y-125600000D03*
X-15400000Y-128100000D03*
D15*
X28096800Y-106280000D03*
X28096800Y-98080000D03*
X1400000Y-98080000D03*
X1400000Y-106280000D03*
X-16148400Y-80735000D03*
X-16148400Y-72535000D03*
X45645200Y-72535000D03*
X45645200Y-80735000D03*
D10*
X40145200Y-24145000D03*
X48345200Y-24145000D03*
X-18848400Y-24145000D03*
X-10648400Y-24145000D03*
X4100000Y-52490000D03*
X-4100000Y-52490000D03*
X10648400Y-24145000D03*
X18848400Y-24145000D03*
X-63093700Y103580000D03*
X-54893700Y103580000D03*
X-33596800Y103580000D03*
X-25396800Y103580000D03*
X-4100000Y103580000D03*
X4100000Y103580000D03*
X25396800Y103580000D03*
X33596800Y103580000D03*
X54893700Y103580000D03*
X63093700Y103580000D03*
X-77842100Y78035000D03*
X-69642100Y78035000D03*
X-48345200Y78035000D03*
X-40145200Y78035000D03*
X-18848400Y78035000D03*
X-10648400Y78035000D03*
X10648400Y78035000D03*
X18848400Y78035000D03*
X40145200Y78035000D03*
X48345200Y78035000D03*
X69642100Y78035000D03*
X77842100Y78035000D03*
X-92590500Y52490000D03*
X-84390500Y52490000D03*
X-63093700Y52490000D03*
X-54893700Y52490000D03*
X-33596800Y52490000D03*
X-25396800Y52490000D03*
X-4100000Y52490000D03*
X4100000Y52490000D03*
X25396800Y52490000D03*
X33596800Y52490000D03*
X54893700Y52490000D03*
X63093700Y52490000D03*
X84390500Y52490000D03*
X92590500Y52490000D03*
X-107339000Y26945000D03*
X-99139000Y26945000D03*
X-77842100Y26945000D03*
X-69642100Y26945000D03*
X-48345200Y26945000D03*
X-40145200Y26945000D03*
X-18848400Y26945000D03*
X-10648400Y26945000D03*
X10648400Y26945000D03*
X18848400Y26945000D03*
X40145200Y26945000D03*
X48345200Y26945000D03*
X69642100Y26945000D03*
X77842100Y26945000D03*
X99139000Y26945000D03*
X107339000Y26945000D03*
X-122087000Y1400000D03*
X-113887000Y1400000D03*
X-92590500Y1400000D03*
X-84390500Y1400000D03*
X-63093700Y1400000D03*
X-54893700Y1400000D03*
X-33596800Y1400000D03*
X-25396800Y1400000D03*
X-4100000Y1400000D03*
X4100000Y1400000D03*
X25396800Y1400000D03*
X33596800Y1400000D03*
X54893700Y1400000D03*
X63093700Y1400000D03*
X84390500Y1400000D03*
X92590500Y1400000D03*
X113887000Y1400000D03*
X122087000Y1400000D03*
X-107339000Y-24145000D03*
X-99139000Y-24145000D03*
X-77842100Y-24145000D03*
X-69642100Y-24145000D03*
X-48345200Y-24145000D03*
X-40145200Y-24145000D03*
X69642100Y-24145000D03*
X77842100Y-24145000D03*
X99139000Y-24145000D03*
X107339000Y-24145000D03*
X-92590500Y-49690000D03*
X-84390500Y-49690000D03*
X-63093700Y-49690000D03*
X-54893700Y-49690000D03*
X-33596800Y-49690000D03*
X-25396800Y-49690000D03*
X54893700Y-49690000D03*
X63093700Y-49690000D03*
X84390500Y-49690000D03*
X92590500Y-49690000D03*
X-48345200Y-75235000D03*
X-40145200Y-75235000D03*
X18848400Y-78035000D03*
X10648400Y-78035000D03*
X69642100Y-75235000D03*
X77842100Y-75235000D03*
X-33596800Y-100780000D03*
X-25396800Y-100780000D03*
X54893700Y-100780000D03*
X63093700Y-100780000D03*
D16*
X12020000Y-73873000D03*
X34880000Y-40980000D03*
X34880000Y-43520000D03*
X32340000Y-40980000D03*
X32340000Y-43520000D03*
X29800000Y-40980000D03*
X29800000Y-43520000D03*
X27260000Y-40980000D03*
X27260000Y-43520000D03*
X24720000Y-40980000D03*
X24720000Y-43520000D03*
X22180000Y-40980000D03*
X22180000Y-43520000D03*
X19640000Y-40980000D03*
X19640000Y-43520000D03*
X17100000Y-40980000D03*
X17100000Y-43520000D03*
X14560000Y-40980000D03*
X14560000Y-43520000D03*
X12020000Y-40980000D03*
X12020000Y-43520000D03*
X9480000Y-40980000D03*
X9480000Y-43520000D03*
X6940000Y-40980000D03*
X6940000Y-43520000D03*
X4400000Y-40980000D03*
X4400000Y-43520000D03*
X1860000Y-40980000D03*
X1860000Y-43520000D03*
X-680000Y-40980000D03*
X-680000Y-43520000D03*
X-3220000Y-40980000D03*
X-3220000Y-43520000D03*
X-5760000Y-40980000D03*
X-5760000Y-43520000D03*
X-8300000Y-40980000D03*
X-8300000Y-43520000D03*
X39960000Y-46060000D03*
X39960000Y-48600000D03*
X39960000Y-51140000D03*
X39960000Y-53680000D03*
X39960000Y-56220000D03*
X39960000Y-58760000D03*
X39960000Y-61300000D03*
X39960000Y-63840000D03*
X39960000Y-68920000D03*
X39960000Y-71460000D03*
X39960000Y-74000000D03*
X39960000Y-76540000D03*
X39960000Y-79080000D03*
X39960000Y-81620000D03*
X39960000Y-84160000D03*
X39960000Y-109560000D03*
X-8300000Y-103464000D03*
X-8300000Y-106004000D03*
X-8300000Y-108544000D03*
X-8300000Y-113624000D03*
X-8300000Y-116164000D03*
X-8300000Y-118704000D03*
X-8300000Y-100924000D03*
X-8300000Y-98384000D03*
X-8300000Y-95844000D03*
X-8300000Y-111084000D03*
X-8300000Y-91780000D03*
X-8300000Y-89240000D03*
X-8300000Y-86700000D03*
X-8300000Y-84160000D03*
X-8300000Y-81620000D03*
X-8300000Y-79080000D03*
X-8300000Y-76540000D03*
X-8300000Y-74000000D03*
X-8300000Y-68920000D03*
X-8300000Y-66380000D03*
X-8300000Y-63840000D03*
X-8300000Y-61300000D03*
X-8300000Y-58760000D03*
X-8300000Y-56220000D03*
X-8300000Y-53680000D03*
X-8300000Y-51140000D03*
X39960000Y-107020000D03*
X39960000Y-104480000D03*
X39960000Y-101940000D03*
X39960000Y-99400000D03*
X39960000Y-96860000D03*
X39960000Y-94320000D03*
X39960000Y-91780000D03*
X39960000Y-86700000D03*
X12020000Y-71333000D03*
X14560000Y-73873000D03*
X14560000Y-71333000D03*
X17100000Y-71333000D03*
X17100000Y-73873000D03*
D17*
X-40009800Y-96802100D03*
X34090900Y-25821600D03*
X-46184900Y-79272800D03*
X-32834100Y-37288900D03*
X39864900Y-19705500D03*
X-43623800Y12654800D03*
X55649100Y-84625000D03*
X-42517400Y-81108500D03*
X-40916300Y-88807900D03*
X-38184400Y-96983700D03*
X-3579700Y-119160400D03*
X-36669000Y-92569400D03*
X-33721000Y-121156800D03*
X-39115500Y-88340000D03*
X-32316000Y-81074700D03*
X-16559600Y-120263300D03*
X-42461300Y-111570300D03*
X-10044800Y-50585700D03*
X8844100Y-38868600D03*
X-32948900Y-74422300D03*
X-31272800Y-80361500D03*
X-46468700Y-82770100D03*
X64931100Y-61414300D03*
X-34186300Y5250500D03*
X-45648800Y-4241200D03*
X-36044100Y-117576300D03*
X-25089400Y-118198000D03*
X-29982600Y-115136000D03*
D18*
X-54893700Y103580000D02*
X-54893700Y100301600D01*
X4400000Y-40980000D02*
X4400000Y-39838000D01*
X4400000Y-39838000D02*
X-35361500Y50260700D01*
X-35361500Y50260700D02*
X-44990800Y76547000D01*
X-44990800Y76547000D02*
X-54893700Y100301600D01*
X54893700Y103580000D02*
X53115300Y103580000D01*
X43027600Y99872800D02*
X45063900Y101138500D01*
X45063900Y101138500D02*
X53115300Y103580000D01*
X25396800Y103580000D02*
X23618400Y103580000D01*
X23618400Y103580000D02*
X15549200Y101138500D01*
X15549200Y101138500D02*
X13512800Y99872800D01*
X13512800Y99872800D02*
X18172300Y81323500D01*
X-20704400Y100027700D02*
X-20733400Y100024800D01*
X-20733400Y100024800D02*
X-20737500Y100066000D01*
X-20737500Y100066000D02*
X-21029400Y100037000D01*
X-21029400Y100037000D02*
X-26082500Y100284100D01*
X-26082500Y100284100D02*
X-31818400Y103580000D01*
X-16002000Y99872800D02*
X-20440600Y100053800D01*
X-20440600Y100053800D02*
X-20704400Y100027700D01*
X-20704400Y100027700D02*
X-18848400Y81313400D01*
X-18848400Y78035000D02*
X-20626800Y78035000D01*
X-30734000Y78587600D02*
X-28670600Y77305000D01*
X-28670600Y77305000D02*
X-27836900Y77309100D01*
X-27836900Y77309100D02*
X-20626800Y78035000D01*
X-18848400Y78035000D02*
X-18848400Y81313400D01*
X99139000Y26417100D02*
X96303200Y35283200D01*
X96303200Y35283200D02*
X95791900Y36730000D01*
X95791900Y36730000D02*
X95333800Y37210200D01*
X95333800Y37210200D02*
X95117200Y37348500D01*
X95117200Y37348500D02*
X93268800Y38235500D01*
X99139000Y26417100D02*
X99139000Y23666600D01*
X99139000Y26945000D02*
X99139000Y26417100D01*
X69642100Y78035000D02*
X69642100Y81313400D01*
X69642100Y81313400D02*
X66273700Y87709600D01*
X66273700Y87709600D02*
X65520400Y88462900D01*
X65520400Y88462900D02*
X63703200Y89306400D01*
X-92590500Y52490000D02*
X-90812100Y52490000D01*
X-90812100Y52490000D02*
X-79823700Y61772800D01*
X-107339000Y-24145000D02*
X-107339000Y-20866600D01*
X-107339000Y-20866600D02*
X-107339200Y-20866600D01*
X-107339200Y-20866600D02*
X-120308600Y1400000D01*
X45645200Y-72535000D02*
X48923600Y-72535000D01*
X69642100Y-75235000D02*
X67863700Y-75235000D01*
X67863700Y-75235000D02*
X48923600Y-72535000D01*
X18172300Y81323500D02*
X19535800Y81313300D01*
X19535800Y81313300D02*
X20448900Y81089200D01*
X20448900Y81089200D02*
X28041600Y78587600D01*
X12426800Y78035000D02*
X17258200Y80916000D01*
X17258200Y80916000D02*
X18172300Y81323500D01*
X10648400Y78035000D02*
X12426800Y78035000D01*
X-48345200Y-71956600D02*
X-63093700Y-52968400D01*
X-33596800Y103580000D02*
X-35375200Y103580000D01*
X-45516800Y99872800D02*
X-43480400Y101138600D01*
X-43480400Y101138600D02*
X-35375200Y103580000D01*
X-33596800Y103580000D02*
X-31818400Y103580000D01*
X-48345200Y26945000D02*
X-50123600Y26945000D01*
X-68331400Y11421600D02*
X-63093900Y4678400D01*
X-63093900Y4678400D02*
X-63093700Y4678400D01*
X-50123600Y26945000D02*
X-68329400Y11423100D01*
X-68329400Y11423100D02*
X-68331400Y11421600D01*
X-68331400Y11421600D02*
X-77842100Y23666600D01*
X-77842100Y26945000D02*
X-77842100Y23666600D01*
X-63093700Y1400000D02*
X-63093700Y4678400D01*
X-18848400Y-24145000D02*
X-18848400Y-20866600D01*
X-33596800Y1400000D02*
X-33596800Y-1878400D01*
X-33596800Y-1878400D02*
X-33596600Y-1878400D01*
X-33596600Y-1878400D02*
X-18848400Y-20866600D01*
X-35375200Y-100780000D02*
X-36722500Y-117295400D01*
X-36722500Y-117295400D02*
X-36722500Y-117556200D01*
X-36722500Y-117556200D02*
X-37000000Y-128100000D01*
X-40009800Y-96802100D02*
X-35375200Y-100780000D01*
X-63093700Y103580000D02*
X-63093700Y100301600D01*
X-63093700Y100301600D02*
X-65196100Y90160100D01*
X-65196100Y90160100D02*
X-65196100Y89825700D01*
X-65196100Y89825700D02*
X-65196600Y89822400D01*
X-65196600Y89822400D02*
X-65196100Y89758900D01*
X-65196100Y89758900D02*
X-65196100Y89173700D01*
X-65196100Y89173700D02*
X-65125600Y87426800D01*
X-50123600Y78035000D02*
X-65125600Y87426800D01*
X-48345200Y78035000D02*
X-50123600Y78035000D01*
X-76063700Y78035000D02*
X-65125600Y87426800D01*
X-63093700Y-49690000D02*
X-63093700Y-52968400D01*
X-48345200Y-75235000D02*
X-48345200Y-71956600D01*
X-74730300Y-62248400D02*
X-74730000Y-62248100D01*
X-74730000Y-62248100D02*
X-69864400Y-56198100D01*
X-69864400Y-56198100D02*
X-64872100Y-49690000D01*
X-77842100Y-73595800D02*
X-74730300Y-62248400D01*
X-74730300Y-62248400D02*
X-90812100Y-49690000D01*
X-63093700Y-49690000D02*
X-64872100Y-49690000D01*
X-77842100Y26945000D02*
X-79620500Y26945000D01*
X-79620500Y26945000D02*
X-94521900Y36118800D01*
X-105560600Y26945000D02*
X-94521900Y36118800D01*
X-92590500Y-49690000D02*
X-90812100Y-49690000D01*
X-92590500Y1400000D02*
X-94368900Y1400000D01*
X-94368900Y1400000D02*
X-109220000Y10464800D01*
X-122087000Y1400000D02*
X-120308600Y1400000D01*
X-109220000Y10464800D02*
X-109221100Y10464000D01*
X-109221100Y10464000D02*
X-120308600Y1400000D01*
X84390500Y52490000D02*
X84390500Y55768400D01*
X84390500Y55768400D02*
X81056500Y62174100D01*
X81056500Y62174100D02*
X80303200Y62927400D01*
X80303200Y62927400D02*
X78486000Y63770900D01*
X18979300Y-74588100D02*
X18848400Y-74756600D01*
X33596800Y-55768400D02*
X33596600Y-55768400D01*
X33596600Y-55768400D02*
X18979300Y-74588100D01*
X4100000Y-55768400D02*
X17261400Y-69599100D01*
X17261400Y-69599100D02*
X18230200Y-70858500D01*
X18230200Y-70858500D02*
X18941900Y-74559100D01*
X18941900Y-74559100D02*
X18979300Y-74588100D01*
X4100000Y-52490000D02*
X4100000Y-55768400D01*
X18848400Y-78035000D02*
X18848400Y-74756600D01*
X33596800Y-52490000D02*
X33596800Y-55768400D01*
X-33596800Y-100780000D02*
X-35375200Y-100780000D01*
X-77842100Y-75235000D02*
X-77842100Y-73595800D01*
X69642100Y26945000D02*
X69642100Y23666600D01*
X-77842100Y78035000D02*
X-76063700Y78035000D01*
X-63093700Y52490000D02*
X-64872100Y52490000D01*
X-64872100Y52490000D02*
X-79823700Y61772800D01*
X25396800Y52490000D02*
X25396800Y55768400D01*
X25396800Y55768400D02*
X28041600Y78587600D01*
X-107339000Y26945000D02*
X-105560600Y26945000D01*
X54893700Y1400000D02*
X54893700Y4678400D01*
X69642100Y23666600D02*
X69641900Y23666600D01*
X69641900Y23666600D02*
X54893700Y4678400D01*
X84390500Y1400000D02*
X84390500Y4678400D01*
X84390500Y4678400D02*
X84390700Y4678400D01*
X84390700Y4678400D02*
X99139000Y23666600D01*
X113887000Y1400000D02*
X113887000Y-1878400D01*
X99139000Y-24145000D02*
X99139000Y-20866600D01*
X99139000Y-20866600D02*
X99139200Y-20866600D01*
X99139200Y-20866600D02*
X113887000Y-1878400D01*
X39960000Y-96860000D02*
X41102000Y-96860000D01*
X54893700Y-100780000D02*
X53115300Y-100780000D01*
X53115300Y-100780000D02*
X41102000Y-96860000D01*
X28096800Y-106280000D02*
X28096800Y-104501600D01*
X39960000Y-96860000D02*
X38818000Y-96860000D01*
X38818000Y-96860000D02*
X38818000Y-96860100D01*
X38818000Y-96860100D02*
X28096800Y-104501600D01*
X9480000Y-39838000D02*
X9522500Y-39149600D01*
X9522500Y-39149600D02*
X9522500Y-38587600D01*
X9522500Y-38587600D02*
X1952000Y-861200D01*
X1952000Y-861200D02*
X-12425000Y75849300D01*
X-12425000Y75849300D02*
X-14864600Y100862300D01*
X-14864600Y100862300D02*
X-15813200Y101712200D01*
X-15813200Y101712200D02*
X-17214800Y102722100D01*
X-17214800Y102722100D02*
X-17258500Y102746400D01*
X-17258500Y102746400D02*
X-23618400Y103580000D01*
X-25396800Y103580000D02*
X-23618400Y103580000D01*
X9480000Y-40980000D02*
X9480000Y-39838000D01*
X4100000Y103580000D02*
X4100000Y100301600D01*
X14560000Y-43520000D02*
X14560000Y-42378000D01*
X14560000Y-42378000D02*
X15256900Y-41979400D01*
X15256900Y-41979400D02*
X15702100Y-41454400D01*
X15702100Y-41454400D02*
X15702100Y-40575000D01*
X15702100Y-40575000D02*
X9938200Y11876700D01*
X9938200Y11876700D02*
X8296500Y31459400D01*
X8296500Y31459400D02*
X4100000Y100301600D01*
X33596800Y103580000D02*
X33596800Y100301600D01*
X19640000Y-43520000D02*
X19640000Y-42378000D01*
X19640000Y-42378000D02*
X20064400Y-42173800D01*
X20064400Y-42173800D02*
X20740600Y-41535600D01*
X20740600Y-41535600D02*
X20800100Y-41365100D01*
X20800100Y-41365100D02*
X27211900Y-748100D01*
X27211900Y-748100D02*
X33596800Y100301600D01*
X63093700Y103580000D02*
X63093700Y100301600D01*
X24720000Y-43520000D02*
X24720000Y-42378000D01*
X24720000Y-42378000D02*
X25236600Y-42131600D01*
X25236600Y-42131600D02*
X25803300Y-41602600D01*
X25803300Y-41602600D02*
X25992000Y-41083500D01*
X25992000Y-41083500D02*
X33923200Y-8303000D01*
X33923200Y-8303000D02*
X63093700Y100301600D01*
X4400000Y-42378000D02*
X3819500Y-42096600D01*
X3819500Y-42096600D02*
X3414500Y-41710400D01*
X3414500Y-41710400D02*
X3274100Y-41452600D01*
X3274100Y-41452600D02*
X3267500Y-41434300D01*
X3267500Y-41434300D02*
X2988200Y-40511300D01*
X2988200Y-40511300D02*
X-7205700Y-21638200D01*
X-7205700Y-21638200D02*
X-53146700Y54753000D01*
X-53146700Y54753000D02*
X-53874200Y55779900D01*
X-53874200Y55779900D02*
X-69642100Y74756600D01*
X4400000Y-43520000D02*
X4400000Y-42378000D01*
X-69642100Y78035000D02*
X-69642100Y74756600D01*
X-40145200Y78035000D02*
X-40145200Y74756600D01*
X6940000Y-43520000D02*
X6940000Y-42378000D01*
X6940000Y-42378000D02*
X6361800Y-42097700D01*
X6361800Y-42097700D02*
X5953400Y-41708300D01*
X5953400Y-41708300D02*
X5811700Y-41448100D01*
X5811700Y-41448100D02*
X5531600Y-40522600D01*
X5531600Y-40522600D02*
X-20614100Y24718400D01*
X-20614100Y24718400D02*
X-30242900Y51003300D01*
X-30242900Y51003300D02*
X-40145200Y74756600D01*
X-10648400Y78035000D02*
X-10648400Y74756600D01*
X12020000Y-43520000D02*
X12020000Y-42378000D01*
X12020000Y-42378000D02*
X11502900Y-42131300D01*
X11502900Y-42131300D02*
X10936500Y-41603100D01*
X10936500Y-41603100D02*
X10706400Y-40970000D01*
X10706400Y-40970000D02*
X2324700Y-793000D01*
X2324700Y-793000D02*
X-10648400Y74756600D01*
X18848400Y78035000D02*
X18848400Y74756600D01*
X17100000Y-43520000D02*
X17100000Y-42378000D01*
X17100000Y-42378000D02*
X17769400Y-41995400D01*
X17769400Y-41995400D02*
X18114800Y-41654500D01*
X18114800Y-41654500D02*
X18242100Y-41438300D01*
X18242100Y-41438300D02*
X18242100Y-40018700D01*
X18242100Y-40018700D02*
X17070000Y-27247900D01*
X17070000Y-27247900D02*
X17047400Y-22316600D01*
X17047400Y-22316600D02*
X17101300Y-20945200D01*
X17101300Y-20945200D02*
X20627100Y24782700D01*
X20627100Y24782700D02*
X20626900Y29106600D01*
X20626900Y29106600D02*
X18848400Y74756600D01*
X48345200Y78035000D02*
X48345200Y74756600D01*
X22180000Y-43520000D02*
X22180000Y-42378000D01*
X22180000Y-42378000D02*
X22696900Y-42131400D01*
X22696900Y-42131400D02*
X23263000Y-41603000D01*
X23263000Y-41603000D02*
X23457200Y-41068800D01*
X23457200Y-41068800D02*
X31821800Y3594600D01*
X31821800Y3594600D02*
X48345200Y74756600D01*
X-54893700Y52490000D02*
X-54893700Y49211600D01*
X1860000Y-40980000D02*
X1860000Y-39838000D01*
X1860000Y-39838000D02*
X-7725000Y-21546600D01*
X-7725000Y-21546600D02*
X-38474900Y29343300D01*
X-38474900Y29343300D02*
X-54893700Y49211600D01*
X-84390500Y52490000D02*
X-82612100Y52490000D01*
X-680000Y-43520000D02*
X-680000Y-42378000D01*
X-680000Y-42378000D02*
X-1191800Y-42133600D01*
X-1191800Y-42133600D02*
X-1763600Y-41599600D01*
X-1763600Y-41599600D02*
X-2083200Y-40538800D01*
X-2083200Y-40538800D02*
X-8555200Y-21698000D01*
X-8555200Y-21698000D02*
X-27136900Y-873400D01*
X-27136900Y-873400D02*
X-46605900Y29219700D01*
X-46605900Y29219700D02*
X-46619500Y29234500D01*
X-46619500Y29234500D02*
X-47569200Y30184200D01*
X-47569200Y30184200D02*
X-82612100Y52489900D01*
X-82612100Y52489900D02*
X-82612100Y52490000D01*
X77842100Y78035000D02*
X77842100Y74756600D01*
X34090900Y-25821600D02*
X77842100Y74756600D01*
X18848400Y26945000D02*
X18848400Y23666600D01*
X17100000Y-40980000D02*
X17100000Y-39838000D01*
X17100000Y-39838000D02*
X16691100Y-27256400D01*
X16691100Y-27256400D02*
X16668600Y-22310500D01*
X16668600Y-22310500D02*
X16723100Y-20924000D01*
X16723100Y-20924000D02*
X18848400Y23666600D01*
X48345200Y26945000D02*
X48345200Y23666600D01*
X27260000Y-40980000D02*
X27260000Y-39838000D01*
X27260000Y-39838000D02*
X48345200Y23666600D01*
X-8300000Y-53680000D02*
X-8300000Y-52538000D01*
X77842100Y26945000D02*
X77842100Y23666600D01*
X77842100Y23666600D02*
X62075300Y4691400D01*
X62075300Y4691400D02*
X61347800Y3664500D01*
X61347800Y3664500D02*
X41889800Y-26411500D01*
X41889800Y-26411500D02*
X31215900Y-40498000D01*
X31215900Y-40498000D02*
X30911900Y-41502400D01*
X30911900Y-41502400D02*
X30293400Y-42100700D01*
X30293400Y-42100700D02*
X29277600Y-42408100D01*
X29277600Y-42408100D02*
X28679300Y-43026600D01*
X28679300Y-43026600D02*
X28366900Y-44058800D01*
X28366900Y-44058800D02*
X27752600Y-44640800D01*
X27752600Y-44640800D02*
X27695800Y-44658200D01*
X27695800Y-44658200D02*
X-4849100Y-49222400D01*
X-4849100Y-49222400D02*
X-5824900Y-50199700D01*
X-5824900Y-50199700D02*
X-7831700Y-52335400D01*
X-7831700Y-52335400D02*
X-8300000Y-52538000D01*
X107339000Y26945000D02*
X107339000Y23666600D01*
X39960000Y-51140000D02*
X39960000Y-49998000D01*
X39960000Y-49998000D02*
X40399200Y-49805100D01*
X40399200Y-49805100D02*
X56006500Y-33670100D01*
X56006500Y-33670100D02*
X86124900Y-880000D01*
X86124900Y-880000D02*
X107339000Y23666600D01*
X-9442000Y-51140000D02*
X-9763800Y-51264100D01*
X-9763800Y-51264100D02*
X-10325700Y-51264100D01*
X-10325700Y-51264100D02*
X-32551700Y-36611400D01*
X-32551700Y-36611400D02*
X-37698000Y-33895600D01*
X-37698000Y-33895600D02*
X-49109700Y-27391400D01*
X-49109700Y-27391400D02*
X-49121500Y-27382200D01*
X-49121500Y-27382200D02*
X-51804800Y-25192400D01*
X-51804800Y-25192400D02*
X-82612100Y1400000D01*
X-8300000Y-51140000D02*
X-9442000Y-51140000D01*
X-84390500Y1400000D02*
X-82612100Y1400000D01*
X-54893700Y1400000D02*
X-53115300Y1400000D01*
X-3220000Y-43520000D02*
X-4362000Y-43520000D01*
X-4362000Y-43520000D02*
X-4613700Y-42997200D01*
X-4613700Y-42997200D02*
X-5106900Y-42475400D01*
X-5106900Y-42475400D02*
X-5436700Y-42292800D01*
X-5436700Y-42292800D02*
X-6155400Y-42197600D01*
X-6155400Y-42197600D02*
X-6841100Y-41545800D01*
X-6841100Y-41545800D02*
X-7047300Y-41165700D01*
X-7047300Y-41165700D02*
X-7171300Y-40495600D01*
X-7171300Y-40495600D02*
X-7211700Y-40453100D01*
X-7211700Y-40453100D02*
X-7774300Y-39890500D01*
X-7774300Y-39890500D02*
X-7778900Y-39886300D01*
X-7778900Y-39886300D02*
X-53115300Y1400000D01*
X4100000Y1400000D02*
X4100000Y-1878400D01*
X12020000Y-40980000D02*
X12020000Y-39838000D01*
X12020000Y-39838000D02*
X8873300Y-26339200D01*
X8873300Y-26339200D02*
X4100000Y-1878400D01*
X33596800Y1400000D02*
X33596800Y-1878400D01*
X24720000Y-40980000D02*
X24720000Y-39838000D01*
X24720000Y-39838000D02*
X33596800Y-1878400D01*
X92590500Y1400000D02*
X90812100Y1400000D01*
X39960000Y-53680000D02*
X39960000Y-52538000D01*
X39960000Y-52538000D02*
X40376000Y-52349800D01*
X40376000Y-52349800D02*
X42012800Y-50700800D01*
X42012800Y-50700800D02*
X67915400Y-21856500D01*
X67915400Y-21856500D02*
X68852000Y-20919900D01*
X68852000Y-20919900D02*
X90812100Y1400000D01*
X122087000Y1400000D02*
X122087000Y-1878400D01*
X-46184900Y-79272800D02*
X-41888300Y-72966500D01*
X-41888300Y-72966500D02*
X-41877700Y-72952300D01*
X-41877700Y-72952300D02*
X-40844800Y-71919400D01*
X-40844800Y-71919400D02*
X-39435400Y-71957800D01*
X-39435400Y-71957800D02*
X-39386500Y-71985000D01*
X-39386500Y-71985000D02*
X-9646100Y-92480700D01*
X-9646100Y-92480700D02*
X-8745400Y-92922100D01*
X-8745400Y-92922100D02*
X-7859800Y-92922100D01*
X-7859800Y-92922100D02*
X19598200Y-81291000D01*
X19598200Y-81291000D02*
X19620000Y-81276000D01*
X19620000Y-81276000D02*
X34062300Y-69622800D01*
X34062300Y-69622800D02*
X34068800Y-69617700D01*
X34068800Y-69617700D02*
X40873300Y-64683000D01*
X40873300Y-64683000D02*
X50788400Y-56933400D01*
X50788400Y-56933400D02*
X55678400Y-52920400D01*
X55678400Y-52920400D02*
X62324000Y-46445100D01*
X62324000Y-46445100D02*
X99892300Y-27398200D01*
X99892300Y-27398200D02*
X99917400Y-27381700D01*
X99917400Y-27381700D02*
X100871000Y-26428200D01*
X100871000Y-26428200D02*
X122087000Y-1878400D01*
X-9442000Y-68920000D02*
X-97360600Y-24145000D01*
X-8300000Y-68920000D02*
X-9442000Y-68920000D01*
X-99139000Y-24145000D02*
X-97360600Y-24145000D01*
X-69642100Y-24145000D02*
X-67863700Y-24145000D01*
X-8300000Y-63840000D02*
X-9442000Y-63840000D01*
X-9442000Y-63840000D02*
X-26171800Y-52929700D01*
X-26171800Y-52929700D02*
X-32821900Y-46450100D01*
X-32821900Y-46450100D02*
X-67863700Y-24145000D01*
X-8300000Y-61300000D02*
X-9442000Y-61300000D01*
X-9442000Y-61300000D02*
X-9442000Y-61299900D01*
X-9442000Y-61299900D02*
X-32834100Y-37288900D01*
X-10648400Y-24145000D02*
X-10648400Y-27423400D01*
X-5760000Y-40980000D02*
X-5760000Y-39838000D01*
X-5760000Y-39838000D02*
X-10648400Y-27423400D01*
X18848400Y-24145000D02*
X18848400Y-27423400D01*
X19640000Y-40980000D02*
X19640000Y-39838000D01*
X19640000Y-39838000D02*
X18848400Y-27423400D01*
X48345200Y-24145000D02*
X48345200Y-27423400D01*
X39960000Y-48600000D02*
X39960000Y-47458000D01*
X39960000Y-47458000D02*
X40450900Y-47217200D01*
X40450900Y-47217200D02*
X41047800Y-46652600D01*
X41047800Y-46652600D02*
X48345200Y-27423400D01*
X77842100Y-24145000D02*
X76063700Y-24145000D01*
X39960000Y-63840000D02*
X39960000Y-62698000D01*
X39960000Y-62698000D02*
X40333200Y-62519000D01*
X40333200Y-62519000D02*
X40807500Y-62142800D01*
X40807500Y-62142800D02*
X53160600Y-47408600D01*
X53160600Y-47408600D02*
X53167500Y-47401000D01*
X53167500Y-47401000D02*
X76063700Y-24145000D01*
X107339000Y-24145000D02*
X105560600Y-24145000D01*
X39960000Y-68920000D02*
X41102000Y-68920000D01*
X41102000Y-68920000D02*
X105560600Y-24145000D01*
X-84390500Y-49690000D02*
X-82612100Y-49690000D01*
X-8300000Y-86700000D02*
X-9442000Y-86700000D01*
X-9442000Y-86700000D02*
X-18393000Y-82493300D01*
X-18393000Y-82493300D02*
X-18415300Y-82479600D01*
X-18415300Y-82479600D02*
X-55677100Y-52921600D01*
X-55677100Y-52921600D02*
X-62370600Y-46399700D01*
X-62370600Y-46399700D02*
X-63767700Y-46411600D01*
X-63767700Y-46411600D02*
X-82612100Y-49690000D01*
X-54893700Y-49690000D02*
X-53115300Y-49690000D01*
X-8300000Y-84160000D02*
X-9442000Y-84160000D01*
X-9442000Y-84160000D02*
X-12275500Y-80629100D01*
X-12275500Y-80629100D02*
X-13308400Y-79519400D01*
X-13308400Y-79519400D02*
X-13863900Y-79004700D01*
X-13863900Y-79004700D02*
X-13873000Y-78996800D01*
X-13873000Y-78996800D02*
X-53115300Y-49690000D01*
X-25396800Y-49690000D02*
X-23618400Y-49690000D01*
X-8300000Y-66380000D02*
X-8300000Y-65238000D01*
X-8300000Y-65238000D02*
X-7735700Y-64936100D01*
X-7735700Y-64936100D02*
X-7201900Y-64384400D01*
X-7201900Y-64384400D02*
X-7149300Y-64253900D01*
X-7149300Y-64253900D02*
X-7111700Y-63383500D01*
X-7111700Y-63383500D02*
X-7807200Y-62719100D01*
X-7807200Y-62719100D02*
X-8782500Y-62424000D01*
X-8782500Y-62424000D02*
X-9333000Y-62002100D01*
X-9333000Y-62002100D02*
X-23618400Y-49690000D01*
X-4100000Y-52490000D02*
X-4100000Y-55768400D01*
X-8300000Y-89240000D02*
X-8300000Y-88098000D01*
X-8300000Y-88098000D02*
X-7885300Y-87898400D01*
X-7885300Y-87898400D02*
X-7200300Y-87250900D01*
X-7200300Y-87250900D02*
X-7120500Y-87106600D01*
X-7120500Y-87106600D02*
X-4100000Y-55768400D01*
X39960000Y-71460000D02*
X39960000Y-70318000D01*
X63093700Y-49690000D02*
X61315300Y-49690000D01*
X61315300Y-49690000D02*
X39435900Y-67827900D01*
X39435900Y-67827900D02*
X38868600Y-68396300D01*
X38868600Y-68396300D02*
X38818100Y-68454500D01*
X38818100Y-68454500D02*
X38817900Y-68525100D01*
X38817900Y-68525100D02*
X38817900Y-69362900D01*
X38817900Y-69362900D02*
X38966400Y-69635600D01*
X38966400Y-69635600D02*
X39394500Y-70043800D01*
X39394500Y-70043800D02*
X39960000Y-70318000D01*
X92590500Y-49690000D02*
X90812100Y-49690000D01*
X39960000Y-74000000D02*
X41102000Y-74000000D01*
X41102000Y-74000000D02*
X42062500Y-72194200D01*
X42062500Y-72194200D02*
X42522000Y-71592700D01*
X42522000Y-71592700D02*
X43358300Y-70806900D01*
X43358300Y-70806900D02*
X43380400Y-70786800D01*
X43380400Y-70786800D02*
X64652400Y-60751700D01*
X64652400Y-60751700D02*
X64659100Y-60749000D01*
X64659100Y-60749000D02*
X85121100Y-52954200D01*
X85121100Y-52954200D02*
X85903100Y-52605600D01*
X85903100Y-52605600D02*
X90812100Y-49690000D01*
X-69642100Y-75235000D02*
X-67863700Y-75235000D01*
X-8300000Y-103464000D02*
X-9442000Y-103464000D01*
X-9442000Y-103464000D02*
X-20399900Y-98336200D01*
X-20399900Y-98336200D02*
X-41172000Y-89483200D01*
X-41172000Y-89483200D02*
X-67863700Y-75235000D01*
X-40145200Y-75235000D02*
X-38366800Y-75235000D01*
X-8300000Y-100924000D02*
X-9442000Y-100924000D01*
X-9442000Y-100924000D02*
X-12197600Y-98067000D01*
X-12197600Y-98067000D02*
X-28231600Y-82269600D01*
X-28231600Y-82269600D02*
X-30961100Y-79714900D01*
X-30961100Y-79714900D02*
X-38366800Y-75235000D01*
X63093700Y52490000D02*
X63093700Y49211600D01*
X27260000Y-43520000D02*
X27260000Y-42378000D01*
X27260000Y-42378000D02*
X27838200Y-42097700D01*
X27838200Y-42097700D02*
X28246600Y-41708300D01*
X28246600Y-41708300D02*
X28388300Y-41448100D01*
X28388300Y-41448100D02*
X28394400Y-41428100D01*
X28394400Y-41428100D02*
X28936500Y-39530500D01*
X28936500Y-39530500D02*
X33590700Y-25031000D01*
X33590700Y-25031000D02*
X63093700Y49211600D01*
X92590500Y52490000D02*
X92590500Y49211600D01*
X39864900Y-19705500D02*
X56623900Y-884500D01*
X56623900Y-884500D02*
X56635100Y-871500D01*
X56635100Y-871500D02*
X76096200Y29209500D01*
X76096200Y29209500D02*
X76823700Y30236400D01*
X76823700Y30236400D02*
X92590500Y49211600D01*
X6940000Y-39838000D02*
X-16929200Y28784500D01*
X-16929200Y28784500D02*
X-20137700Y37029200D01*
X-20137700Y37029200D02*
X-25396800Y49211600D01*
X-25396800Y52490000D02*
X-25396800Y49211600D01*
X6940000Y-40980000D02*
X6940000Y-39838000D01*
X4100000Y52490000D02*
X4100000Y49211600D01*
X14560000Y-40980000D02*
X14560000Y-39838000D01*
X14560000Y-39838000D02*
X4100000Y49211600D01*
X33596800Y52490000D02*
X33596800Y49211600D01*
X22180000Y-40980000D02*
X22180000Y-39838000D01*
X22180000Y-39838000D02*
X27588400Y-791400D01*
X27588400Y-791400D02*
X33596800Y49211600D01*
X-99139000Y26945000D02*
X-97360600Y26945000D01*
X-5760000Y-43520000D02*
X-6902000Y-43520000D01*
X-6902000Y-43520000D02*
X-7183400Y-42939500D01*
X-7183400Y-42939500D02*
X-7570600Y-42533500D01*
X-7570600Y-42533500D02*
X-7829500Y-42392400D01*
X-7829500Y-42392400D02*
X-8764300Y-42109500D01*
X-8764300Y-42109500D02*
X-8793000Y-42095400D01*
X-8793000Y-42095400D02*
X-63867800Y-1839000D01*
X-63867800Y-1839000D02*
X-66554700Y353700D01*
X-66554700Y353700D02*
X-97360600Y26945000D01*
X-3220000Y-39838000D02*
X-8889800Y-21892300D01*
X-8889800Y-21892300D02*
X-8918200Y-21860500D01*
X-8918200Y-21860500D02*
X-31867700Y3685800D01*
X-31867700Y3685800D02*
X-33507900Y5531500D01*
X-33507900Y5531500D02*
X-33905300Y5928900D01*
X-33905300Y5928900D02*
X-43623800Y12654800D01*
X-3220000Y-40980000D02*
X-3220000Y-39838000D01*
X1860000Y-42378000D02*
X1279500Y-42096600D01*
X1279500Y-42096600D02*
X874500Y-41710400D01*
X874500Y-41710400D02*
X734100Y-41452600D01*
X734100Y-41452600D02*
X727500Y-41434300D01*
X727500Y-41434300D02*
X450000Y-40517300D01*
X450000Y-40517300D02*
X-8059000Y-21726300D01*
X-8059000Y-21726300D02*
X-23759700Y3853700D01*
X-23759700Y3853700D02*
X-40145200Y23666600D01*
X1860000Y-43520000D02*
X1860000Y-42378000D01*
X-40145200Y26945000D02*
X-40145200Y23666600D01*
X10648400Y-78035000D02*
X8870000Y-78035000D01*
X-8300000Y-91780000D02*
X-7158000Y-91780000D01*
X-7158000Y-91780000D02*
X-7158000Y-91779800D01*
X-7158000Y-91779800D02*
X8870000Y-78035000D01*
X77842100Y-75235000D02*
X76063700Y-75235000D01*
X39960000Y-79080000D02*
X41102000Y-79080000D01*
X41102000Y-79080000D02*
X43482000Y-78956600D01*
X43482000Y-78956600D02*
X70342100Y-78512800D01*
X70342100Y-78512800D02*
X71154000Y-78150900D01*
X71154000Y-78150900D02*
X76063700Y-75235000D01*
X-9442000Y-106004000D02*
X-22939500Y-98410700D01*
X-22939500Y-98410700D02*
X-24659400Y-97518600D01*
X-24659400Y-97518600D02*
X-24692700Y-97505200D01*
X-24692700Y-97505200D02*
X-36010900Y-96354800D01*
X-36010900Y-96354800D02*
X-39728900Y-96123700D01*
X-39728900Y-96123700D02*
X-40290700Y-96123700D01*
X-40290700Y-96123700D02*
X-53115300Y-100780000D01*
X-54893700Y-100780000D02*
X-53115300Y-100780000D01*
X-8300000Y-106004000D02*
X-9442000Y-106004000D01*
X-25396800Y-100780000D02*
X-23618400Y-100780000D01*
X-8300000Y-108544000D02*
X-9442000Y-108544000D01*
X-9442000Y-108544000D02*
X-9442000Y-108543900D01*
X-9442000Y-108543900D02*
X-23618400Y-100780000D01*
X1400000Y-106280000D02*
X1400000Y-104501600D01*
X-8300000Y-95844000D02*
X-8300000Y-96986000D01*
X-8300000Y-96986000D02*
X-7896600Y-97154000D01*
X-7896600Y-97154000D02*
X1400000Y-104501600D01*
X63093700Y-100780000D02*
X61315300Y-100780000D01*
X39960000Y-81620000D02*
X41102000Y-81620000D01*
X41102000Y-81620000D02*
X61315300Y-100780000D01*
X62402400Y-87051900D02*
X61316900Y-86425200D01*
X55649100Y-84625000D02*
X61316800Y-86425300D01*
X61316800Y-86425300D02*
X61316900Y-86425200D01*
X-40916300Y-88807900D02*
X-42517400Y-81108500D01*
X-8014500Y-118704000D02*
X-26180800Y-104011000D01*
X-26180800Y-104011000D02*
X-32834300Y-97528000D01*
X-32834300Y-97528000D02*
X-32894600Y-97504900D01*
X-32894600Y-97504900D02*
X-38184400Y-96983700D01*
X-8014500Y-118704000D02*
X-7729000Y-118704000D01*
X-8300000Y-118704000D02*
X-8014500Y-118704000D01*
X-7729000Y-118704000D02*
X-3579700Y-119160400D01*
X-8300000Y-116164000D02*
X-8300000Y-115022000D01*
X-8300000Y-115022000D02*
X-8825300Y-114767400D01*
X-8825300Y-114767400D02*
X-9314800Y-114300600D01*
X-9314800Y-114300600D02*
X-9484700Y-113988600D01*
X-9484700Y-113988600D02*
X-9436000Y-113115200D01*
X-9436000Y-113115200D02*
X-8792600Y-112503100D01*
X-8792600Y-112503100D02*
X-7799400Y-112202500D01*
X-7799400Y-112202500D02*
X-7208900Y-111608100D01*
X-7208900Y-111608100D02*
X-7157900Y-111550100D01*
X-7157900Y-111550100D02*
X-7157900Y-105498600D01*
X-7157900Y-105498600D02*
X-7807600Y-104883000D01*
X-7807600Y-104883000D02*
X-8762800Y-104593900D01*
X-8762800Y-104593900D02*
X-24551100Y-97148400D01*
X-24551100Y-97148400D02*
X-24558100Y-97145500D01*
X-24558100Y-97145500D02*
X-36669000Y-92569400D01*
X-32000000Y-125600000D02*
X-33721000Y-121156800D01*
X-32316000Y-81074700D02*
X-39115500Y-88340000D01*
X-10400000Y-125600000D02*
X-16559600Y-120263300D01*
X-42000000Y-125600000D02*
X-42461300Y-111570300D01*
X8844100Y-38868600D02*
X8341100Y-40546900D01*
X8341100Y-40546900D02*
X8338700Y-40567200D01*
X8338700Y-40567200D02*
X8072300Y-44050500D01*
X8072300Y-44050500D02*
X7433400Y-44639200D01*
X7433400Y-44639200D02*
X7393900Y-44652600D01*
X7393900Y-44652600D02*
X-9283800Y-50174200D01*
X-9283800Y-50174200D02*
X-10044800Y-50585700D01*
X-8300000Y-113624000D02*
X-7158000Y-113624000D01*
X-7158000Y-113624000D02*
X3659700Y-108030000D01*
X3659700Y-108030000D02*
X39477400Y-80496000D01*
X39477400Y-80496000D02*
X39537300Y-80477900D01*
X39537300Y-80477900D02*
X40401200Y-80477900D01*
X40401200Y-80477900D02*
X40451900Y-80504400D01*
X40451900Y-80504400D02*
X43414000Y-82503300D01*
X43414000Y-82503300D02*
X43459900Y-82511700D01*
X43459900Y-82511700D02*
X55182600Y-83774600D01*
X55182600Y-83774600D02*
X63652400Y-84886800D01*
X94518800Y36070400D02*
X93411700Y35431200D01*
X93411700Y35431200D02*
X93411700Y35431100D01*
X93411700Y35431100D02*
X64828200Y-879600D01*
X64828200Y-879600D02*
X46611000Y-21865000D01*
X46611000Y-21865000D02*
X46604300Y-21873200D01*
X46604300Y-21873200D02*
X33754600Y-40502200D01*
X33754600Y-40502200D02*
X33451900Y-41502400D01*
X33451900Y-41502400D02*
X32833400Y-42100700D01*
X32833400Y-42100700D02*
X31817600Y-42408100D01*
X31817600Y-42408100D02*
X31219300Y-43026600D01*
X31219300Y-43026600D02*
X30900600Y-44079700D01*
X30900600Y-44079700D02*
X30318500Y-44675600D01*
X30318500Y-44675600D02*
X3386600Y-49218100D01*
X3386600Y-49218100D02*
X3334100Y-49241500D01*
X3334100Y-49241500D02*
X3271300Y-49302500D01*
X3271300Y-49302500D02*
X2339000Y-50235800D01*
X2339000Y-50235800D02*
X-7011900Y-89567700D01*
X-7011900Y-89567700D02*
X-7776300Y-90331500D01*
X-7776300Y-90331500D02*
X-7834500Y-90381800D01*
X-7834500Y-90381800D02*
X-7905000Y-90382100D01*
X-7905000Y-90382100D02*
X-8751500Y-90382100D01*
X-8751500Y-90382100D02*
X-32948900Y-74422300D01*
X-31272800Y-80361500D02*
X-42798300Y-80430100D01*
X-42798300Y-80430100D02*
X-46468700Y-82770100D01*
X75743600Y-63611700D02*
X76829100Y-64238400D01*
X61152400Y-89216900D02*
X61716600Y-88239700D01*
X61716600Y-88239700D02*
X61911400Y-88352200D01*
X61911400Y-88352200D02*
X63003900Y-88304900D01*
X63003900Y-88304900D02*
X78622500Y-78471100D01*
X78622500Y-78471100D02*
X79568600Y-77523700D01*
X79568600Y-77523700D02*
X79625900Y-77460200D01*
X79625900Y-77460200D02*
X79620600Y-73036400D01*
X79620600Y-73036400D02*
X76829100Y-64238400D01*
X75743600Y-63611700D02*
X74658100Y-62985000D01*
X64931100Y-61414300D02*
X74658100Y-62985000D01*
X-45648800Y-4241200D02*
X-34186300Y5250500D01*
X-20400000Y-125600000D02*
X-36044100Y-117576300D01*
X-29982600Y-115136000D02*
X-25089400Y-118198000D01*
M02*
