G04 #@! TF.GenerationSoftware,KiCad,Pcbnew,(5.1.5-0-10_14)*
G04 #@! TF.CreationDate,2020-09-17T12:37:13-04:00*
G04 #@! TF.ProjectId,rainboard_newfighter,7261696e-626f-4617-9264-5f6e65776669,rev?*
G04 #@! TF.SameCoordinates,Original*
G04 #@! TF.FileFunction,Legend,Bot*
G04 #@! TF.FilePolarity,Positive*
%FSLAX46Y46*%
G04 Gerber Fmt 4.6, Leading zero omitted, Abs format (unit mm)*
G04 Created by KiCad (PCBNEW (5.1.5-0-10_14)) date 2020-09-17 12:37:13*
%MOMM*%
%LPD*%
G04 APERTURE LIST*
%ADD10C,0.150000*%
%ADD11C,0.120000*%
G04 APERTURE END LIST*
D10*
X19952380Y-131952380D02*
X20285714Y-131476190D01*
X20523809Y-131952380D02*
X20523809Y-130952380D01*
X20142857Y-130952380D01*
X20047619Y-131000000D01*
X20000000Y-131047619D01*
X19952380Y-131142857D01*
X19952380Y-131285714D01*
X20000000Y-131380952D01*
X20047619Y-131428571D01*
X20142857Y-131476190D01*
X20523809Y-131476190D01*
X19095238Y-131952380D02*
X19095238Y-131428571D01*
X19142857Y-131333333D01*
X19238095Y-131285714D01*
X19428571Y-131285714D01*
X19523809Y-131333333D01*
X19095238Y-131904761D02*
X19190476Y-131952380D01*
X19428571Y-131952380D01*
X19523809Y-131904761D01*
X19571428Y-131809523D01*
X19571428Y-131714285D01*
X19523809Y-131619047D01*
X19428571Y-131571428D01*
X19190476Y-131571428D01*
X19095238Y-131523809D01*
X18619047Y-131952380D02*
X18619047Y-131285714D01*
X18619047Y-130952380D02*
X18666666Y-131000000D01*
X18619047Y-131047619D01*
X18571428Y-131000000D01*
X18619047Y-130952380D01*
X18619047Y-131047619D01*
X18142857Y-131285714D02*
X18142857Y-131952380D01*
X18142857Y-131380952D02*
X18095238Y-131333333D01*
X18000000Y-131285714D01*
X17857142Y-131285714D01*
X17761904Y-131333333D01*
X17714285Y-131428571D01*
X17714285Y-131952380D01*
X17238095Y-131952380D02*
X17238095Y-130952380D01*
X17238095Y-131333333D02*
X17142857Y-131285714D01*
X16952380Y-131285714D01*
X16857142Y-131333333D01*
X16809523Y-131380952D01*
X16761904Y-131476190D01*
X16761904Y-131761904D01*
X16809523Y-131857142D01*
X16857142Y-131904761D01*
X16952380Y-131952380D01*
X17142857Y-131952380D01*
X17238095Y-131904761D01*
X16190476Y-131952380D02*
X16285714Y-131904761D01*
X16333333Y-131857142D01*
X16380952Y-131761904D01*
X16380952Y-131476190D01*
X16333333Y-131380952D01*
X16285714Y-131333333D01*
X16190476Y-131285714D01*
X16047619Y-131285714D01*
X15952380Y-131333333D01*
X15904761Y-131380952D01*
X15857142Y-131476190D01*
X15857142Y-131761904D01*
X15904761Y-131857142D01*
X15952380Y-131904761D01*
X16047619Y-131952380D01*
X16190476Y-131952380D01*
X15000000Y-131952380D02*
X15000000Y-131428571D01*
X15047619Y-131333333D01*
X15142857Y-131285714D01*
X15333333Y-131285714D01*
X15428571Y-131333333D01*
X15000000Y-131904761D02*
X15095238Y-131952380D01*
X15333333Y-131952380D01*
X15428571Y-131904761D01*
X15476190Y-131809523D01*
X15476190Y-131714285D01*
X15428571Y-131619047D01*
X15333333Y-131571428D01*
X15095238Y-131571428D01*
X15000000Y-131523809D01*
X14523809Y-131952380D02*
X14523809Y-131285714D01*
X14523809Y-131476190D02*
X14476190Y-131380952D01*
X14428571Y-131333333D01*
X14333333Y-131285714D01*
X14238095Y-131285714D01*
X13476190Y-131952380D02*
X13476190Y-130952380D01*
X13476190Y-131904761D02*
X13571428Y-131952380D01*
X13761904Y-131952380D01*
X13857142Y-131904761D01*
X13904761Y-131857142D01*
X13952380Y-131761904D01*
X13952380Y-131476190D01*
X13904761Y-131380952D01*
X13857142Y-131333333D01*
X13761904Y-131285714D01*
X13571428Y-131285714D01*
X13476190Y-131333333D01*
X12380952Y-130952380D02*
X12047619Y-131952380D01*
X11714285Y-130952380D01*
X11190476Y-130952380D02*
X11095238Y-130952380D01*
X11000000Y-131000000D01*
X10952380Y-131047619D01*
X10904761Y-131142857D01*
X10857142Y-131333333D01*
X10857142Y-131571428D01*
X10904761Y-131761904D01*
X10952380Y-131857142D01*
X11000000Y-131904761D01*
X11095238Y-131952380D01*
X11190476Y-131952380D01*
X11285714Y-131904761D01*
X11333333Y-131857142D01*
X11380952Y-131761904D01*
X11428571Y-131571428D01*
X11428571Y-131333333D01*
X11380952Y-131142857D01*
X11333333Y-131047619D01*
X11285714Y-131000000D01*
X11190476Y-130952380D01*
X10428571Y-131857142D02*
X10380952Y-131904761D01*
X10428571Y-131952380D01*
X10476190Y-131904761D01*
X10428571Y-131857142D01*
X10428571Y-131952380D01*
X10000000Y-131047619D02*
X9952380Y-131000000D01*
X9857142Y-130952380D01*
X9619047Y-130952380D01*
X9523809Y-131000000D01*
X9476190Y-131047619D01*
X9428571Y-131142857D01*
X9428571Y-131238095D01*
X9476190Y-131380952D01*
X10047619Y-131952380D01*
X9428571Y-131952380D01*
D11*
X62695830Y-81043628D02*
X63778362Y-81668628D01*
X62070830Y-82126159D02*
X62695830Y-81043628D01*
X62633970Y-92150773D02*
X64783970Y-88426864D01*
X60079195Y-90675773D02*
X62633970Y-92150773D01*
X59704195Y-91325292D02*
X60079195Y-90675773D01*
X64783970Y-88426864D02*
X66403970Y-85620941D01*
X64379195Y-83227954D02*
X65539669Y-83897954D01*
X64754195Y-82578435D02*
X64379195Y-83227954D01*
X57755638Y-90200292D02*
X58655638Y-88641446D01*
X58405157Y-90575292D02*
X57755638Y-90200292D01*
X59305157Y-89016446D02*
X58405157Y-90575292D01*
X58655638Y-88641446D02*
X59305157Y-89016446D01*
X61905638Y-83012281D02*
X62805638Y-81453435D01*
X62555157Y-83387281D02*
X61905638Y-83012281D01*
X63455157Y-81828435D02*
X62555157Y-83387281D01*
X62805638Y-81453435D02*
X63455157Y-81828435D01*
X59405638Y-87342408D02*
X61155638Y-84311319D01*
X60055157Y-87717408D02*
X59405638Y-87342408D01*
X61805157Y-84686319D02*
X60055157Y-87717408D01*
X61155638Y-84311319D02*
X61805157Y-84686319D01*
X57741978Y-90203952D02*
X62801978Y-81439775D01*
X62912149Y-93188952D02*
X57741978Y-90203952D01*
X67972149Y-84424775D02*
X62912149Y-93188952D01*
X62801978Y-81439775D02*
X67972149Y-84424775D01*
X77287013Y-55438382D02*
X78369545Y-56063382D01*
X76662013Y-56520913D02*
X77287013Y-55438382D01*
X77225153Y-66545527D02*
X79375153Y-62821618D01*
X74670378Y-65070527D02*
X77225153Y-66545527D01*
X74295378Y-65720046D02*
X74670378Y-65070527D01*
X79375153Y-62821618D02*
X80995153Y-60015695D01*
X78970378Y-57622708D02*
X80130852Y-58292708D01*
X79345378Y-56973189D02*
X78970378Y-57622708D01*
X72346821Y-64595046D02*
X73246821Y-63036200D01*
X72996340Y-64970046D02*
X72346821Y-64595046D01*
X73896340Y-63411200D02*
X72996340Y-64970046D01*
X73246821Y-63036200D02*
X73896340Y-63411200D01*
X76496821Y-57407035D02*
X77396821Y-55848189D01*
X77146340Y-57782035D02*
X76496821Y-57407035D01*
X78046340Y-56223189D02*
X77146340Y-57782035D01*
X77396821Y-55848189D02*
X78046340Y-56223189D01*
X73996821Y-61737162D02*
X75746821Y-58706073D01*
X74646340Y-62112162D02*
X73996821Y-61737162D01*
X76396340Y-59081073D02*
X74646340Y-62112162D01*
X75746821Y-58706073D02*
X76396340Y-59081073D01*
X72333161Y-64598706D02*
X77393161Y-55834529D01*
X77503332Y-67583706D02*
X72333161Y-64598706D01*
X82563332Y-58819529D02*
X77503332Y-67583706D01*
X77393161Y-55834529D02*
X82563332Y-58819529D01*
X25191600Y75837600D02*
X25191600Y77087600D01*
X26441600Y75837600D02*
X25191600Y75837600D01*
X32341600Y81337600D02*
X29291600Y81337600D01*
X32341600Y78387600D02*
X32341600Y81337600D01*
X33091600Y78387600D02*
X32341600Y78387600D01*
X29291600Y81337600D02*
X27301600Y81337600D01*
X26241600Y78387600D02*
X26241600Y79727600D01*
X25491600Y78387600D02*
X26241600Y78387600D01*
X33091600Y76137600D02*
X31291600Y76137600D01*
X33091600Y76887600D02*
X33091600Y76137600D01*
X31291600Y76887600D02*
X33091600Y76887600D01*
X31291600Y76137600D02*
X31291600Y76887600D01*
X27291600Y76137600D02*
X25491600Y76137600D01*
X27291600Y76887600D02*
X27291600Y76137600D01*
X25491600Y76887600D02*
X27291600Y76887600D01*
X25491600Y76137600D02*
X25491600Y76887600D01*
X29791600Y76137600D02*
X28791600Y76137600D01*
X29791600Y76887600D02*
X29791600Y76137600D01*
X28791600Y76887600D02*
X29791600Y76887600D01*
X28791600Y76137600D02*
X28791600Y76887600D01*
X33101600Y76127600D02*
X25481600Y76127600D01*
X33101600Y82097600D02*
X33101600Y76127600D01*
X25481600Y82097600D02*
X33101600Y82097600D01*
X25481600Y76127600D02*
X25481600Y82097600D01*
X-33584000Y75837600D02*
X-33584000Y77087600D01*
X-32334000Y75837600D02*
X-33584000Y75837600D01*
X-26434000Y81337600D02*
X-29484000Y81337600D01*
X-26434000Y78387600D02*
X-26434000Y81337600D01*
X-25684000Y78387600D02*
X-26434000Y78387600D01*
X-29484000Y81337600D02*
X-31474000Y81337600D01*
X-32534000Y78387600D02*
X-32534000Y79727600D01*
X-33284000Y78387600D02*
X-32534000Y78387600D01*
X-25684000Y76137600D02*
X-27484000Y76137600D01*
X-25684000Y76887600D02*
X-25684000Y76137600D01*
X-27484000Y76887600D02*
X-25684000Y76887600D01*
X-27484000Y76137600D02*
X-27484000Y76887600D01*
X-31484000Y76137600D02*
X-33284000Y76137600D01*
X-31484000Y76887600D02*
X-31484000Y76137600D01*
X-33284000Y76887600D02*
X-31484000Y76887600D01*
X-33284000Y76137600D02*
X-33284000Y76887600D01*
X-28984000Y76137600D02*
X-29984000Y76137600D01*
X-28984000Y76887600D02*
X-28984000Y76137600D01*
X-29984000Y76887600D02*
X-28984000Y76887600D01*
X-29984000Y76137600D02*
X-29984000Y76887600D01*
X-25674000Y76127600D02*
X-33294000Y76127600D01*
X-25674000Y82097600D02*
X-25674000Y76127600D01*
X-33294000Y82097600D02*
X-25674000Y82097600D01*
X-33294000Y76127600D02*
X-33294000Y82097600D01*
X104245030Y13793172D02*
X105327562Y14418172D01*
X104870030Y12710641D02*
X104245030Y13793172D01*
X112583170Y10351091D02*
X111058170Y12992468D01*
X110028395Y8876091D02*
X112583170Y10351091D01*
X110403395Y8226572D02*
X110028395Y8876091D01*
X111058170Y12992468D02*
X110063170Y14715859D01*
X106978395Y14158846D02*
X108138869Y14828846D01*
X106603395Y14808365D02*
X106978395Y14158846D01*
X108454838Y7101572D02*
X107554838Y8660417D01*
X109104357Y7476572D02*
X108454838Y7101572D01*
X108204357Y9035417D02*
X109104357Y7476572D01*
X107554838Y8660417D02*
X108204357Y9035417D01*
X105554838Y12124519D02*
X104654838Y13683365D01*
X106204357Y12499519D02*
X105554838Y12124519D01*
X105304357Y14058365D02*
X106204357Y12499519D01*
X104654838Y13683365D02*
X105304357Y14058365D01*
X106804838Y9959456D02*
X106304838Y10825481D01*
X107454357Y10334456D02*
X106804838Y9959456D01*
X106954357Y11200481D02*
X107454357Y10334456D01*
X106304838Y10825481D02*
X106954357Y11200481D01*
X108451178Y7087911D02*
X104641178Y13687025D01*
X113621349Y10072911D02*
X108451178Y7087911D01*
X109811349Y16672025D02*
X113621349Y10072911D01*
X104641178Y13687025D02*
X109811349Y16672025D01*
X89462230Y39328640D02*
X90544762Y39953640D01*
X90087230Y38246109D02*
X89462230Y39328640D01*
X97800370Y35886559D02*
X96275370Y38527936D01*
X95245595Y34411559D02*
X97800370Y35886559D01*
X95620595Y33762040D02*
X95245595Y34411559D01*
X96275370Y38527936D02*
X95280370Y40251327D01*
X92195595Y39694314D02*
X93356069Y40364314D01*
X91820595Y40343833D02*
X92195595Y39694314D01*
X93672038Y32637040D02*
X92772038Y34195885D01*
X94321557Y33012040D02*
X93672038Y32637040D01*
X93421557Y34570885D02*
X94321557Y33012040D01*
X92772038Y34195885D02*
X93421557Y34570885D01*
X90772038Y37659987D02*
X89872038Y39218833D01*
X91421557Y38034987D02*
X90772038Y37659987D01*
X90521557Y39593833D02*
X91421557Y38034987D01*
X89872038Y39218833D02*
X90521557Y39593833D01*
X92022038Y35494924D02*
X91522038Y36360949D01*
X92671557Y35869924D02*
X92022038Y35494924D01*
X92171557Y36735949D02*
X92671557Y35869924D01*
X91522038Y36360949D02*
X92171557Y36735949D01*
X93668378Y32623379D02*
X89858378Y39222493D01*
X98838549Y35608379D02*
X93668378Y32623379D01*
X95028549Y42207493D02*
X98838549Y35608379D01*
X89858378Y39222493D02*
X95028549Y42207493D01*
X74679430Y64864106D02*
X75761962Y65489106D01*
X75304430Y63781575D02*
X74679430Y64864106D01*
X83017570Y61422025D02*
X81492570Y64063402D01*
X80462795Y59947025D02*
X83017570Y61422025D01*
X80837795Y59297506D02*
X80462795Y59947025D01*
X81492570Y64063402D02*
X80497570Y65786793D01*
X77412795Y65229780D02*
X78573269Y65899780D01*
X77037795Y65879299D02*
X77412795Y65229780D01*
X78889238Y58172506D02*
X77989238Y59731351D01*
X79538757Y58547506D02*
X78889238Y58172506D01*
X78638757Y60106351D02*
X79538757Y58547506D01*
X77989238Y59731351D02*
X78638757Y60106351D01*
X75989238Y63195453D02*
X75089238Y64754299D01*
X76638757Y63570453D02*
X75989238Y63195453D01*
X75738757Y65129299D02*
X76638757Y63570453D01*
X75089238Y64754299D02*
X75738757Y65129299D01*
X77239238Y61030390D02*
X76739238Y61896415D01*
X77888757Y61405390D02*
X77239238Y61030390D01*
X77388757Y62271415D02*
X77888757Y61405390D01*
X76739238Y61896415D02*
X77388757Y62271415D01*
X78885578Y58158845D02*
X75075578Y64757959D01*
X84055749Y61143845D02*
X78885578Y58158845D01*
X80245749Y67742959D02*
X84055749Y61143845D01*
X75075578Y64757959D02*
X80245749Y67742959D01*
X59896630Y90399572D02*
X60979162Y91024572D01*
X60521630Y89317041D02*
X59896630Y90399572D01*
X68234770Y86957491D02*
X66709770Y89598868D01*
X65679995Y85482491D02*
X68234770Y86957491D01*
X66054995Y84832972D02*
X65679995Y85482491D01*
X66709770Y89598868D02*
X65714770Y91322259D01*
X62629995Y90765246D02*
X63790469Y91435246D01*
X62254995Y91414765D02*
X62629995Y90765246D01*
X64106438Y83707972D02*
X63206438Y85266817D01*
X64755957Y84082972D02*
X64106438Y83707972D01*
X63855957Y85641817D02*
X64755957Y84082972D01*
X63206438Y85266817D02*
X63855957Y85641817D01*
X61206438Y88730919D02*
X60306438Y90289765D01*
X61855957Y89105919D02*
X61206438Y88730919D01*
X60955957Y90664765D02*
X61855957Y89105919D01*
X60306438Y90289765D02*
X60955957Y90664765D01*
X62456438Y86565856D02*
X61956438Y87431881D01*
X63105957Y86940856D02*
X62456438Y86565856D01*
X62605957Y87806881D02*
X63105957Y86940856D01*
X61956438Y87431881D02*
X62605957Y87806881D01*
X64102778Y83694311D02*
X60292778Y90293425D01*
X69272949Y86679311D02*
X64102778Y83694311D01*
X65462949Y93278425D02*
X69272949Y86679311D01*
X60292778Y90293425D02*
X65462949Y93278425D01*
X40177600Y97122800D02*
X40177600Y98372800D01*
X41427600Y97122800D02*
X40177600Y97122800D01*
X47327600Y102622800D02*
X44277600Y102622800D01*
X47327600Y99672800D02*
X47327600Y102622800D01*
X48077600Y99672800D02*
X47327600Y99672800D01*
X44277600Y102622800D02*
X42287600Y102622800D01*
X41227600Y99672800D02*
X41227600Y101012800D01*
X40477600Y99672800D02*
X41227600Y99672800D01*
X48077600Y97422800D02*
X46277600Y97422800D01*
X48077600Y98172800D02*
X48077600Y97422800D01*
X46277600Y98172800D02*
X48077600Y98172800D01*
X46277600Y97422800D02*
X46277600Y98172800D01*
X42277600Y97422800D02*
X40477600Y97422800D01*
X42277600Y98172800D02*
X42277600Y97422800D01*
X40477600Y98172800D02*
X42277600Y98172800D01*
X40477600Y97422800D02*
X40477600Y98172800D01*
X44777600Y97422800D02*
X43777600Y97422800D01*
X44777600Y98172800D02*
X44777600Y97422800D01*
X43777600Y98172800D02*
X44777600Y98172800D01*
X43777600Y97422800D02*
X43777600Y98172800D01*
X48087600Y97412800D02*
X40467600Y97412800D01*
X48087600Y103382800D02*
X48087600Y97412800D01*
X40467600Y103382800D02*
X48087600Y103382800D01*
X40467600Y97412800D02*
X40467600Y103382800D01*
X10662800Y97122800D02*
X10662800Y98372800D01*
X11912800Y97122800D02*
X10662800Y97122800D01*
X17812800Y102622800D02*
X14762800Y102622800D01*
X17812800Y99672800D02*
X17812800Y102622800D01*
X18562800Y99672800D02*
X17812800Y99672800D01*
X14762800Y102622800D02*
X12772800Y102622800D01*
X11712800Y99672800D02*
X11712800Y101012800D01*
X10962800Y99672800D02*
X11712800Y99672800D01*
X18562800Y97422800D02*
X16762800Y97422800D01*
X18562800Y98172800D02*
X18562800Y97422800D01*
X16762800Y98172800D02*
X18562800Y98172800D01*
X16762800Y97422800D02*
X16762800Y98172800D01*
X12762800Y97422800D02*
X10962800Y97422800D01*
X12762800Y98172800D02*
X12762800Y97422800D01*
X10962800Y98172800D02*
X12762800Y98172800D01*
X10962800Y97422800D02*
X10962800Y98172800D01*
X15262800Y97422800D02*
X14262800Y97422800D01*
X15262800Y98172800D02*
X15262800Y97422800D01*
X14262800Y98172800D02*
X15262800Y98172800D01*
X14262800Y97422800D02*
X14262800Y98172800D01*
X18572800Y97412800D02*
X10952800Y97412800D01*
X18572800Y103382800D02*
X18572800Y97412800D01*
X10952800Y103382800D02*
X18572800Y103382800D01*
X10952800Y97412800D02*
X10952800Y103382800D01*
X-18852000Y97122800D02*
X-18852000Y98372800D01*
X-17602000Y97122800D02*
X-18852000Y97122800D01*
X-11702000Y102622800D02*
X-14752000Y102622800D01*
X-11702000Y99672800D02*
X-11702000Y102622800D01*
X-10952000Y99672800D02*
X-11702000Y99672800D01*
X-14752000Y102622800D02*
X-16742000Y102622800D01*
X-17802000Y99672800D02*
X-17802000Y101012800D01*
X-18552000Y99672800D02*
X-17802000Y99672800D01*
X-10952000Y97422800D02*
X-12752000Y97422800D01*
X-10952000Y98172800D02*
X-10952000Y97422800D01*
X-12752000Y98172800D02*
X-10952000Y98172800D01*
X-12752000Y97422800D02*
X-12752000Y98172800D01*
X-16752000Y97422800D02*
X-18552000Y97422800D01*
X-16752000Y98172800D02*
X-16752000Y97422800D01*
X-18552000Y98172800D02*
X-16752000Y98172800D01*
X-18552000Y97422800D02*
X-18552000Y98172800D01*
X-14252000Y97422800D02*
X-15252000Y97422800D01*
X-14252000Y98172800D02*
X-14252000Y97422800D01*
X-15252000Y98172800D02*
X-14252000Y98172800D01*
X-15252000Y97422800D02*
X-15252000Y98172800D01*
X-10942000Y97412800D02*
X-18562000Y97412800D01*
X-10942000Y103382800D02*
X-10942000Y97412800D01*
X-18562000Y103382800D02*
X-10942000Y103382800D01*
X-18562000Y97412800D02*
X-18562000Y103382800D01*
X-48366800Y97122800D02*
X-48366800Y98372800D01*
X-47116800Y97122800D02*
X-48366800Y97122800D01*
X-41216800Y102622800D02*
X-44266800Y102622800D01*
X-41216800Y99672800D02*
X-41216800Y102622800D01*
X-40466800Y99672800D02*
X-41216800Y99672800D01*
X-44266800Y102622800D02*
X-46256800Y102622800D01*
X-47316800Y99672800D02*
X-47316800Y101012800D01*
X-48066800Y99672800D02*
X-47316800Y99672800D01*
X-40466800Y97422800D02*
X-42266800Y97422800D01*
X-40466800Y98172800D02*
X-40466800Y97422800D01*
X-42266800Y98172800D02*
X-40466800Y98172800D01*
X-42266800Y97422800D02*
X-42266800Y98172800D01*
X-46266800Y97422800D02*
X-48066800Y97422800D01*
X-46266800Y98172800D02*
X-46266800Y97422800D01*
X-48066800Y98172800D02*
X-46266800Y98172800D01*
X-48066800Y97422800D02*
X-48066800Y98172800D01*
X-43766800Y97422800D02*
X-44766800Y97422800D01*
X-43766800Y98172800D02*
X-43766800Y97422800D01*
X-44766800Y98172800D02*
X-43766800Y98172800D01*
X-44766800Y97422800D02*
X-44766800Y98172800D01*
X-40456800Y97412800D02*
X-48076800Y97412800D01*
X-40456800Y103382800D02*
X-40456800Y97412800D01*
X-48076800Y103382800D02*
X-40456800Y103382800D01*
X-48076800Y97412800D02*
X-48076800Y103382800D01*
X-64169031Y83583628D02*
X-65251563Y84208628D01*
X-63544031Y84666159D02*
X-64169031Y83583628D01*
X-65357171Y92525709D02*
X-66882171Y89884332D01*
X-62802396Y91050709D02*
X-65357171Y92525709D01*
X-62427396Y91700228D02*
X-62802396Y91050709D01*
X-66882171Y89884332D02*
X-67877171Y88160941D01*
X-65852396Y85767954D02*
X-67012870Y86437954D01*
X-66227396Y85118435D02*
X-65852396Y85767954D01*
X-60478839Y90575228D02*
X-61378839Y89016383D01*
X-61128358Y90950228D02*
X-60478839Y90575228D01*
X-62028358Y89391383D02*
X-61128358Y90950228D01*
X-61378839Y89016383D02*
X-62028358Y89391383D01*
X-63378839Y85552281D02*
X-64278839Y83993435D01*
X-64028358Y85927281D02*
X-63378839Y85552281D01*
X-64928358Y84368435D02*
X-64028358Y85927281D01*
X-64278839Y83993435D02*
X-64928358Y84368435D01*
X-62128839Y87717344D02*
X-62628839Y86851319D01*
X-62778358Y88092344D02*
X-62128839Y87717344D01*
X-63278358Y87226319D02*
X-62778358Y88092344D01*
X-62628839Y86851319D02*
X-63278358Y87226319D01*
X-60465179Y90578889D02*
X-64275179Y83979775D01*
X-65635350Y93563889D02*
X-60465179Y90578889D01*
X-69445350Y86964775D02*
X-65635350Y93563889D01*
X-64275179Y83979775D02*
X-69445350Y86964775D01*
X-78867164Y57929628D02*
X-79949696Y58554628D01*
X-78242164Y59012159D02*
X-78867164Y57929628D01*
X-80055304Y66871709D02*
X-81580304Y64230332D01*
X-77500529Y65396709D02*
X-80055304Y66871709D01*
X-77125529Y66046228D02*
X-77500529Y65396709D01*
X-81580304Y64230332D02*
X-82575304Y62506941D01*
X-80550529Y60113954D02*
X-81711003Y60783954D01*
X-80925529Y59464435D02*
X-80550529Y60113954D01*
X-75176972Y64921228D02*
X-76076972Y63362383D01*
X-75826491Y65296228D02*
X-75176972Y64921228D01*
X-76726491Y63737383D02*
X-75826491Y65296228D01*
X-76076972Y63362383D02*
X-76726491Y63737383D01*
X-78076972Y59898281D02*
X-78976972Y58339435D01*
X-78726491Y60273281D02*
X-78076972Y59898281D01*
X-79626491Y58714435D02*
X-78726491Y60273281D01*
X-78976972Y58339435D02*
X-79626491Y58714435D01*
X-76826972Y62063344D02*
X-77326972Y61197319D01*
X-77476491Y62438344D02*
X-76826972Y62063344D01*
X-77976491Y61572319D02*
X-77476491Y62438344D01*
X-77326972Y61197319D02*
X-77976491Y61572319D01*
X-75163312Y64924889D02*
X-78973312Y58325775D01*
X-80333483Y67909889D02*
X-75163312Y64924889D01*
X-84143483Y61310775D02*
X-80333483Y67909889D01*
X-78973312Y58325775D02*
X-84143483Y61310775D01*
X-93565297Y32275628D02*
X-94647829Y32900628D01*
X-92940297Y33358159D02*
X-93565297Y32275628D01*
X-94753437Y41217709D02*
X-96278437Y38576332D01*
X-92198662Y39742709D02*
X-94753437Y41217709D01*
X-91823662Y40392228D02*
X-92198662Y39742709D01*
X-96278437Y38576332D02*
X-97273437Y36852941D01*
X-95248662Y34459954D02*
X-96409136Y35129954D01*
X-95623662Y33810435D02*
X-95248662Y34459954D01*
X-89875105Y39267228D02*
X-90775105Y37708383D01*
X-90524624Y39642228D02*
X-89875105Y39267228D01*
X-91424624Y38083383D02*
X-90524624Y39642228D01*
X-90775105Y37708383D02*
X-91424624Y38083383D01*
X-92775105Y34244281D02*
X-93675105Y32685435D01*
X-93424624Y34619281D02*
X-92775105Y34244281D01*
X-94324624Y33060435D02*
X-93424624Y34619281D01*
X-93675105Y32685435D02*
X-94324624Y33060435D01*
X-91525105Y36409344D02*
X-92025105Y35543319D01*
X-92174624Y36784344D02*
X-91525105Y36409344D01*
X-92674624Y35918319D02*
X-92174624Y36784344D01*
X-92025105Y35543319D02*
X-92674624Y35918319D01*
X-89861445Y39270889D02*
X-93671445Y32671775D01*
X-95031616Y42255889D02*
X-89861445Y39270889D01*
X-98841616Y35656775D02*
X-95031616Y42255889D01*
X-93671445Y32671775D02*
X-98841616Y35656775D01*
X-108263430Y6621628D02*
X-109345962Y7246628D01*
X-107638430Y7704159D02*
X-108263430Y6621628D01*
X-109451570Y15563709D02*
X-110976570Y12922332D01*
X-106896795Y14088709D02*
X-109451570Y15563709D01*
X-106521795Y14738228D02*
X-106896795Y14088709D01*
X-110976570Y12922332D02*
X-111971570Y11198941D01*
X-109946795Y8805954D02*
X-111107269Y9475954D01*
X-110321795Y8156435D02*
X-109946795Y8805954D01*
X-104573238Y13613228D02*
X-105473238Y12054383D01*
X-105222757Y13988228D02*
X-104573238Y13613228D01*
X-106122757Y12429383D02*
X-105222757Y13988228D01*
X-105473238Y12054383D02*
X-106122757Y12429383D01*
X-107473238Y8590281D02*
X-108373238Y7031435D01*
X-108122757Y8965281D02*
X-107473238Y8590281D01*
X-109022757Y7406435D02*
X-108122757Y8965281D01*
X-108373238Y7031435D02*
X-109022757Y7406435D01*
X-106223238Y10755344D02*
X-106723238Y9889319D01*
X-106872757Y11130344D02*
X-106223238Y10755344D01*
X-107372757Y10264319D02*
X-106872757Y11130344D01*
X-106723238Y9889319D02*
X-107372757Y10264319D01*
X-104559578Y13616889D02*
X-108369578Y7017775D01*
X-109729749Y16601889D02*
X-104559578Y13616889D01*
X-113539749Y10002775D02*
X-109729749Y16601889D01*
X-108369578Y7017775D02*
X-113539749Y10002775D01*
D10*
X59258519Y-84301986D02*
X59877109Y-84659129D01*
X60024636Y-84689318D01*
X60154734Y-84654458D01*
X60267402Y-84554550D01*
X60315021Y-84472071D01*
X59624545Y-85668011D02*
X59910259Y-85173140D01*
X59767402Y-85420575D02*
X58901377Y-84920575D01*
X59072714Y-84909525D01*
X59202811Y-84874666D01*
X59291670Y-84815997D01*
X58448996Y-85704122D02*
X58401377Y-85786601D01*
X58394997Y-85892889D01*
X58412427Y-85957938D01*
X58471096Y-86046796D01*
X58612243Y-86183273D01*
X58818440Y-86302321D01*
X59007207Y-86356320D01*
X59113495Y-86362700D01*
X59178544Y-86345270D01*
X59267402Y-86286601D01*
X59315021Y-86204122D01*
X59321401Y-86097834D01*
X59303971Y-86032785D01*
X59245302Y-85943927D01*
X59104154Y-85807449D01*
X58897958Y-85688402D01*
X58709191Y-85634403D01*
X58602903Y-85628023D01*
X58537854Y-85645453D01*
X58448996Y-85704122D01*
X73611607Y-59109133D02*
X74230197Y-59466276D01*
X74377724Y-59496465D01*
X74507822Y-59461605D01*
X74620490Y-59361697D01*
X74668109Y-59279218D01*
X74215728Y-60062765D02*
X74120490Y-60227722D01*
X74031631Y-60286392D01*
X73966583Y-60303821D01*
X73795246Y-60314871D01*
X73606479Y-60260873D01*
X73276564Y-60070396D01*
X73217895Y-59981538D01*
X73200466Y-59916489D01*
X73206845Y-59810201D01*
X73302083Y-59645244D01*
X73390942Y-59586575D01*
X73455991Y-59569145D01*
X73562279Y-59575525D01*
X73768475Y-59694572D01*
X73827144Y-59783431D01*
X73844574Y-59848479D01*
X73838194Y-59954768D01*
X73742956Y-60119725D01*
X73654098Y-60178394D01*
X73589049Y-60195824D01*
X73482761Y-60189444D01*
X30101123Y75585219D02*
X30101123Y74870933D01*
X30148742Y74728076D01*
X30243980Y74632838D01*
X30386838Y74585219D01*
X30482076Y74585219D01*
X29101123Y74585219D02*
X29672552Y74585219D01*
X29386838Y74585219D02*
X29386838Y75585219D01*
X29482076Y75442361D01*
X29577314Y75347123D01*
X29672552Y75299504D01*
X28529695Y75156647D02*
X28624933Y75204266D01*
X28672552Y75251885D01*
X28720171Y75347123D01*
X28720171Y75394742D01*
X28672552Y75489980D01*
X28624933Y75537600D01*
X28529695Y75585219D01*
X28339219Y75585219D01*
X28243980Y75537600D01*
X28196361Y75489980D01*
X28148742Y75394742D01*
X28148742Y75347123D01*
X28196361Y75251885D01*
X28243980Y75204266D01*
X28339219Y75156647D01*
X28529695Y75156647D01*
X28624933Y75109028D01*
X28672552Y75061409D01*
X28720171Y74966171D01*
X28720171Y74775695D01*
X28672552Y74680457D01*
X28624933Y74632838D01*
X28529695Y74585219D01*
X28339219Y74585219D01*
X28243980Y74632838D01*
X28196361Y74680457D01*
X28148742Y74775695D01*
X28148742Y74966171D01*
X28196361Y75061409D01*
X28243980Y75109028D01*
X28339219Y75156647D01*
X-28674476Y75585219D02*
X-28674476Y74870933D01*
X-28626857Y74728076D01*
X-28531619Y74632838D01*
X-28388761Y74585219D01*
X-28293523Y74585219D01*
X-29674476Y74585219D02*
X-29103047Y74585219D01*
X-29388761Y74585219D02*
X-29388761Y75585219D01*
X-29293523Y75442361D01*
X-29198285Y75347123D01*
X-29103047Y75299504D01*
X-30007809Y75585219D02*
X-30674476Y75585219D01*
X-30245904Y74585219D01*
X106481223Y9415209D02*
X105862634Y9058066D01*
X105762725Y8945398D01*
X105727866Y8815300D01*
X105758055Y8667773D01*
X105805674Y8585294D01*
X105115198Y9781234D02*
X105400912Y9286363D01*
X105258055Y9533798D02*
X106124081Y10033798D01*
X106047982Y9879891D01*
X106013122Y9749794D01*
X106019502Y9643505D01*
X105552652Y11023542D02*
X105647890Y10858585D01*
X105654270Y10752296D01*
X105636840Y10687248D01*
X105560741Y10533340D01*
X105419593Y10396863D01*
X105089679Y10206387D01*
X104983391Y10200007D01*
X104918342Y10217437D01*
X104829484Y10276106D01*
X104734246Y10441063D01*
X104727866Y10547351D01*
X104745296Y10612400D01*
X104803965Y10701258D01*
X105010161Y10820306D01*
X105116449Y10826686D01*
X105181498Y10809256D01*
X105270357Y10750587D01*
X105365595Y10585630D01*
X105371974Y10479342D01*
X105354545Y10414293D01*
X105295876Y10325434D01*
X91698423Y34950677D02*
X91079834Y34593534D01*
X90979925Y34480866D01*
X90945066Y34350768D01*
X90975255Y34203241D01*
X91022874Y34120762D01*
X90332398Y35316702D02*
X90618112Y34821831D01*
X90475255Y35069266D02*
X91341281Y35569266D01*
X91265182Y35415359D01*
X91230322Y35285262D01*
X91236702Y35178973D01*
X90746042Y36600249D02*
X90984138Y36187856D01*
X90595554Y35908521D01*
X90612984Y35973570D01*
X90606604Y36079858D01*
X90487557Y36286055D01*
X90398698Y36344724D01*
X90333649Y36362154D01*
X90227361Y36355774D01*
X90021165Y36236726D01*
X89962496Y36147868D01*
X89945066Y36082819D01*
X89951446Y35976531D01*
X90070493Y35770335D01*
X90159352Y35711666D01*
X90224400Y35694236D01*
X76915623Y60486143D02*
X76297034Y60129000D01*
X76197125Y60016332D01*
X76162266Y59886234D01*
X76192455Y59738707D01*
X76240074Y59656228D01*
X75549598Y60852168D02*
X75835312Y60357297D01*
X75692455Y60604732D02*
X76558481Y61104732D01*
X76482382Y60950825D01*
X76447522Y60820728D01*
X76453902Y60714439D01*
X75698377Y61927809D02*
X75121027Y61594476D01*
X76147339Y61912089D02*
X75647797Y61348749D01*
X75338273Y61884860D01*
X62132823Y86021609D02*
X61514234Y85664466D01*
X61414325Y85551798D01*
X61379466Y85421700D01*
X61409655Y85274173D01*
X61457274Y85191694D01*
X60766798Y86387634D02*
X61052512Y85892763D01*
X60909655Y86140198D02*
X61775681Y86640198D01*
X61699582Y86486291D01*
X61664722Y86356194D01*
X61671102Y86249905D01*
X61466157Y87176309D02*
X61156633Y87712420D01*
X60993385Y87233269D01*
X60921957Y87356987D01*
X60833098Y87415656D01*
X60768049Y87433086D01*
X60661761Y87426706D01*
X60455565Y87307658D01*
X60396896Y87218800D01*
X60379466Y87153751D01*
X60385846Y87047463D01*
X60528703Y86800027D01*
X60617561Y86741358D01*
X60682610Y86723928D01*
X44610933Y96870419D02*
X44610933Y96156133D01*
X44658552Y96013276D01*
X44753790Y95918038D01*
X44896647Y95870419D01*
X44991885Y95870419D01*
X43991885Y96441847D02*
X44087123Y96489466D01*
X44134742Y96537085D01*
X44182361Y96632323D01*
X44182361Y96679942D01*
X44134742Y96775180D01*
X44087123Y96822800D01*
X43991885Y96870419D01*
X43801409Y96870419D01*
X43706171Y96822800D01*
X43658552Y96775180D01*
X43610933Y96679942D01*
X43610933Y96632323D01*
X43658552Y96537085D01*
X43706171Y96489466D01*
X43801409Y96441847D01*
X43991885Y96441847D01*
X44087123Y96394228D01*
X44134742Y96346609D01*
X44182361Y96251371D01*
X44182361Y96060895D01*
X44134742Y95965657D01*
X44087123Y95918038D01*
X43991885Y95870419D01*
X43801409Y95870419D01*
X43706171Y95918038D01*
X43658552Y95965657D01*
X43610933Y96060895D01*
X43610933Y96251371D01*
X43658552Y96346609D01*
X43706171Y96394228D01*
X43801409Y96441847D01*
X15096133Y96870419D02*
X15096133Y96156133D01*
X15143752Y96013276D01*
X15238990Y95918038D01*
X15381847Y95870419D01*
X15477085Y95870419D01*
X14715180Y96870419D02*
X14048514Y96870419D01*
X14477085Y95870419D01*
X-14418666Y96870419D02*
X-14418666Y96156133D01*
X-14371047Y96013276D01*
X-14275809Y95918038D01*
X-14132952Y95870419D01*
X-14037714Y95870419D01*
X-15323428Y96870419D02*
X-15132952Y96870419D01*
X-15037714Y96822800D01*
X-14990095Y96775180D01*
X-14894857Y96632323D01*
X-14847238Y96441847D01*
X-14847238Y96060895D01*
X-14894857Y95965657D01*
X-14942476Y95918038D01*
X-15037714Y95870419D01*
X-15228190Y95870419D01*
X-15323428Y95918038D01*
X-15371047Y95965657D01*
X-15418666Y96060895D01*
X-15418666Y96298990D01*
X-15371047Y96394228D01*
X-15323428Y96441847D01*
X-15228190Y96489466D01*
X-15037714Y96489466D01*
X-14942476Y96441847D01*
X-14894857Y96394228D01*
X-14847238Y96298990D01*
X-43933466Y96870419D02*
X-43933466Y96156133D01*
X-43885847Y96013276D01*
X-43790609Y95918038D01*
X-43647752Y95870419D01*
X-43552514Y95870419D01*
X-44885847Y96870419D02*
X-44409657Y96870419D01*
X-44362038Y96394228D01*
X-44409657Y96441847D01*
X-44504895Y96489466D01*
X-44742990Y96489466D01*
X-44838228Y96441847D01*
X-44885847Y96394228D01*
X-44933466Y96298990D01*
X-44933466Y96060895D01*
X-44885847Y95965657D01*
X-44838228Y95918038D01*
X-44742990Y95870419D01*
X-44504895Y95870419D01*
X-44409657Y95918038D01*
X-44362038Y95965657D01*
X-61733796Y87296816D02*
X-61115206Y86939673D01*
X-60967679Y86909484D01*
X-60837581Y86944344D01*
X-60724913Y87044252D01*
X-60677294Y87126731D01*
X-61897502Y86346603D02*
X-61320151Y86013269D01*
X-62108368Y86743275D02*
X-61370731Y86592329D01*
X-61680255Y86056218D01*
X-76431929Y61642816D02*
X-75813339Y61285673D01*
X-75665812Y61255484D01*
X-75535714Y61290344D01*
X-75423046Y61390252D01*
X-75375427Y61472731D01*
X-76622405Y61312902D02*
X-76931929Y60776791D01*
X-76435348Y60874990D01*
X-76506776Y60751272D01*
X-76513156Y60644984D01*
X-76495726Y60579935D01*
X-76437057Y60491076D01*
X-76230861Y60372029D01*
X-76124573Y60365649D01*
X-76059524Y60383079D01*
X-75970665Y60441748D01*
X-75827808Y60689184D01*
X-75821428Y60795472D01*
X-75838858Y60860521D01*
X-91130062Y35988816D02*
X-90511472Y35631673D01*
X-90363945Y35601484D01*
X-90233847Y35636344D01*
X-90121179Y35736252D01*
X-90073560Y35818731D01*
X-91261869Y35570043D02*
X-91326918Y35552614D01*
X-91415776Y35493944D01*
X-91534824Y35287748D01*
X-91541203Y35181460D01*
X-91523774Y35116411D01*
X-91465105Y35027553D01*
X-91382626Y34979934D01*
X-91235099Y34949744D01*
X-90454513Y35158902D01*
X-90764036Y34622791D01*
X-105828195Y10334816D02*
X-105209605Y9977673D01*
X-105062078Y9947484D01*
X-104931980Y9982344D01*
X-104819312Y10082252D01*
X-104771693Y10164731D01*
X-105462169Y8968791D02*
X-105176455Y9463662D01*
X-105319312Y9216227D02*
X-106185338Y9716227D01*
X-106014001Y9727277D01*
X-105883903Y9762136D01*
X-105795045Y9820805D01*
M02*
