G04 #@! TF.GenerationSoftware,KiCad,Pcbnew,(5.1.5-0-10_14)*
G04 #@! TF.CreationDate,2020-02-27T16:10:42-05:00*
G04 #@! TF.ProjectId,rainboard_newfighter,7261696e-626f-4617-9264-5f6e65776669,rev?*
G04 #@! TF.SameCoordinates,Original*
G04 #@! TF.FileFunction,Copper,L1,Top*
G04 #@! TF.FilePolarity,Positive*
%FSLAX46Y46*%
G04 Gerber Fmt 4.6, Leading zero omitted, Abs format (unit mm)*
G04 Created by KiCad (PCBNEW (5.1.5-0-10_14)) date 2020-02-27 16:10:42*
%MOMM*%
%LPD*%
G04 APERTURE LIST*
%ADD10O,3.000000X6.000000*%
%ADD11O,6.000000X3.000000*%
%ADD12O,1.727200X1.727200*%
%ADD13C,0.200660*%
G04 APERTURE END LIST*
D10*
X33596825Y-100780000D03*
X25396825Y-100780000D03*
X4100000Y-100780000D03*
X-4100000Y-100780000D03*
D11*
X-16148412Y-80735000D03*
X-16148412Y-72535000D03*
X45645237Y-80735000D03*
X45645237Y-72535000D03*
X28096825Y-46990000D03*
X28096825Y-55190000D03*
X45645237Y-29645000D03*
X45645237Y-21445000D03*
X-16148412Y-21445000D03*
X-16148412Y-29645000D03*
X1400000Y-46990000D03*
X1400000Y-55190000D03*
D10*
X10648412Y-24145000D03*
X18848412Y-24145000D03*
D12*
X33782000Y-30480000D03*
X33782000Y-33020000D03*
X31242000Y-30480000D03*
X31242000Y-33020000D03*
X28702000Y-30480000D03*
X28702000Y-33020000D03*
X26162000Y-30480000D03*
X26162000Y-33020000D03*
X23622000Y-30480000D03*
X23622000Y-33020000D03*
X21082000Y-30480000D03*
X21082000Y-33020000D03*
X18542000Y-30480000D03*
X18542000Y-33020000D03*
X16002000Y-30480000D03*
X16002000Y-33020000D03*
X13462000Y-30480000D03*
X13462000Y-33020000D03*
X10922000Y-30480000D03*
X10922000Y-33020000D03*
X8382000Y-30480000D03*
X8382000Y-33020000D03*
X5842000Y-30480000D03*
X5842000Y-33020000D03*
X3302000Y-30480000D03*
X3302000Y-33020000D03*
X762000Y-30480000D03*
X762000Y-33020000D03*
X-1778000Y-30480000D03*
X-1778000Y-33020000D03*
X-4318000Y-30480000D03*
X-4318000Y-33020000D03*
X-6858000Y-30480000D03*
X-6858000Y-33020000D03*
X-9398000Y-30480000D03*
X-9398000Y-33020000D03*
X38862000Y-35560000D03*
X38862000Y-38100000D03*
X38862000Y-40640000D03*
X38862000Y-43180000D03*
X38862000Y-45720000D03*
X38862000Y-48260000D03*
X38862000Y-50800000D03*
X38862000Y-53340000D03*
X38862000Y-58420000D03*
X38862000Y-60960000D03*
X38862000Y-63500000D03*
X38862000Y-66040000D03*
X38862000Y-68580000D03*
X38862000Y-71120000D03*
X38862000Y-73660000D03*
X38862000Y-99060000D03*
X-9398000Y-92964000D03*
X-9398000Y-95504000D03*
X-9398000Y-98044000D03*
X-9398000Y-103124000D03*
X-9398000Y-105664000D03*
X-9398000Y-108204000D03*
X-9398000Y-90424000D03*
X-9398000Y-87884000D03*
X-9398000Y-85344000D03*
X-9398000Y-100584000D03*
X-9398000Y-81280000D03*
X-9398000Y-78740000D03*
X-9398000Y-76200000D03*
X-9398000Y-73660000D03*
X-9398000Y-71120000D03*
X-9398000Y-68580000D03*
X-9398000Y-66040000D03*
X-9398000Y-63500000D03*
X-9398000Y-58420000D03*
X-9398000Y-55880000D03*
X-9398000Y-53340000D03*
X-9398000Y-50800000D03*
X-9398000Y-48260000D03*
X-9398000Y-45720000D03*
X-9398000Y-43180000D03*
X-9398000Y-40640000D03*
X38862000Y-96520000D03*
X38862000Y-93980000D03*
X38862000Y-91440000D03*
X38862000Y-88900000D03*
X38862000Y-86360000D03*
X38862000Y-83820000D03*
X38862000Y-81280000D03*
X38862000Y-76200000D03*
D10*
X-63093650Y103580000D03*
X-54893650Y103580000D03*
X-33596825Y103580000D03*
X-25396825Y103580000D03*
X-4100000Y103580000D03*
X4100000Y103580000D03*
X25396825Y103580000D03*
X33596825Y103580000D03*
X54893650Y103580000D03*
X63093650Y103580000D03*
X-77842063Y78035000D03*
X-69642063Y78035000D03*
X-40145237Y78035000D03*
X-48345237Y78035000D03*
X-18848412Y78035000D03*
X-10648412Y78035000D03*
X18848412Y78035000D03*
X10648412Y78035000D03*
X48345237Y78035000D03*
X40145237Y78035000D03*
X77842063Y78035000D03*
X69642063Y78035000D03*
X-84390475Y52490000D03*
X-92590475Y52490000D03*
X-54893650Y52490000D03*
X-63093650Y52490000D03*
X-25396825Y52490000D03*
X-33596825Y52490000D03*
X-4100000Y52490000D03*
X4100000Y52490000D03*
X33596825Y52490000D03*
X25396825Y52490000D03*
X54893650Y52490000D03*
X63093650Y52490000D03*
X84390475Y52490000D03*
X92590475Y52490000D03*
X-107338888Y26945000D03*
X-99138888Y26945000D03*
X-77842063Y26945000D03*
X-69642063Y26945000D03*
X-48345237Y26945000D03*
X-40145237Y26945000D03*
X-18848412Y26945000D03*
X-10648412Y26945000D03*
X18848412Y26945000D03*
X10648412Y26945000D03*
X40145237Y26945000D03*
X48345237Y26945000D03*
X77842063Y26945000D03*
X69642063Y26945000D03*
X107338888Y26945000D03*
X99138888Y26945000D03*
X-113887301Y1400000D03*
X-122087301Y1400000D03*
X-84390475Y1400000D03*
X-92590475Y1400000D03*
X-54893650Y1400000D03*
X-63093650Y1400000D03*
X-25396825Y1400000D03*
X-33596825Y1400000D03*
X-4100000Y1400000D03*
X4100000Y1400000D03*
X33596825Y1400000D03*
X25396825Y1400000D03*
X54893650Y1400000D03*
X63093650Y1400000D03*
X84390475Y1400000D03*
X92590475Y1400000D03*
X113887301Y1400000D03*
X122087301Y1400000D03*
X-107338888Y-24145000D03*
X-99138888Y-24145000D03*
X-77842063Y-24145000D03*
X-69642063Y-24145000D03*
X-48345237Y-24145000D03*
X-40145237Y-24145000D03*
X77842063Y-24145000D03*
X69642063Y-24145000D03*
X107338888Y-24145000D03*
X99138888Y-24145000D03*
X-84390475Y-49690000D03*
X-92590475Y-49690000D03*
X-54893650Y-49690000D03*
X-63093650Y-49690000D03*
X-25396825Y-49690000D03*
X-33596825Y-49690000D03*
X54893650Y-49690000D03*
X63093650Y-49690000D03*
X84390475Y-49690000D03*
X92590475Y-49690000D03*
X-77842063Y-75235000D03*
X-69642063Y-75235000D03*
X-40145237Y-75235000D03*
X-48345237Y-75235000D03*
X10648412Y-75235000D03*
X18848412Y-75235000D03*
X69642063Y-75235000D03*
X77842063Y-75235000D03*
X-54893650Y-100780000D03*
X-63093650Y-100780000D03*
X-25396825Y-100780000D03*
X-33596825Y-100780000D03*
X63093650Y-100780000D03*
X54893650Y-100780000D03*
D13*
X3302000Y-30480000D02*
X2438401Y-29616401D01*
X-54893650Y103580000D02*
X-54893650Y65522483D01*
X-54893650Y65522483D02*
X-48846731Y59475564D01*
X-48846731Y49214214D02*
X-21165790Y21533274D01*
X-48846731Y59475564D02*
X-48846731Y49214214D01*
X-21165790Y21533274D02*
X-21165790Y-4340186D01*
X2438400Y-27990800D02*
X2438401Y-27944377D01*
X2438400Y-27944376D02*
X2438400Y-27990800D01*
X-21165790Y-4340186D02*
X2438400Y-27944376D01*
X2438401Y-29616401D02*
X2438400Y-27990800D01*
X8382000Y-30480000D02*
X6006880Y-28104880D01*
X5067520Y-28104880D02*
X5052070Y-28120330D01*
X5052070Y-28120330D02*
X4755299Y-28120330D01*
X6006880Y-28104880D02*
X5067520Y-28104880D01*
X4755299Y-28120330D02*
X-10269942Y-13095089D01*
X-10269942Y-13095089D02*
X-10269942Y11269258D01*
X-8870272Y12668928D02*
X-8870272Y30561872D01*
X-10269942Y11269258D02*
X-8870272Y12668928D01*
X-8870272Y30561872D02*
X-22098000Y43789600D01*
X-23696165Y103580000D02*
X-25396825Y103580000D01*
X-22098000Y101981835D02*
X-23696165Y103580000D01*
X-22098000Y43789600D02*
X-22098000Y101981835D01*
X12426552Y-26381529D02*
X12426552Y7283848D01*
X12320269Y-26487812D02*
X12426552Y-26381529D01*
X13462000Y-32169763D02*
X12320269Y-31028032D01*
X12320269Y-31028032D02*
X12320269Y-26487812D01*
X13462000Y-33020000D02*
X13462000Y-32169763D01*
X12426552Y7283848D02*
X762000Y18948400D01*
X2399340Y103580000D02*
X4100000Y103580000D01*
X762000Y101942660D02*
X2399340Y103580000D01*
X762000Y18948400D02*
X762000Y101942660D01*
X17400269Y-26711526D02*
X17070272Y-26381529D01*
X17070272Y-26381529D02*
X17070272Y17578272D01*
X17400269Y-31028032D02*
X17400269Y-26711526D01*
X18542000Y-32169763D02*
X17400269Y-31028032D01*
X18542000Y-33020000D02*
X18542000Y-32169763D01*
X31896165Y103580000D02*
X33596825Y103580000D01*
X23618685Y24126685D02*
X23618685Y95302520D01*
X23618685Y95302520D02*
X31896165Y103580000D01*
X17070272Y17578272D02*
X23618685Y24126685D01*
X44450000Y8238506D02*
X44450000Y54227164D01*
X24763731Y-11447763D02*
X44450000Y8238506D01*
X24763731Y-31878269D02*
X24763731Y-11447763D01*
X23622000Y-33020000D02*
X24763731Y-31878269D01*
X63093650Y72870814D02*
X63093650Y103580000D01*
X44450000Y54227164D02*
X63093650Y72870814D01*
X-67941403Y78035000D02*
X-49225200Y59318797D01*
X-49225200Y49057446D02*
X-21544260Y21376507D01*
X-21544260Y-4496952D02*
X1903731Y-27944943D01*
X-49225200Y59318797D02*
X-49225200Y49057446D01*
X-21544260Y21376507D02*
X-21544260Y-4496952D01*
X1903731Y-31621731D02*
X3302000Y-33020000D01*
X1903731Y-27944943D02*
X1903731Y-31621731D01*
X-69642063Y78035000D02*
X-67941403Y78035000D01*
X4443731Y-29414470D02*
X1902460Y-26873200D01*
X4443731Y-31621731D02*
X4443731Y-29414470D01*
X5842000Y-33020000D02*
X4443731Y-31621731D01*
X-20787320Y-4183420D02*
X-20787320Y21690041D01*
X1902460Y-26873200D02*
X-20787320Y-4183420D01*
X-40145237Y41047958D02*
X-40145237Y78035000D01*
X-20787320Y21690041D02*
X-40145237Y41047958D01*
X7318173Y-27726410D02*
X4910753Y-27726410D01*
X9780269Y-30188506D02*
X7318173Y-27726410D01*
X9780269Y-31878269D02*
X9780269Y-30188506D01*
X10922000Y-33020000D02*
X9780269Y-31878269D01*
X2838343Y-25654000D02*
X2824205Y-25654000D01*
X4910753Y-27726410D02*
X2838343Y-25654000D01*
X2824205Y-25654000D02*
X-9891472Y-12938323D01*
X-9891472Y-12938323D02*
X-9891472Y11112492D01*
X-8491802Y30718639D02*
X-8713506Y30940342D01*
X-8491802Y12512161D02*
X-8491802Y30718639D01*
X-9891472Y11112492D02*
X-8491802Y12512161D01*
X-10648412Y32875248D02*
X-10648412Y78035000D01*
X-8713506Y30940342D02*
X-10648412Y32875248D01*
X17147752Y78035000D02*
X18848412Y78035000D01*
X14603731Y75490979D02*
X17147752Y78035000D01*
X14603731Y-31621731D02*
X14603731Y75490979D01*
X16002000Y-33020000D02*
X14603731Y-31621731D01*
X38367097Y10355603D02*
X38367097Y48679497D01*
X22480269Y-5531225D02*
X38367097Y10355603D01*
X22480269Y-31621731D02*
X22480269Y-5531225D01*
X21082000Y-33020000D02*
X22480269Y-31621731D01*
X48345237Y58657637D02*
X48345237Y78035000D01*
X38367097Y48679497D02*
X48345237Y58657637D01*
X-53192990Y52490000D02*
X-54893650Y52490000D01*
X-21922730Y21219740D02*
X-53192990Y52490000D01*
X-21922730Y-4653718D02*
X-21922730Y21219740D01*
X762000Y-27338448D02*
X-21922730Y-4653718D01*
X762000Y-30480000D02*
X762000Y-27338448D01*
X-82689815Y52490000D02*
X-84390475Y52490000D01*
X-80672156Y52490000D02*
X-82689815Y52490000D01*
X-3176269Y-25005887D02*
X-80672156Y52490000D01*
X-3176269Y-31621731D02*
X-3176269Y-25005887D01*
X-1778000Y-33020000D02*
X-3176269Y-31621731D01*
X77842063Y51094026D02*
X77842063Y78035000D01*
X49102177Y22354141D02*
X77842063Y51094026D01*
X28702003Y-9115202D02*
X49102177Y11284972D01*
X49102177Y11284972D02*
X49102177Y22354141D01*
X28702000Y-9115202D02*
X28702003Y-9115202D01*
X28702000Y-30480000D02*
X28702000Y-9115202D01*
X5617350Y-28498800D02*
X4598533Y-28498800D01*
X7240269Y-30121719D02*
X5617350Y-28498800D01*
X7240269Y-31878269D02*
X7240269Y-30121719D01*
X8382000Y-33020000D02*
X7240269Y-31878269D01*
X-10648412Y-13251855D02*
X-10648412Y26945000D01*
X4598533Y-28498800D02*
X-10648412Y-13251855D01*
X16002000Y-29258686D02*
X14982201Y-28238887D01*
X16002000Y-30480000D02*
X16002000Y-29258686D01*
X14982201Y24779449D02*
X17147752Y26945000D01*
X17147752Y26945000D02*
X18848412Y26945000D01*
X14982201Y-28238887D02*
X14982201Y24779449D01*
X48345237Y11598506D02*
X48345237Y26945000D01*
X26162000Y-10584730D02*
X48345237Y11598506D01*
X26162000Y-30480000D02*
X26162000Y-10584730D01*
X31242000Y-33020000D02*
X31242000Y-32169763D01*
X32640269Y-30771494D02*
X32640269Y-6247408D01*
X32640269Y-6247408D02*
X49859117Y10971438D01*
X77842063Y23744340D02*
X77842063Y26945000D01*
X65069161Y10971438D02*
X77842063Y23744340D01*
X31242000Y-32169763D02*
X32640269Y-30771494D01*
X49859117Y10971438D02*
X65069161Y10971438D01*
X105638228Y26945000D02*
X107338888Y26945000D01*
X82612335Y3919107D02*
X105638228Y26945000D01*
X82612335Y3110335D02*
X82612335Y3919107D01*
X38862000Y-40640000D02*
X82612335Y3110335D01*
X-107509161Y-8178800D02*
X-113887301Y-1800660D01*
X-60296768Y-8178800D02*
X-107509161Y-8178800D01*
X-46431200Y-22044368D02*
X-60296768Y-8178800D01*
X-113887301Y-1800660D02*
X-113887301Y1400000D01*
X-46431200Y-29538470D02*
X-46431200Y-22044368D01*
X-29936280Y-46033390D02*
X-46431200Y-29538470D01*
X-14164610Y-46033390D02*
X-29936280Y-46033390D01*
X-9398000Y-50800000D02*
X-14164610Y-46033390D01*
X-82689815Y1400000D02*
X-84390475Y1400000D01*
X-29779514Y-45654920D02*
X-12003080Y-45654920D01*
X-46052730Y-29381704D02*
X-29779514Y-45654920D01*
X-46052730Y-21887601D02*
X-46052730Y-29381704D01*
X-59918298Y-8022034D02*
X-46052730Y-21887601D01*
X-12003080Y-45654920D02*
X-9398000Y-48260000D01*
X-60140001Y-7800330D02*
X-59918298Y-8022034D01*
X-78390805Y-7800330D02*
X-60140001Y-7800330D01*
X-84390475Y-1800660D02*
X-78390805Y-7800330D01*
X-84390475Y1400000D02*
X-84390475Y-1800660D01*
X-31770510Y-23223140D02*
X-54893650Y-100000D01*
X-14965097Y-23223140D02*
X-31770510Y-23223140D01*
X-8256269Y-29931968D02*
X-14965097Y-23223140D01*
X-54893650Y-100000D02*
X-54893650Y1400000D01*
X-8256269Y-30771494D02*
X-8256269Y-29931968D01*
X-7406032Y-31621731D02*
X-8256269Y-30771494D01*
X-5716269Y-31621731D02*
X-7406032Y-31621731D01*
X-4318000Y-33020000D02*
X-5716269Y-31621731D01*
X-1778000Y-30480000D02*
X-1778000Y-25868920D01*
X-25396825Y-2250095D02*
X-25396825Y1400000D01*
X-1778000Y-25868920D02*
X-25396825Y-2250095D01*
X4100000Y-23658000D02*
X4100000Y1400000D01*
X10922000Y-30480000D02*
X4100000Y-23658000D01*
X23622000Y-6874165D02*
X31896165Y1400000D01*
X31896165Y1400000D02*
X33596825Y1400000D01*
X23622000Y-30480000D02*
X23622000Y-6874165D01*
X39725599Y-34696401D02*
X38862000Y-35560000D01*
X40740131Y-30364775D02*
X40740131Y-33681869D01*
X40740131Y-33681869D02*
X39725599Y-34696401D01*
X63093650Y-8011256D02*
X40740131Y-30364775D01*
X63093650Y1400000D02*
X63093650Y-8011256D01*
X38862000Y-43180000D02*
X69900800Y-12141200D01*
X92590475Y-1800660D02*
X92590475Y1400000D01*
X82249935Y-12141200D02*
X92590475Y-1800660D01*
X69900800Y-12141200D02*
X82249935Y-12141200D01*
X122087301Y-1800660D02*
X122087301Y1400000D01*
X111368291Y-12519670D02*
X122087301Y-1800660D01*
X72062330Y-12519670D02*
X111368291Y-12519670D01*
X38862000Y-45720000D02*
X72062330Y-12519670D01*
X-10619314Y-58420000D02*
X-9398000Y-58420000D01*
X-20681494Y-58420000D02*
X-10619314Y-58420000D01*
X-51678354Y-27423140D02*
X-20681494Y-58420000D01*
X-99061408Y-27423140D02*
X-51678354Y-27423140D01*
X-99138888Y-27345660D02*
X-99061408Y-27423140D01*
X-99138888Y-24145000D02*
X-99138888Y-27345660D01*
X-10261599Y-52476401D02*
X-9398000Y-53340000D01*
X-30093046Y-46411860D02*
X-16326140Y-46411860D01*
X-52359906Y-24145000D02*
X-30093046Y-46411860D01*
X-16326140Y-46411860D02*
X-10261599Y-52476401D01*
X-69642063Y-24145000D02*
X-52359906Y-24145000D01*
X-38444577Y-24145000D02*
X-40145237Y-24145000D01*
X-32977763Y-24145000D02*
X-38444577Y-24145000D01*
X-11402763Y-45720000D02*
X-32977763Y-24145000D01*
X-9398000Y-45720000D02*
X-11402763Y-45720000D01*
X-15893000Y-21445000D02*
X-16148412Y-21445000D01*
X-6858000Y-30480000D02*
X-15893000Y-21445000D01*
X18542000Y-24451412D02*
X18848412Y-24145000D01*
X18542000Y-30480000D02*
X18542000Y-24451412D01*
X45645237Y-31316763D02*
X45645237Y-29645000D01*
X38862000Y-38100000D02*
X45645237Y-31316763D01*
X77842063Y-27345660D02*
X77842063Y-24145000D01*
X58775863Y-46411860D02*
X77842063Y-27345660D01*
X45790140Y-46411860D02*
X58775863Y-46411860D01*
X38862000Y-53340000D02*
X45790140Y-46411860D01*
X50348981Y-58420000D02*
X71430981Y-37338000D01*
X38862000Y-58420000D02*
X50348981Y-58420000D01*
X107338888Y-27345660D02*
X107338888Y-24145000D01*
X97346548Y-37338000D02*
X107338888Y-27345660D01*
X71430981Y-37338000D02*
X97346548Y-37338000D01*
X-13911883Y-70756860D02*
X-10539731Y-74129012D01*
X-10261599Y-75336401D02*
X-9398000Y-76200000D01*
X-10539731Y-75058269D02*
X-10261599Y-75336401D01*
X-10539731Y-74129012D02*
X-10539731Y-75058269D01*
X-82689815Y-49690000D02*
X-61622955Y-70756860D01*
X-61622955Y-70756860D02*
X-13911883Y-70756860D01*
X-84390475Y-49690000D02*
X-82689815Y-49690000D01*
X-54893650Y-52890660D02*
X-54893650Y-49690000D01*
X-37405920Y-70378390D02*
X-54893650Y-52890660D01*
X-12679610Y-70378390D02*
X-37405920Y-70378390D01*
X-9398000Y-73660000D02*
X-12679610Y-70378390D01*
X-15588000Y-49690000D02*
X-9398000Y-55880000D01*
X-25396825Y-49690000D02*
X-15588000Y-49690000D01*
X1400000Y-67942000D02*
X-9398000Y-78740000D01*
X1400000Y-55190000D02*
X1400000Y-67942000D01*
X37640686Y-66040000D02*
X38862000Y-66040000D01*
X34932156Y-66040000D02*
X37640686Y-66040000D01*
X24818685Y-55926529D02*
X34932156Y-66040000D01*
X24818685Y-51968800D02*
X24818685Y-55926529D01*
X28096825Y-48690660D02*
X24818685Y-51968800D01*
X28096825Y-46990000D02*
X28096825Y-48690660D01*
X63093650Y-52890660D02*
X63093650Y-49690000D01*
X55024310Y-60960000D02*
X63093650Y-52890660D01*
X38862000Y-60960000D02*
X55024310Y-60960000D01*
X92590475Y-52890660D02*
X92590475Y-49690000D01*
X81981135Y-63500000D02*
X92590475Y-52890660D01*
X38862000Y-63500000D02*
X81981135Y-63500000D01*
X-69642063Y-78435660D02*
X-69642063Y-75235000D01*
X-55113723Y-92964000D02*
X-69642063Y-78435660D01*
X-9398000Y-92964000D02*
X-55113723Y-92964000D01*
X-10619314Y-90424000D02*
X-9398000Y-90424000D01*
X-38444577Y-75235000D02*
X-23255577Y-90424000D01*
X-23255577Y-90424000D02*
X-10619314Y-90424000D01*
X-40145237Y-75235000D02*
X-38444577Y-75235000D01*
X-10261599Y-87020401D02*
X-9398000Y-87884000D01*
X-10539731Y-79844341D02*
X-10539731Y-86742269D01*
X-16148412Y-74235660D02*
X-10539731Y-79844341D01*
X-10539731Y-86742269D02*
X-10261599Y-87020401D01*
X-16148412Y-72535000D02*
X-16148412Y-74235660D01*
X63093650Y36880850D02*
X63093650Y52490000D01*
X48723707Y22510907D02*
X63093650Y36880850D01*
X26162000Y-32169763D02*
X27381200Y-30950563D01*
X48723707Y11441739D02*
X48723707Y22510907D01*
X27381200Y-9900766D02*
X48723707Y11441739D01*
X27381200Y-30950563D02*
X27381200Y-9900766D01*
X26162000Y-33020000D02*
X26162000Y-32169763D01*
X29843731Y-31878269D02*
X29843731Y-8508710D01*
X28702000Y-33020000D02*
X29843731Y-31878269D01*
X29843731Y-8508710D02*
X49480647Y11128205D01*
X49480647Y11128205D02*
X49480647Y22197374D01*
X49480647Y22197374D02*
X71350437Y44067164D01*
X92590475Y49289340D02*
X92590475Y52490000D01*
X87368299Y44067164D02*
X92590475Y49289340D01*
X71350437Y44067164D02*
X87368299Y44067164D01*
X-25396825Y26834782D02*
X-25396825Y52490000D01*
X-20408850Y-4026655D02*
X-20408850Y21846808D01*
X4469697Y-28905200D02*
X2615847Y-27051352D01*
X-20630554Y22068511D02*
X-25396825Y26834782D01*
X5488514Y-28905200D02*
X4469697Y-28905200D01*
X2615847Y-27051352D02*
X-20408850Y-4026655D01*
X-20408850Y21846808D02*
X-20630554Y22068511D01*
X5842000Y-29258686D02*
X5488514Y-28905200D01*
X5842000Y-30480000D02*
X5842000Y-29258686D01*
X12805022Y-29924622D02*
X12805022Y7440615D01*
X13360400Y-30480000D02*
X12805022Y-29924622D01*
X4100000Y16145637D02*
X4100000Y52490000D01*
X12805022Y7440615D02*
X4100000Y16145637D01*
X13462000Y-30480000D02*
X13360400Y-30480000D01*
X21082000Y-29258686D02*
X21082000Y-30480000D01*
X21082000Y1099844D02*
X21082000Y-29258686D01*
X33596825Y13614669D02*
X21082000Y1099844D01*
X33596825Y52490000D02*
X33596825Y13614669D01*
X-97438228Y26945000D02*
X-99138888Y26945000D01*
X-94885332Y26945000D02*
X-97438228Y26945000D01*
X-66062192Y-1878140D02*
X-94885332Y26945000D01*
X-54709387Y-1878140D02*
X-66062192Y-1878140D01*
X-8256269Y-31621731D02*
X-24965796Y-31621731D01*
X-24965796Y-31621731D02*
X-54709387Y-1878140D01*
X-6858000Y-33020000D02*
X-8256269Y-31621731D01*
X-44019583Y-1878140D02*
X-69642063Y23744340D01*
X-69642063Y23744340D02*
X-69642063Y26945000D01*
X-31698546Y-1878140D02*
X-44019583Y-1878140D01*
X-4318000Y-29258686D02*
X-31698546Y-1878140D01*
X-4318000Y-30480000D02*
X-4318000Y-29258686D01*
X-558800Y-30848963D02*
X-558800Y-26552884D01*
X762000Y-32169763D02*
X-558800Y-30848963D01*
X762000Y-33020000D02*
X762000Y-32169763D01*
X-22301200Y5900303D02*
X-22301200Y-4810484D01*
X-40145237Y23744340D02*
X-22301200Y5900303D01*
X-40145237Y26945000D02*
X-40145237Y23744340D01*
X-22301200Y-4810484D02*
X-558800Y-26552884D01*
X-8176686Y-81280000D02*
X-9398000Y-81280000D01*
X11102752Y-81280000D02*
X-8176686Y-81280000D01*
X17147752Y-75235000D02*
X11102752Y-81280000D01*
X18848412Y-75235000D02*
X17147752Y-75235000D01*
X40083314Y-73660000D02*
X38862000Y-73660000D01*
X40270897Y-73660000D02*
X40083314Y-73660000D01*
X45645237Y-79034340D02*
X40270897Y-73660000D01*
X45645237Y-80735000D02*
X45645237Y-79034340D01*
X40083314Y-68580000D02*
X38862000Y-68580000D01*
X69486403Y-68580000D02*
X40083314Y-68580000D01*
X76141403Y-75235000D02*
X69486403Y-68580000D01*
X77842063Y-75235000D02*
X76141403Y-75235000D01*
X-47916990Y-95504000D02*
X-10619314Y-95504000D01*
X-53192990Y-100780000D02*
X-47916990Y-95504000D01*
X-10619314Y-95504000D02*
X-9398000Y-95504000D01*
X-54893650Y-100780000D02*
X-53192990Y-100780000D01*
X-12134000Y-100780000D02*
X-9398000Y-98044000D01*
X-25396825Y-100780000D02*
X-12134000Y-100780000D01*
X-8176686Y-85344000D02*
X-9398000Y-85344000D01*
X4100000Y-97579340D02*
X-8135340Y-85344000D01*
X-8135340Y-85344000D02*
X-8176686Y-85344000D01*
X4100000Y-100780000D02*
X4100000Y-97579340D01*
X33596825Y-81465175D02*
X38862000Y-76200000D01*
X33596825Y-100780000D02*
X33596825Y-81465175D01*
X63093650Y-94130336D02*
X40083314Y-71120000D01*
X40083314Y-71120000D02*
X38862000Y-71120000D01*
X63093650Y-100780000D02*
X63093650Y-94130336D01*
M02*
