G04 #@! TF.GenerationSoftware,KiCad,Pcbnew,(5.1.5-0-10_14)*
G04 #@! TF.CreationDate,2020-09-02T10:38:34-04:00*
G04 #@! TF.ProjectId,rainboard_newfighter,7261696e-626f-4617-9264-5f6e65776669,rev?*
G04 #@! TF.SameCoordinates,Original*
G04 #@! TF.FileFunction,Legend,Bot*
G04 #@! TF.FilePolarity,Positive*
%FSLAX46Y46*%
G04 Gerber Fmt 4.6, Leading zero omitted, Abs format (unit mm)*
G04 Created by KiCad (PCBNEW (5.1.5-0-10_14)) date 2020-09-02 10:38:34*
%MOMM*%
%LPD*%
G04 APERTURE LIST*
%ADD10C,0.120000*%
%ADD11C,0.150000*%
G04 APERTURE END LIST*
D10*
X62263600Y-85898000D02*
X62863600Y-85598000D01*
X62263600Y-85298000D02*
X62263600Y-85898000D01*
X62863600Y-85598000D02*
X62263600Y-85298000D01*
X65963600Y-90848000D02*
X65963600Y-90348000D01*
X71463600Y-90848000D02*
X65963600Y-90848000D01*
X71463600Y-90348000D02*
X71463600Y-90848000D01*
X65963600Y-90348000D02*
X71463600Y-90348000D01*
X65963600Y-88348000D02*
X65963600Y-87848000D01*
X71463600Y-88348000D02*
X65963600Y-88348000D01*
X71463600Y-87848000D02*
X71463600Y-88348000D01*
X65963600Y-87848000D02*
X71463600Y-87848000D01*
X65963600Y-85848000D02*
X65963600Y-85348000D01*
X71463600Y-85848000D02*
X65963600Y-85848000D01*
X71463600Y-85348000D02*
X71463600Y-85848000D01*
X65963600Y-85348000D02*
X71463600Y-85348000D01*
X60353600Y-91738000D02*
X64853600Y-91738000D01*
X60353600Y-93158000D02*
X60353600Y-91738000D01*
X72073600Y-93158000D02*
X60353600Y-93158000D01*
X72073600Y-88098000D02*
X72073600Y-93158000D01*
X60353600Y-84458000D02*
X64853600Y-84458000D01*
X60353600Y-83038000D02*
X60353600Y-84458000D01*
X72073600Y-83038000D02*
X60353600Y-83038000D01*
X72073600Y-88098000D02*
X72073600Y-83038000D01*
X108932400Y-9199600D02*
X108332400Y-9499600D01*
X108932400Y-9799600D02*
X108932400Y-9199600D01*
X108332400Y-9499600D02*
X108932400Y-9799600D01*
X105232400Y-4249600D02*
X105232400Y-4749600D01*
X99732400Y-4249600D02*
X105232400Y-4249600D01*
X99732400Y-4749600D02*
X99732400Y-4249600D01*
X105232400Y-4749600D02*
X99732400Y-4749600D01*
X105232400Y-6749600D02*
X105232400Y-7249600D01*
X99732400Y-6749600D02*
X105232400Y-6749600D01*
X99732400Y-7249600D02*
X99732400Y-6749600D01*
X105232400Y-7249600D02*
X99732400Y-7249600D01*
X105232400Y-9249600D02*
X105232400Y-9749600D01*
X99732400Y-9249600D02*
X105232400Y-9249600D01*
X99732400Y-9749600D02*
X99732400Y-9249600D01*
X105232400Y-9749600D02*
X99732400Y-9749600D01*
X110842400Y-3359600D02*
X106342400Y-3359600D01*
X110842400Y-1939600D02*
X110842400Y-3359600D01*
X99122400Y-1939600D02*
X110842400Y-1939600D01*
X99122400Y-6999600D02*
X99122400Y-1939600D01*
X110842400Y-10639600D02*
X106342400Y-10639600D01*
X110842400Y-12059600D02*
X110842400Y-10639600D01*
X99122400Y-12059600D02*
X110842400Y-12059600D01*
X99122400Y-6999600D02*
X99122400Y-12059600D01*
X-71950000Y89412800D02*
X-71350000Y89712800D01*
X-71950000Y90012800D02*
X-71950000Y89412800D01*
X-71350000Y89712800D02*
X-71950000Y90012800D01*
X-68250000Y86962800D02*
X-68250000Y87462800D01*
X-62750000Y86962800D02*
X-68250000Y86962800D01*
X-62750000Y87462800D02*
X-62750000Y86962800D01*
X-68250000Y87462800D02*
X-62750000Y87462800D01*
X-68250000Y89462800D02*
X-68250000Y89962800D01*
X-62750000Y89462800D02*
X-68250000Y89462800D01*
X-62750000Y89962800D02*
X-62750000Y89462800D01*
X-68250000Y89962800D02*
X-62750000Y89962800D01*
X-73860000Y86072800D02*
X-69360000Y86072800D01*
X-73860000Y84652800D02*
X-73860000Y86072800D01*
X-62140000Y84652800D02*
X-73860000Y84652800D01*
X-62140000Y88462800D02*
X-62140000Y84652800D01*
X-73860000Y90852800D02*
X-69360000Y90852800D01*
X-73860000Y92272800D02*
X-73860000Y90852800D01*
X-62140000Y92272800D02*
X-73860000Y92272800D01*
X-62140000Y88462800D02*
X-62140000Y92272800D01*
X-101160000Y39171600D02*
X-100560000Y39471600D01*
X-101160000Y39771600D02*
X-101160000Y39171600D01*
X-100560000Y39471600D02*
X-101160000Y39771600D01*
X-97460000Y36721600D02*
X-97460000Y37221600D01*
X-91960000Y36721600D02*
X-97460000Y36721600D01*
X-91960000Y37221600D02*
X-91960000Y36721600D01*
X-97460000Y37221600D02*
X-91960000Y37221600D01*
X-97460000Y39221600D02*
X-97460000Y39721600D01*
X-91960000Y39221600D02*
X-97460000Y39221600D01*
X-91960000Y39721600D02*
X-91960000Y39221600D01*
X-97460000Y39721600D02*
X-91960000Y39721600D01*
X-103070000Y35831600D02*
X-98570000Y35831600D01*
X-103070000Y34411600D02*
X-103070000Y35831600D01*
X-91350000Y34411600D02*
X-103070000Y34411600D01*
X-91350000Y38221600D02*
X-91350000Y34411600D01*
X-103070000Y40611600D02*
X-98570000Y40611600D01*
X-103070000Y42031600D02*
X-103070000Y40611600D01*
X-91350000Y42031600D02*
X-103070000Y42031600D01*
X-91350000Y38221600D02*
X-91350000Y42031600D01*
X62822400Y89412800D02*
X63422400Y89712800D01*
X62822400Y90012800D02*
X62822400Y89412800D01*
X63422400Y89712800D02*
X62822400Y90012800D01*
X66522400Y86962800D02*
X66522400Y87462800D01*
X72022400Y86962800D02*
X66522400Y86962800D01*
X72022400Y87462800D02*
X72022400Y86962800D01*
X66522400Y87462800D02*
X72022400Y87462800D01*
X66522400Y89462800D02*
X66522400Y89962800D01*
X72022400Y89462800D02*
X66522400Y89462800D01*
X72022400Y89962800D02*
X72022400Y89462800D01*
X66522400Y89962800D02*
X72022400Y89962800D01*
X60912400Y86072800D02*
X65412400Y86072800D01*
X60912400Y84652800D02*
X60912400Y86072800D01*
X72632400Y84652800D02*
X60912400Y84652800D01*
X72632400Y88462800D02*
X72632400Y84652800D01*
X60912400Y90852800D02*
X65412400Y90852800D01*
X60912400Y92272800D02*
X60912400Y90852800D01*
X72632400Y92272800D02*
X60912400Y92272800D01*
X72632400Y88462800D02*
X72632400Y92272800D01*
X-113961600Y13111200D02*
X-113361600Y13411200D01*
X-113961600Y13711200D02*
X-113961600Y13111200D01*
X-113361600Y13411200D02*
X-113961600Y13711200D01*
X-110261600Y10661200D02*
X-110261600Y11161200D01*
X-104761600Y10661200D02*
X-110261600Y10661200D01*
X-104761600Y11161200D02*
X-104761600Y10661200D01*
X-110261600Y11161200D02*
X-104761600Y11161200D01*
X-110261600Y13161200D02*
X-110261600Y13661200D01*
X-104761600Y13161200D02*
X-110261600Y13161200D01*
X-104761600Y13661200D02*
X-104761600Y13161200D01*
X-110261600Y13661200D02*
X-104761600Y13661200D01*
X-115871600Y9771200D02*
X-111371600Y9771200D01*
X-115871600Y8351200D02*
X-115871600Y9771200D01*
X-104151600Y8351200D02*
X-115871600Y8351200D01*
X-104151600Y12161200D02*
X-104151600Y8351200D01*
X-115871600Y14551200D02*
X-111371600Y14551200D01*
X-115871600Y15971200D02*
X-115871600Y14551200D01*
X-104151600Y15971200D02*
X-115871600Y15971200D01*
X-104151600Y12161200D02*
X-104151600Y15971200D01*
X-86986800Y64724000D02*
X-86386800Y65024000D01*
X-86986800Y65324000D02*
X-86986800Y64724000D01*
X-86386800Y65024000D02*
X-86986800Y65324000D01*
X-83286800Y62274000D02*
X-83286800Y62774000D01*
X-77786800Y62274000D02*
X-83286800Y62274000D01*
X-77786800Y62774000D02*
X-77786800Y62274000D01*
X-83286800Y62774000D02*
X-77786800Y62774000D01*
X-83286800Y64774000D02*
X-83286800Y65274000D01*
X-77786800Y64774000D02*
X-83286800Y64774000D01*
X-77786800Y65274000D02*
X-77786800Y64774000D01*
X-83286800Y65274000D02*
X-77786800Y65274000D01*
X-88896800Y61384000D02*
X-84396800Y61384000D01*
X-88896800Y59964000D02*
X-88896800Y61384000D01*
X-77176800Y59964000D02*
X-88896800Y59964000D01*
X-77176800Y63774000D02*
X-77176800Y59964000D01*
X-88896800Y66164000D02*
X-84396800Y66164000D01*
X-88896800Y67584000D02*
X-88896800Y66164000D01*
X-77176800Y67584000D02*
X-88896800Y67584000D01*
X-77176800Y63774000D02*
X-77176800Y67584000D01*
X77808400Y64927200D02*
X78408400Y65227200D01*
X77808400Y65527200D02*
X77808400Y64927200D01*
X78408400Y65227200D02*
X77808400Y65527200D01*
X81508400Y62477200D02*
X81508400Y62977200D01*
X87008400Y62477200D02*
X81508400Y62477200D01*
X87008400Y62977200D02*
X87008400Y62477200D01*
X81508400Y62977200D02*
X87008400Y62977200D01*
X81508400Y64977200D02*
X81508400Y65477200D01*
X87008400Y64977200D02*
X81508400Y64977200D01*
X87008400Y65477200D02*
X87008400Y64977200D01*
X81508400Y65477200D02*
X87008400Y65477200D01*
X75898400Y61587200D02*
X80398400Y61587200D01*
X75898400Y60167200D02*
X75898400Y61587200D01*
X87618400Y60167200D02*
X75898400Y60167200D01*
X87618400Y63977200D02*
X87618400Y60167200D01*
X75898400Y66367200D02*
X80398400Y66367200D01*
X75898400Y67787200D02*
X75898400Y66367200D01*
X87618400Y67787200D02*
X75898400Y67787200D01*
X87618400Y63977200D02*
X87618400Y67787200D01*
X109914000Y12755600D02*
X110514000Y13055600D01*
X109914000Y13355600D02*
X109914000Y12755600D01*
X110514000Y13055600D02*
X109914000Y13355600D01*
X113614000Y10305600D02*
X113614000Y10805600D01*
X119114000Y10305600D02*
X113614000Y10305600D01*
X119114000Y10805600D02*
X119114000Y10305600D01*
X113614000Y10805600D02*
X119114000Y10805600D01*
X113614000Y12805600D02*
X113614000Y13305600D01*
X119114000Y12805600D02*
X113614000Y12805600D01*
X119114000Y13305600D02*
X119114000Y12805600D01*
X113614000Y13305600D02*
X119114000Y13305600D01*
X108004000Y9415600D02*
X112504000Y9415600D01*
X108004000Y7995600D02*
X108004000Y9415600D01*
X119724000Y7995600D02*
X108004000Y7995600D01*
X119724000Y11805600D02*
X119724000Y7995600D01*
X108004000Y14195600D02*
X112504000Y14195600D01*
X108004000Y15615600D02*
X108004000Y14195600D01*
X119724000Y15615600D02*
X108004000Y15615600D01*
X119724000Y11805600D02*
X119724000Y15615600D01*
X93150000Y38409600D02*
X93750000Y38709600D01*
X93150000Y39009600D02*
X93150000Y38409600D01*
X93750000Y38709600D02*
X93150000Y39009600D01*
X96850000Y35959600D02*
X96850000Y36459600D01*
X102350000Y35959600D02*
X96850000Y35959600D01*
X102350000Y36459600D02*
X102350000Y35959600D01*
X96850000Y36459600D02*
X102350000Y36459600D01*
X96850000Y38459600D02*
X96850000Y38959600D01*
X102350000Y38459600D02*
X96850000Y38459600D01*
X102350000Y38959600D02*
X102350000Y38459600D01*
X96850000Y38959600D02*
X102350000Y38959600D01*
X91240000Y35069600D02*
X95740000Y35069600D01*
X91240000Y33649600D02*
X91240000Y35069600D01*
X102960000Y33649600D02*
X91240000Y33649600D01*
X102960000Y37459600D02*
X102960000Y33649600D01*
X91240000Y39849600D02*
X95740000Y39849600D01*
X91240000Y41269600D02*
X91240000Y39849600D01*
X102960000Y41269600D02*
X91240000Y41269600D01*
X102960000Y37459600D02*
X102960000Y41269600D01*
D11*
X58715980Y-87764666D02*
X59430266Y-87764666D01*
X59573123Y-87717047D01*
X59668361Y-87621809D01*
X59715980Y-87478952D01*
X59715980Y-87383714D01*
X59715980Y-88288476D02*
X59715980Y-88478952D01*
X59668361Y-88574190D01*
X59620742Y-88621809D01*
X59477885Y-88717047D01*
X59287409Y-88764666D01*
X58906457Y-88764666D01*
X58811219Y-88717047D01*
X58763600Y-88669428D01*
X58715980Y-88574190D01*
X58715980Y-88383714D01*
X58763600Y-88288476D01*
X58811219Y-88240857D01*
X58906457Y-88193238D01*
X59144552Y-88193238D01*
X59239790Y-88240857D01*
X59287409Y-88288476D01*
X59335028Y-88383714D01*
X59335028Y-88574190D01*
X59287409Y-88669428D01*
X59239790Y-88717047D01*
X59144552Y-88764666D01*
X111384780Y-6190076D02*
X112099066Y-6190076D01*
X112241923Y-6142457D01*
X112337161Y-6047219D01*
X112384780Y-5904361D01*
X112384780Y-5809123D01*
X112384780Y-7190076D02*
X112384780Y-6618647D01*
X112384780Y-6904361D02*
X111384780Y-6904361D01*
X111527638Y-6809123D01*
X111622876Y-6713885D01*
X111670495Y-6618647D01*
X111384780Y-7809123D02*
X111384780Y-7904361D01*
X111432400Y-7999600D01*
X111480019Y-8047219D01*
X111575257Y-8094838D01*
X111765733Y-8142457D01*
X112003828Y-8142457D01*
X112194304Y-8094838D01*
X112289542Y-8047219D01*
X112337161Y-7999600D01*
X112384780Y-7904361D01*
X112384780Y-7809123D01*
X112337161Y-7713885D01*
X112289542Y-7666266D01*
X112194304Y-7618647D01*
X112003828Y-7571028D01*
X111765733Y-7571028D01*
X111575257Y-7618647D01*
X111480019Y-7666266D01*
X111432400Y-7713885D01*
X111384780Y-7809123D01*
X-75497619Y88796133D02*
X-74783333Y88796133D01*
X-74640476Y88843752D01*
X-74545238Y88938990D01*
X-74497619Y89081847D01*
X-74497619Y89177085D01*
X-75069047Y88177085D02*
X-75116666Y88272323D01*
X-75164285Y88319942D01*
X-75259523Y88367561D01*
X-75307142Y88367561D01*
X-75402380Y88319942D01*
X-75450000Y88272323D01*
X-75497619Y88177085D01*
X-75497619Y87986609D01*
X-75450000Y87891371D01*
X-75402380Y87843752D01*
X-75307142Y87796133D01*
X-75259523Y87796133D01*
X-75164285Y87843752D01*
X-75116666Y87891371D01*
X-75069047Y87986609D01*
X-75069047Y88177085D01*
X-75021428Y88272323D01*
X-74973809Y88319942D01*
X-74878571Y88367561D01*
X-74688095Y88367561D01*
X-74592857Y88319942D01*
X-74545238Y88272323D01*
X-74497619Y88177085D01*
X-74497619Y87986609D01*
X-74545238Y87891371D01*
X-74592857Y87843752D01*
X-74688095Y87796133D01*
X-74878571Y87796133D01*
X-74973809Y87843752D01*
X-75021428Y87891371D01*
X-75069047Y87986609D01*
X-104707619Y38554933D02*
X-103993333Y38554933D01*
X-103850476Y38602552D01*
X-103755238Y38697790D01*
X-103707619Y38840647D01*
X-103707619Y38935885D01*
X-104707619Y38173980D02*
X-104707619Y37507314D01*
X-103707619Y37935885D01*
X59274780Y88796133D02*
X59989066Y88796133D01*
X60131923Y88843752D01*
X60227161Y88938990D01*
X60274780Y89081847D01*
X60274780Y89177085D01*
X59274780Y87891371D02*
X59274780Y88081847D01*
X59322400Y88177085D01*
X59370019Y88224704D01*
X59512876Y88319942D01*
X59703352Y88367561D01*
X60084304Y88367561D01*
X60179542Y88319942D01*
X60227161Y88272323D01*
X60274780Y88177085D01*
X60274780Y87986609D01*
X60227161Y87891371D01*
X60179542Y87843752D01*
X60084304Y87796133D01*
X59846209Y87796133D01*
X59750971Y87843752D01*
X59703352Y87891371D01*
X59655733Y87986609D01*
X59655733Y88177085D01*
X59703352Y88272323D01*
X59750971Y88319942D01*
X59846209Y88367561D01*
X-117509219Y12494533D02*
X-116794933Y12494533D01*
X-116652076Y12542152D01*
X-116556838Y12637390D01*
X-116509219Y12780247D01*
X-116509219Y12875485D01*
X-117509219Y11542152D02*
X-117509219Y12018342D01*
X-117033028Y12065961D01*
X-117080647Y12018342D01*
X-117128266Y11923104D01*
X-117128266Y11685009D01*
X-117080647Y11589771D01*
X-117033028Y11542152D01*
X-116937790Y11494533D01*
X-116699695Y11494533D01*
X-116604457Y11542152D01*
X-116556838Y11589771D01*
X-116509219Y11685009D01*
X-116509219Y11923104D01*
X-116556838Y12018342D01*
X-116604457Y12065961D01*
X-90534419Y64107333D02*
X-89820133Y64107333D01*
X-89677276Y64154952D01*
X-89582038Y64250190D01*
X-89534419Y64393047D01*
X-89534419Y64488285D01*
X-90201085Y63202571D02*
X-89534419Y63202571D01*
X-90582038Y63440666D02*
X-89867752Y63678761D01*
X-89867752Y63059714D01*
X74260780Y64310533D02*
X74975066Y64310533D01*
X75117923Y64358152D01*
X75213161Y64453390D01*
X75260780Y64596247D01*
X75260780Y64691485D01*
X74260780Y63929580D02*
X74260780Y63310533D01*
X74641733Y63643866D01*
X74641733Y63501009D01*
X74689352Y63405771D01*
X74736971Y63358152D01*
X74832209Y63310533D01*
X75070304Y63310533D01*
X75165542Y63358152D01*
X75213161Y63405771D01*
X75260780Y63501009D01*
X75260780Y63786723D01*
X75213161Y63881961D01*
X75165542Y63929580D01*
X106366380Y12138933D02*
X107080666Y12138933D01*
X107223523Y12186552D01*
X107318761Y12281790D01*
X107366380Y12424647D01*
X107366380Y12519885D01*
X106461619Y11710361D02*
X106414000Y11662742D01*
X106366380Y11567504D01*
X106366380Y11329409D01*
X106414000Y11234171D01*
X106461619Y11186552D01*
X106556857Y11138933D01*
X106652095Y11138933D01*
X106794952Y11186552D01*
X107366380Y11757980D01*
X107366380Y11138933D01*
X89602380Y37792933D02*
X90316666Y37792933D01*
X90459523Y37840552D01*
X90554761Y37935790D01*
X90602380Y38078647D01*
X90602380Y38173885D01*
X90602380Y36792933D02*
X90602380Y37364361D01*
X90602380Y37078647D02*
X89602380Y37078647D01*
X89745238Y37173885D01*
X89840476Y37269123D01*
X89888095Y37364361D01*
M02*
