M48
; DRILL file {KiCad (5.1.5-0-10_14)} date Monday, September 21, 2020 at 03:49:25 PM
; FORMAT={-:-/ absolute / inch / decimal}
; #@! TF.CreationDate,2020-09-21T15:49:25-04:00
; #@! TF.GenerationSoftware,Kicad,Pcbnew,(5.1.5-0-10_14)
; #@! TF.FileFunction,NonPlated,1,2,NPTH
FMAT,2
INCH
T1C0.0472
T2C0.0945
T3C0.1260
%
G90
G05
T1
X3.1801Y-2.3187
X-1.273Y3.1727
X1.041Y3.1727
X2.6057Y-3.3268
X4.2907Y0.5939
X3.7087Y1.5993
X1.631Y4.0107
X3.1267Y2.6046
X0.469Y4.0107
X2.5447Y3.6099
X-0.693Y4.0107
X-2.6637Y3.4268
X-1.855Y4.0107
X-3.2424Y2.4168
X-3.821Y1.4068
X-4.3997Y0.3968
T2
X-0.9016Y-5.2402
X-0.311Y-5.2402
X-1.752Y-5.2402
X-1.1614Y-5.2402
T3
X-0.3268Y-1.8634
X-0.3268Y-4.8134
X0.2732Y-2.8134
X1.3732Y-2.8134
X1.5732Y-1.6134
X1.5732Y-4.8634
T0
M30
