M48
; DRILL file {KiCad (5.1.5-0-10_14)} date Thursday, September 17, 2020 at 07:48:53 AM
; FORMAT={-:-/ absolute / inch / decimal}
; #@! TF.CreationDate,2020-09-17T07:48:53-04:00
; #@! TF.GenerationSoftware,Kicad,Pcbnew,(5.1.5-0-10_14)
; #@! TF.FileFunction,Plated,1,2,PTH
FMAT,2
INCH
T1C0.0374
T2C0.0394
T3C0.0400
T4C0.0512
%
G90
G05
T1
X2.4076Y-3.5125
X2.4568Y-3.4272
X2.506Y-3.342
X4.1516Y-0.4985
X4.2008Y-0.4132
X4.25Y-0.328
T2
X-4.3Y0.412
X-4.2508Y0.4972
X-1.792Y3.932
X-1.6936Y3.932
X4.254Y0.5
X4.3032Y0.4148
X2.508Y3.516
X2.5572Y3.4308
X1.694Y3.932
X1.7924Y3.932
X-0.63Y3.932
X-0.5316Y3.932
X1.104Y3.094
X1.2024Y3.094
X3.672Y1.5053
X3.7212Y1.4201
X-2.564Y3.442
X-2.5148Y3.5272
X3.09Y2.5107
X3.1392Y2.4254
X0.532Y3.932
X0.6304Y3.932
X-1.21Y3.094
X-1.1116Y3.094
X-3.1427Y2.432
X-3.0935Y2.5172
X-3.7213Y1.422
X-3.6721Y1.5072
T3
X-0.3268Y-1.5937
X-0.3268Y-1.6937
X-0.3268Y-1.9937
X-0.3268Y-2.0937
X-0.3268Y-2.1937
X-0.3268Y-2.2937
X-0.3268Y-2.3937
X-0.3268Y-2.4937
X-0.3268Y-2.5937
X-0.3268Y-2.6937
X-0.3268Y-2.8937
X-0.3268Y-2.9937
X-0.3268Y-3.0937
X-0.3268Y-3.1937
X-0.3268Y-3.2937
X-0.3268Y-3.3937
X-0.3268Y-3.4937
X-0.3268Y-3.5937
X-0.3268Y-3.7537
X-0.3268Y-3.8537
X-0.3268Y-3.9537
X-0.3268Y-4.0537
X-0.3268Y-4.1537
X-0.3268Y-4.2537
X-0.3268Y-4.3537
X-0.3268Y-4.4537
X-0.3268Y-4.5537
X-0.3268Y-4.6537
X-0.2268Y-1.5937
X-0.2268Y-1.6937
X-0.1268Y-1.5937
X-0.1268Y-1.6937
X-0.0268Y-1.5937
X-0.0268Y-1.6937
X0.0732Y-1.5937
X0.0732Y-1.6937
X0.1732Y-1.5937
X0.1732Y-1.6937
X0.2732Y-1.5937
X0.2732Y-1.6937
X0.3732Y-1.5937
X0.3732Y-1.6937
X0.4732Y-1.5937
X0.4732Y-1.6937
X0.4732Y-2.7887
X0.4732Y-2.8887
X0.5732Y-1.5937
X0.5732Y-1.6937
X0.5732Y-2.7887
X0.5732Y-2.8887
X0.6732Y-1.5937
X0.6732Y-1.6937
X0.6732Y-2.7887
X0.6732Y-2.8887
X0.7732Y-1.5937
X0.7732Y-1.6937
X0.8732Y-1.5937
X0.8732Y-1.6937
X0.9732Y-1.5937
X0.9732Y-1.6937
X1.0732Y-1.5937
X1.0732Y-1.6937
X1.1732Y-1.5937
X1.1732Y-1.6937
X1.2732Y-1.5937
X1.2732Y-1.6937
X1.3732Y-1.5937
X1.3732Y-1.6937
X1.5732Y-1.7937
X1.5732Y-1.8937
X1.5732Y-1.9937
X1.5732Y-2.0937
X1.5732Y-2.1937
X1.5732Y-2.2937
X1.5732Y-2.3937
X1.5732Y-2.4937
X1.5732Y-2.6937
X1.5732Y-2.7937
X1.5732Y-2.8937
X1.5732Y-2.9937
X1.5732Y-3.0937
X1.5732Y-3.1937
X1.5732Y-3.2937
X1.5732Y-3.3937
X1.5732Y-3.5937
X1.5732Y-3.6937
X1.5732Y-3.7937
X1.5732Y-3.8937
X1.5732Y-3.9937
X1.5732Y-4.0937
X1.5732Y-4.1937
X1.5732Y-4.2937
T4
X-0.8993Y-5.044
X-0.8009Y-4.9456
X-0.7024Y-5.4377
X-0.604Y-5.044
X-0.5056Y-5.4377
X-0.4071Y-4.9456
X-0.3087Y-5.044
X-1.7113Y-5.046
X-1.6129Y-4.9476
X-1.5144Y-5.4397
X-1.416Y-5.046
X-1.3176Y-5.4397
X-1.2191Y-4.9476
X-1.1207Y-5.046
T2
G00X2.7418Y3.1116
M15
G01X2.7418Y3.0329
M16
G05
G00X3.0646Y3.1116
M15
G01X3.0646Y3.0329
M16
G05
G00X1.8364Y-2.8557
M15
G01X1.7577Y-2.8557
M16
G05
G00X1.8364Y-3.1785
M15
G01X1.7577Y-3.1785
M16
G05
G00X-2.484Y0.0945
M15
G01X-2.484Y0.0157
M16
G05
G00X-2.1612Y0.0945
M15
G01X-2.1612Y0.0157
M16
G05
G00X-2.484Y-3.9283
M15
G01X-2.484Y-4.0071
M16
G05
G00X-2.1612Y-3.9283
M15
G01X-2.1612Y-4.0071
M16
G05
G00X2.1612Y-3.9283
M15
G01X2.1612Y-4.0071
M16
G05
G00X2.484Y-3.9283
M15
G01X2.484Y-4.0071
M16
G05
G00X3.9031Y1.1002
M15
G01X3.9031Y1.0215
M16
G05
G00X4.2259Y1.1002
M15
G01X4.2259Y1.0215
M16
G05
G00X-0.7421Y-0.9112
M15
G01X-0.7421Y-0.99
M16
G05
G00X-0.4192Y-0.9112
M15
G01X-0.4192Y-0.99
M16
G05
G00X2.7418Y-2.9226
M15
G01X2.7418Y-3.0014
M16
G05
G00X3.0646Y-2.9226
M15
G01X3.0646Y-3.0014
M16
G05
G00X2.1612Y2.1059
M15
G01X2.1612Y2.0272
M16
G05
G00X2.484Y2.1059
M15
G01X2.484Y2.0272
M16
G05
G00X-2.484Y2.1059
M15
G01X-2.484Y2.0272
M16
G05
G00X-2.1612Y2.1059
M15
G01X-2.1612Y2.0272
M16
G05
G00X-1.9034Y1.1002
M15
G01X-1.9034Y1.0215
M16
G05
G00X-1.5805Y1.1002
M15
G01X-1.5805Y1.0215
M16
G05
G00X2.1612Y4.1173
M15
G01X2.1612Y4.0386
M16
G05
G00X2.484Y4.1173
M15
G01X2.484Y4.0386
M16
G05
G00X-2.484Y-1.9169
M15
G01X-2.484Y-1.9957
M16
G05
G00X-2.1612Y-1.9169
M15
G01X-2.1612Y-1.9957
M16
G05
G00X-1.9034Y3.1116
M15
G01X-1.9034Y3.0329
M16
G05
G00X-1.5805Y3.1116
M15
G01X-1.5805Y3.0329
M16
G05
G00X3.3225Y-1.9169
M15
G01X3.3225Y-1.9957
M16
G05
G00X3.6453Y-1.9169
M15
G01X3.6453Y-1.9957
M16
G05
G00X-0.6751Y-2.8557
M15
G01X-0.5964Y-2.8557
M16
G05
G00X-0.6751Y-3.1785
M15
G01X-0.5964Y-3.1785
M16
G05
G00X-1.3227Y0.0945
M15
G01X-1.3227Y0.0157
M16
G05
G00X-0.9999Y0.0945
M15
G01X-0.9999Y0.0157
M16
G05
G00X0.4192Y1.1002
M15
G01X0.4192Y1.0215
M16
G05
G00X0.7421Y1.1002
M15
G01X0.7421Y1.0215
M16
G05
G00X2.7418Y1.1002
M15
G01X2.7418Y1.0215
M16
G05
G00X3.0646Y1.1002
M15
G01X3.0646Y1.0215
M16
G05
G00X-4.2259Y1.1002
M15
G01X-4.2259Y1.0215
M16
G05
G00X-3.9031Y1.1002
M15
G01X-3.9031Y1.0215
M16
G05
G00X-0.1614Y0.0945
M15
G01X-0.1614Y0.0157
M16
G05
G00X0.1614Y0.0945
M15
G01X0.1614Y0.0157
M16
G05
G00X2.1612Y-1.9169
M15
G01X2.1612Y-1.9957
M16
G05
G00X2.484Y-1.9169
M15
G01X2.484Y-1.9957
M16
G05
G00X1.5805Y3.1116
M15
G01X1.5805Y3.0329
M16
G05
G00X1.9034Y3.1116
M15
G01X1.9034Y3.0329
M16
G05
G00X-3.6453Y2.1059
M15
G01X-3.6453Y2.0272
M16
G05
G00X-3.3225Y2.1059
M15
G01X-3.3225Y2.0272
M16
G05
G00X-1.3227Y-1.9169
M15
G01X-1.3227Y-1.9957
M16
G05
G00X-0.9999Y-1.9169
M15
G01X-0.9999Y-1.9957
M16
G05
G00X2.1612Y0.0945
M15
G01X2.1612Y0.0157
M16
G05
G00X2.484Y0.0945
M15
G01X2.484Y0.0157
M16
G05
G00X-1.3227Y-3.9283
M15
G01X-1.3227Y-4.0071
M16
G05
G00X-0.9999Y-3.9283
M15
G01X-0.9999Y-4.0071
M16
G05
G00X-0.7421Y1.1002
M15
G01X-0.7421Y1.0215
M16
G05
G00X-0.4192Y1.1002
M15
G01X-0.4192Y1.0215
M16
G05
G00X0.9999Y2.1059
M15
G01X0.9999Y2.0272
M16
G05
G00X1.3227Y2.1059
M15
G01X1.3227Y2.0272
M16
G05
G00X2.7418Y-0.9112
M15
G01X2.7418Y-0.99
M16
G05
G00X3.0646Y-0.9112
M15
G01X3.0646Y-0.99
M16
G05
G00X-0.1614Y2.1059
M15
G01X-0.1614Y2.0272
M16
G05
G00X0.1614Y2.1059
M15
G01X0.1614Y2.0272
M16
G05
G00X-3.0646Y3.1116
M15
G01X-3.0646Y3.0329
M16
G05
G00X-2.7418Y3.1116
M15
G01X-2.7418Y3.0329
M16
G05
G00X1.5805Y1.1002
M15
G01X1.5805Y1.0215
M16
G05
G00X1.9034Y1.1002
M15
G01X1.9034Y1.0215
M16
G05
G00X-3.0646Y1.1002
M15
G01X-3.0646Y1.0215
M16
G05
G00X-2.7418Y1.1002
M15
G01X-2.7418Y1.0215
M16
G05
G00X3.3225Y0.0945
M15
G01X3.3225Y0.0157
M16
G05
G00X3.6453Y0.0945
M15
G01X3.6453Y0.0157
M16
G05
G00X-4.8066Y0.0945
M15
G01X-4.8066Y0.0157
M16
G05
G00X-4.4838Y0.0945
M15
G01X-4.4838Y0.0157
M16
G05
G00X-3.0646Y-0.9112
M15
G01X-3.0646Y-0.99
M16
G05
G00X-2.7418Y-0.9112
M15
G01X-2.7418Y-0.99
M16
G05
G00X-1.9034Y-2.9226
M15
G01X-1.9034Y-3.0014
M16
G05
G00X-1.5805Y-2.9226
M15
G01X-1.5805Y-3.0014
M16
G05
G00X1.0668Y-1.85
M15
G01X1.1455Y-1.85
M16
G05
G00X1.0668Y-2.1728
M15
G01X1.1455Y-2.1728
M16
G05
G00X3.9031Y-0.9112
M15
G01X3.9031Y-0.99
M16
G05
G00X4.2259Y-0.9112
M15
G01X4.2259Y-0.99
M16
G05
G00X1.5805Y-0.9112
M15
G01X1.5805Y-0.99
M16
G05
G00X1.9034Y-0.9112
M15
G01X1.9034Y-0.99
M16
G05
G00X3.3225Y2.1059
M15
G01X3.3225Y2.0272
M16
G05
G00X3.6453Y2.1059
M15
G01X3.6453Y2.0272
M16
G05
G00X1.0668Y-3.8614
M15
G01X1.1455Y-3.8614
M16
G05
G00X1.0668Y-4.1843
M15
G01X1.1455Y-4.1843
M16
G05
G00X-3.0646Y-2.9226
M15
G01X-3.0646Y-3.0014
M16
G05
G00X-2.7418Y-2.9226
M15
G01X-2.7418Y-3.0014
M16
G05
G00X0.9999Y0.0945
M15
G01X0.9999Y0.0157
M16
G05
G00X1.3227Y0.0945
M15
G01X1.3227Y0.0157
M16
G05
G00X0.4192Y-3.1116
M15
G01X0.4192Y-3.0329
M16
G05
G00X0.7421Y-3.1116
M15
G01X0.7421Y-3.0329
M16
G05
G00X0.0945Y-1.85
M15
G01X0.0157Y-1.85
M16
G05
G00X0.0945Y-2.1728
M15
G01X0.0157Y-2.1728
M16
G05
G00X-1.3227Y4.1173
M15
G01X-1.3227Y4.0386
M16
G05
G00X-0.9999Y4.1173
M15
G01X-0.9999Y4.0386
M16
G05
G00X0.4192Y-1.2292
M15
G01X0.4192Y-1.308
M16
G05
G00X0.7421Y-1.2292
M15
G01X0.7421Y-1.308
M16
G05
G00X0.0945Y-3.8614
M15
G01X0.0157Y-3.8614
M16
G05
G00X0.0945Y-4.1843
M15
G01X0.0157Y-4.1843
M16
G05
G00X-1.3227Y2.1059
M15
G01X-1.3227Y2.0272
M16
G05
G00X-0.9999Y2.1059
M15
G01X-0.9999Y2.0272
M16
G05
G00X-3.6453Y0.0945
M15
G01X-3.6453Y0.0157
M16
G05
G00X-3.3225Y0.0945
M15
G01X-3.3225Y0.0157
M16
G05
G00X0.9999Y4.1173
M15
G01X0.9999Y4.0386
M16
G05
G00X1.3227Y4.1173
M15
G01X1.3227Y4.0386
M16
G05
G00X-4.2259Y-0.9112
M15
G01X-4.2259Y-0.99
M16
G05
G00X-3.9031Y-0.9112
M15
G01X-3.9031Y-0.99
M16
G05
G00X-1.9034Y-0.9112
M15
G01X-1.9034Y-0.99
M16
G05
G00X-1.5805Y-0.9112
M15
G01X-1.5805Y-0.99
M16
G05
G00X-2.484Y4.1173
M15
G01X-2.484Y4.0386
M16
G05
G00X-2.1612Y4.1173
M15
G01X-2.1612Y4.0386
M16
G05
G00X4.4838Y0.0945
M15
G01X4.4838Y0.0157
M16
G05
G00X4.8066Y0.0945
M15
G01X4.8066Y0.0157
M16
G05
G00X-3.6453Y-1.9169
M15
G01X-3.6453Y-1.9957
M16
G05
G00X-3.3225Y-1.9169
M15
G01X-3.3225Y-1.9957
M16
G05
G00X-0.7421Y3.1116
M15
G01X-0.7421Y3.0329
M16
G05
G00X-0.4192Y3.1116
M15
G01X-0.4192Y3.0329
M16
G05
G00X0.4192Y3.1116
M15
G01X0.4192Y3.0329
M16
G05
G00X0.7421Y3.1116
M15
G01X0.7421Y3.0329
M16
G05
G00X-0.1614Y4.1173
M15
G01X-0.1614Y4.0386
M16
G05
G00X0.1614Y4.1173
M15
G01X0.1614Y4.0386
M16
G05
T0
M30
