G04 #@! TF.GenerationSoftware,KiCad,Pcbnew,(5.1.5-0-10_14)*
G04 #@! TF.CreationDate,2020-09-17T07:49:02-04:00*
G04 #@! TF.ProjectId,rainboard_newfighter,7261696e-626f-4617-9264-5f6e65776669,rev?*
G04 #@! TF.SameCoordinates,Original*
G04 #@! TF.FileFunction,Paste,Top*
G04 #@! TF.FilePolarity,Positive*
%FSLAX46Y46*%
G04 Gerber Fmt 4.6, Leading zero omitted, Abs format (unit mm)*
G04 Created by KiCad (PCBNEW (5.1.5-0-10_14)) date 2020-09-17 07:49:02*
%MOMM*%
%LPD*%
G04 APERTURE LIST*
%ADD10C,0.100000*%
%ADD11R,1.930000X0.590000*%
%ADD12R,0.600000X1.900000*%
%ADD13R,0.533400X1.701800*%
G04 APERTURE END LIST*
D10*
G36*
X-15075909Y-111743253D02*
G01*
X-15054674Y-111746403D01*
X-15033850Y-111751619D01*
X-15013638Y-111758851D01*
X-14994232Y-111768030D01*
X-14975819Y-111779066D01*
X-14958576Y-111791854D01*
X-14942670Y-111806270D01*
X-14928254Y-111822176D01*
X-14915466Y-111839419D01*
X-14904430Y-111857832D01*
X-14895251Y-111877238D01*
X-14888019Y-111897450D01*
X-14882803Y-111918274D01*
X-14879653Y-111939509D01*
X-14878600Y-111960950D01*
X-14878600Y-112473450D01*
X-14879653Y-112494891D01*
X-14882803Y-112516126D01*
X-14888019Y-112536950D01*
X-14895251Y-112557162D01*
X-14904430Y-112576568D01*
X-14915466Y-112594981D01*
X-14928254Y-112612224D01*
X-14942670Y-112628130D01*
X-14958576Y-112642546D01*
X-14975819Y-112655334D01*
X-14994232Y-112666370D01*
X-15013638Y-112675549D01*
X-15033850Y-112682781D01*
X-15054674Y-112687997D01*
X-15075909Y-112691147D01*
X-15097350Y-112692200D01*
X-15534850Y-112692200D01*
X-15556291Y-112691147D01*
X-15577526Y-112687997D01*
X-15598350Y-112682781D01*
X-15618562Y-112675549D01*
X-15637968Y-112666370D01*
X-15656381Y-112655334D01*
X-15673624Y-112642546D01*
X-15689530Y-112628130D01*
X-15703946Y-112612224D01*
X-15716734Y-112594981D01*
X-15727770Y-112576568D01*
X-15736949Y-112557162D01*
X-15744181Y-112536950D01*
X-15749397Y-112516126D01*
X-15752547Y-112494891D01*
X-15753600Y-112473450D01*
X-15753600Y-111960950D01*
X-15752547Y-111939509D01*
X-15749397Y-111918274D01*
X-15744181Y-111897450D01*
X-15736949Y-111877238D01*
X-15727770Y-111857832D01*
X-15716734Y-111839419D01*
X-15703946Y-111822176D01*
X-15689530Y-111806270D01*
X-15673624Y-111791854D01*
X-15656381Y-111779066D01*
X-15637968Y-111768030D01*
X-15618562Y-111758851D01*
X-15598350Y-111751619D01*
X-15577526Y-111746403D01*
X-15556291Y-111743253D01*
X-15534850Y-111742200D01*
X-15097350Y-111742200D01*
X-15075909Y-111743253D01*
G37*
G36*
X-16650909Y-111743253D02*
G01*
X-16629674Y-111746403D01*
X-16608850Y-111751619D01*
X-16588638Y-111758851D01*
X-16569232Y-111768030D01*
X-16550819Y-111779066D01*
X-16533576Y-111791854D01*
X-16517670Y-111806270D01*
X-16503254Y-111822176D01*
X-16490466Y-111839419D01*
X-16479430Y-111857832D01*
X-16470251Y-111877238D01*
X-16463019Y-111897450D01*
X-16457803Y-111918274D01*
X-16454653Y-111939509D01*
X-16453600Y-111960950D01*
X-16453600Y-112473450D01*
X-16454653Y-112494891D01*
X-16457803Y-112516126D01*
X-16463019Y-112536950D01*
X-16470251Y-112557162D01*
X-16479430Y-112576568D01*
X-16490466Y-112594981D01*
X-16503254Y-112612224D01*
X-16517670Y-112628130D01*
X-16533576Y-112642546D01*
X-16550819Y-112655334D01*
X-16569232Y-112666370D01*
X-16588638Y-112675549D01*
X-16608850Y-112682781D01*
X-16629674Y-112687997D01*
X-16650909Y-112691147D01*
X-16672350Y-112692200D01*
X-17109850Y-112692200D01*
X-17131291Y-112691147D01*
X-17152526Y-112687997D01*
X-17173350Y-112682781D01*
X-17193562Y-112675549D01*
X-17212968Y-112666370D01*
X-17231381Y-112655334D01*
X-17248624Y-112642546D01*
X-17264530Y-112628130D01*
X-17278946Y-112612224D01*
X-17291734Y-112594981D01*
X-17302770Y-112576568D01*
X-17311949Y-112557162D01*
X-17319181Y-112536950D01*
X-17324397Y-112516126D01*
X-17327547Y-112494891D01*
X-17328600Y-112473450D01*
X-17328600Y-111960950D01*
X-17327547Y-111939509D01*
X-17324397Y-111918274D01*
X-17319181Y-111897450D01*
X-17311949Y-111877238D01*
X-17302770Y-111857832D01*
X-17291734Y-111839419D01*
X-17278946Y-111822176D01*
X-17264530Y-111806270D01*
X-17248624Y-111791854D01*
X-17231381Y-111779066D01*
X-17212968Y-111768030D01*
X-17193562Y-111758851D01*
X-17173350Y-111751619D01*
X-17152526Y-111746403D01*
X-17131291Y-111743253D01*
X-17109850Y-111742200D01*
X-16672350Y-111742200D01*
X-16650909Y-111743253D01*
G37*
D11*
X-15603600Y-115874800D03*
X-15603600Y-118414800D03*
X-21683600Y-118414800D03*
X-21683600Y-115874800D03*
D10*
G36*
X-26222309Y-116276053D02*
G01*
X-26201074Y-116279203D01*
X-26180250Y-116284419D01*
X-26160038Y-116291651D01*
X-26140632Y-116300830D01*
X-26122219Y-116311866D01*
X-26104976Y-116324654D01*
X-26089070Y-116339070D01*
X-26074654Y-116354976D01*
X-26061866Y-116372219D01*
X-26050830Y-116390632D01*
X-26041651Y-116410038D01*
X-26034419Y-116430250D01*
X-26029203Y-116451074D01*
X-26026053Y-116472309D01*
X-26025000Y-116493750D01*
X-26025000Y-116931250D01*
X-26026053Y-116952691D01*
X-26029203Y-116973926D01*
X-26034419Y-116994750D01*
X-26041651Y-117014962D01*
X-26050830Y-117034368D01*
X-26061866Y-117052781D01*
X-26074654Y-117070024D01*
X-26089070Y-117085930D01*
X-26104976Y-117100346D01*
X-26122219Y-117113134D01*
X-26140632Y-117124170D01*
X-26160038Y-117133349D01*
X-26180250Y-117140581D01*
X-26201074Y-117145797D01*
X-26222309Y-117148947D01*
X-26243750Y-117150000D01*
X-26756250Y-117150000D01*
X-26777691Y-117148947D01*
X-26798926Y-117145797D01*
X-26819750Y-117140581D01*
X-26839962Y-117133349D01*
X-26859368Y-117124170D01*
X-26877781Y-117113134D01*
X-26895024Y-117100346D01*
X-26910930Y-117085930D01*
X-26925346Y-117070024D01*
X-26938134Y-117052781D01*
X-26949170Y-117034368D01*
X-26958349Y-117014962D01*
X-26965581Y-116994750D01*
X-26970797Y-116973926D01*
X-26973947Y-116952691D01*
X-26975000Y-116931250D01*
X-26975000Y-116493750D01*
X-26973947Y-116472309D01*
X-26970797Y-116451074D01*
X-26965581Y-116430250D01*
X-26958349Y-116410038D01*
X-26949170Y-116390632D01*
X-26938134Y-116372219D01*
X-26925346Y-116354976D01*
X-26910930Y-116339070D01*
X-26895024Y-116324654D01*
X-26877781Y-116311866D01*
X-26859368Y-116300830D01*
X-26839962Y-116291651D01*
X-26819750Y-116284419D01*
X-26798926Y-116279203D01*
X-26777691Y-116276053D01*
X-26756250Y-116275000D01*
X-26243750Y-116275000D01*
X-26222309Y-116276053D01*
G37*
G36*
X-26222309Y-117851053D02*
G01*
X-26201074Y-117854203D01*
X-26180250Y-117859419D01*
X-26160038Y-117866651D01*
X-26140632Y-117875830D01*
X-26122219Y-117886866D01*
X-26104976Y-117899654D01*
X-26089070Y-117914070D01*
X-26074654Y-117929976D01*
X-26061866Y-117947219D01*
X-26050830Y-117965632D01*
X-26041651Y-117985038D01*
X-26034419Y-118005250D01*
X-26029203Y-118026074D01*
X-26026053Y-118047309D01*
X-26025000Y-118068750D01*
X-26025000Y-118506250D01*
X-26026053Y-118527691D01*
X-26029203Y-118548926D01*
X-26034419Y-118569750D01*
X-26041651Y-118589962D01*
X-26050830Y-118609368D01*
X-26061866Y-118627781D01*
X-26074654Y-118645024D01*
X-26089070Y-118660930D01*
X-26104976Y-118675346D01*
X-26122219Y-118688134D01*
X-26140632Y-118699170D01*
X-26160038Y-118708349D01*
X-26180250Y-118715581D01*
X-26201074Y-118720797D01*
X-26222309Y-118723947D01*
X-26243750Y-118725000D01*
X-26756250Y-118725000D01*
X-26777691Y-118723947D01*
X-26798926Y-118720797D01*
X-26819750Y-118715581D01*
X-26839962Y-118708349D01*
X-26859368Y-118699170D01*
X-26877781Y-118688134D01*
X-26895024Y-118675346D01*
X-26910930Y-118660930D01*
X-26925346Y-118645024D01*
X-26938134Y-118627781D01*
X-26949170Y-118609368D01*
X-26958349Y-118589962D01*
X-26965581Y-118569750D01*
X-26970797Y-118548926D01*
X-26973947Y-118527691D01*
X-26975000Y-118506250D01*
X-26975000Y-118068750D01*
X-26973947Y-118047309D01*
X-26970797Y-118026074D01*
X-26965581Y-118005250D01*
X-26958349Y-117985038D01*
X-26949170Y-117965632D01*
X-26938134Y-117947219D01*
X-26925346Y-117929976D01*
X-26910930Y-117914070D01*
X-26895024Y-117899654D01*
X-26877781Y-117886866D01*
X-26859368Y-117875830D01*
X-26839962Y-117866651D01*
X-26819750Y-117859419D01*
X-26798926Y-117854203D01*
X-26777691Y-117851053D01*
X-26756250Y-117850000D01*
X-26243750Y-117850000D01*
X-26222309Y-117851053D01*
G37*
D12*
X-10134600Y70086200D03*
X-8864600Y70086200D03*
X-7594600Y70086200D03*
X-6324600Y70086200D03*
X-5054600Y70086200D03*
X-3784600Y70086200D03*
X-2514600Y70086200D03*
X-1244600Y70086200D03*
X25400Y70086200D03*
X1295400Y70086200D03*
X2565400Y70086200D03*
X3835400Y70086200D03*
X5105400Y70086200D03*
X6375400Y70086200D03*
X6375400Y60876200D03*
X5105400Y60876200D03*
X3835400Y60876200D03*
X2565400Y60876200D03*
X1295400Y60876200D03*
X25400Y60876200D03*
X-1244600Y60876200D03*
X-2514600Y60876200D03*
X-3784600Y60876200D03*
X-5054600Y60876200D03*
X-6324600Y60876200D03*
X-7594600Y60876200D03*
X-8864600Y60876200D03*
X-10134600Y60876200D03*
D10*
G36*
X-51547309Y-121026053D02*
G01*
X-51526074Y-121029203D01*
X-51505250Y-121034419D01*
X-51485038Y-121041651D01*
X-51465632Y-121050830D01*
X-51447219Y-121061866D01*
X-51429976Y-121074654D01*
X-51414070Y-121089070D01*
X-51399654Y-121104976D01*
X-51386866Y-121122219D01*
X-51375830Y-121140632D01*
X-51366651Y-121160038D01*
X-51359419Y-121180250D01*
X-51354203Y-121201074D01*
X-51351053Y-121222309D01*
X-51350000Y-121243750D01*
X-51350000Y-121756250D01*
X-51351053Y-121777691D01*
X-51354203Y-121798926D01*
X-51359419Y-121819750D01*
X-51366651Y-121839962D01*
X-51375830Y-121859368D01*
X-51386866Y-121877781D01*
X-51399654Y-121895024D01*
X-51414070Y-121910930D01*
X-51429976Y-121925346D01*
X-51447219Y-121938134D01*
X-51465632Y-121949170D01*
X-51485038Y-121958349D01*
X-51505250Y-121965581D01*
X-51526074Y-121970797D01*
X-51547309Y-121973947D01*
X-51568750Y-121975000D01*
X-52006250Y-121975000D01*
X-52027691Y-121973947D01*
X-52048926Y-121970797D01*
X-52069750Y-121965581D01*
X-52089962Y-121958349D01*
X-52109368Y-121949170D01*
X-52127781Y-121938134D01*
X-52145024Y-121925346D01*
X-52160930Y-121910930D01*
X-52175346Y-121895024D01*
X-52188134Y-121877781D01*
X-52199170Y-121859368D01*
X-52208349Y-121839962D01*
X-52215581Y-121819750D01*
X-52220797Y-121798926D01*
X-52223947Y-121777691D01*
X-52225000Y-121756250D01*
X-52225000Y-121243750D01*
X-52223947Y-121222309D01*
X-52220797Y-121201074D01*
X-52215581Y-121180250D01*
X-52208349Y-121160038D01*
X-52199170Y-121140632D01*
X-52188134Y-121122219D01*
X-52175346Y-121104976D01*
X-52160930Y-121089070D01*
X-52145024Y-121074654D01*
X-52127781Y-121061866D01*
X-52109368Y-121050830D01*
X-52089962Y-121041651D01*
X-52069750Y-121034419D01*
X-52048926Y-121029203D01*
X-52027691Y-121026053D01*
X-52006250Y-121025000D01*
X-51568750Y-121025000D01*
X-51547309Y-121026053D01*
G37*
G36*
X-49972309Y-121026053D02*
G01*
X-49951074Y-121029203D01*
X-49930250Y-121034419D01*
X-49910038Y-121041651D01*
X-49890632Y-121050830D01*
X-49872219Y-121061866D01*
X-49854976Y-121074654D01*
X-49839070Y-121089070D01*
X-49824654Y-121104976D01*
X-49811866Y-121122219D01*
X-49800830Y-121140632D01*
X-49791651Y-121160038D01*
X-49784419Y-121180250D01*
X-49779203Y-121201074D01*
X-49776053Y-121222309D01*
X-49775000Y-121243750D01*
X-49775000Y-121756250D01*
X-49776053Y-121777691D01*
X-49779203Y-121798926D01*
X-49784419Y-121819750D01*
X-49791651Y-121839962D01*
X-49800830Y-121859368D01*
X-49811866Y-121877781D01*
X-49824654Y-121895024D01*
X-49839070Y-121910930D01*
X-49854976Y-121925346D01*
X-49872219Y-121938134D01*
X-49890632Y-121949170D01*
X-49910038Y-121958349D01*
X-49930250Y-121965581D01*
X-49951074Y-121970797D01*
X-49972309Y-121973947D01*
X-49993750Y-121975000D01*
X-50431250Y-121975000D01*
X-50452691Y-121973947D01*
X-50473926Y-121970797D01*
X-50494750Y-121965581D01*
X-50514962Y-121958349D01*
X-50534368Y-121949170D01*
X-50552781Y-121938134D01*
X-50570024Y-121925346D01*
X-50585930Y-121910930D01*
X-50600346Y-121895024D01*
X-50613134Y-121877781D01*
X-50624170Y-121859368D01*
X-50633349Y-121839962D01*
X-50640581Y-121819750D01*
X-50645797Y-121798926D01*
X-50648947Y-121777691D01*
X-50650000Y-121756250D01*
X-50650000Y-121243750D01*
X-50648947Y-121222309D01*
X-50645797Y-121201074D01*
X-50640581Y-121180250D01*
X-50633349Y-121160038D01*
X-50624170Y-121140632D01*
X-50613134Y-121122219D01*
X-50600346Y-121104976D01*
X-50585930Y-121089070D01*
X-50570024Y-121074654D01*
X-50552781Y-121061866D01*
X-50534368Y-121050830D01*
X-50514962Y-121041651D01*
X-50494750Y-121034419D01*
X-50473926Y-121029203D01*
X-50452691Y-121026053D01*
X-50431250Y-121025000D01*
X-49993750Y-121025000D01*
X-49972309Y-121026053D01*
G37*
D13*
X-40030400Y-117957600D03*
X-41300400Y-117957600D03*
X-42570400Y-117957600D03*
X-43840400Y-117957600D03*
X-45110400Y-117957600D03*
X-46380400Y-117957600D03*
X-47650400Y-117957600D03*
X-47650400Y-112776000D03*
X-46380400Y-112776000D03*
X-45110400Y-112776000D03*
X-43840400Y-112776000D03*
X-42570400Y-112776000D03*
X-41300400Y-112776000D03*
X-40030400Y-112776000D03*
D10*
G36*
X-51436709Y-116022653D02*
G01*
X-51415474Y-116025803D01*
X-51394650Y-116031019D01*
X-51374438Y-116038251D01*
X-51355032Y-116047430D01*
X-51336619Y-116058466D01*
X-51319376Y-116071254D01*
X-51303470Y-116085670D01*
X-51289054Y-116101576D01*
X-51276266Y-116118819D01*
X-51265230Y-116137232D01*
X-51256051Y-116156638D01*
X-51248819Y-116176850D01*
X-51243603Y-116197674D01*
X-51240453Y-116218909D01*
X-51239400Y-116240350D01*
X-51239400Y-116677850D01*
X-51240453Y-116699291D01*
X-51243603Y-116720526D01*
X-51248819Y-116741350D01*
X-51256051Y-116761562D01*
X-51265230Y-116780968D01*
X-51276266Y-116799381D01*
X-51289054Y-116816624D01*
X-51303470Y-116832530D01*
X-51319376Y-116846946D01*
X-51336619Y-116859734D01*
X-51355032Y-116870770D01*
X-51374438Y-116879949D01*
X-51394650Y-116887181D01*
X-51415474Y-116892397D01*
X-51436709Y-116895547D01*
X-51458150Y-116896600D01*
X-51970650Y-116896600D01*
X-51992091Y-116895547D01*
X-52013326Y-116892397D01*
X-52034150Y-116887181D01*
X-52054362Y-116879949D01*
X-52073768Y-116870770D01*
X-52092181Y-116859734D01*
X-52109424Y-116846946D01*
X-52125330Y-116832530D01*
X-52139746Y-116816624D01*
X-52152534Y-116799381D01*
X-52163570Y-116780968D01*
X-52172749Y-116761562D01*
X-52179981Y-116741350D01*
X-52185197Y-116720526D01*
X-52188347Y-116699291D01*
X-52189400Y-116677850D01*
X-52189400Y-116240350D01*
X-52188347Y-116218909D01*
X-52185197Y-116197674D01*
X-52179981Y-116176850D01*
X-52172749Y-116156638D01*
X-52163570Y-116137232D01*
X-52152534Y-116118819D01*
X-52139746Y-116101576D01*
X-52125330Y-116085670D01*
X-52109424Y-116071254D01*
X-52092181Y-116058466D01*
X-52073768Y-116047430D01*
X-52054362Y-116038251D01*
X-52034150Y-116031019D01*
X-52013326Y-116025803D01*
X-51992091Y-116022653D01*
X-51970650Y-116021600D01*
X-51458150Y-116021600D01*
X-51436709Y-116022653D01*
G37*
G36*
X-51436709Y-114447653D02*
G01*
X-51415474Y-114450803D01*
X-51394650Y-114456019D01*
X-51374438Y-114463251D01*
X-51355032Y-114472430D01*
X-51336619Y-114483466D01*
X-51319376Y-114496254D01*
X-51303470Y-114510670D01*
X-51289054Y-114526576D01*
X-51276266Y-114543819D01*
X-51265230Y-114562232D01*
X-51256051Y-114581638D01*
X-51248819Y-114601850D01*
X-51243603Y-114622674D01*
X-51240453Y-114643909D01*
X-51239400Y-114665350D01*
X-51239400Y-115102850D01*
X-51240453Y-115124291D01*
X-51243603Y-115145526D01*
X-51248819Y-115166350D01*
X-51256051Y-115186562D01*
X-51265230Y-115205968D01*
X-51276266Y-115224381D01*
X-51289054Y-115241624D01*
X-51303470Y-115257530D01*
X-51319376Y-115271946D01*
X-51336619Y-115284734D01*
X-51355032Y-115295770D01*
X-51374438Y-115304949D01*
X-51394650Y-115312181D01*
X-51415474Y-115317397D01*
X-51436709Y-115320547D01*
X-51458150Y-115321600D01*
X-51970650Y-115321600D01*
X-51992091Y-115320547D01*
X-52013326Y-115317397D01*
X-52034150Y-115312181D01*
X-52054362Y-115304949D01*
X-52073768Y-115295770D01*
X-52092181Y-115284734D01*
X-52109424Y-115271946D01*
X-52125330Y-115257530D01*
X-52139746Y-115241624D01*
X-52152534Y-115224381D01*
X-52163570Y-115205968D01*
X-52172749Y-115186562D01*
X-52179981Y-115166350D01*
X-52185197Y-115145526D01*
X-52188347Y-115124291D01*
X-52189400Y-115102850D01*
X-52189400Y-114665350D01*
X-52188347Y-114643909D01*
X-52185197Y-114622674D01*
X-52179981Y-114601850D01*
X-52172749Y-114581638D01*
X-52163570Y-114562232D01*
X-52152534Y-114543819D01*
X-52139746Y-114526576D01*
X-52125330Y-114510670D01*
X-52109424Y-114496254D01*
X-52092181Y-114483466D01*
X-52073768Y-114472430D01*
X-52054362Y-114463251D01*
X-52034150Y-114456019D01*
X-52013326Y-114450803D01*
X-51992091Y-114447653D01*
X-51970650Y-114446600D01*
X-51458150Y-114446600D01*
X-51436709Y-114447653D01*
G37*
G36*
X-41547309Y-121026053D02*
G01*
X-41526074Y-121029203D01*
X-41505250Y-121034419D01*
X-41485038Y-121041651D01*
X-41465632Y-121050830D01*
X-41447219Y-121061866D01*
X-41429976Y-121074654D01*
X-41414070Y-121089070D01*
X-41399654Y-121104976D01*
X-41386866Y-121122219D01*
X-41375830Y-121140632D01*
X-41366651Y-121160038D01*
X-41359419Y-121180250D01*
X-41354203Y-121201074D01*
X-41351053Y-121222309D01*
X-41350000Y-121243750D01*
X-41350000Y-121756250D01*
X-41351053Y-121777691D01*
X-41354203Y-121798926D01*
X-41359419Y-121819750D01*
X-41366651Y-121839962D01*
X-41375830Y-121859368D01*
X-41386866Y-121877781D01*
X-41399654Y-121895024D01*
X-41414070Y-121910930D01*
X-41429976Y-121925346D01*
X-41447219Y-121938134D01*
X-41465632Y-121949170D01*
X-41485038Y-121958349D01*
X-41505250Y-121965581D01*
X-41526074Y-121970797D01*
X-41547309Y-121973947D01*
X-41568750Y-121975000D01*
X-42006250Y-121975000D01*
X-42027691Y-121973947D01*
X-42048926Y-121970797D01*
X-42069750Y-121965581D01*
X-42089962Y-121958349D01*
X-42109368Y-121949170D01*
X-42127781Y-121938134D01*
X-42145024Y-121925346D01*
X-42160930Y-121910930D01*
X-42175346Y-121895024D01*
X-42188134Y-121877781D01*
X-42199170Y-121859368D01*
X-42208349Y-121839962D01*
X-42215581Y-121819750D01*
X-42220797Y-121798926D01*
X-42223947Y-121777691D01*
X-42225000Y-121756250D01*
X-42225000Y-121243750D01*
X-42223947Y-121222309D01*
X-42220797Y-121201074D01*
X-42215581Y-121180250D01*
X-42208349Y-121160038D01*
X-42199170Y-121140632D01*
X-42188134Y-121122219D01*
X-42175346Y-121104976D01*
X-42160930Y-121089070D01*
X-42145024Y-121074654D01*
X-42127781Y-121061866D01*
X-42109368Y-121050830D01*
X-42089962Y-121041651D01*
X-42069750Y-121034419D01*
X-42048926Y-121029203D01*
X-42027691Y-121026053D01*
X-42006250Y-121025000D01*
X-41568750Y-121025000D01*
X-41547309Y-121026053D01*
G37*
G36*
X-39972309Y-121026053D02*
G01*
X-39951074Y-121029203D01*
X-39930250Y-121034419D01*
X-39910038Y-121041651D01*
X-39890632Y-121050830D01*
X-39872219Y-121061866D01*
X-39854976Y-121074654D01*
X-39839070Y-121089070D01*
X-39824654Y-121104976D01*
X-39811866Y-121122219D01*
X-39800830Y-121140632D01*
X-39791651Y-121160038D01*
X-39784419Y-121180250D01*
X-39779203Y-121201074D01*
X-39776053Y-121222309D01*
X-39775000Y-121243750D01*
X-39775000Y-121756250D01*
X-39776053Y-121777691D01*
X-39779203Y-121798926D01*
X-39784419Y-121819750D01*
X-39791651Y-121839962D01*
X-39800830Y-121859368D01*
X-39811866Y-121877781D01*
X-39824654Y-121895024D01*
X-39839070Y-121910930D01*
X-39854976Y-121925346D01*
X-39872219Y-121938134D01*
X-39890632Y-121949170D01*
X-39910038Y-121958349D01*
X-39930250Y-121965581D01*
X-39951074Y-121970797D01*
X-39972309Y-121973947D01*
X-39993750Y-121975000D01*
X-40431250Y-121975000D01*
X-40452691Y-121973947D01*
X-40473926Y-121970797D01*
X-40494750Y-121965581D01*
X-40514962Y-121958349D01*
X-40534368Y-121949170D01*
X-40552781Y-121938134D01*
X-40570024Y-121925346D01*
X-40585930Y-121910930D01*
X-40600346Y-121895024D01*
X-40613134Y-121877781D01*
X-40624170Y-121859368D01*
X-40633349Y-121839962D01*
X-40640581Y-121819750D01*
X-40645797Y-121798926D01*
X-40648947Y-121777691D01*
X-40650000Y-121756250D01*
X-40650000Y-121243750D01*
X-40648947Y-121222309D01*
X-40645797Y-121201074D01*
X-40640581Y-121180250D01*
X-40633349Y-121160038D01*
X-40624170Y-121140632D01*
X-40613134Y-121122219D01*
X-40600346Y-121104976D01*
X-40585930Y-121089070D01*
X-40570024Y-121074654D01*
X-40552781Y-121061866D01*
X-40534368Y-121050830D01*
X-40514962Y-121041651D01*
X-40494750Y-121034419D01*
X-40473926Y-121029203D01*
X-40452691Y-121026053D01*
X-40431250Y-121025000D01*
X-39993750Y-121025000D01*
X-39972309Y-121026053D01*
G37*
G36*
X-44972309Y-121026053D02*
G01*
X-44951074Y-121029203D01*
X-44930250Y-121034419D01*
X-44910038Y-121041651D01*
X-44890632Y-121050830D01*
X-44872219Y-121061866D01*
X-44854976Y-121074654D01*
X-44839070Y-121089070D01*
X-44824654Y-121104976D01*
X-44811866Y-121122219D01*
X-44800830Y-121140632D01*
X-44791651Y-121160038D01*
X-44784419Y-121180250D01*
X-44779203Y-121201074D01*
X-44776053Y-121222309D01*
X-44775000Y-121243750D01*
X-44775000Y-121756250D01*
X-44776053Y-121777691D01*
X-44779203Y-121798926D01*
X-44784419Y-121819750D01*
X-44791651Y-121839962D01*
X-44800830Y-121859368D01*
X-44811866Y-121877781D01*
X-44824654Y-121895024D01*
X-44839070Y-121910930D01*
X-44854976Y-121925346D01*
X-44872219Y-121938134D01*
X-44890632Y-121949170D01*
X-44910038Y-121958349D01*
X-44930250Y-121965581D01*
X-44951074Y-121970797D01*
X-44972309Y-121973947D01*
X-44993750Y-121975000D01*
X-45431250Y-121975000D01*
X-45452691Y-121973947D01*
X-45473926Y-121970797D01*
X-45494750Y-121965581D01*
X-45514962Y-121958349D01*
X-45534368Y-121949170D01*
X-45552781Y-121938134D01*
X-45570024Y-121925346D01*
X-45585930Y-121910930D01*
X-45600346Y-121895024D01*
X-45613134Y-121877781D01*
X-45624170Y-121859368D01*
X-45633349Y-121839962D01*
X-45640581Y-121819750D01*
X-45645797Y-121798926D01*
X-45648947Y-121777691D01*
X-45650000Y-121756250D01*
X-45650000Y-121243750D01*
X-45648947Y-121222309D01*
X-45645797Y-121201074D01*
X-45640581Y-121180250D01*
X-45633349Y-121160038D01*
X-45624170Y-121140632D01*
X-45613134Y-121122219D01*
X-45600346Y-121104976D01*
X-45585930Y-121089070D01*
X-45570024Y-121074654D01*
X-45552781Y-121061866D01*
X-45534368Y-121050830D01*
X-45514962Y-121041651D01*
X-45494750Y-121034419D01*
X-45473926Y-121029203D01*
X-45452691Y-121026053D01*
X-45431250Y-121025000D01*
X-44993750Y-121025000D01*
X-44972309Y-121026053D01*
G37*
G36*
X-46547309Y-121026053D02*
G01*
X-46526074Y-121029203D01*
X-46505250Y-121034419D01*
X-46485038Y-121041651D01*
X-46465632Y-121050830D01*
X-46447219Y-121061866D01*
X-46429976Y-121074654D01*
X-46414070Y-121089070D01*
X-46399654Y-121104976D01*
X-46386866Y-121122219D01*
X-46375830Y-121140632D01*
X-46366651Y-121160038D01*
X-46359419Y-121180250D01*
X-46354203Y-121201074D01*
X-46351053Y-121222309D01*
X-46350000Y-121243750D01*
X-46350000Y-121756250D01*
X-46351053Y-121777691D01*
X-46354203Y-121798926D01*
X-46359419Y-121819750D01*
X-46366651Y-121839962D01*
X-46375830Y-121859368D01*
X-46386866Y-121877781D01*
X-46399654Y-121895024D01*
X-46414070Y-121910930D01*
X-46429976Y-121925346D01*
X-46447219Y-121938134D01*
X-46465632Y-121949170D01*
X-46485038Y-121958349D01*
X-46505250Y-121965581D01*
X-46526074Y-121970797D01*
X-46547309Y-121973947D01*
X-46568750Y-121975000D01*
X-47006250Y-121975000D01*
X-47027691Y-121973947D01*
X-47048926Y-121970797D01*
X-47069750Y-121965581D01*
X-47089962Y-121958349D01*
X-47109368Y-121949170D01*
X-47127781Y-121938134D01*
X-47145024Y-121925346D01*
X-47160930Y-121910930D01*
X-47175346Y-121895024D01*
X-47188134Y-121877781D01*
X-47199170Y-121859368D01*
X-47208349Y-121839962D01*
X-47215581Y-121819750D01*
X-47220797Y-121798926D01*
X-47223947Y-121777691D01*
X-47225000Y-121756250D01*
X-47225000Y-121243750D01*
X-47223947Y-121222309D01*
X-47220797Y-121201074D01*
X-47215581Y-121180250D01*
X-47208349Y-121160038D01*
X-47199170Y-121140632D01*
X-47188134Y-121122219D01*
X-47175346Y-121104976D01*
X-47160930Y-121089070D01*
X-47145024Y-121074654D01*
X-47127781Y-121061866D01*
X-47109368Y-121050830D01*
X-47089962Y-121041651D01*
X-47069750Y-121034419D01*
X-47048926Y-121029203D01*
X-47027691Y-121026053D01*
X-47006250Y-121025000D01*
X-46568750Y-121025000D01*
X-46547309Y-121026053D01*
G37*
G36*
X58787091Y-78570853D02*
G01*
X58808326Y-78574003D01*
X58829150Y-78579219D01*
X58849362Y-78586451D01*
X58868768Y-78595630D01*
X58887181Y-78606666D01*
X58904424Y-78619454D01*
X58920330Y-78633870D01*
X58934746Y-78649776D01*
X58947534Y-78667019D01*
X58958570Y-78685432D01*
X58967749Y-78704838D01*
X58974981Y-78725050D01*
X58980197Y-78745874D01*
X58983347Y-78767109D01*
X58984400Y-78788550D01*
X58984400Y-79301050D01*
X58983347Y-79322491D01*
X58980197Y-79343726D01*
X58974981Y-79364550D01*
X58967749Y-79384762D01*
X58958570Y-79404168D01*
X58947534Y-79422581D01*
X58934746Y-79439824D01*
X58920330Y-79455730D01*
X58904424Y-79470146D01*
X58887181Y-79482934D01*
X58868768Y-79493970D01*
X58849362Y-79503149D01*
X58829150Y-79510381D01*
X58808326Y-79515597D01*
X58787091Y-79518747D01*
X58765650Y-79519800D01*
X58328150Y-79519800D01*
X58306709Y-79518747D01*
X58285474Y-79515597D01*
X58264650Y-79510381D01*
X58244438Y-79503149D01*
X58225032Y-79493970D01*
X58206619Y-79482934D01*
X58189376Y-79470146D01*
X58173470Y-79455730D01*
X58159054Y-79439824D01*
X58146266Y-79422581D01*
X58135230Y-79404168D01*
X58126051Y-79384762D01*
X58118819Y-79364550D01*
X58113603Y-79343726D01*
X58110453Y-79322491D01*
X58109400Y-79301050D01*
X58109400Y-78788550D01*
X58110453Y-78767109D01*
X58113603Y-78745874D01*
X58118819Y-78725050D01*
X58126051Y-78704838D01*
X58135230Y-78685432D01*
X58146266Y-78667019D01*
X58159054Y-78649776D01*
X58173470Y-78633870D01*
X58189376Y-78619454D01*
X58206619Y-78606666D01*
X58225032Y-78595630D01*
X58244438Y-78586451D01*
X58264650Y-78579219D01*
X58285474Y-78574003D01*
X58306709Y-78570853D01*
X58328150Y-78569800D01*
X58765650Y-78569800D01*
X58787091Y-78570853D01*
G37*
G36*
X60362091Y-78570853D02*
G01*
X60383326Y-78574003D01*
X60404150Y-78579219D01*
X60424362Y-78586451D01*
X60443768Y-78595630D01*
X60462181Y-78606666D01*
X60479424Y-78619454D01*
X60495330Y-78633870D01*
X60509746Y-78649776D01*
X60522534Y-78667019D01*
X60533570Y-78685432D01*
X60542749Y-78704838D01*
X60549981Y-78725050D01*
X60555197Y-78745874D01*
X60558347Y-78767109D01*
X60559400Y-78788550D01*
X60559400Y-79301050D01*
X60558347Y-79322491D01*
X60555197Y-79343726D01*
X60549981Y-79364550D01*
X60542749Y-79384762D01*
X60533570Y-79404168D01*
X60522534Y-79422581D01*
X60509746Y-79439824D01*
X60495330Y-79455730D01*
X60479424Y-79470146D01*
X60462181Y-79482934D01*
X60443768Y-79493970D01*
X60424362Y-79503149D01*
X60404150Y-79510381D01*
X60383326Y-79515597D01*
X60362091Y-79518747D01*
X60340650Y-79519800D01*
X59903150Y-79519800D01*
X59881709Y-79518747D01*
X59860474Y-79515597D01*
X59839650Y-79510381D01*
X59819438Y-79503149D01*
X59800032Y-79493970D01*
X59781619Y-79482934D01*
X59764376Y-79470146D01*
X59748470Y-79455730D01*
X59734054Y-79439824D01*
X59721266Y-79422581D01*
X59710230Y-79404168D01*
X59701051Y-79384762D01*
X59693819Y-79364550D01*
X59688603Y-79343726D01*
X59685453Y-79322491D01*
X59684400Y-79301050D01*
X59684400Y-78788550D01*
X59685453Y-78767109D01*
X59688603Y-78745874D01*
X59693819Y-78725050D01*
X59701051Y-78704838D01*
X59710230Y-78685432D01*
X59721266Y-78667019D01*
X59734054Y-78649776D01*
X59748470Y-78633870D01*
X59764376Y-78619454D01*
X59781619Y-78606666D01*
X59800032Y-78595630D01*
X59819438Y-78586451D01*
X59839650Y-78579219D01*
X59860474Y-78574003D01*
X59881709Y-78570853D01*
X59903150Y-78569800D01*
X60340650Y-78569800D01*
X60362091Y-78570853D01*
G37*
G36*
X103703509Y-2101563D02*
G01*
X103724629Y-2105406D01*
X103745271Y-2111301D01*
X103765236Y-2119191D01*
X103784331Y-2128999D01*
X104228169Y-2385249D01*
X104246211Y-2396882D01*
X104263026Y-2410227D01*
X104278452Y-2425156D01*
X104292340Y-2441525D01*
X104304557Y-2459177D01*
X104314985Y-2477941D01*
X104323523Y-2497637D01*
X104330090Y-2518075D01*
X104334622Y-2539059D01*
X104337076Y-2560385D01*
X104337427Y-2581849D01*
X104335673Y-2603245D01*
X104331830Y-2624365D01*
X104325935Y-2645007D01*
X104318045Y-2664972D01*
X104308237Y-2684067D01*
X104089487Y-3062953D01*
X104077854Y-3080995D01*
X104064509Y-3097810D01*
X104049580Y-3113236D01*
X104033211Y-3127124D01*
X104015559Y-3139341D01*
X103996795Y-3149769D01*
X103977099Y-3158307D01*
X103956661Y-3164874D01*
X103935677Y-3169406D01*
X103914351Y-3171860D01*
X103892887Y-3172211D01*
X103871491Y-3170457D01*
X103850371Y-3166614D01*
X103829729Y-3160719D01*
X103809764Y-3152829D01*
X103790669Y-3143021D01*
X103346831Y-2886771D01*
X103328789Y-2875138D01*
X103311974Y-2861793D01*
X103296548Y-2846864D01*
X103282660Y-2830495D01*
X103270443Y-2812843D01*
X103260015Y-2794079D01*
X103251477Y-2774383D01*
X103244910Y-2753945D01*
X103240378Y-2732961D01*
X103237924Y-2711635D01*
X103237573Y-2690171D01*
X103239327Y-2668775D01*
X103243170Y-2647655D01*
X103249065Y-2627013D01*
X103256955Y-2607048D01*
X103266763Y-2587953D01*
X103485513Y-2209067D01*
X103497146Y-2191025D01*
X103510491Y-2174210D01*
X103525420Y-2158784D01*
X103541789Y-2144896D01*
X103559441Y-2132679D01*
X103578205Y-2122251D01*
X103597901Y-2113713D01*
X103618339Y-2107146D01*
X103639323Y-2102614D01*
X103660649Y-2100160D01*
X103682113Y-2099809D01*
X103703509Y-2101563D01*
G37*
G36*
X102916009Y-3465553D02*
G01*
X102937129Y-3469396D01*
X102957771Y-3475291D01*
X102977736Y-3483181D01*
X102996831Y-3492989D01*
X103440669Y-3749239D01*
X103458711Y-3760872D01*
X103475526Y-3774217D01*
X103490952Y-3789146D01*
X103504840Y-3805515D01*
X103517057Y-3823167D01*
X103527485Y-3841931D01*
X103536023Y-3861627D01*
X103542590Y-3882065D01*
X103547122Y-3903049D01*
X103549576Y-3924375D01*
X103549927Y-3945839D01*
X103548173Y-3967235D01*
X103544330Y-3988355D01*
X103538435Y-4008997D01*
X103530545Y-4028962D01*
X103520737Y-4048057D01*
X103301987Y-4426943D01*
X103290354Y-4444985D01*
X103277009Y-4461800D01*
X103262080Y-4477226D01*
X103245711Y-4491114D01*
X103228059Y-4503331D01*
X103209295Y-4513759D01*
X103189599Y-4522297D01*
X103169161Y-4528864D01*
X103148177Y-4533396D01*
X103126851Y-4535850D01*
X103105387Y-4536201D01*
X103083991Y-4534447D01*
X103062871Y-4530604D01*
X103042229Y-4524709D01*
X103022264Y-4516819D01*
X103003169Y-4507011D01*
X102559331Y-4250761D01*
X102541289Y-4239128D01*
X102524474Y-4225783D01*
X102509048Y-4210854D01*
X102495160Y-4194485D01*
X102482943Y-4176833D01*
X102472515Y-4158069D01*
X102463977Y-4138373D01*
X102457410Y-4117935D01*
X102452878Y-4096951D01*
X102450424Y-4075625D01*
X102450073Y-4054161D01*
X102451827Y-4032765D01*
X102455670Y-4011645D01*
X102461565Y-3991003D01*
X102469455Y-3971038D01*
X102479263Y-3951943D01*
X102698013Y-3573057D01*
X102709646Y-3555015D01*
X102722991Y-3538200D01*
X102737920Y-3522774D01*
X102754289Y-3508886D01*
X102771941Y-3496669D01*
X102790705Y-3486241D01*
X102810401Y-3477703D01*
X102830839Y-3471136D01*
X102851823Y-3466604D01*
X102873149Y-3464150D01*
X102894613Y-3463799D01*
X102916009Y-3465553D01*
G37*
G36*
X55790091Y-86140053D02*
G01*
X55811326Y-86143203D01*
X55832150Y-86148419D01*
X55852362Y-86155651D01*
X55871768Y-86164830D01*
X55890181Y-86175866D01*
X55907424Y-86188654D01*
X55923330Y-86203070D01*
X55937746Y-86218976D01*
X55950534Y-86236219D01*
X55961570Y-86254632D01*
X55970749Y-86274038D01*
X55977981Y-86294250D01*
X55983197Y-86315074D01*
X55986347Y-86336309D01*
X55987400Y-86357750D01*
X55987400Y-86870250D01*
X55986347Y-86891691D01*
X55983197Y-86912926D01*
X55977981Y-86933750D01*
X55970749Y-86953962D01*
X55961570Y-86973368D01*
X55950534Y-86991781D01*
X55937746Y-87009024D01*
X55923330Y-87024930D01*
X55907424Y-87039346D01*
X55890181Y-87052134D01*
X55871768Y-87063170D01*
X55852362Y-87072349D01*
X55832150Y-87079581D01*
X55811326Y-87084797D01*
X55790091Y-87087947D01*
X55768650Y-87089000D01*
X55331150Y-87089000D01*
X55309709Y-87087947D01*
X55288474Y-87084797D01*
X55267650Y-87079581D01*
X55247438Y-87072349D01*
X55228032Y-87063170D01*
X55209619Y-87052134D01*
X55192376Y-87039346D01*
X55176470Y-87024930D01*
X55162054Y-87009024D01*
X55149266Y-86991781D01*
X55138230Y-86973368D01*
X55129051Y-86953962D01*
X55121819Y-86933750D01*
X55116603Y-86912926D01*
X55113453Y-86891691D01*
X55112400Y-86870250D01*
X55112400Y-86357750D01*
X55113453Y-86336309D01*
X55116603Y-86315074D01*
X55121819Y-86294250D01*
X55129051Y-86274038D01*
X55138230Y-86254632D01*
X55149266Y-86236219D01*
X55162054Y-86218976D01*
X55176470Y-86203070D01*
X55192376Y-86188654D01*
X55209619Y-86175866D01*
X55228032Y-86164830D01*
X55247438Y-86155651D01*
X55267650Y-86148419D01*
X55288474Y-86143203D01*
X55309709Y-86140053D01*
X55331150Y-86139000D01*
X55768650Y-86139000D01*
X55790091Y-86140053D01*
G37*
G36*
X54215091Y-86140053D02*
G01*
X54236326Y-86143203D01*
X54257150Y-86148419D01*
X54277362Y-86155651D01*
X54296768Y-86164830D01*
X54315181Y-86175866D01*
X54332424Y-86188654D01*
X54348330Y-86203070D01*
X54362746Y-86218976D01*
X54375534Y-86236219D01*
X54386570Y-86254632D01*
X54395749Y-86274038D01*
X54402981Y-86294250D01*
X54408197Y-86315074D01*
X54411347Y-86336309D01*
X54412400Y-86357750D01*
X54412400Y-86870250D01*
X54411347Y-86891691D01*
X54408197Y-86912926D01*
X54402981Y-86933750D01*
X54395749Y-86953962D01*
X54386570Y-86973368D01*
X54375534Y-86991781D01*
X54362746Y-87009024D01*
X54348330Y-87024930D01*
X54332424Y-87039346D01*
X54315181Y-87052134D01*
X54296768Y-87063170D01*
X54277362Y-87072349D01*
X54257150Y-87079581D01*
X54236326Y-87084797D01*
X54215091Y-87087947D01*
X54193650Y-87089000D01*
X53756150Y-87089000D01*
X53734709Y-87087947D01*
X53713474Y-87084797D01*
X53692650Y-87079581D01*
X53672438Y-87072349D01*
X53653032Y-87063170D01*
X53634619Y-87052134D01*
X53617376Y-87039346D01*
X53601470Y-87024930D01*
X53587054Y-87009024D01*
X53574266Y-86991781D01*
X53563230Y-86973368D01*
X53554051Y-86953962D01*
X53546819Y-86933750D01*
X53541603Y-86912926D01*
X53538453Y-86891691D01*
X53537400Y-86870250D01*
X53537400Y-86357750D01*
X53538453Y-86336309D01*
X53541603Y-86315074D01*
X53546819Y-86294250D01*
X53554051Y-86274038D01*
X53563230Y-86254632D01*
X53574266Y-86236219D01*
X53587054Y-86218976D01*
X53601470Y-86203070D01*
X53617376Y-86188654D01*
X53634619Y-86175866D01*
X53653032Y-86164830D01*
X53672438Y-86155651D01*
X53692650Y-86148419D01*
X53713474Y-86143203D01*
X53734709Y-86140053D01*
X53756150Y-86139000D01*
X54193650Y-86139000D01*
X54215091Y-86140053D01*
G37*
G36*
X99309759Y-9534358D02*
G01*
X99330879Y-9538201D01*
X99351521Y-9544096D01*
X99371486Y-9551986D01*
X99390581Y-9561794D01*
X99834419Y-9818044D01*
X99852461Y-9829677D01*
X99869276Y-9843022D01*
X99884702Y-9857951D01*
X99898590Y-9874320D01*
X99910807Y-9891972D01*
X99921235Y-9910736D01*
X99929773Y-9930432D01*
X99936340Y-9950870D01*
X99940872Y-9971854D01*
X99943326Y-9993180D01*
X99943677Y-10014644D01*
X99941923Y-10036040D01*
X99938080Y-10057160D01*
X99932185Y-10077802D01*
X99924295Y-10097767D01*
X99914487Y-10116862D01*
X99695737Y-10495748D01*
X99684104Y-10513790D01*
X99670759Y-10530605D01*
X99655830Y-10546031D01*
X99639461Y-10559919D01*
X99621809Y-10572136D01*
X99603045Y-10582564D01*
X99583349Y-10591102D01*
X99562911Y-10597669D01*
X99541927Y-10602201D01*
X99520601Y-10604655D01*
X99499137Y-10605006D01*
X99477741Y-10603252D01*
X99456621Y-10599409D01*
X99435979Y-10593514D01*
X99416014Y-10585624D01*
X99396919Y-10575816D01*
X98953081Y-10319566D01*
X98935039Y-10307933D01*
X98918224Y-10294588D01*
X98902798Y-10279659D01*
X98888910Y-10263290D01*
X98876693Y-10245638D01*
X98866265Y-10226874D01*
X98857727Y-10207178D01*
X98851160Y-10186740D01*
X98846628Y-10165756D01*
X98844174Y-10144430D01*
X98843823Y-10122966D01*
X98845577Y-10101570D01*
X98849420Y-10080450D01*
X98855315Y-10059808D01*
X98863205Y-10039843D01*
X98873013Y-10020748D01*
X99091763Y-9641862D01*
X99103396Y-9623820D01*
X99116741Y-9607005D01*
X99131670Y-9591579D01*
X99148039Y-9577691D01*
X99165691Y-9565474D01*
X99184455Y-9555046D01*
X99204151Y-9546508D01*
X99224589Y-9539941D01*
X99245573Y-9535409D01*
X99266899Y-9532955D01*
X99288363Y-9532604D01*
X99309759Y-9534358D01*
G37*
G36*
X98522259Y-10898348D02*
G01*
X98543379Y-10902191D01*
X98564021Y-10908086D01*
X98583986Y-10915976D01*
X98603081Y-10925784D01*
X99046919Y-11182034D01*
X99064961Y-11193667D01*
X99081776Y-11207012D01*
X99097202Y-11221941D01*
X99111090Y-11238310D01*
X99123307Y-11255962D01*
X99133735Y-11274726D01*
X99142273Y-11294422D01*
X99148840Y-11314860D01*
X99153372Y-11335844D01*
X99155826Y-11357170D01*
X99156177Y-11378634D01*
X99154423Y-11400030D01*
X99150580Y-11421150D01*
X99144685Y-11441792D01*
X99136795Y-11461757D01*
X99126987Y-11480852D01*
X98908237Y-11859738D01*
X98896604Y-11877780D01*
X98883259Y-11894595D01*
X98868330Y-11910021D01*
X98851961Y-11923909D01*
X98834309Y-11936126D01*
X98815545Y-11946554D01*
X98795849Y-11955092D01*
X98775411Y-11961659D01*
X98754427Y-11966191D01*
X98733101Y-11968645D01*
X98711637Y-11968996D01*
X98690241Y-11967242D01*
X98669121Y-11963399D01*
X98648479Y-11957504D01*
X98628514Y-11949614D01*
X98609419Y-11939806D01*
X98165581Y-11683556D01*
X98147539Y-11671923D01*
X98130724Y-11658578D01*
X98115298Y-11643649D01*
X98101410Y-11627280D01*
X98089193Y-11609628D01*
X98078765Y-11590864D01*
X98070227Y-11571168D01*
X98063660Y-11550730D01*
X98059128Y-11529746D01*
X98056674Y-11508420D01*
X98056323Y-11486956D01*
X98058077Y-11465560D01*
X98061920Y-11444440D01*
X98067815Y-11423798D01*
X98075705Y-11403833D01*
X98085513Y-11384738D01*
X98304263Y-11005852D01*
X98315896Y-10987810D01*
X98329241Y-10970995D01*
X98344170Y-10955569D01*
X98360539Y-10941681D01*
X98378191Y-10929464D01*
X98396955Y-10919036D01*
X98416651Y-10910498D01*
X98437089Y-10903931D01*
X98458073Y-10899399D01*
X98479399Y-10896945D01*
X98500863Y-10896594D01*
X98522259Y-10898348D01*
G37*
G36*
X101538159Y-5775158D02*
G01*
X101559279Y-5779001D01*
X101579921Y-5784896D01*
X101599886Y-5792786D01*
X101618981Y-5802594D01*
X102062819Y-6058844D01*
X102080861Y-6070477D01*
X102097676Y-6083822D01*
X102113102Y-6098751D01*
X102126990Y-6115120D01*
X102139207Y-6132772D01*
X102149635Y-6151536D01*
X102158173Y-6171232D01*
X102164740Y-6191670D01*
X102169272Y-6212654D01*
X102171726Y-6233980D01*
X102172077Y-6255444D01*
X102170323Y-6276840D01*
X102166480Y-6297960D01*
X102160585Y-6318602D01*
X102152695Y-6338567D01*
X102142887Y-6357662D01*
X101924137Y-6736548D01*
X101912504Y-6754590D01*
X101899159Y-6771405D01*
X101884230Y-6786831D01*
X101867861Y-6800719D01*
X101850209Y-6812936D01*
X101831445Y-6823364D01*
X101811749Y-6831902D01*
X101791311Y-6838469D01*
X101770327Y-6843001D01*
X101749001Y-6845455D01*
X101727537Y-6845806D01*
X101706141Y-6844052D01*
X101685021Y-6840209D01*
X101664379Y-6834314D01*
X101644414Y-6826424D01*
X101625319Y-6816616D01*
X101181481Y-6560366D01*
X101163439Y-6548733D01*
X101146624Y-6535388D01*
X101131198Y-6520459D01*
X101117310Y-6504090D01*
X101105093Y-6486438D01*
X101094665Y-6467674D01*
X101086127Y-6447978D01*
X101079560Y-6427540D01*
X101075028Y-6406556D01*
X101072574Y-6385230D01*
X101072223Y-6363766D01*
X101073977Y-6342370D01*
X101077820Y-6321250D01*
X101083715Y-6300608D01*
X101091605Y-6280643D01*
X101101413Y-6261548D01*
X101320163Y-5882662D01*
X101331796Y-5864620D01*
X101345141Y-5847805D01*
X101360070Y-5832379D01*
X101376439Y-5818491D01*
X101394091Y-5806274D01*
X101412855Y-5795846D01*
X101432551Y-5787308D01*
X101452989Y-5780741D01*
X101473973Y-5776209D01*
X101495299Y-5773755D01*
X101516763Y-5773404D01*
X101538159Y-5775158D01*
G37*
G36*
X100750659Y-7139148D02*
G01*
X100771779Y-7142991D01*
X100792421Y-7148886D01*
X100812386Y-7156776D01*
X100831481Y-7166584D01*
X101275319Y-7422834D01*
X101293361Y-7434467D01*
X101310176Y-7447812D01*
X101325602Y-7462741D01*
X101339490Y-7479110D01*
X101351707Y-7496762D01*
X101362135Y-7515526D01*
X101370673Y-7535222D01*
X101377240Y-7555660D01*
X101381772Y-7576644D01*
X101384226Y-7597970D01*
X101384577Y-7619434D01*
X101382823Y-7640830D01*
X101378980Y-7661950D01*
X101373085Y-7682592D01*
X101365195Y-7702557D01*
X101355387Y-7721652D01*
X101136637Y-8100538D01*
X101125004Y-8118580D01*
X101111659Y-8135395D01*
X101096730Y-8150821D01*
X101080361Y-8164709D01*
X101062709Y-8176926D01*
X101043945Y-8187354D01*
X101024249Y-8195892D01*
X101003811Y-8202459D01*
X100982827Y-8206991D01*
X100961501Y-8209445D01*
X100940037Y-8209796D01*
X100918641Y-8208042D01*
X100897521Y-8204199D01*
X100876879Y-8198304D01*
X100856914Y-8190414D01*
X100837819Y-8180606D01*
X100393981Y-7924356D01*
X100375939Y-7912723D01*
X100359124Y-7899378D01*
X100343698Y-7884449D01*
X100329810Y-7868080D01*
X100317593Y-7850428D01*
X100307165Y-7831664D01*
X100298627Y-7811968D01*
X100292060Y-7791530D01*
X100287528Y-7770546D01*
X100285074Y-7749220D01*
X100284723Y-7727756D01*
X100286477Y-7706360D01*
X100290320Y-7685240D01*
X100296215Y-7664598D01*
X100304105Y-7644633D01*
X100313913Y-7625538D01*
X100532663Y-7246652D01*
X100544296Y-7228610D01*
X100557641Y-7211795D01*
X100572570Y-7196369D01*
X100588939Y-7182481D01*
X100606591Y-7170264D01*
X100625355Y-7159836D01*
X100645051Y-7151298D01*
X100665489Y-7144731D01*
X100686473Y-7140199D01*
X100707799Y-7137745D01*
X100729263Y-7137394D01*
X100750659Y-7139148D01*
G37*
G36*
X-1047309Y75473947D02*
G01*
X-1026074Y75470797D01*
X-1005250Y75465581D01*
X-985038Y75458349D01*
X-965632Y75449170D01*
X-947219Y75438134D01*
X-929976Y75425346D01*
X-914070Y75410930D01*
X-899654Y75395024D01*
X-886866Y75377781D01*
X-875830Y75359368D01*
X-866651Y75339962D01*
X-859419Y75319750D01*
X-854203Y75298926D01*
X-851053Y75277691D01*
X-850000Y75256250D01*
X-850000Y74743750D01*
X-851053Y74722309D01*
X-854203Y74701074D01*
X-859419Y74680250D01*
X-866651Y74660038D01*
X-875830Y74640632D01*
X-886866Y74622219D01*
X-899654Y74604976D01*
X-914070Y74589070D01*
X-929976Y74574654D01*
X-947219Y74561866D01*
X-965632Y74550830D01*
X-985038Y74541651D01*
X-1005250Y74534419D01*
X-1026074Y74529203D01*
X-1047309Y74526053D01*
X-1068750Y74525000D01*
X-1506250Y74525000D01*
X-1527691Y74526053D01*
X-1548926Y74529203D01*
X-1569750Y74534419D01*
X-1589962Y74541651D01*
X-1609368Y74550830D01*
X-1627781Y74561866D01*
X-1645024Y74574654D01*
X-1660930Y74589070D01*
X-1675346Y74604976D01*
X-1688134Y74622219D01*
X-1699170Y74640632D01*
X-1708349Y74660038D01*
X-1715581Y74680250D01*
X-1720797Y74701074D01*
X-1723947Y74722309D01*
X-1725000Y74743750D01*
X-1725000Y75256250D01*
X-1723947Y75277691D01*
X-1720797Y75298926D01*
X-1715581Y75319750D01*
X-1708349Y75339962D01*
X-1699170Y75359368D01*
X-1688134Y75377781D01*
X-1675346Y75395024D01*
X-1660930Y75410930D01*
X-1645024Y75425346D01*
X-1627781Y75438134D01*
X-1609368Y75449170D01*
X-1589962Y75458349D01*
X-1569750Y75465581D01*
X-1548926Y75470797D01*
X-1527691Y75473947D01*
X-1506250Y75475000D01*
X-1068750Y75475000D01*
X-1047309Y75473947D01*
G37*
G36*
X527691Y75473947D02*
G01*
X548926Y75470797D01*
X569750Y75465581D01*
X589962Y75458349D01*
X609368Y75449170D01*
X627781Y75438134D01*
X645024Y75425346D01*
X660930Y75410930D01*
X675346Y75395024D01*
X688134Y75377781D01*
X699170Y75359368D01*
X708349Y75339962D01*
X715581Y75319750D01*
X720797Y75298926D01*
X723947Y75277691D01*
X725000Y75256250D01*
X725000Y74743750D01*
X723947Y74722309D01*
X720797Y74701074D01*
X715581Y74680250D01*
X708349Y74660038D01*
X699170Y74640632D01*
X688134Y74622219D01*
X675346Y74604976D01*
X660930Y74589070D01*
X645024Y74574654D01*
X627781Y74561866D01*
X609368Y74550830D01*
X589962Y74541651D01*
X569750Y74534419D01*
X548926Y74529203D01*
X527691Y74526053D01*
X506250Y74525000D01*
X68750Y74525000D01*
X47309Y74526053D01*
X26074Y74529203D01*
X5250Y74534419D01*
X-14962Y74541651D01*
X-34368Y74550830D01*
X-52781Y74561866D01*
X-70024Y74574654D01*
X-85930Y74589070D01*
X-100346Y74604976D01*
X-113134Y74622219D01*
X-124170Y74640632D01*
X-133349Y74660038D01*
X-140581Y74680250D01*
X-145797Y74701074D01*
X-148947Y74722309D01*
X-150000Y74743750D01*
X-150000Y75256250D01*
X-148947Y75277691D01*
X-145797Y75298926D01*
X-140581Y75319750D01*
X-133349Y75339962D01*
X-124170Y75359368D01*
X-113134Y75377781D01*
X-100346Y75395024D01*
X-85930Y75410930D01*
X-70024Y75425346D01*
X-52781Y75438134D01*
X-34368Y75449170D01*
X-14962Y75458349D01*
X5250Y75465581D01*
X26074Y75470797D01*
X47309Y75473947D01*
X68750Y75475000D01*
X506250Y75475000D01*
X527691Y75473947D01*
G37*
M02*
