M48
; DRILL file {KiCad (5.1.5-0-10_14)} date Monday, November 09, 2020 at 07:07:29 PM
; FORMAT={-:-/ absolute / inch / decimal}
; #@! TF.CreationDate,2020-11-09T19:07:29-05:00
; #@! TF.GenerationSoftware,Kicad,Pcbnew,(5.1.5-0-10_14)
; #@! TF.FileFunction,NonPlated,1,2,NPTH
FMAT,2
INCH
T1C0.0472
T2C0.0945
T3C0.1260
%
G90
G05
T1
X2.4921Y-1.4744
X2.4764Y-2.6693
X2.5673Y-3.3742
X3.1469Y-2.3674
X4.3062Y-0.3541
X3.7266Y-1.3608
X1.631Y4.0107
X0.469Y4.0107
X-0.693Y4.0107
X-1.855Y4.0107
X-4.2159Y-0.5394
X-3.6305Y-1.5455
X-3.0452Y-2.5517
X-2.4598Y-3.5578
T2
X-1.752Y-5.2402
X-1.1614Y-5.2402
X-0.9016Y-5.2402
X-0.311Y-5.2402
T3
X-0.3268Y-1.8634
X0.2732Y-2.8134
X1.3732Y-2.8134
X1.5732Y-1.6134
X1.5732Y-4.8634
T0
M30
