G04 #@! TF.GenerationSoftware,KiCad,Pcbnew,(5.1.5-0-10_14)*
G04 #@! TF.CreationDate,2020-11-09T19:07:26-05:00*
G04 #@! TF.ProjectId,rainboard_newfighter,7261696e-626f-4617-9264-5f6e65776669,rev?*
G04 #@! TF.SameCoordinates,Original*
G04 #@! TF.FileFunction,Legend,Bot*
G04 #@! TF.FilePolarity,Positive*
%FSLAX46Y46*%
G04 Gerber Fmt 4.6, Leading zero omitted, Abs format (unit mm)*
G04 Created by KiCad (PCBNEW (5.1.5-0-10_14)) date 2020-11-09 19:07:26*
%MOMM*%
%LPD*%
G04 APERTURE LIST*
%ADD10C,0.150000*%
%ADD11C,0.120000*%
G04 APERTURE END LIST*
D10*
X55902380Y-123702380D02*
X56235714Y-123226190D01*
X56473809Y-123702380D02*
X56473809Y-122702380D01*
X56092857Y-122702380D01*
X55997619Y-122750000D01*
X55950000Y-122797619D01*
X55902380Y-122892857D01*
X55902380Y-123035714D01*
X55950000Y-123130952D01*
X55997619Y-123178571D01*
X56092857Y-123226190D01*
X56473809Y-123226190D01*
X55045238Y-123702380D02*
X55045238Y-123178571D01*
X55092857Y-123083333D01*
X55188095Y-123035714D01*
X55378571Y-123035714D01*
X55473809Y-123083333D01*
X55045238Y-123654761D02*
X55140476Y-123702380D01*
X55378571Y-123702380D01*
X55473809Y-123654761D01*
X55521428Y-123559523D01*
X55521428Y-123464285D01*
X55473809Y-123369047D01*
X55378571Y-123321428D01*
X55140476Y-123321428D01*
X55045238Y-123273809D01*
X54569047Y-123702380D02*
X54569047Y-123035714D01*
X54569047Y-122702380D02*
X54616666Y-122750000D01*
X54569047Y-122797619D01*
X54521428Y-122750000D01*
X54569047Y-122702380D01*
X54569047Y-122797619D01*
X54092857Y-123035714D02*
X54092857Y-123702380D01*
X54092857Y-123130952D02*
X54045238Y-123083333D01*
X53950000Y-123035714D01*
X53807142Y-123035714D01*
X53711904Y-123083333D01*
X53664285Y-123178571D01*
X53664285Y-123702380D01*
X53188095Y-123702380D02*
X53188095Y-122702380D01*
X53188095Y-123083333D02*
X53092857Y-123035714D01*
X52902380Y-123035714D01*
X52807142Y-123083333D01*
X52759523Y-123130952D01*
X52711904Y-123226190D01*
X52711904Y-123511904D01*
X52759523Y-123607142D01*
X52807142Y-123654761D01*
X52902380Y-123702380D01*
X53092857Y-123702380D01*
X53188095Y-123654761D01*
X52140476Y-123702380D02*
X52235714Y-123654761D01*
X52283333Y-123607142D01*
X52330952Y-123511904D01*
X52330952Y-123226190D01*
X52283333Y-123130952D01*
X52235714Y-123083333D01*
X52140476Y-123035714D01*
X51997619Y-123035714D01*
X51902380Y-123083333D01*
X51854761Y-123130952D01*
X51807142Y-123226190D01*
X51807142Y-123511904D01*
X51854761Y-123607142D01*
X51902380Y-123654761D01*
X51997619Y-123702380D01*
X52140476Y-123702380D01*
X50950000Y-123702380D02*
X50950000Y-123178571D01*
X50997619Y-123083333D01*
X51092857Y-123035714D01*
X51283333Y-123035714D01*
X51378571Y-123083333D01*
X50950000Y-123654761D02*
X51045238Y-123702380D01*
X51283333Y-123702380D01*
X51378571Y-123654761D01*
X51426190Y-123559523D01*
X51426190Y-123464285D01*
X51378571Y-123369047D01*
X51283333Y-123321428D01*
X51045238Y-123321428D01*
X50950000Y-123273809D01*
X50473809Y-123702380D02*
X50473809Y-123035714D01*
X50473809Y-123226190D02*
X50426190Y-123130952D01*
X50378571Y-123083333D01*
X50283333Y-123035714D01*
X50188095Y-123035714D01*
X49426190Y-123702380D02*
X49426190Y-122702380D01*
X49426190Y-123654761D02*
X49521428Y-123702380D01*
X49711904Y-123702380D01*
X49807142Y-123654761D01*
X49854761Y-123607142D01*
X49902380Y-123511904D01*
X49902380Y-123226190D01*
X49854761Y-123130952D01*
X49807142Y-123083333D01*
X49711904Y-123035714D01*
X49521428Y-123035714D01*
X49426190Y-123083333D01*
X48330952Y-122702380D02*
X47997619Y-123702380D01*
X47664285Y-122702380D01*
X47140476Y-122702380D02*
X47045238Y-122702380D01*
X46950000Y-122750000D01*
X46902380Y-122797619D01*
X46854761Y-122892857D01*
X46807142Y-123083333D01*
X46807142Y-123321428D01*
X46854761Y-123511904D01*
X46902380Y-123607142D01*
X46950000Y-123654761D01*
X47045238Y-123702380D01*
X47140476Y-123702380D01*
X47235714Y-123654761D01*
X47283333Y-123607142D01*
X47330952Y-123511904D01*
X47378571Y-123321428D01*
X47378571Y-123083333D01*
X47330952Y-122892857D01*
X47283333Y-122797619D01*
X47235714Y-122750000D01*
X47140476Y-122702380D01*
X46378571Y-123607142D02*
X46330952Y-123654761D01*
X46378571Y-123702380D01*
X46426190Y-123654761D01*
X46378571Y-123607142D01*
X46378571Y-123702380D01*
X45473809Y-123035714D02*
X45473809Y-123702380D01*
X45711904Y-122654761D02*
X45950000Y-123369047D01*
X45330952Y-123369047D01*
D11*
X64150000Y-63050000D02*
X64150000Y-64300000D01*
X62900000Y-63050000D02*
X64150000Y-63050000D01*
X54500000Y-68550000D02*
X58800000Y-68550000D01*
X54500000Y-65600000D02*
X54500000Y-68550000D01*
X53750000Y-65600000D02*
X54500000Y-65600000D01*
X58800000Y-68550000D02*
X62040000Y-68550000D01*
X63100000Y-65600000D02*
X63100000Y-66940000D01*
X63850000Y-65600000D02*
X63100000Y-65600000D01*
X53750000Y-63350000D02*
X55550000Y-63350000D01*
X53750000Y-64100000D02*
X53750000Y-63350000D01*
X55550000Y-64100000D02*
X53750000Y-64100000D01*
X55550000Y-63350000D02*
X55550000Y-64100000D01*
X62050000Y-63350000D02*
X63850000Y-63350000D01*
X62050000Y-64100000D02*
X62050000Y-63350000D01*
X63850000Y-64100000D02*
X62050000Y-64100000D01*
X63850000Y-63350000D02*
X63850000Y-64100000D01*
X57050000Y-63350000D02*
X60550000Y-63350000D01*
X57050000Y-64100000D02*
X57050000Y-63350000D01*
X60550000Y-64100000D02*
X57050000Y-64100000D01*
X60550000Y-63350000D02*
X60550000Y-64100000D01*
X53740000Y-63340000D02*
X63860000Y-63340000D01*
X53740000Y-69310000D02*
X53740000Y-63340000D01*
X63860000Y-69310000D02*
X53740000Y-69310000D01*
X63860000Y-63340000D02*
X63860000Y-69310000D01*
X64550000Y-32700000D02*
X64550000Y-33950000D01*
X63300000Y-32700000D02*
X64550000Y-32700000D01*
X54900000Y-38200000D02*
X59200000Y-38200000D01*
X54900000Y-35250000D02*
X54900000Y-38200000D01*
X54150000Y-35250000D02*
X54900000Y-35250000D01*
X59200000Y-38200000D02*
X62440000Y-38200000D01*
X63500000Y-35250000D02*
X63500000Y-36590000D01*
X64250000Y-35250000D02*
X63500000Y-35250000D01*
X54150000Y-33000000D02*
X55950000Y-33000000D01*
X54150000Y-33750000D02*
X54150000Y-33000000D01*
X55950000Y-33750000D02*
X54150000Y-33750000D01*
X55950000Y-33000000D02*
X55950000Y-33750000D01*
X62450000Y-33000000D02*
X64250000Y-33000000D01*
X62450000Y-33750000D02*
X62450000Y-33000000D01*
X64250000Y-33750000D02*
X62450000Y-33750000D01*
X64250000Y-33000000D02*
X64250000Y-33750000D01*
X57450000Y-33000000D02*
X60950000Y-33000000D01*
X57450000Y-33750000D02*
X57450000Y-33000000D01*
X60950000Y-33750000D02*
X57450000Y-33750000D01*
X60950000Y-33000000D02*
X60950000Y-33750000D01*
X54140000Y-32990000D02*
X64260000Y-32990000D01*
X54140000Y-38960000D02*
X54140000Y-32990000D01*
X64260000Y-38960000D02*
X54140000Y-38960000D01*
X64260000Y-32990000D02*
X64260000Y-38960000D01*
X61720130Y-82246028D02*
X62802662Y-82871028D01*
X61095130Y-83328559D02*
X61720130Y-82246028D01*
X62908270Y-91188109D02*
X64433270Y-88546732D01*
X60353495Y-89713109D02*
X62908270Y-91188109D01*
X59978495Y-90362628D02*
X60353495Y-89713109D01*
X64433270Y-88546732D02*
X65428270Y-86823341D01*
X63403495Y-84430354D02*
X64563969Y-85100354D01*
X63778495Y-83780835D02*
X63403495Y-84430354D01*
X58029938Y-89237628D02*
X58929938Y-87678783D01*
X58679457Y-89612628D02*
X58029938Y-89237628D01*
X59579457Y-88053783D02*
X58679457Y-89612628D01*
X58929938Y-87678783D02*
X59579457Y-88053783D01*
X60929938Y-84214681D02*
X61829938Y-82655835D01*
X61579457Y-84589681D02*
X60929938Y-84214681D01*
X62479457Y-83030835D02*
X61579457Y-84589681D01*
X61829938Y-82655835D02*
X62479457Y-83030835D01*
X59679938Y-86379744D02*
X60179938Y-85513719D01*
X60329457Y-86754744D02*
X59679938Y-86379744D01*
X60829457Y-85888719D02*
X60329457Y-86754744D01*
X60179938Y-85513719D02*
X60829457Y-85888719D01*
X58016278Y-89241289D02*
X61826278Y-82642175D01*
X63186449Y-92226289D02*
X58016278Y-89241289D01*
X66996449Y-85627175D02*
X63186449Y-92226289D01*
X61826278Y-82642175D02*
X66996449Y-85627175D01*
X76442830Y-56675628D02*
X77525362Y-57300628D01*
X75817830Y-57758159D02*
X76442830Y-56675628D01*
X77630970Y-65617709D02*
X79155970Y-62976332D01*
X75076195Y-64142709D02*
X77630970Y-65617709D01*
X74701195Y-64792228D02*
X75076195Y-64142709D01*
X79155970Y-62976332D02*
X80150970Y-61252941D01*
X78126195Y-58859954D02*
X79286669Y-59529954D01*
X78501195Y-58210435D02*
X78126195Y-58859954D01*
X72752638Y-63667228D02*
X73652638Y-62108383D01*
X73402157Y-64042228D02*
X72752638Y-63667228D01*
X74302157Y-62483383D02*
X73402157Y-64042228D01*
X73652638Y-62108383D02*
X74302157Y-62483383D01*
X75652638Y-58644281D02*
X76552638Y-57085435D01*
X76302157Y-59019281D02*
X75652638Y-58644281D01*
X77202157Y-57460435D02*
X76302157Y-59019281D01*
X76552638Y-57085435D02*
X77202157Y-57460435D01*
X74402638Y-60809344D02*
X74902638Y-59943319D01*
X75052157Y-61184344D02*
X74402638Y-60809344D01*
X75552157Y-60318319D02*
X75052157Y-61184344D01*
X74902638Y-59943319D02*
X75552157Y-60318319D01*
X72738978Y-63670889D02*
X76548978Y-57071775D01*
X77909149Y-66655889D02*
X72738978Y-63670889D01*
X81719149Y-60056775D02*
X77909149Y-66655889D01*
X76548978Y-57071775D02*
X81719149Y-60056775D01*
X91165830Y-31105628D02*
X92248362Y-31730628D01*
X90540830Y-32188159D02*
X91165830Y-31105628D01*
X92353970Y-40047709D02*
X93878970Y-37406332D01*
X89799195Y-38572709D02*
X92353970Y-40047709D01*
X89424195Y-39222228D02*
X89799195Y-38572709D01*
X93878970Y-37406332D02*
X94873970Y-35682941D01*
X92849195Y-33289954D02*
X94009669Y-33959954D01*
X93224195Y-32640435D02*
X92849195Y-33289954D01*
X87475638Y-38097228D02*
X88375638Y-36538383D01*
X88125157Y-38472228D02*
X87475638Y-38097228D01*
X89025157Y-36913383D02*
X88125157Y-38472228D01*
X88375638Y-36538383D02*
X89025157Y-36913383D01*
X90375638Y-33074281D02*
X91275638Y-31515435D01*
X91025157Y-33449281D02*
X90375638Y-33074281D01*
X91925157Y-31890435D02*
X91025157Y-33449281D01*
X91275638Y-31515435D02*
X91925157Y-31890435D01*
X89125638Y-35239344D02*
X89625638Y-34373319D01*
X89775157Y-35614344D02*
X89125638Y-35239344D01*
X90275157Y-34748319D02*
X89775157Y-35614344D01*
X89625638Y-34373319D02*
X90275157Y-34748319D01*
X87461978Y-38100889D02*
X91271978Y-31501775D01*
X92632149Y-41085889D02*
X87461978Y-38100889D01*
X96442149Y-34486775D02*
X92632149Y-41085889D01*
X91271978Y-31501775D02*
X96442149Y-34486775D01*
X105888430Y-5535628D02*
X106970962Y-6160628D01*
X105263430Y-6618159D02*
X105888430Y-5535628D01*
X107076570Y-14477709D02*
X108601570Y-11836332D01*
X104521795Y-13002709D02*
X107076570Y-14477709D01*
X104146795Y-13652228D02*
X104521795Y-13002709D01*
X108601570Y-11836332D02*
X109596570Y-10112941D01*
X107571795Y-7719954D02*
X108732269Y-8389954D01*
X107946795Y-7070435D02*
X107571795Y-7719954D01*
X102198238Y-12527228D02*
X103098238Y-10968383D01*
X102847757Y-12902228D02*
X102198238Y-12527228D01*
X103747757Y-11343383D02*
X102847757Y-12902228D01*
X103098238Y-10968383D02*
X103747757Y-11343383D01*
X105098238Y-7504281D02*
X105998238Y-5945435D01*
X105747757Y-7879281D02*
X105098238Y-7504281D01*
X106647757Y-6320435D02*
X105747757Y-7879281D01*
X105998238Y-5945435D02*
X106647757Y-6320435D01*
X103848238Y-9669344D02*
X104348238Y-8803319D01*
X104497757Y-10044344D02*
X103848238Y-9669344D01*
X104997757Y-9178319D02*
X104497757Y-10044344D01*
X104348238Y-8803319D02*
X104997757Y-9178319D01*
X102184578Y-12530889D02*
X105994578Y-5931775D01*
X107354749Y-15515889D02*
X102184578Y-12530889D01*
X111164749Y-8916775D02*
X107354749Y-15515889D01*
X105994578Y-5931775D02*
X111164749Y-8916775D01*
X40177600Y97122800D02*
X40177600Y98372800D01*
X41427600Y97122800D02*
X40177600Y97122800D01*
X47327600Y102622800D02*
X44277600Y102622800D01*
X47327600Y99672800D02*
X47327600Y102622800D01*
X48077600Y99672800D02*
X47327600Y99672800D01*
X44277600Y102622800D02*
X42287600Y102622800D01*
X41227600Y99672800D02*
X41227600Y101012800D01*
X40477600Y99672800D02*
X41227600Y99672800D01*
X48077600Y97422800D02*
X46277600Y97422800D01*
X48077600Y98172800D02*
X48077600Y97422800D01*
X46277600Y98172800D02*
X48077600Y98172800D01*
X46277600Y97422800D02*
X46277600Y98172800D01*
X42277600Y97422800D02*
X40477600Y97422800D01*
X42277600Y98172800D02*
X42277600Y97422800D01*
X40477600Y98172800D02*
X42277600Y98172800D01*
X40477600Y97422800D02*
X40477600Y98172800D01*
X44777600Y97422800D02*
X43777600Y97422800D01*
X44777600Y98172800D02*
X44777600Y97422800D01*
X43777600Y98172800D02*
X44777600Y98172800D01*
X43777600Y97422800D02*
X43777600Y98172800D01*
X48087600Y97412800D02*
X40467600Y97412800D01*
X48087600Y103382800D02*
X48087600Y97412800D01*
X40467600Y103382800D02*
X48087600Y103382800D01*
X40467600Y97412800D02*
X40467600Y103382800D01*
X10662800Y97122800D02*
X10662800Y98372800D01*
X11912800Y97122800D02*
X10662800Y97122800D01*
X17812800Y102622800D02*
X14762800Y102622800D01*
X17812800Y99672800D02*
X17812800Y102622800D01*
X18562800Y99672800D02*
X17812800Y99672800D01*
X14762800Y102622800D02*
X12772800Y102622800D01*
X11712800Y99672800D02*
X11712800Y101012800D01*
X10962800Y99672800D02*
X11712800Y99672800D01*
X18562800Y97422800D02*
X16762800Y97422800D01*
X18562800Y98172800D02*
X18562800Y97422800D01*
X16762800Y98172800D02*
X18562800Y98172800D01*
X16762800Y97422800D02*
X16762800Y98172800D01*
X12762800Y97422800D02*
X10962800Y97422800D01*
X12762800Y98172800D02*
X12762800Y97422800D01*
X10962800Y98172800D02*
X12762800Y98172800D01*
X10962800Y97422800D02*
X10962800Y98172800D01*
X15262800Y97422800D02*
X14262800Y97422800D01*
X15262800Y98172800D02*
X15262800Y97422800D01*
X14262800Y98172800D02*
X15262800Y98172800D01*
X14262800Y97422800D02*
X14262800Y98172800D01*
X18572800Y97412800D02*
X10952800Y97412800D01*
X18572800Y103382800D02*
X18572800Y97412800D01*
X10952800Y103382800D02*
X18572800Y103382800D01*
X10952800Y97412800D02*
X10952800Y103382800D01*
X-18852000Y97122800D02*
X-18852000Y98372800D01*
X-17602000Y97122800D02*
X-18852000Y97122800D01*
X-11702000Y102622800D02*
X-14752000Y102622800D01*
X-11702000Y99672800D02*
X-11702000Y102622800D01*
X-10952000Y99672800D02*
X-11702000Y99672800D01*
X-14752000Y102622800D02*
X-16742000Y102622800D01*
X-17802000Y99672800D02*
X-17802000Y101012800D01*
X-18552000Y99672800D02*
X-17802000Y99672800D01*
X-10952000Y97422800D02*
X-12752000Y97422800D01*
X-10952000Y98172800D02*
X-10952000Y97422800D01*
X-12752000Y98172800D02*
X-10952000Y98172800D01*
X-12752000Y97422800D02*
X-12752000Y98172800D01*
X-16752000Y97422800D02*
X-18552000Y97422800D01*
X-16752000Y98172800D02*
X-16752000Y97422800D01*
X-18552000Y98172800D02*
X-16752000Y98172800D01*
X-18552000Y97422800D02*
X-18552000Y98172800D01*
X-14252000Y97422800D02*
X-15252000Y97422800D01*
X-14252000Y98172800D02*
X-14252000Y97422800D01*
X-15252000Y98172800D02*
X-14252000Y98172800D01*
X-15252000Y97422800D02*
X-15252000Y98172800D01*
X-10942000Y97412800D02*
X-18562000Y97412800D01*
X-10942000Y103382800D02*
X-10942000Y97412800D01*
X-18562000Y103382800D02*
X-10942000Y103382800D01*
X-18562000Y97412800D02*
X-18562000Y103382800D01*
X-48366800Y97122800D02*
X-48366800Y98372800D01*
X-47116800Y97122800D02*
X-48366800Y97122800D01*
X-41216800Y102622800D02*
X-44266800Y102622800D01*
X-41216800Y99672800D02*
X-41216800Y102622800D01*
X-40466800Y99672800D02*
X-41216800Y99672800D01*
X-44266800Y102622800D02*
X-46256800Y102622800D01*
X-47316800Y99672800D02*
X-47316800Y101012800D01*
X-48066800Y99672800D02*
X-47316800Y99672800D01*
X-40466800Y97422800D02*
X-42266800Y97422800D01*
X-40466800Y98172800D02*
X-40466800Y97422800D01*
X-42266800Y98172800D02*
X-40466800Y98172800D01*
X-42266800Y97422800D02*
X-42266800Y98172800D01*
X-46266800Y97422800D02*
X-48066800Y97422800D01*
X-46266800Y98172800D02*
X-46266800Y97422800D01*
X-48066800Y98172800D02*
X-46266800Y98172800D01*
X-48066800Y97422800D02*
X-48066800Y98172800D01*
X-43766800Y97422800D02*
X-44766800Y97422800D01*
X-43766800Y98172800D02*
X-43766800Y97422800D01*
X-44766800Y98172800D02*
X-43766800Y98172800D01*
X-44766800Y97422800D02*
X-44766800Y98172800D01*
X-40456800Y97412800D02*
X-48076800Y97412800D01*
X-40456800Y103382800D02*
X-40456800Y97412800D01*
X-48076800Y103382800D02*
X-40456800Y103382800D01*
X-48076800Y97412800D02*
X-48076800Y103382800D01*
X-102344430Y-12407872D02*
X-103426962Y-13032872D01*
X-102969430Y-11325341D02*
X-102344430Y-12407872D01*
X-110682570Y-8965791D02*
X-109157570Y-11607168D01*
X-108127795Y-7490791D02*
X-110682570Y-8965791D01*
X-108502795Y-6841272D02*
X-108127795Y-7490791D01*
X-109157570Y-11607168D02*
X-108162570Y-13330559D01*
X-105077795Y-12773546D02*
X-106238269Y-13443546D01*
X-104702795Y-13423065D02*
X-105077795Y-12773546D01*
X-106554238Y-5716272D02*
X-105654238Y-7275117D01*
X-107203757Y-6091272D02*
X-106554238Y-5716272D01*
X-106303757Y-7650117D02*
X-107203757Y-6091272D01*
X-105654238Y-7275117D02*
X-106303757Y-7650117D01*
X-103654238Y-10739219D02*
X-102754238Y-12298065D01*
X-104303757Y-11114219D02*
X-103654238Y-10739219D01*
X-103403757Y-12673065D02*
X-104303757Y-11114219D01*
X-102754238Y-12298065D02*
X-103403757Y-12673065D01*
X-104904238Y-8574156D02*
X-104404238Y-9440181D01*
X-105553757Y-8949156D02*
X-104904238Y-8574156D01*
X-105053757Y-9815181D02*
X-105553757Y-8949156D01*
X-104404238Y-9440181D02*
X-105053757Y-9815181D01*
X-106550578Y-5702611D02*
X-102740578Y-12301725D01*
X-111720749Y-8687611D02*
X-106550578Y-5702611D01*
X-107910749Y-15286725D02*
X-111720749Y-8687611D01*
X-102740578Y-12301725D02*
X-107910749Y-15286725D01*
X-87476530Y-37963772D02*
X-88559062Y-38588772D01*
X-88101530Y-36881241D02*
X-87476530Y-37963772D01*
X-95814670Y-34521691D02*
X-94289670Y-37163068D01*
X-93259895Y-33046691D02*
X-95814670Y-34521691D01*
X-93634895Y-32397172D02*
X-93259895Y-33046691D01*
X-94289670Y-37163068D02*
X-93294670Y-38886459D01*
X-90209895Y-38329446D02*
X-91370369Y-38999446D01*
X-89834895Y-38978965D02*
X-90209895Y-38329446D01*
X-91686338Y-31272172D02*
X-90786338Y-32831017D01*
X-92335857Y-31647172D02*
X-91686338Y-31272172D01*
X-91435857Y-33206017D02*
X-92335857Y-31647172D01*
X-90786338Y-32831017D02*
X-91435857Y-33206017D01*
X-88786338Y-36295119D02*
X-87886338Y-37853965D01*
X-89435857Y-36670119D02*
X-88786338Y-36295119D01*
X-88535857Y-38228965D02*
X-89435857Y-36670119D01*
X-87886338Y-37853965D02*
X-88535857Y-38228965D01*
X-90036338Y-34130056D02*
X-89536338Y-34996081D01*
X-90685857Y-34505056D02*
X-90036338Y-34130056D01*
X-90185857Y-35371081D02*
X-90685857Y-34505056D01*
X-89536338Y-34996081D02*
X-90185857Y-35371081D01*
X-91682678Y-31258511D02*
X-87872678Y-37857625D01*
X-96852849Y-34243511D02*
X-91682678Y-31258511D01*
X-93042849Y-40842625D02*
X-96852849Y-34243511D01*
X-87872678Y-37857625D02*
X-93042849Y-40842625D01*
X-72608630Y-63519872D02*
X-73691162Y-64144872D01*
X-73233630Y-62437341D02*
X-72608630Y-63519872D01*
X-80946770Y-60077791D02*
X-79421770Y-62719168D01*
X-78391995Y-58602791D02*
X-80946770Y-60077791D01*
X-78766995Y-57953272D02*
X-78391995Y-58602791D01*
X-79421770Y-62719168D02*
X-78426770Y-64442559D01*
X-75341995Y-63885546D02*
X-76502469Y-64555546D01*
X-74966995Y-64535065D02*
X-75341995Y-63885546D01*
X-76818438Y-56828272D02*
X-75918438Y-58387117D01*
X-77467957Y-57203272D02*
X-76818438Y-56828272D01*
X-76567957Y-58762117D02*
X-77467957Y-57203272D01*
X-75918438Y-58387117D02*
X-76567957Y-58762117D01*
X-73918438Y-61851219D02*
X-73018438Y-63410065D01*
X-74567957Y-62226219D02*
X-73918438Y-61851219D01*
X-73667957Y-63785065D02*
X-74567957Y-62226219D01*
X-73018438Y-63410065D02*
X-73667957Y-63785065D01*
X-75168438Y-59686156D02*
X-74668438Y-60552181D01*
X-75817957Y-60061156D02*
X-75168438Y-59686156D01*
X-75317957Y-60927181D02*
X-75817957Y-60061156D01*
X-74668438Y-60552181D02*
X-75317957Y-60927181D01*
X-76814778Y-56814611D02*
X-73004778Y-63413725D01*
X-81984949Y-59799611D02*
X-76814778Y-56814611D01*
X-78174949Y-66398725D02*
X-81984949Y-59799611D01*
X-73004778Y-63413725D02*
X-78174949Y-66398725D01*
X-57740630Y-89075772D02*
X-58823162Y-89700772D01*
X-58365630Y-87993241D02*
X-57740630Y-89075772D01*
X-66078770Y-85633691D02*
X-64553770Y-88275068D01*
X-63523995Y-84158691D02*
X-66078770Y-85633691D01*
X-63898995Y-83509172D02*
X-63523995Y-84158691D01*
X-64553770Y-88275068D02*
X-63558770Y-89998459D01*
X-60473995Y-89441446D02*
X-61634469Y-90111446D01*
X-60098995Y-90090965D02*
X-60473995Y-89441446D01*
X-61950438Y-82384172D02*
X-61050438Y-83943017D01*
X-62599957Y-82759172D02*
X-61950438Y-82384172D01*
X-61699957Y-84318017D02*
X-62599957Y-82759172D01*
X-61050438Y-83943017D02*
X-61699957Y-84318017D01*
X-59050438Y-87407119D02*
X-58150438Y-88965965D01*
X-59699957Y-87782119D02*
X-59050438Y-87407119D01*
X-58799957Y-89340965D02*
X-59699957Y-87782119D01*
X-58150438Y-88965965D02*
X-58799957Y-89340965D01*
X-60300438Y-85242056D02*
X-59800438Y-86108081D01*
X-60949957Y-85617056D02*
X-60300438Y-85242056D01*
X-60449957Y-86483081D02*
X-60949957Y-85617056D01*
X-59800438Y-86108081D02*
X-60449957Y-86483081D01*
X-61946778Y-82370511D02*
X-58136778Y-88969625D01*
X-67116949Y-85355511D02*
X-61946778Y-82370511D01*
X-63306949Y-91954625D02*
X-67116949Y-85355511D01*
X-58136778Y-88969625D02*
X-63306949Y-91954625D01*
D10*
X59609523Y-61702380D02*
X59609523Y-62416666D01*
X59657142Y-62559523D01*
X59752380Y-62654761D01*
X59895238Y-62702380D01*
X59990476Y-62702380D01*
X58609523Y-62702380D02*
X59180952Y-62702380D01*
X58895238Y-62702380D02*
X58895238Y-61702380D01*
X58990476Y-61845238D01*
X59085714Y-61940476D01*
X59180952Y-61988095D01*
X57990476Y-61702380D02*
X57895238Y-61702380D01*
X57800000Y-61750000D01*
X57752380Y-61797619D01*
X57704761Y-61892857D01*
X57657142Y-62083333D01*
X57657142Y-62321428D01*
X57704761Y-62511904D01*
X57752380Y-62607142D01*
X57800000Y-62654761D01*
X57895238Y-62702380D01*
X57990476Y-62702380D01*
X58085714Y-62654761D01*
X58133333Y-62607142D01*
X58180952Y-62511904D01*
X58228571Y-62321428D01*
X58228571Y-62083333D01*
X58180952Y-61892857D01*
X58133333Y-61797619D01*
X58085714Y-61750000D01*
X57990476Y-61702380D01*
X59485714Y-31352380D02*
X59485714Y-32066666D01*
X59533333Y-32209523D01*
X59628571Y-32304761D01*
X59771428Y-32352380D01*
X59866666Y-32352380D01*
X58628571Y-32304761D02*
X58723809Y-32352380D01*
X58914285Y-32352380D01*
X59009523Y-32304761D01*
X59057142Y-32209523D01*
X59057142Y-31828571D01*
X59009523Y-31733333D01*
X58914285Y-31685714D01*
X58723809Y-31685714D01*
X58628571Y-31733333D01*
X58580952Y-31828571D01*
X58580952Y-31923809D01*
X59057142Y-32019047D01*
X58907819Y-84421854D02*
X59526409Y-84778997D01*
X59673936Y-84809186D01*
X59804034Y-84774326D01*
X59916702Y-84674418D01*
X59964321Y-84591939D01*
X59273845Y-85787879D02*
X59559559Y-85293008D01*
X59416702Y-85540443D02*
X58550677Y-85040443D01*
X58722014Y-85029393D01*
X58852111Y-84994534D01*
X58940970Y-84935865D01*
X57979248Y-86030187D02*
X58074486Y-85865229D01*
X58163344Y-85806560D01*
X58228393Y-85789131D01*
X58399730Y-85778081D01*
X58588497Y-85832079D01*
X58918411Y-86022556D01*
X58977080Y-86111414D01*
X58994510Y-86176463D01*
X58988131Y-86282751D01*
X58892892Y-86447708D01*
X58804034Y-86506377D01*
X58738985Y-86523807D01*
X58632697Y-86517427D01*
X58426501Y-86398380D01*
X58367831Y-86309521D01*
X58350402Y-86244472D01*
X58356781Y-86138184D01*
X58452020Y-85973227D01*
X58540878Y-85914558D01*
X58605927Y-85897128D01*
X58712215Y-85903508D01*
X73630519Y-58851454D02*
X74249109Y-59208597D01*
X74396636Y-59238786D01*
X74526734Y-59203926D01*
X74639402Y-59104018D01*
X74687021Y-59021539D01*
X73996545Y-60217479D02*
X74282259Y-59722608D01*
X74139402Y-59970043D02*
X73273377Y-59470043D01*
X73444714Y-59458993D01*
X73574811Y-59424134D01*
X73663670Y-59365465D01*
X72678138Y-60501026D02*
X72916234Y-60088633D01*
X73352436Y-60285489D01*
X73287387Y-60302919D01*
X73198529Y-60361588D01*
X73079481Y-60567784D01*
X73073102Y-60674072D01*
X73090531Y-60739121D01*
X73149201Y-60827980D01*
X73355397Y-60947027D01*
X73461685Y-60953407D01*
X73526734Y-60935977D01*
X73615592Y-60877308D01*
X73734640Y-60671112D01*
X73741020Y-60564823D01*
X73723590Y-60499775D01*
X88353519Y-33281454D02*
X88972109Y-33638597D01*
X89119636Y-33668786D01*
X89249734Y-33633926D01*
X89362402Y-33534018D01*
X89410021Y-33451539D01*
X88719545Y-34647479D02*
X89005259Y-34152608D01*
X88862402Y-34400043D02*
X87996377Y-33900043D01*
X88167714Y-33888993D01*
X88297811Y-33854134D01*
X88386670Y-33795465D01*
X87713623Y-35056453D02*
X88290973Y-35389787D01*
X87502756Y-34659781D02*
X88240393Y-34810727D01*
X87930870Y-35346838D01*
X103076119Y-7711454D02*
X103694709Y-8068597D01*
X103842236Y-8098786D01*
X103972334Y-8063926D01*
X104085002Y-7964018D01*
X104132621Y-7881539D01*
X103442145Y-9077479D02*
X103727859Y-8582608D01*
X103585002Y-8830043D02*
X102718977Y-8330043D01*
X102890314Y-8318993D01*
X103020411Y-8284134D01*
X103109270Y-8225465D01*
X102409453Y-8866154D02*
X102099929Y-9402265D01*
X102596510Y-9304066D01*
X102525081Y-9427784D01*
X102518702Y-9534072D01*
X102536131Y-9599121D01*
X102594801Y-9687980D01*
X102800997Y-9807027D01*
X102907285Y-9813407D01*
X102972334Y-9795977D01*
X103061192Y-9737308D01*
X103204050Y-9489872D01*
X103210429Y-9383584D01*
X103193000Y-9318535D01*
X44610933Y96870419D02*
X44610933Y96156133D01*
X44658552Y96013276D01*
X44753790Y95918038D01*
X44896647Y95870419D01*
X44991885Y95870419D01*
X43991885Y96441847D02*
X44087123Y96489466D01*
X44134742Y96537085D01*
X44182361Y96632323D01*
X44182361Y96679942D01*
X44134742Y96775180D01*
X44087123Y96822800D01*
X43991885Y96870419D01*
X43801409Y96870419D01*
X43706171Y96822800D01*
X43658552Y96775180D01*
X43610933Y96679942D01*
X43610933Y96632323D01*
X43658552Y96537085D01*
X43706171Y96489466D01*
X43801409Y96441847D01*
X43991885Y96441847D01*
X44087123Y96394228D01*
X44134742Y96346609D01*
X44182361Y96251371D01*
X44182361Y96060895D01*
X44134742Y95965657D01*
X44087123Y95918038D01*
X43991885Y95870419D01*
X43801409Y95870419D01*
X43706171Y95918038D01*
X43658552Y95965657D01*
X43610933Y96060895D01*
X43610933Y96251371D01*
X43658552Y96346609D01*
X43706171Y96394228D01*
X43801409Y96441847D01*
X15096133Y96870419D02*
X15096133Y96156133D01*
X15143752Y96013276D01*
X15238990Y95918038D01*
X15381847Y95870419D01*
X15477085Y95870419D01*
X14715180Y96870419D02*
X14048514Y96870419D01*
X14477085Y95870419D01*
X-14418666Y96870419D02*
X-14418666Y96156133D01*
X-14371047Y96013276D01*
X-14275809Y95918038D01*
X-14132952Y95870419D01*
X-14037714Y95870419D01*
X-15323428Y96870419D02*
X-15132952Y96870419D01*
X-15037714Y96822800D01*
X-14990095Y96775180D01*
X-14894857Y96632323D01*
X-14847238Y96441847D01*
X-14847238Y96060895D01*
X-14894857Y95965657D01*
X-14942476Y95918038D01*
X-15037714Y95870419D01*
X-15228190Y95870419D01*
X-15323428Y95918038D01*
X-15371047Y95965657D01*
X-15418666Y96060895D01*
X-15418666Y96298990D01*
X-15371047Y96394228D01*
X-15323428Y96441847D01*
X-15228190Y96489466D01*
X-15037714Y96489466D01*
X-14942476Y96441847D01*
X-14894857Y96394228D01*
X-14847238Y96298990D01*
X-43933466Y96870419D02*
X-43933466Y96156133D01*
X-43885847Y96013276D01*
X-43790609Y95918038D01*
X-43647752Y95870419D01*
X-43552514Y95870419D01*
X-44885847Y96870419D02*
X-44409657Y96870419D01*
X-44362038Y96394228D01*
X-44409657Y96441847D01*
X-44504895Y96489466D01*
X-44742990Y96489466D01*
X-44838228Y96441847D01*
X-44885847Y96394228D01*
X-44933466Y96298990D01*
X-44933466Y96060895D01*
X-44885847Y95965657D01*
X-44838228Y95918038D01*
X-44742990Y95870419D01*
X-44504895Y95870419D01*
X-44409657Y95918038D01*
X-44362038Y95965657D01*
X-103060691Y-8472033D02*
X-103679280Y-8829176D01*
X-103779189Y-8941844D01*
X-103814048Y-9071942D01*
X-103783859Y-9219469D01*
X-103736240Y-9301948D01*
X-103801747Y-7855153D02*
X-104379097Y-8188486D01*
X-103352785Y-7870873D02*
X-103852327Y-8434213D01*
X-104161851Y-7898102D01*
X-88192791Y-34027933D02*
X-88811380Y-34385076D01*
X-88911289Y-34497744D01*
X-88946148Y-34627842D01*
X-88915959Y-34775369D01*
X-88868340Y-34857848D01*
X-88383267Y-33698019D02*
X-88692791Y-33161908D01*
X-88856039Y-33641059D01*
X-88927467Y-33517341D01*
X-89016326Y-33458672D01*
X-89081374Y-33441242D01*
X-89187662Y-33447622D01*
X-89393859Y-33566670D01*
X-89452528Y-33655528D01*
X-89469958Y-33720577D01*
X-89463578Y-33826865D01*
X-89320721Y-34074301D01*
X-89231863Y-34132970D01*
X-89166814Y-34150400D01*
X-73324891Y-59584033D02*
X-73943480Y-59941176D01*
X-74043389Y-60053844D01*
X-74078248Y-60183942D01*
X-74048059Y-60331469D01*
X-74000440Y-60413948D01*
X-73621655Y-59260498D02*
X-73604225Y-59195450D01*
X-73610605Y-59089161D01*
X-73729653Y-58882965D01*
X-73818511Y-58824296D01*
X-73883560Y-58806866D01*
X-73989848Y-58813246D01*
X-74072327Y-58860865D01*
X-74172235Y-58973533D01*
X-74381392Y-59754119D01*
X-74690916Y-59218008D01*
X-58456891Y-85139933D02*
X-59075480Y-85497076D01*
X-59175389Y-85609744D01*
X-59210248Y-85739842D01*
X-59180059Y-85887369D01*
X-59132440Y-85969848D01*
X-59822916Y-84773908D02*
X-59537202Y-85268779D01*
X-59680059Y-85021344D02*
X-58814034Y-84521344D01*
X-58890133Y-84675251D01*
X-58924992Y-84805348D01*
X-58918612Y-84911637D01*
M02*
