<svg width="320mm" height="277.128mm" viewBox="0 0 320 277.128" xmlns="http://www.w3.org/2000/svg"><g id="svgGroup" stroke-linecap="round" fill-rule="evenodd" font-size="9pt" stroke="#000" stroke-width="0.25mm" fill="none" style="stroke:#000;stroke-width:0.25mm;fill:none"><path d="M 320 138.564 L 240 0 L 80 0 L 0 138.564 L 80 277.128 L 240 277.128 L 320 138.564 Z M 42.013 138.564 m -12 0 a 12 12 0 0 1 24 0 a 12 12 0 0 1 -24 0 z M 56.761 113.019 m -12 0 a 12 12 0 0 1 24 0 a 12 12 0 0 1 -24 0 z M 71.51 87.474 m -12 0 a 12 12 0 0 1 24 0 a 12 12 0 0 1 -24 0 z M 86.258 61.929 m -12 0 a 12 12 0 0 1 24 0 a 12 12 0 0 1 -24 0 z M 101.006 36.384 m -12 0 a 12 12 0 0 1 24 0 a 12 12 0 0 1 -24 0 z M 56.761 164.109 m -12 0 a 12 12 0 0 1 24 0 a 12 12 0 0 1 -24 0 z M 71.51 138.564 m -12 0 a 12 12 0 0 1 24 0 a 12 12 0 0 1 -24 0 z M 86.258 113.019 m -12 0 a 12 12 0 0 1 24 0 a 12 12 0 0 1 -24 0 z M 101.006 87.474 m -12 0 a 12 12 0 0 1 24 0 a 12 12 0 0 1 -24 0 z M 115.755 61.929 m -12 0 a 12 12 0 0 1 24 0 a 12 12 0 0 1 -24 0 z M 130.503 36.384 m -12 0 a 12 12 0 0 1 24 0 a 12 12 0 0 1 -24 0 z M 71.51 189.654 m -12 0 a 12 12 0 0 1 24 0 a 12 12 0 0 1 -24 0 z M 86.258 164.109 m -12 0 a 12 12 0 0 1 24 0 a 12 12 0 0 1 -24 0 z M 101.006 138.564 m -12 0 a 12 12 0 0 1 24 0 a 12 12 0 0 1 -24 0 z M 115.755 113.019 m -12 0 a 12 12 0 0 1 24 0 a 12 12 0 0 1 -24 0 z M 130.503 87.474 m -12 0 a 12 12 0 0 1 24 0 a 12 12 0 0 1 -24 0 z M 145.252 61.929 m -12 0 a 12 12 0 0 1 24 0 a 12 12 0 0 1 -24 0 z M 160 36.384 m -12 0 a 12 12 0 0 1 24 0 a 12 12 0 0 1 -24 0 z M 86.258 215.199 m -12 0 a 12 12 0 0 1 24 0 a 12 12 0 0 1 -24 0 z M 101.006 189.654 m -12 0 a 12 12 0 0 1 24 0 a 12 12 0 0 1 -24 0 z M 115.755 164.109 m -12 0 a 12 12 0 0 1 24 0 a 12 12 0 0 1 -24 0 z M 130.503 138.564 m -12 0 a 12 12 0 0 1 24 0 a 12 12 0 0 1 -24 0 z M 145.252 113.019 m -12 0 a 12 12 0 0 1 24 0 a 12 12 0 0 1 -24 0 z M 160 87.474 m -12 0 a 12 12 0 0 1 24 0 a 12 12 0 0 1 -24 0 z M 174.748 61.929 m -12 0 a 12 12 0 0 1 24 0 a 12 12 0 0 1 -24 0 z M 189.497 36.384 m -12 0 a 12 12 0 0 1 24 0 a 12 12 0 0 1 -24 0 z M 101.006 240.744 m -12 0 a 12 12 0 0 1 24 0 a 12 12 0 0 1 -24 0 z M 115.755 215.199 m -12 0 a 12 12 0 0 1 24 0 a 12 12 0 0 1 -24 0 z M 130.503 189.654 m -12 0 a 12 12 0 0 1 24 0 a 12 12 0 0 1 -24 0 z M 145.252 164.109 m -12 0 a 12 12 0 0 1 24 0 a 12 12 0 0 1 -24 0 z M 160 138.564 m -12 0 a 12 12 0 0 1 24 0 a 12 12 0 0 1 -24 0 z M 174.748 113.019 m -12 0 a 12 12 0 0 1 24 0 a 12 12 0 0 1 -24 0 z M 189.497 87.474 m -12 0 a 12 12 0 0 1 24 0 a 12 12 0 0 1 -24 0 z M 204.245 61.929 m -12 0 a 12 12 0 0 1 24 0 a 12 12 0 0 1 -24 0 z M 218.994 36.384 m -12 0 a 12 12 0 0 1 24 0 a 12 12 0 0 1 -24 0 z M 130.503 240.744 m -12 0 a 12 12 0 0 1 24 0 a 12 12 0 0 1 -24 0 z M 145.252 215.199 m -12 0 a 12 12 0 0 1 24 0 a 12 12 0 0 1 -24 0 z M 160 189.654 m -12 0 a 12 12 0 0 1 24 0 a 12 12 0 0 1 -24 0 z M 174.748 164.109 m -12 0 a 12 12 0 0 1 24 0 a 12 12 0 0 1 -24 0 z M 189.497 138.564 m -12 0 a 12 12 0 0 1 24 0 a 12 12 0 0 1 -24 0 z M 204.245 113.019 m -12 0 a 12 12 0 0 1 24 0 a 12 12 0 0 1 -24 0 z M 218.994 87.474 m -12 0 a 12 12 0 0 1 24 0 a 12 12 0 0 1 -24 0 z M 233.742 61.929 m -12 0 a 12 12 0 0 1 24 0 a 12 12 0 0 1 -24 0 z M 160 240.744 m -12 0 a 12 12 0 0 1 24 0 a 12 12 0 0 1 -24 0 z M 174.748 215.199 m -12 0 a 12 12 0 0 1 24 0 a 12 12 0 0 1 -24 0 z M 189.497 189.654 m -12 0 a 12 12 0 0 1 24 0 a 12 12 0 0 1 -24 0 z M 204.245 164.109 m -12 0 a 12 12 0 0 1 24 0 a 12 12 0 0 1 -24 0 z M 218.994 138.564 m -12 0 a 12 12 0 0 1 24 0 a 12 12 0 0 1 -24 0 z M 233.742 113.019 m -12 0 a 12 12 0 0 1 24 0 a 12 12 0 0 1 -24 0 z M 248.49 87.474 m -12 0 a 12 12 0 0 1 24 0 a 12 12 0 0 1 -24 0 z M 189.497 240.744 m -12 0 a 12 12 0 0 1 24 0 a 12 12 0 0 1 -24 0 z M 204.245 215.199 m -12 0 a 12 12 0 0 1 24 0 a 12 12 0 0 1 -24 0 z M 218.994 189.654 m -12 0 a 12 12 0 0 1 24 0 a 12 12 0 0 1 -24 0 z M 233.742 164.109 m -12 0 a 12 12 0 0 1 24 0 a 12 12 0 0 1 -24 0 z M 248.49 138.564 m -12 0 a 12 12 0 0 1 24 0 a 12 12 0 0 1 -24 0 z M 263.239 113.019 m -12 0 a 12 12 0 0 1 24 0 a 12 12 0 0 1 -24 0 z M 218.994 240.744 m -12 0 a 12 12 0 0 1 24 0 a 12 12 0 0 1 -24 0 z M 233.742 215.199 m -12 0 a 12 12 0 0 1 24 0 a 12 12 0 0 1 -24 0 z M 248.49 189.654 m -12 0 a 12 12 0 0 1 24 0 a 12 12 0 0 1 -24 0 z M 263.239 164.109 m -12 0 a 12 12 0 0 1 24 0 a 12 12 0 0 1 -24 0 z M 277.987 138.564 m -12 0 a 12 12 0 0 1 24 0 a 12 12 0 0 1 -24 0 z M 16.24 138.564 m -1.7 0 a 1.7 1.7 0 0 1 3.4 0 a 1.7 1.7 0 0 1 -3.4 0 z M 88.12 14.064 m -1.7 0 a 1.7 1.7 0 0 1 3.4 0 a 1.7 1.7 0 0 1 -3.4 0 z M 88.12 263.064 m -1.7 0 a 1.7 1.7 0 0 1 3.4 0 a 1.7 1.7 0 0 1 -3.4 0 z M 160 138.564 m -1.7 0 a 1.7 1.7 0 0 1 3.4 0 a 1.7 1.7 0 0 1 -3.4 0 z M 231.88 14.064 m -1.7 0 a 1.7 1.7 0 0 1 3.4 0 a 1.7 1.7 0 0 1 -3.4 0 z M 231.88 263.064 m -1.7 0 a 1.7 1.7 0 0 1 3.4 0 a 1.7 1.7 0 0 1 -3.4 0 z M 303.76 138.564 m -1.7 0 a 1.7 1.7 0 0 1 3.4 0 a 1.7 1.7 0 0 1 -3.4 0 z" vector-effect="non-scaling-stroke"/></g></svg>